<svg width="33" height="45" viewBox="0 0 33 45" fill="none" xmlns="http://www.w3.org/2000/svg">
<path fill-rule="evenodd" clip-rule="evenodd" d="M16.5 12.751C25.613 12.751 33 19.9698 33 28.8755C33 37.7811 25.613 45 16.5 45C7.38697 45 0 37.7811 0 28.8755C0 19.9698 7.38697 12.751 16.5 12.751Z" fill="url(#paint0_radial_105_10)"/>
<path style="mix-blend-mode:multiply" fill-rule="evenodd" clip-rule="evenodd" d="M16.5 12.751C25.613 12.751 33 19.9698 33 28.8755C33 37.7811 25.613 45 16.5 45C7.38697 45 0 37.7811 0 28.8755C0 19.9698 7.38697 12.751 16.5 12.751Z" fill="url(#paint1_radial_105_10)"/>
<path style="mix-blend-mode:screen" opacity="0.4" fill-rule="evenodd" clip-rule="evenodd" d="M21.5905 16.7678C25.3059 20.3987 24.5306 27.0457 19.8644 31.6058C15.1982 36.1658 8.3963 36.9234 4.68088 33.2926C0.96545 29.6617 1.74072 23.0146 6.40694 18.4546C11.0732 13.8945 17.875 13.1369 21.5905 16.7678Z" fill="url(#paint2_radial_105_10)"/>
<path style="mix-blend-mode:screen" opacity="0.75" fill-rule="evenodd" clip-rule="evenodd" d="M7.05055 19.2265C10.7514 15.6099 16.0319 14.9238 18.8697 17.6827C21.7075 20.4416 20.9907 25.6163 17.2899 29.2329C13.5891 32.8494 8.30853 33.5356 5.47077 30.7767C2.633 28.0178 3.34976 22.8431 7.05055 19.2265Z" fill="url(#paint3_radial_105_10)"/>
<path style="mix-blend-mode:screen" fill-rule="evenodd" clip-rule="evenodd" d="M28.7433 20.5273C30.2207 22.8002 31.0545 25.5019 31.0545 28.3895C31.0545 36.5947 24.2527 43.2274 15.871 43.2274C13.5891 43.2274 11.4388 42.7414 9.49335 41.8551C10.6636 42.1267 11.8923 42.2697 13.1503 42.2697C21.8245 42.2697 28.8457 35.4082 28.8457 26.9314C28.8457 24.244 28.1436 21.7281 26.9003 19.5267C26.4029 18.6404 28.1582 19.5839 28.758 20.4987L28.7433 20.5273Z" fill="url(#paint4_radial_105_10)"/>
<path style="mix-blend-mode:screen" fill-rule="evenodd" clip-rule="evenodd" d="M16.5 12.751C25.613 12.751 33 19.9698 33 28.8755C33 37.7811 25.613 45 16.5 45C7.38697 45 0 37.7811 0 28.8755C0 19.9698 7.38697 12.751 16.5 12.751Z" fill="url(#paint5_radial_105_10)"/>
<path fill-rule="evenodd" clip-rule="evenodd" d="M22.4681 8.77701L31.3325 13.7802L28.2168 18.1544C27.8365 18.7977 25.7154 18.2973 23.492 17.0394C21.2686 15.7815 19.762 14.2376 20.1423 13.5944L22.4681 8.77701Z" fill="url(#paint6_radial_105_10)"/>
<path fill-rule="evenodd" clip-rule="evenodd" d="M27.6463 10.0064C30.0891 11.393 31.742 13.0797 31.3178 13.7802C30.8936 14.4806 28.5824 13.9374 26.125 12.5651C23.6822 11.1785 22.0292 9.49174 22.4534 8.7913C22.8776 8.09085 25.1888 8.63406 27.6463 10.0064Z" fill="url(#paint7_radial_105_10)"/>
<g style="mix-blend-mode:multiply" opacity="0.5">
<path fill-rule="evenodd" clip-rule="evenodd" d="M20.508 14.7379C21.2978 13.1655 22.0731 11.5931 22.863 10.0207C22.4827 9.54893 22.3072 9.13438 22.4242 8.84848L20.1423 13.6086L20.113 13.6658C20.0106 13.9231 20.1715 14.2948 20.5226 14.7379H20.508Z" fill="#1181C7"/>
</g>
<path style="mix-blend-mode:screen" fill-rule="evenodd" clip-rule="evenodd" d="M23.6822 10.8497C22.8776 12.3936 22.0585 13.9374 21.254 15.4813C21.6635 15.8386 22.1609 16.2103 22.7167 16.582C23.5798 15.0667 24.4282 13.5658 25.2912 12.0505C24.6768 11.6503 24.121 11.2357 23.6822 10.8497Z" fill="url(#paint8_radial_105_10)"/>
<path style="mix-blend-mode:screen" opacity="0.6" fill-rule="evenodd" clip-rule="evenodd" d="M28.8896 13.7945C27.9242 15.2525 26.9588 16.7106 25.9933 18.1687C27.1197 18.5261 27.9827 18.5546 28.2168 18.1687L31.2886 13.8517C30.9814 14.209 30.0745 14.1661 28.8896 13.7945Z" fill="url(#paint9_linear_105_10)"/>
<path d="M27.5732 11.6645C27.3099 11.9076 26.3883 11.6217 26.1689 11.0642C25.9934 10.621 26.6516 9.74905 26.9734 9.49174C27.0905 8.91995 27.6902 7.51906 28.0559 7.10451C27.9389 6.80432 28.0559 5.23189 28.3777 4.77446C28.1436 4.45998 27.8365 2.60165 28.012 2.1871C27.5439 1.51525 27.6463 0.371665 28.5825 0.0571799C29.2407 -0.171537 29.9282 0.228717 30.0014 0.871983C30.4109 1.27224 30.7035 3.10197 30.5426 3.74524C30.7912 4.30273 30.5133 5.98952 30.3085 6.46125C30.4256 7.17599 29.6649 8.59117 29.387 9.00572C29.2115 9.86341 28.3045 10.9784 27.5439 11.6503L27.5732 11.6645Z" fill="url(#paint10_radial_105_10)"/>
<g style="mix-blend-mode:multiply">
<path fill-rule="evenodd" clip-rule="evenodd" d="M29.7527 3.91678C30.8351 4.05972 30.2061 6.18965 28.992 6.64708C30.762 6.66138 29.4309 8.71983 28.3192 9.00572C29.387 9.67758 27.7194 11.7503 26.2567 11.2214C26.5638 11.6646 27.3391 11.8647 27.5731 11.6503C28.3338 10.9641 29.2407 9.86341 29.4162 9.00572C29.6942 8.59117 30.4548 7.16169 30.3378 6.46125C30.5279 5.98952 30.8205 4.30273 30.5718 3.74524C30.7327 3.10197 30.4402 1.28653 30.0306 0.871985C29.9575 0.314488 29.4309 -0.0714709 28.8604 3.02587e-06C29.387 0.0857718 29.6649 0.543205 29.3285 1.115C30.3963 1.15788 30.484 3.14486 29.7673 3.90248L29.7527 3.91678Z" fill="#CBBBA0"/>
</g>
<path style="mix-blend-mode:screen" fill-rule="evenodd" clip-rule="evenodd" d="M28.1875 0.471729C27.8657 0.829099 27.734 1.60102 27.9827 1.84403C28.0412 1.90121 28.1582 1.9298 28.2167 1.87262C28.5239 1.6439 29.0359 1.04352 29.109 0.657561C29.2553 -0.0285885 28.5239 0.0857698 28.1728 0.471729H28.1875ZM29.0944 1.61531C28.8018 1.85832 28.3923 2.21569 28.3484 2.27287C28.246 2.38723 28.1728 2.54447 28.1436 2.70172C28.0851 3.0305 28.1436 3.5594 28.2314 3.97395C28.3045 4.35991 28.5239 4.60292 28.8165 4.3885C29.2992 4.04543 29.8404 3.58799 29.972 2.98761C30.0598 2.64454 30.0598 2.24428 30.0306 1.94409C29.9574 1.34371 29.5478 1.21506 29.0944 1.60102V1.61531ZM29.4162 4.34562C29.1529 4.48856 28.875 4.61722 28.6556 4.83164C28.3338 5.13183 28.0119 6.37548 28.2167 6.60419C28.2752 6.67567 28.4069 6.67567 28.4947 6.64708C29.3138 6.40407 29.7819 5.86087 30.0013 5.06036C30.1622 4.50286 30.1037 4.00254 29.4016 4.35991L29.4162 4.34562ZM29.2553 6.80432C28.8165 6.80432 28.1728 7.20458 27.9388 7.56194C27.6755 7.9622 27.4561 8.37675 27.2806 8.81989C27.2367 8.93425 27.1782 9.0629 27.1782 9.17726C27.1782 9.27732 27.3391 9.26303 27.5292 9.20585C27.8364 9.10578 28.5385 8.777 28.8018 8.60546C29.2407 8.30527 29.8404 7.56194 29.5917 7.00445C29.5332 6.89009 29.3869 6.80432 29.2553 6.81862V6.80432ZM27.9973 9.3345C27.2367 9.40597 26.6077 9.84911 26.3444 10.5496C26.3151 10.6353 26.2859 10.764 26.3444 10.8212C26.754 11.1213 28.0558 10.3208 28.3338 9.80623C28.48 9.52033 28.3045 9.29161 27.9827 9.3202L27.9973 9.3345Z" fill="url(#paint11_radial_105_10)"/>
<path style="mix-blend-mode:screen" opacity="0.35" fill-rule="evenodd" clip-rule="evenodd" d="M9.27395 18.283C12.1117 16.4819 15.5638 16.7535 16.9681 18.8691C18.3724 20.999 17.2168 24.1725 14.3644 25.9736C11.5266 27.7748 8.07448 27.5032 6.67023 25.3876C5.26597 23.2576 6.42156 20.0842 9.27395 18.283Z" fill="url(#paint12_radial_105_10)"/>
<defs>
<radialGradient id="paint0_radial_105_10" cx="0" cy="0" r="1" gradientUnits="userSpaceOnUse" gradientTransform="translate(12.8723 19.5696) scale(25.9934 25.4018)">
<stop stop-color="#4D6187"/>
<stop offset="0.88" stop-color="#0F2036"/>
</radialGradient>
<radialGradient id="paint1_radial_105_10" cx="0" cy="0" r="1" gradientUnits="userSpaceOnUse" gradientTransform="translate(16.734 34.9651) scale(30.0745 29.3901)">
<stop offset="0.54" stop-color="white"/>
<stop offset="0.58" stop-color="#EDEDED"/>
<stop offset="0.68" stop-color="#BFBFBF"/>
<stop offset="0.81" stop-color="#747474"/>
<stop offset="0.98" stop-color="#0F0F0F"/>
<stop offset="1"/>
</radialGradient>
<radialGradient id="paint2_radial_105_10" cx="0" cy="0" r="1" gradientUnits="userSpaceOnUse" gradientTransform="translate(8.41093 15.2668) scale(22.2926 21.7853)">
<stop stop-color="#312169"/>
<stop offset="1"/>
</radialGradient>
<radialGradient id="paint3_radial_105_10" cx="0" cy="0" r="1" gradientUnits="userSpaceOnUse" gradientTransform="translate(4.37369 13.8088) scale(27.8218 27.1887)">
<stop stop-color="#232C69"/>
<stop offset="1"/>
</radialGradient>
<radialGradient id="paint4_radial_105_10" cx="0" cy="0" r="1" gradientUnits="userSpaceOnUse" gradientTransform="translate(15.5053 18.4403) scale(25.5838 25.0016)">
<stop stop-color="#232C69"/>
<stop offset="1"/>
</radialGradient>
<radialGradient id="paint5_radial_105_10" cx="0" cy="0" r="1" gradientUnits="userSpaceOnUse" gradientTransform="translate(15.1689 27.4317) scale(19.25 18.8119)">
<stop offset="0.83"/>
<stop offset="0.85" stop-color="#000711"/>
<stop offset="0.9" stop-color="#001B3F"/>
<stop offset="0.96" stop-color="#003B89"/>
<stop offset="1" stop-color="#0052BD"/>
</radialGradient>
<radialGradient id="paint6_radial_105_10" cx="0" cy="0" r="1" gradientUnits="userSpaceOnUse" gradientTransform="translate(25.1888 10.0349) scale(12.7114 12.4222)">
<stop stop-color="#4D6187"/>
<stop offset="0.86" stop-color="#0F2036"/>
</radialGradient>
<radialGradient id="paint7_radial_105_10" cx="0" cy="0" r="1" gradientUnits="userSpaceOnUse" gradientTransform="translate(22.2779 12.0934) scale(13.8963 13.5801)">
<stop stop-color="#374969"/>
<stop offset="0.86" stop-color="#141B24"/>
</radialGradient>
<radialGradient id="paint8_radial_105_10" cx="0" cy="0" r="1" gradientUnits="userSpaceOnUse" gradientTransform="translate(21.2247 9.13437) scale(10.4734 10.2351)">
<stop stop-color="#232C69"/>
<stop offset="1"/>
</radialGradient>
<linearGradient id="paint9_linear_105_10" x1="26.6955" y1="14.6665" x2="29.3164" y2="16.5674" gradientUnits="userSpaceOnUse">
<stop offset="0.17"/>
<stop offset="0.28" stop-color="#000711"/>
<stop offset="0.5" stop-color="#001B3F"/>
<stop offset="0.8" stop-color="#003B89"/>
<stop offset="1" stop-color="#0052BD"/>
</linearGradient>
<radialGradient id="paint10_radial_105_10" cx="0" cy="0" r="1" gradientUnits="userSpaceOnUse" gradientTransform="translate(26.7101 0.571793) scale(12.7261 12.4365)">
<stop stop-color="#AD8550"/>
<stop offset="0.37" stop-color="#95713D"/>
<stop offset="1" stop-color="#664918"/>
</radialGradient>
<radialGradient id="paint11_radial_105_10" cx="0" cy="0" r="1" gradientUnits="userSpaceOnUse" gradientTransform="translate(25.8178 5.30337) scale(6.26064 6.11817)">
<stop offset="0.35" stop-color="#B17F4A"/>
<stop offset="1"/>
</radialGradient>
<radialGradient id="paint12_radial_105_10" cx="0" cy="0" r="1" gradientUnits="userSpaceOnUse" gradientTransform="translate(4.94938 10.2604) rotate(11.8129) scale(19.5379 19.131)">
<stop stop-color="#636BA3"/>
<stop offset="1"/>
</radialGradient>
</defs>
</svg>
