<svg width="209" height="68" viewBox="0 0 209 68" fill="none" xmlns="http://www.w3.org/2000/svg">
<path fill-rule="evenodd" clip-rule="evenodd" d="M5.00779 19.6478H81.4521L86.4599 34L81.4521 48.3522H5.00779L0 34L5.00779 19.6478Z" fill="url(#paint0_linear_14_13567)"/>
<path fill-rule="evenodd" clip-rule="evenodd" d="M5.97308 21.0951L1.5083 34L5.97308 46.9652H80.4866L84.9514 34L80.4866 21.0951H5.97308Z" fill="#9B9B9B"/>
<path fill-rule="evenodd" clip-rule="evenodd" d="M6.99898 22.4821L2.95654 34L6.99898 45.518H79.4612L83.5036 34L79.4612 22.4821H6.99898Z" fill="url(#paint1_radial_14_13567)"/>
<path fill-rule="evenodd" clip-rule="evenodd" d="M5.97317 21.0951H80.4867L81.4521 19.6478H5.00781L5.97317 21.0951Z" fill="url(#paint2_linear_14_13567)"/>
<path fill-rule="evenodd" clip-rule="evenodd" d="M80.4867 21.0951H5.97314L6.99884 22.4821H79.461L80.4867 21.0951Z" fill="url(#paint3_linear_14_13567)"/>
<path fill-rule="evenodd" clip-rule="evenodd" d="M79.461 45.5179H6.99884L5.97314 46.9652H80.4867L79.461 45.5179Z" fill="url(#paint4_linear_14_13567)"/>
<path fill-rule="evenodd" clip-rule="evenodd" d="M80.4867 46.9652H5.97317L5.00781 48.3522H81.4521L80.4867 46.9652Z" fill="url(#paint5_linear_14_13567)"/>
<path fill-rule="evenodd" clip-rule="evenodd" d="M4.76646 43.5279L1.50837 34H0L3.31842 43.5279L5.00779 48.3522L5.97315 46.9652L4.76646 43.5279Z" fill="url(#paint6_linear_14_13567)"/>
<path fill-rule="evenodd" clip-rule="evenodd" d="M1.5083 34L4.76638 43.5279L5.97308 46.9652L6.99877 45.518L6.27476 43.5279L2.95634 34H1.5083Z" fill="url(#paint7_linear_14_13567)"/>
<path fill-rule="evenodd" clip-rule="evenodd" d="M1.50837 34L4.76646 24.4721L5.97315 21.0951L5.00779 19.6478L3.31842 24.4721L0 34H1.50837Z" fill="url(#paint8_linear_14_13567)"/>
<path fill-rule="evenodd" clip-rule="evenodd" d="M5.97308 21.0951L4.76638 24.4721L1.5083 34H2.95634L6.27476 24.4721L6.99877 22.4821L5.97308 21.0951Z" fill="url(#paint9_linear_14_13567)"/>
<path fill-rule="evenodd" clip-rule="evenodd" d="M81.6935 43.5279L84.9516 34H86.46L83.1415 43.5279L81.4522 48.3522L80.4868 46.9652L81.6935 43.5279Z" fill="#999999"/>
<path fill-rule="evenodd" clip-rule="evenodd" d="M84.9514 34L81.6933 43.5279L80.4866 46.9652L79.4609 45.518L80.185 43.5279L83.5034 34H84.9514Z" fill="#7B7B7B"/>
<path fill-rule="evenodd" clip-rule="evenodd" d="M84.9516 34L81.6935 24.4721L80.4868 21.0951L81.4522 19.6478L83.1415 24.4721L86.46 34H84.9516Z" fill="#B4B4B4"/>
<path fill-rule="evenodd" clip-rule="evenodd" d="M80.4866 21.0951L81.6933 24.4721L84.9514 34H83.5034L80.185 24.4721L79.4609 22.4821L80.4866 21.0951Z" fill="url(#paint10_linear_14_13567)"/>
<path fill-rule="evenodd" clip-rule="evenodd" d="M43.26 46.5431C55.3873 46.5431 66.8509 46.6637 77.1078 46.9652H9.41211C19.6087 46.724 31.0723 46.5431 43.26 46.5431Z" fill="white"/>
<path fill-rule="evenodd" clip-rule="evenodd" d="M127.548 19.6478H204.052L209 34L204.052 48.3522H127.548L122.54 34L127.548 19.6478Z" fill="url(#paint11_linear_14_13567)"/>
<path fill-rule="evenodd" clip-rule="evenodd" d="M128.513 21.0951L124.048 34L128.513 46.9652H203.027L207.552 34L203.027 21.0951H128.513Z" fill="#9B9B9B"/>
<path fill-rule="evenodd" clip-rule="evenodd" d="M129.539 22.4821L125.557 34L129.539 45.518H202.001L206.043 34L202.001 22.4821H129.539Z" fill="url(#paint12_radial_14_13567)"/>
<path fill-rule="evenodd" clip-rule="evenodd" d="M128.513 21.0951H203.027L204.052 19.6478H127.548L128.513 21.0951Z" fill="url(#paint13_linear_14_13567)"/>
<path fill-rule="evenodd" clip-rule="evenodd" d="M203.027 21.0951H128.513L129.539 22.4821H202.001L203.027 21.0951Z" fill="url(#paint14_linear_14_13567)"/>
<path fill-rule="evenodd" clip-rule="evenodd" d="M202.001 45.5179H129.539L128.513 46.9652H203.027L202.001 45.5179Z" fill="url(#paint15_linear_14_13567)"/>
<path fill-rule="evenodd" clip-rule="evenodd" d="M203.027 46.9652H128.513L127.548 48.3522H204.052L203.027 46.9652Z" fill="url(#paint16_linear_14_13567)"/>
<path fill-rule="evenodd" clip-rule="evenodd" d="M127.367 43.5279L124.048 34H122.54L125.858 43.5279L127.548 48.3522L128.513 46.9652L127.367 43.5279Z" fill="#999999"/>
<path fill-rule="evenodd" clip-rule="evenodd" d="M124.048 34L127.367 43.5279L128.513 46.9652L129.539 45.518L128.815 43.5279L125.557 34H124.048Z" fill="#7B7B7B"/>
<path fill-rule="evenodd" clip-rule="evenodd" d="M124.048 34L127.367 24.4721L128.513 21.0951L127.548 19.6478L125.858 24.4721L122.54 34H124.048Z" fill="#B4B4B4"/>
<path fill-rule="evenodd" clip-rule="evenodd" d="M128.513 21.0951L127.367 24.4721L124.048 34H125.557L128.815 24.4721L129.539 22.4821L128.513 21.0951Z" fill="url(#paint17_linear_14_13567)"/>
<path fill-rule="evenodd" clip-rule="evenodd" d="M204.234 43.5279L207.552 34H209L205.682 43.5279L204.053 48.3522L203.027 46.9652L204.234 43.5279Z" fill="url(#paint18_linear_14_13567)"/>
<path fill-rule="evenodd" clip-rule="evenodd" d="M207.552 34L204.234 43.5279L203.027 46.9652L202.001 45.518L202.725 43.5279L206.044 34H207.552Z" fill="url(#paint19_linear_14_13567)"/>
<path fill-rule="evenodd" clip-rule="evenodd" d="M207.552 34L204.234 24.4721L203.027 21.0951L204.053 19.6478L205.682 24.4721L209 34H207.552Z" fill="url(#paint20_linear_14_13567)"/>
<path fill-rule="evenodd" clip-rule="evenodd" d="M203.027 21.0951L204.234 24.4721L207.552 34H206.044L202.725 24.4721L202.001 22.4821L203.027 21.0951Z" fill="url(#paint21_linear_14_13567)"/>
<path fill-rule="evenodd" clip-rule="evenodd" d="M165.8 46.5431C177.928 46.5431 189.391 46.6637 199.648 46.9652H132.013C142.209 46.724 153.673 46.5431 165.861 46.5431H165.8Z" fill="white"/>
<path fill-rule="evenodd" clip-rule="evenodd" d="M15.9888 0.833145H193.011L204.535 34L193.011 67.2272H15.9888L4.46484 34L15.9888 0.833145Z" fill="url(#paint22_linear_14_13567)"/>
<path fill-rule="evenodd" clip-rule="evenodd" d="M18.3417 4.02923L7.90381 34L18.3417 63.9708H190.718L201.096 34L190.718 4.02923H18.3417Z" fill="#9B9B9B"/>
<path fill-rule="evenodd" clip-rule="evenodd" d="M20.6343 7.28561L11.3428 34L20.6343 60.7144H188.365L197.657 34L188.365 7.28561H20.6343Z" fill="url(#paint23_linear_14_13567)"/>
<path fill-rule="evenodd" clip-rule="evenodd" d="M18.3418 4.02922H190.719L193.011 0.833145H15.9888L18.3418 4.02922Z" fill="url(#paint24_linear_14_13567)"/>
<path fill-rule="evenodd" clip-rule="evenodd" d="M190.719 4.02923H18.3418L20.6345 7.28561H188.365L190.719 4.02923Z" fill="url(#paint25_linear_14_13567)"/>
<path fill-rule="evenodd" clip-rule="evenodd" d="M188.365 60.7144H20.6345L18.3418 63.9708H190.719L188.365 60.7144Z" fill="url(#paint26_linear_14_13567)"/>
<path fill-rule="evenodd" clip-rule="evenodd" d="M190.719 63.9708H18.3418L15.9888 67.2272H193.011L190.719 63.9708Z" fill="url(#paint27_linear_14_13567)"/>
<path fill-rule="evenodd" clip-rule="evenodd" d="M15.5665 56.0107L7.90393 34H4.46484L12.1274 56.0107L15.9888 67.2272L18.3419 63.9708L15.5665 56.0107Z" fill="url(#paint28_linear_14_13567)"/>
<path fill-rule="evenodd" clip-rule="evenodd" d="M7.90381 34L15.5663 56.0107L18.3417 63.9708L20.6345 60.7144L19.0054 56.0107L11.3429 34H7.90381Z" fill="url(#paint29_linear_14_13567)"/>
<path fill-rule="evenodd" clip-rule="evenodd" d="M7.90393 34L15.5665 11.9893L18.3419 4.02922L15.9888 0.833145L12.1274 11.9893L4.46484 34H7.90393Z" fill="url(#paint30_linear_14_13567)"/>
<path fill-rule="evenodd" clip-rule="evenodd" d="M18.3417 4.02923L15.5663 11.9893L7.90381 34H11.3429L19.0054 11.9893L20.6345 7.28561L18.3417 4.02923Z" fill="url(#paint31_linear_14_13567)"/>
<path fill-rule="evenodd" clip-rule="evenodd" d="M193.434 56.0107L201.096 34H204.535L196.873 56.0107L193.011 67.2272L190.719 63.9708L193.434 56.0107Z" fill="url(#paint32_linear_14_13567)"/>
<path fill-rule="evenodd" clip-rule="evenodd" d="M201.096 34L193.434 56.0107L190.719 63.9708L188.365 60.7144L189.995 56.0107L197.657 34H201.096Z" fill="url(#paint33_linear_14_13567)"/>
<path fill-rule="evenodd" clip-rule="evenodd" d="M201.096 34L193.434 11.9893L190.719 4.02922L193.011 0.833145L196.873 11.9893L204.535 34H201.096Z" fill="url(#paint34_linear_14_13567)"/>
<path fill-rule="evenodd" clip-rule="evenodd" d="M190.719 4.02923L193.434 11.9893L201.096 34H197.657L189.995 11.9893L188.365 7.28561L190.719 4.02923Z" fill="url(#paint35_linear_14_13567)"/>
<path fill-rule="evenodd" clip-rule="evenodd" d="M20.6345 7.28561L22.9272 10.542H186.073L188.365 7.28561H20.6345Z" fill="url(#paint36_linear_14_13567)"/>
<path fill-rule="evenodd" clip-rule="evenodd" d="M14.7819 34H11.3428L20.6343 7.28561L22.9271 10.542L14.7819 34Z" fill="url(#paint37_linear_14_13567)"/>
<path fill-rule="evenodd" clip-rule="evenodd" d="M20.6345 60.7144L22.9272 57.458H186.073L188.365 60.7144H20.6345Z" fill="url(#paint38_linear_14_13567)"/>
<path fill-rule="evenodd" clip-rule="evenodd" d="M14.7819 34H11.3428L20.6343 60.7144L22.9271 57.458L14.7819 34Z" fill="url(#paint39_linear_14_13567)"/>
<path fill-rule="evenodd" clip-rule="evenodd" d="M194.218 34H197.657L188.365 7.28561L186.073 10.542L194.218 34Z" fill="url(#paint40_linear_14_13567)"/>
<path fill-rule="evenodd" clip-rule="evenodd" d="M194.218 34H197.657L188.365 60.7144L186.073 57.458L194.218 34Z" fill="url(#paint41_linear_14_13567)"/>
<g style="mix-blend-mode:screen">
<path fill-rule="evenodd" clip-rule="evenodd" d="M104.5 9.63745C132.616 9.63745 159.163 9.99927 182.754 10.6023H26.2456C49.8969 9.99927 76.4442 9.63745 104.5 9.63745Z" fill="#62BBC9"/>
</g>
<path style="mix-blend-mode:screen" opacity="0.5" fill-rule="evenodd" clip-rule="evenodd" d="M11.3428 34C12.4288 33.5176 13.7562 32.613 14.9025 29.8994L22.2031 12.5923L14.7819 34H11.3428Z" fill="url(#paint42_linear_14_13567)"/>
<path style="mix-blend-mode:screen" opacity="0.5" fill-rule="evenodd" clip-rule="evenodd" d="M197.657 34C196.571 33.5176 195.244 32.613 194.097 29.8994L186.797 12.5923L194.218 34H197.657Z" fill="url(#paint43_linear_14_13567)"/>
<g style="mix-blend-mode:screen">
<path fill-rule="evenodd" clip-rule="evenodd" d="M104.5 63.0059C132.616 63.0059 159.163 63.3677 182.754 63.9708H26.2456C49.8969 63.3677 76.4442 63.0059 104.5 63.0059Z" fill="#55D3FF"/>
</g>
<path style="mix-blend-mode:screen" opacity="0.5" fill-rule="evenodd" clip-rule="evenodd" d="M182.815 10.542H26.2459H22.9274L22.4448 11.9893L22.2034 12.5923L14.7822 34H194.218L186.797 12.5923L186.556 11.9893L186.073 10.542H182.815Z" fill="url(#paint44_linear_14_13567)"/>
<path style="mix-blend-mode:screen" opacity="0.5" fill-rule="evenodd" clip-rule="evenodd" d="M182.815 57.458H26.2459H22.9274L22.4448 56.0107L22.2034 55.4077L14.7822 34H194.218L186.797 55.4077L186.556 56.0107L186.073 57.458H182.815Z" fill="url(#paint45_linear_14_13567)"/>
<path style="mix-blend-mode:screen" opacity="0.5" fill-rule="evenodd" clip-rule="evenodd" d="M182.815 10.542H26.2459H22.9274L22.4448 11.9893L22.2034 12.5923L14.7822 34H194.218L186.797 12.5923L186.556 11.9893L186.073 10.542H182.815Z" fill="url(#paint46_radial_14_13567)"/>
<path style="mix-blend-mode:screen" opacity="0.5" fill-rule="evenodd" clip-rule="evenodd" d="M182.815 57.458H26.2459H22.9274L22.4448 56.0107L22.2034 55.4077L14.7822 34H194.218L186.797 55.4077L186.556 56.0107L186.073 57.458H182.815Z" fill="url(#paint47_radial_14_13567)"/>
<defs>
<linearGradient id="paint0_linear_14_13567" x1="43.2601" y1="48.3522" x2="43.2601" y2="19.6478" gradientUnits="userSpaceOnUse">
<stop stop-color="#6287C9"/>
<stop offset="1" stop-color="#3B597D"/>
</linearGradient>
<radialGradient id="paint1_radial_14_13567" cx="0" cy="0" r="1" gradientUnits="userSpaceOnUse" gradientTransform="translate(4.46492 34) scale(14.963 14.9552)">
<stop stop-color="white"/>
<stop offset="1" stop-color="#00FFFF"/>
</radialGradient>
<linearGradient id="paint2_linear_14_13567" x1="43.2601" y1="21.0951" x2="43.2601" y2="19.6478" gradientUnits="userSpaceOnUse">
<stop stop-color="#87B5F5"/>
<stop offset="1" stop-color="#4E76A6"/>
</linearGradient>
<linearGradient id="paint3_linear_14_13567" x1="43.2601" y1="22.4821" x2="43.2601" y2="21.0951" gradientUnits="userSpaceOnUse">
<stop stop-color="#204270"/>
<stop offset="1" stop-color="#335D94"/>
</linearGradient>
<linearGradient id="paint4_linear_14_13567" x1="43.2601" y1="46.9652" x2="43.2601" y2="45.5179" gradientUnits="userSpaceOnUse">
<stop stop-color="#87B5F5"/>
<stop offset="1" stop-color="#4E76A6"/>
</linearGradient>
<linearGradient id="paint5_linear_14_13567" x1="43.2601" y1="48.3522" x2="43.2601" y2="46.9652" gradientUnits="userSpaceOnUse">
<stop stop-color="#204270"/>
<stop offset="1" stop-color="#335D94"/>
</linearGradient>
<linearGradient id="paint6_linear_14_13567" x1="3.01674" y1="48.3522" x2="3.01674" y2="34" gradientUnits="userSpaceOnUse">
<stop stop-color="#273F5E"/>
<stop offset="1" stop-color="#4E688C"/>
</linearGradient>
<linearGradient id="paint7_linear_14_13567" x1="4.22337" y1="46.9652" x2="4.22337" y2="34" gradientUnits="userSpaceOnUse">
<stop stop-color="#4E688C"/>
<stop offset="1" stop-color="#273F5E"/>
</linearGradient>
<linearGradient id="paint8_linear_14_13567" x1="3.01674" y1="34" x2="3.01674" y2="19.6478" gradientUnits="userSpaceOnUse">
<stop stop-color="#4E76A6"/>
<stop offset="1" stop-color="#87B5F5"/>
</linearGradient>
<linearGradient id="paint9_linear_14_13567" x1="-7.08789e-05" y1="34" x2="6.02825" y2="21.0927" gradientUnits="userSpaceOnUse">
<stop stop-color="#4E688C"/>
<stop offset="1" stop-color="#273F5E"/>
</linearGradient>
<linearGradient id="paint10_linear_14_13567" x1="79.4609" y1="27.5476" x2="84.9514" y2="27.5476" gradientUnits="userSpaceOnUse">
<stop stop-color="#204954"/>
<stop offset="1" stop-color="#1B3840"/>
</linearGradient>
<linearGradient id="paint11_linear_14_13567" x1="165.8" y1="-2.42323" x2="165.8" y2="-2.42323" gradientUnits="userSpaceOnUse">
<stop stop-color="#6287C9"/>
<stop offset="1" stop-color="#3B597D"/>
</linearGradient>
<radialGradient id="paint12_radial_14_13567" cx="0" cy="0" r="1" gradientUnits="userSpaceOnUse" gradientTransform="translate(204.535 0.59194) scale(29.6244 29.609)">
<stop stop-color="white"/>
<stop offset="1" stop-color="#00FFFF"/>
</radialGradient>
<linearGradient id="paint13_linear_14_13567" x1="165.8" y1="-2.42323" x2="165.8" y2="-2.42323" gradientUnits="userSpaceOnUse">
<stop stop-color="#87B5F5"/>
<stop offset="1" stop-color="#4E76A6"/>
</linearGradient>
<linearGradient id="paint14_linear_14_13567" x1="165.8" y1="-2.42322" x2="165.8" y2="-2.42322" gradientUnits="userSpaceOnUse">
<stop stop-color="#204270"/>
<stop offset="1" stop-color="#335D94"/>
</linearGradient>
<linearGradient id="paint15_linear_14_13567" x1="165.8" y1="46.9652" x2="165.8" y2="45.5179" gradientUnits="userSpaceOnUse">
<stop stop-color="#87B5F5"/>
<stop offset="1" stop-color="#4E76A6"/>
</linearGradient>
<linearGradient id="paint16_linear_14_13567" x1="165.8" y1="48.3522" x2="165.8" y2="46.9652" gradientUnits="userSpaceOnUse">
<stop stop-color="#204270"/>
<stop offset="1" stop-color="#335D94"/>
</linearGradient>
<linearGradient id="paint17_linear_14_13567" x1="124.048" y1="-2.42322" x2="129.539" y2="-2.42322" gradientUnits="userSpaceOnUse">
<stop stop-color="#204954"/>
<stop offset="1" stop-color="#1B3840"/>
</linearGradient>
<linearGradient id="paint18_linear_14_13567" x1="206.044" y1="-2.42323" x2="206.044" y2="-2.42323" gradientUnits="userSpaceOnUse">
<stop stop-color="#273F5E"/>
<stop offset="1" stop-color="#4E688C"/>
</linearGradient>
<linearGradient id="paint19_linear_14_13567" x1="204.777" y1="46.9652" x2="204.777" y2="34" gradientUnits="userSpaceOnUse">
<stop stop-color="#304D73"/>
<stop offset="1" stop-color="#5B79A3"/>
</linearGradient>
<linearGradient id="paint20_linear_14_13567" x1="206.044" y1="-2.42323" x2="206.044" y2="-2.42323" gradientUnits="userSpaceOnUse">
<stop stop-color="#4E76A6"/>
<stop offset="1" stop-color="#87B5F5"/>
</linearGradient>
<linearGradient id="paint21_linear_14_13567" x1="204.777" y1="34" x2="204.777" y2="21.0951" gradientUnits="userSpaceOnUse">
<stop stop-color="#4E688C"/>
<stop offset="1" stop-color="#273F5E"/>
</linearGradient>
<linearGradient id="paint22_linear_14_13567" x1="104.5" y1="67.2272" x2="104.5" y2="0.833145" gradientUnits="userSpaceOnUse">
<stop stop-color="#6287C9"/>
<stop offset="1" stop-color="#3B597D"/>
</linearGradient>
<linearGradient id="paint23_linear_14_13567" x1="104.5" y1="60.7144" x2="104.5" y2="7.28561" gradientUnits="userSpaceOnUse">
<stop stop-color="#001E6B"/>
<stop offset="1" stop-color="#0056BF"/>
</linearGradient>
<linearGradient id="paint24_linear_14_13567" x1="104.5" y1="4.02922" x2="104.5" y2="0.833145" gradientUnits="userSpaceOnUse">
<stop stop-color="#87B5F5"/>
<stop offset="1" stop-color="#4E76A6"/>
</linearGradient>
<linearGradient id="paint25_linear_14_13567" x1="104.5" y1="7.28561" x2="104.5" y2="4.02923" gradientUnits="userSpaceOnUse">
<stop stop-color="#204270"/>
<stop offset="1" stop-color="#335D94"/>
</linearGradient>
<linearGradient id="paint26_linear_14_13567" x1="104.5" y1="63.9708" x2="104.5" y2="60.7144" gradientUnits="userSpaceOnUse">
<stop stop-color="#87B5F5"/>
<stop offset="1" stop-color="#4E76A6"/>
</linearGradient>
<linearGradient id="paint27_linear_14_13567" x1="104.5" y1="67.2272" x2="104.5" y2="63.9708" gradientUnits="userSpaceOnUse">
<stop stop-color="#204270"/>
<stop offset="1" stop-color="#335D94"/>
</linearGradient>
<linearGradient id="paint28_linear_14_13567" x1="11.4034" y1="67.2272" x2="11.4034" y2="-2.42323" gradientUnits="userSpaceOnUse">
<stop stop-color="#273F5E"/>
<stop offset="1" stop-color="#4E688C"/>
</linearGradient>
<linearGradient id="paint29_linear_14_13567" x1="14.239" y1="63.9708" x2="14.239" y2="-2.42323" gradientUnits="userSpaceOnUse">
<stop stop-color="#304D73"/>
<stop offset="1" stop-color="#5B79A3"/>
</linearGradient>
<linearGradient id="paint30_linear_14_13567" x1="11.4034" y1="-2.42324" x2="11.4034" y2="0.833145" gradientUnits="userSpaceOnUse">
<stop stop-color="#4E76A6"/>
<stop offset="1" stop-color="#87B5F5"/>
</linearGradient>
<linearGradient id="paint31_linear_14_13567" x1="14.239" y1="34" x2="14.239" y2="4.02923" gradientUnits="userSpaceOnUse">
<stop stop-color="#4E688C"/>
<stop offset="1" stop-color="#273F5E"/>
</linearGradient>
<linearGradient id="paint32_linear_14_13567" x1="197.597" y1="67.2272" x2="197.597" y2="-2.42323" gradientUnits="userSpaceOnUse">
<stop stop-color="#273F5E"/>
<stop offset="1" stop-color="#4E688C"/>
</linearGradient>
<linearGradient id="paint33_linear_14_13567" x1="194.761" y1="63.9708" x2="194.761" y2="-2.42323" gradientUnits="userSpaceOnUse">
<stop stop-color="#304D73"/>
<stop offset="1" stop-color="#5B79A3"/>
</linearGradient>
<linearGradient id="paint34_linear_14_13567" x1="197.597" y1="-2.42324" x2="197.597" y2="0.833145" gradientUnits="userSpaceOnUse">
<stop stop-color="#4E76A6"/>
<stop offset="1" stop-color="#87B5F5"/>
</linearGradient>
<linearGradient id="paint35_linear_14_13567" x1="194.761" y1="34" x2="194.761" y2="4.02923" gradientUnits="userSpaceOnUse">
<stop stop-color="#4E688C"/>
<stop offset="1" stop-color="#273F5E"/>
</linearGradient>
<linearGradient id="paint36_linear_14_13567" x1="104.5" y1="10.542" x2="104.5" y2="7.28561" gradientUnits="userSpaceOnUse">
<stop stop-color="#00ADEB"/>
<stop offset="1" stop-color="#006BED"/>
</linearGradient>
<linearGradient id="paint37_linear_14_13567" x1="17.1349" y1="34" x2="17.1349" y2="7.28561" gradientUnits="userSpaceOnUse">
<stop stop-color="#006BED"/>
<stop offset="1" stop-color="#003BD4"/>
</linearGradient>
<linearGradient id="paint38_linear_14_13567" x1="104.5" y1="60.7144" x2="104.5" y2="57.458" gradientUnits="userSpaceOnUse">
<stop stop-color="#004BEB"/>
<stop offset="1" stop-color="#006FF5"/>
</linearGradient>
<linearGradient id="paint39_linear_14_13567" x1="17.1349" y1="60.7144" x2="17.1349" y2="34" gradientUnits="userSpaceOnUse">
<stop stop-color="#001D66"/>
<stop offset="0.53" stop-color="#032476"/>
<stop offset="1" stop-color="#062880"/>
</linearGradient>
<linearGradient id="paint40_linear_14_13567" x1="191.865" y1="-2.42323" x2="191.865" y2="-2.42323" gradientUnits="userSpaceOnUse">
<stop stop-color="#006BED"/>
<stop offset="1" stop-color="#003BD4"/>
</linearGradient>
<linearGradient id="paint41_linear_14_13567" x1="191.865" y1="-2.42323" x2="191.865" y2="-2.42323" gradientUnits="userSpaceOnUse">
<stop stop-color="#001D66"/>
<stop offset="0.53" stop-color="#032476"/>
<stop offset="1" stop-color="#062880"/>
</linearGradient>
<linearGradient id="paint42_linear_14_13567" x1="16.7729" y1="34" x2="16.7729" y2="12.5923" gradientUnits="userSpaceOnUse">
<stop stop-color="#009EFA"/>
<stop offset="0.13" stop-color="#0083CF"/>
<stop offset="0.37" stop-color="#005586"/>
<stop offset="0.59" stop-color="#00304C"/>
<stop offset="0.77" stop-color="#001623"/>
<stop offset="0.91" stop-color="#000509"/>
<stop offset="1"/>
</linearGradient>
<linearGradient id="paint43_linear_14_13567" x1="192.227" y1="-2.42323" x2="192.227" y2="-2.42323" gradientUnits="userSpaceOnUse">
<stop stop-color="#009EFA"/>
<stop offset="0.13" stop-color="#0083CF"/>
<stop offset="0.37" stop-color="#005586"/>
<stop offset="0.59" stop-color="#00304C"/>
<stop offset="0.77" stop-color="#001623"/>
<stop offset="0.91" stop-color="#000509"/>
<stop offset="1"/>
</linearGradient>
<linearGradient id="paint44_linear_14_13567" x1="104.5" y1="34" x2="104.5" y2="10.542" gradientUnits="userSpaceOnUse">
<stop stop-color="#0031B0"/>
<stop offset="0.11" stop-color="#002EA6"/>
<stop offset="0.3" stop-color="#00278C"/>
<stop offset="0.54" stop-color="#001B63"/>
<stop offset="0.82" stop-color="#000B29"/>
<stop offset="1"/>
</linearGradient>
<linearGradient id="paint45_linear_14_13567" x1="104.5" y1="57.458" x2="104.5" y2="34" gradientUnits="userSpaceOnUse">
<stop stop-color="#062880"/>
<stop offset="0.14" stop-color="#052576"/>
<stop offset="0.38" stop-color="#041D5C"/>
<stop offset="0.68" stop-color="#021033"/>
<stop offset="1"/>
</linearGradient>
<radialGradient id="paint46_radial_14_13567" cx="0" cy="0" r="1" gradientUnits="userSpaceOnUse" gradientTransform="translate(104.5 10.2405) scale(90.8643 90.8169)">
<stop stop-color="#0077FF"/>
<stop offset="0.14" stop-color="#0061D0"/>
<stop offset="0.38" stop-color="#003F87"/>
<stop offset="0.59" stop-color="#00244D"/>
<stop offset="0.77" stop-color="#001023"/>
<stop offset="0.92" stop-color="#000409"/>
<stop offset="1"/>
</radialGradient>
<radialGradient id="paint47_radial_14_13567" cx="0" cy="0" r="1" gradientUnits="userSpaceOnUse" gradientTransform="translate(104.5 117.761) scale(101.544 101.491)">
<stop offset="0.5" stop-color="#0044FF"/>
<stop offset="0.54" stop-color="#0041F7"/>
<stop offset="0.61" stop-color="#003CE1"/>
<stop offset="0.69" stop-color="#0032BE"/>
<stop offset="0.78" stop-color="#00258E"/>
<stop offset="0.88" stop-color="#00154F"/>
<stop offset="0.99" stop-color="#000105"/>
<stop offset="1"/>
</radialGradient>
</defs>
</svg>
