<svg width="94" height="93" viewBox="0 0 94 93" fill="none" xmlns="http://www.w3.org/2000/svg">
<g style="mix-blend-mode:multiply" opacity="0.21">
<path d="M68.7085 0.577423H25.2915C11.3234 0.577423 0 11.9829 0 26.0522V67.5252C0 81.5945 11.3234 93 25.2915 93H68.7085C82.6766 93 94 81.5945 94 67.5252V26.0522C94 11.9829 82.6766 0.577423 68.7085 0.577423Z" fill="black"/>
</g>
<path d="M69.9563 4.33072H24.0438C12.8693 4.33072 3.81061 13.4551 3.81061 24.7106V68.8839C3.81061 80.1393 12.8693 89.2637 24.0438 89.2637H69.9563C81.1307 89.2637 90.1894 80.1393 90.1894 68.8839V24.7106C90.1894 13.4551 81.1307 4.33072 69.9563 4.33072Z" fill="#6D84CE"/>
<path style="mix-blend-mode:color-dodge" d="M71.2039 8.06702H22.796C14.4152 8.06702 7.62115 14.9103 7.62115 23.3519V70.2085C7.62115 78.6501 14.4152 85.4934 22.796 85.4934H71.2039C79.5848 85.4934 86.3788 78.6501 86.3788 70.2085V23.3519C86.3788 14.9103 79.5848 8.06702 71.2039 8.06702Z" fill="url(#paint0_radial_9_2709)"/>
<path style="mix-blend-mode:color-burn" d="M69.9563 4.33072H24.0438C12.8693 4.33072 3.81061 13.4551 3.81061 24.7106V68.8839C3.81061 80.1393 12.8693 89.2637 24.0438 89.2637H69.9563C81.1307 89.2637 90.1894 80.1393 90.1894 68.8839V24.7106C90.1894 13.4551 81.1307 4.33072 69.9563 4.33072Z" fill="url(#paint1_linear_9_2709)"/>
<path style="mix-blend-mode:color-dodge" opacity="0.43" d="M74.9471 4.33072H19.0529C10.673 4.33072 3.81061 11.073 3.81061 19.3099V46.9586C16.2372 43.8676 31.058 42.0674 46.9916 42.0674C62.9252 42.0674 77.746 43.8676 90.1726 46.9586V19.3099C90.1726 11.073 83.3102 4.33072 74.9303 4.33072H74.9471Z" fill="url(#paint2_linear_9_2709)"/>
<path style="mix-blend-mode:color-dodge" opacity="0.43" d="M74.9471 0H19.0529C10.673 0 3.81061 6.74233 3.81061 14.9792V42.6278C16.2372 39.5369 31.058 37.7367 46.9916 37.7367C62.9252 37.7367 77.746 39.5369 90.1726 42.6278V14.9792C90.1726 6.74233 83.3102 0 74.9303 0H74.9471Z" fill="url(#paint3_linear_9_2709)"/>
<g style="mix-blend-mode:screen">
<path d="M86.3282 22.9783C86.3282 23.9123 86.3282 24.8464 86.3282 25.7975C86.3788 24.8294 86.3788 23.8784 86.3282 22.9783Z" fill="white"/>
</g>
<g style="mix-blend-mode:screen">
<path d="M86.3283 25.7975C86.0585 31.8775 83.7822 38.8066 77.6617 40.6917C71.6423 42.5429 65.1677 42.3561 58.8954 41.7107C52.0499 41.0144 45.3898 40.3181 38.4936 40.7597C31.8335 41.1843 25.0892 42.2202 18.5471 42.9335C8.91947 43.9695 7.78978 33.8985 7.25023 26.7146C6.86243 21.5007 7.40198 15.8963 10.791 11.6335C11.3812 10.9032 12.0219 10.2069 12.8144 9.7144C14.0452 8.95015 15.765 8.93317 17.1645 8.54256C15.2929 7.98211 13.219 8.59351 11.6509 9.73138C10.0829 10.8693 8.93633 12.4827 7.89094 14.113C5.27749 18.172 6.22171 23.8784 6.15426 28.5148C6.08682 32.9644 6.06996 37.414 6.10368 41.8636C6.1374 47.502 6.25543 53.0725 6.17112 58.7109C6.06996 64.5192 6.25543 70.3444 6.71068 76.1357C6.15426 69.0877 7.14906 61.4113 9.03749 54.618C11.7352 44.9376 21.4472 44.1393 30.198 43.2392C38.9995 42.3221 48.391 42.6448 57.2262 43.1883C61.6269 43.46 65.977 43.9865 70.344 44.3941C73.5139 44.6828 77.5774 45.0225 79.9379 47.485C81.2362 48.8437 81.506 50.4911 81.624 52.2913C81.8264 55.3652 81.9781 58.4392 82.0456 61.5132C82.1805 66.8968 82.6863 74.6581 79.8031 79.4984C76.3297 85.3576 54.4779 85.8501 54.4779 85.8501C54.4779 85.8501 62.4194 86.3426 75.0482 86.1897C87.6603 86.0369 86.48 74.9469 86.48 74.9469C86.1259 58.5411 86.4463 42.1523 86.3451 25.7465L86.3283 25.7975Z" fill="white"/>
</g>
<path d="M8.27875 80.5174C8.27875 80.5174 9.76251 86.3766 16.7261 86.8691C23.6728 87.3616 28.1579 87.3616 28.1579 87.3616C28.1579 87.3616 12.6626 86.0539 8.29561 80.5174H8.27875Z" fill="white"/>
<path style="mix-blend-mode:color-burn" opacity="0.43" d="M26.809 43.4091C21.0931 44.0544 13.6068 45.3961 10.5887 50.8647C7.58745 56.3333 6.87929 62.8548 6.66009 68.9688C6.59265 70.6671 6.35659 72.3145 6.42404 73.9449C6.47462 74.8959 6.62637 75.847 6.98045 76.7811C7.99211 79.4135 10.0323 81.6722 12.6289 82.8441C10.9596 81.6722 9.86368 79.889 8.80144 78.1737C8.34619 77.4264 7.89094 76.4923 8.32933 75.7451C8.64969 75.2186 9.30727 74.9978 9.91426 74.9469C13.2527 74.6751 16.5744 75.1337 19.9297 75.1677C23.6897 75.2016 27.4497 74.9639 31.1422 74.3015C36.8244 73.2825 42.3379 71.2615 47.059 67.9838C50.9539 65.2664 54.2249 61.7509 56.6698 57.7259C57.6646 56.0785 58.5414 54.3632 59.2664 52.597C60.0757 50.6269 60.0926 47.2812 61.8967 46.2113C62.8072 45.6678 63.8863 45.481 64.9485 45.2942C67.0224 44.9376 69.1469 44.5639 71.2208 44.8526C64.645 43.3581 57.8838 42.9845 51.1394 42.6278C42.9618 42.1863 34.9022 42.492 26.7752 43.4091H26.809Z" fill="url(#paint4_linear_9_2709)"/>
<defs>
<radialGradient id="paint0_radial_9_2709" cx="0" cy="0" r="1" gradientUnits="userSpaceOnUse" gradientTransform="translate(110.861 -16.0152) scale(116.375 117.218)">
<stop stop-color="white"/>
<stop offset="0.29" stop-color="#AEAEAE"/>
<stop offset="0.64" stop-color="#515151"/>
<stop offset="0.88" stop-color="#161616"/>
<stop offset="1"/>
</radialGradient>
<linearGradient id="paint1_linear_9_2709" x1="46.9916" y1="78.3265" x2="46.9916" y2="109.728" gradientUnits="userSpaceOnUse">
<stop stop-color="white"/>
<stop offset="0.08" stop-color="#F5F5F5"/>
<stop offset="0.23" stop-color="#DBDBDB"/>
<stop offset="0.41" stop-color="#B2B2B2"/>
<stop offset="0.62" stop-color="#787878"/>
<stop offset="0.86" stop-color="#2F2F2F"/>
<stop offset="1"/>
</linearGradient>
<linearGradient id="paint2_linear_9_2709" x1="46.9916" y1="107.045" x2="46.9916" y2="26.3409" gradientUnits="userSpaceOnUse">
<stop stop-color="white"/>
<stop offset="0.29" stop-color="#AEAEAE"/>
<stop offset="0.64" stop-color="#515151"/>
<stop offset="0.88" stop-color="#161616"/>
<stop offset="1"/>
</linearGradient>
<linearGradient id="paint3_linear_9_2709" x1="2.42237e-05" y1="102.714" x2="1.71064" y2="22.0277" gradientUnits="userSpaceOnUse">
<stop stop-color="white"/>
<stop offset="0.29" stop-color="#AEAEAE"/>
<stop offset="0.64" stop-color="#515151"/>
<stop offset="0.88" stop-color="#161616"/>
<stop offset="1"/>
</linearGradient>
<linearGradient id="paint4_linear_9_2709" x1="37.364" y1="54.4312" x2="25.9996" y2="12.7618" gradientUnits="userSpaceOnUse">
<stop stop-color="white"/>
<stop offset="0.04" stop-color="#E8E8E8"/>
<stop offset="0.15" stop-color="#B2B2B2"/>
<stop offset="0.26" stop-color="#828282"/>
<stop offset="0.37" stop-color="#5A5A5A"/>
<stop offset="0.49" stop-color="#393939"/>
<stop offset="0.6" stop-color="#202020"/>
<stop offset="0.73" stop-color="#0E0E0E"/>
<stop offset="0.85" stop-color="#030303"/>
<stop offset="1"/>
</linearGradient>
</defs>
</svg>
