<svg width="52" height="58" viewBox="0 0 52 58" fill="none" xmlns="http://www.w3.org/2000/svg">
<g clip-path="url(#clip0_14_13089)">
<path d="M36.4128 9.87097C33.7159 14.8307 31.0207 19.7899 28.3237 24.7497L40.2675 31.3172L11.7042 45.5723C15.3971 40.7081 19.0905 35.8458 22.7834 30.9816L11.6064 24.8358C19.8754 19.8481 28.145 14.8593 36.4128 9.87097Z" fill="url(#paint0_linear_14_13089)"/>
<path d="M36.413 9.87107C33.716 14.8308 31.0208 19.79 28.3238 24.7498L40.2677 31.3173L11.7044 45.5724C15.3972 40.7082 19.0907 35.8459 22.7835 30.9817L11.6065 24.8359C19.8755 19.8482 28.1451 14.8594 36.413 9.87107ZM37.4308 8.01999C36.78 7.66215 35.9734 7.66462 35.3159 8.06093L22.9117 15.5436L10.5094 23.0257C9.86273 23.416 9.47468 24.1217 9.49156 24.8768C9.50844 25.6319 9.92692 26.3216 10.5905 26.6864L19.6179 31.6503L10.018 44.2925C9.42453 45.0752 9.44942 46.1646 10.0791 46.9207C10.253 47.1293 10.4609 47.2979 10.6883 47.4229C11.2846 47.7508 12.02 47.7815 12.6575 47.463L41.219 33.2085C41.9222 32.8583 42.3715 32.1456 42.3859 31.361C42.4003 30.5764 41.9769 29.8464 41.2867 29.4668L31.1896 23.9148L34.2298 18.3227L38.2735 10.8836C38.7299 10.0452 38.5646 9.00505 37.8732 8.34463C37.7372 8.21559 37.5886 8.10674 37.4308 8.01999V8.01999Z" fill="#A35A00"/>
<path d="M37.5271 32.6851C33.7292 32.322 29.7243 31.1128 25.8915 29.0053C22.2606 27.0088 19.229 24.4498 16.9288 21.624C15.1542 22.6944 13.3797 23.7648 11.6052 24.8352L22.7845 30.9823C19.0905 35.8458 15.3982 40.7088 11.7054 45.5729L37.5289 32.6846L37.5271 32.6851Z" fill="#E39200"/>
<path d="M36.4128 9.87097C32.401 12.6116 28.3903 15.3528 24.3785 18.0934C20.1213 20.3405 15.8642 22.5875 11.6064 24.8358L36.4128 9.87097Z" fill="url(#paint1_linear_14_13089)"/>
</g>
<defs>
<linearGradient id="paint0_linear_14_13089" x1="15.2458" y1="47.5197" x2="36.0555" y2="9.67451" gradientUnits="userSpaceOnUse">
<stop stop-color="#F39C12"/>
<stop offset="0.08" stop-color="#F29F11"/>
<stop offset="0.66" stop-color="#F1BA0F"/>
<stop offset="1" stop-color="#F1C40F"/>
</linearGradient>
<linearGradient id="paint1_linear_14_13089" x1="10.557" y1="21.2408" x2="37.441" y2="13.3934" gradientUnits="userSpaceOnUse">
<stop offset="0.13" stop-color="white"/>
<stop offset="0.18" stop-color="white"/>
<stop offset="0.57" stop-color="white"/>
<stop offset="0.99" stop-color="white"/>
<stop offset="1" stop-color="white"/>
</linearGradient>
<clipPath id="clip0_14_13089">
<rect width="32.4754" height="47.414" fill="white" transform="translate(22.8454) rotate(28.8048)"/>
</clipPath>
</defs>
</svg>
