<svg width="29" height="26" viewBox="0 0 29 26" fill="none" xmlns="http://www.w3.org/2000/svg">
<path d="M0 16.4243C0 16.4243 14.1647 28.0592 29 25.677L7.47532 18.9526L0 16.4243Z" fill="#4F4A81"/>
<path d="M27.6465 20.1173C27.6465 20.1173 18.4435 22.9313 10.4723 15.0888C10.4723 15.0888 18.7366 -0.18636 20.4862 0.257793C21.166 0.431726 22.401 3.47867 23.6578 7.1375C23.6578 7.1406 23.6578 7.14371 23.6609 7.14371C23.6485 7.2959 23.5268 9.37068 24.9676 11.1752C24.977 11.1877 24.9895 11.2001 24.9988 11.2125V11.2156C26.449 15.8156 27.6496 20.1142 27.6496 20.1142L27.6465 20.1173Z" fill="url(#paint0_linear_11_6018)"/>
<g style="mix-blend-mode:multiply" opacity="0.2">
<path d="M11.4048 15.0453C10.5284 14.0762 15.8862 8.07861 16.5817 8.22769C17.2771 8.37678 22.9624 10.6255 24.4624 13.2997C25.9593 15.9709 26.8419 18.7196 26.4303 19.5676C26.0186 20.4155 17.0775 21.3131 11.4048 15.0453Z" fill="#E60092"/>
</g>
<path d="M10.4723 15.0888L4.54694 12.5822C4.54694 12.5822 18.0131 -0.052801 20.0277 0.142875C22.0424 0.335444 10.4692 15.0888 10.4692 15.0888H10.4723Z" fill="url(#paint1_linear_11_6018)"/>
<path d="M8.57619 17.5766L1.43144 15.3931L4.54694 12.5822L10.4723 15.0888L8.57619 17.5766Z" fill="#9D933E"/>
<path d="M28.5603 24.1861L29 25.677C29 25.677 15.144 27.7611 7.47533 18.9495L8.5762 17.5735C8.5762 17.5735 15.6555 25.5124 28.5603 24.183V24.1861Z" fill="#758B00"/>
<path d="M0 16.4243L7.47532 18.9526L8.57619 17.5766L1.43144 15.3931L0 16.4243Z" fill="#4F6A00"/>
<path d="M8.57619 17.5766C8.57619 17.5766 14.5234 28.1524 28.5603 24.1861L27.6465 20.1142C27.6465 20.1142 19.5412 22.6083 10.4723 15.0857L8.57619 17.5735V17.5766Z" fill="url(#paint2_linear_11_6018)"/>
<path d="M19.3042 7.32696C18.3125 6.65607 17.405 10.0602 17.8478 10.7746C18.2907 11.4889 19.5662 9.85832 19.694 9.16258C19.8219 8.46685 19.85 7.69657 19.3042 7.32696Z" fill="url(#paint3_linear_11_6018)"/>
<path d="M20.4113 16.5889C19.6722 15.7721 20.3989 12.2872 21.4218 11.7592C22.4447 11.2312 23.7451 15.946 23.5144 17.2505C23.2836 18.555 20.639 16.8405 20.4113 16.5889Z" fill="url(#paint4_linear_11_6018)"/>
<path d="M24.9645 11.1753C24.6994 10.9361 22.8813 9.95151 22.8501 8.72776C22.8158 7.48227 23.5892 7.16235 23.6547 7.1344C23.6547 7.1344 23.6547 7.13751 23.6547 7.14061C23.6578 7.14682 23.6609 7.16235 23.6672 7.18099C23.6609 7.16857 23.6578 7.15925 23.6516 7.14372C23.6391 7.2928 23.5175 9.36759 24.9583 11.1753H24.9645Z" fill="url(#paint5_linear_11_6018)"/>
<path d="M23.6609 7.14061C23.6609 7.14061 23.6672 7.16235 23.6734 7.18099C23.6672 7.16856 23.664 7.15925 23.6578 7.14372L23.6609 7.14061Z" fill="url(#paint6_linear_11_6018)"/>
<g style="mix-blend-mode:multiply" opacity="0.2">
<path d="M21.3251 11.9673C20.3739 11.9642 20.2928 14.7564 20.5205 15.3745C20.7481 15.9926 22.4228 15.682 23.1245 16.5579C23.8262 17.4338 22.769 11.9735 21.3251 11.9673Z" fill="#A85592"/>
</g>
<g style="mix-blend-mode:multiply" opacity="0.2">
<path d="M18.8801 7.27417C18.7117 7.32386 17.7387 8.82404 17.932 9.74341C18.1254 10.6628 19.4789 9.73098 19.7346 8.9079C19.9903 8.08482 19.5257 7.0816 18.8801 7.27417Z" fill="#A85592"/>
</g>
<g style="mix-blend-mode:soft-light" opacity="0.5">
<path d="M22.638 5.82989C23.0466 5.05651 20.8261 1.08709 20.614 0.897628C20.402 0.708164 18.9799 4.18684 18.2751 5.38885C17.5703 6.59085 20.4831 7.15925 21.06 7.70279C21.637 8.24633 22.454 6.17776 22.638 5.82989Z" fill="#FFACFF"/>
</g>
<g style="mix-blend-mode:multiply" opacity="0.2">
<path d="M16.8811 5.81125C16.1201 6.37343 13.934 5.95723 14.0961 5.32983C14.2583 4.70243 17.8666 1.58715 18.9487 1.44117C20.0309 1.29519 18.116 4.90121 16.8811 5.81125Z" fill="#A85592"/>
</g>
<g style="mix-blend-mode:soft-light" opacity="0.5">
<path d="M20.8261 1.36042C20.2211 0.674 19.1795 3.65883 19.4071 5.32984C19.6317 7.00084 21.8802 6.42313 22.5382 5.97588C23.1963 5.52862 21.3344 1.93502 20.8292 1.36042H20.8261Z" fill="#FFACFF"/>
</g>
<g style="mix-blend-mode:multiply" opacity="0.2">
<path d="M10.3507 13.3681C8.2768 14.0545 7.0543 12.7748 7.08861 11.4921C7.12291 10.2093 10.8777 7.30212 12.3497 6.77721C13.8248 6.25231 15.1658 6.63434 15.6367 7.08781C16.1076 7.54128 12.5618 12.6382 10.3476 13.3681H10.3507Z" fill="#A85592"/>
</g>
<path d="M19.9841 15.2596C20.1338 14.8745 20.8323 16.884 22.2544 17.4338C23.6765 17.9835 23.5206 16.4833 23.5206 16.4833C23.5206 16.4833 23.664 17.5704 23.4021 17.8997C23.1401 18.2289 20.8791 17.3126 20.3427 16.9679C19.8063 16.6231 19.9841 15.2596 19.9841 15.2596Z" fill="#FF4A8B"/>
<path d="M17.748 9.82727C17.748 9.82727 17.6015 10.6038 18.0474 10.7156C18.4934 10.8274 19.2263 10.0882 19.2263 10.0882C19.2263 10.0882 18.64 11.1566 18.0318 11.1287C17.4237 11.1007 17.748 9.83038 17.748 9.83038V9.82727Z" fill="#FF4A8B"/>
<path d="M22.8501 8.72775C22.8501 8.72775 22.9842 9.70302 23.7732 10.1751C24.5622 10.6472 24.4718 10.4484 24.4718 10.4484L24.9645 11.1721C24.9645 11.1721 23.2649 10.7622 22.8501 8.72464V8.72775Z" fill="#FF4A8B"/>
<path d="M19.2169 7.42324C19.0641 7.299 18.0848 8.14382 17.932 9.14394C17.7823 10.141 18.4341 10.6752 19.2637 9.99808C20.0932 9.32098 19.4103 7.58475 19.2169 7.42324Z" fill="#59244A"/>
<g style="mix-blend-mode:multiply" opacity="0.5">
<path d="M19.2169 7.42325C18.8707 7.31765 18.0911 8.61283 18.0817 9.56326C18.0755 10.5168 19.2637 9.99809 19.2637 9.99809C19.2637 9.99809 18.8957 10.6286 18.1597 10.4516C17.4237 10.2745 17.8104 8.91722 18.1285 8.31777C18.4435 7.71831 18.8614 7.36113 19.2138 7.42014L19.2169 7.42325Z" fill="#9A2E69"/>
</g>
<path d="M18.8395 7.64066C18.799 7.68725 19.2356 7.89535 19.3479 7.89225C19.457 7.88914 19.3479 7.52264 19.22 7.42635C19.0922 7.33007 18.8427 7.64066 18.8427 7.64066H18.8395Z" fill="#CC5931"/>
<path d="M21.6526 11.9269C21.4062 11.8151 20.3958 13.2935 20.5517 14.6819C20.7076 16.0703 21.7679 16.5517 22.638 15.3528C23.505 14.1539 21.9707 12.0729 21.6526 11.9269Z" fill="#59244A"/>
<g style="mix-blend-mode:multiply" opacity="0.5">
<path d="M21.6525 11.9269C21.1536 11.9083 20.5704 13.9147 20.901 15.1913C21.2315 16.4678 22.638 15.3528 22.638 15.3528C22.638 15.3528 22.3729 16.3249 21.3251 16.3498C20.2772 16.3746 20.3115 14.421 20.5205 13.5078C20.7294 12.5978 21.1567 11.9704 21.6525 11.9238V11.9269Z" fill="#9A2E69"/>
</g>
<path d="M21.2222 12.3493C21.1848 12.427 21.8428 12.5481 21.9894 12.5046C22.1359 12.4611 21.8553 12.0077 21.6494 11.9269C21.4436 11.8461 21.2222 12.3493 21.2222 12.3493Z" fill="#CC5931"/>
<g style="mix-blend-mode:soft-light" opacity="0.7">
<path d="M24.6433 17.6698C25.7442 18.2413 26.1995 18.3687 26.4646 17.6388C26.7296 16.9089 25.0705 12.048 24.6402 11.433C24.2098 10.8181 22.4166 10.4919 22.242 9.71545C22.0673 8.93585 22.8937 8.15004 22.3418 7.78043C21.7898 7.41082 20.2772 7.95747 20.1307 7.74316C19.9841 7.52885 20.377 8.94827 19.7003 10.2279C19.0235 11.5045 17.6482 12.1319 17.1368 11.7033C16.6253 11.2746 16.8686 8.87994 16.2449 8.86441C15.6211 8.84888 13.3102 11.753 12.936 13.2593C12.5618 14.7657 16.6534 16.8995 17.1898 17.4275C17.7262 17.9587 19.797 12.399 20.982 11.3181C22.1671 10.2372 23.3584 13.0792 23.8231 14.949C24.2878 16.8188 24.6464 17.6698 24.6464 17.6698H24.6433Z" fill="#FFACFF"/>
</g>
<path d="M23.6079 6.99463C23.6079 6.99463 22.0923 2.57175 21.8677 1.8698C21.6432 1.16785 20.9477 0.118037 20.4488 0.00932802C19.9498 -0.0993806 18.4622 0.956646 17.9975 1.12126C17.536 1.28588 16.8748 1.84806 16.2636 2.27668C15.8083 2.59659 14.1336 4.08745 14.1336 4.08745C14.1336 4.08745 18.3406 0.729911 19.3292 0.596355C20.3147 0.462798 19.6785 1.56231 19.7627 1.86669C19.8469 2.17418 20.5361 1.65549 20.9509 1.63685C21.3656 1.61822 21.5777 2.27668 21.9519 3.35134C22.3262 4.426 23.611 6.99774 23.611 6.99774L23.6079 6.99463Z" fill="#FF84AE"/>
<path opacity="0.65" d="M27.5155 20.5521C27.0228 20.6764 26.633 22.9002 19.588 21.1019C14.5296 19.8129 11.2925 16.2286 10.1355 15.5329C9.35273 15.0608 7.15722 14.9428 5.53554 14.4551C3.91386 13.9675 4.04485 13.0357 4.04485 13.0357L4.54694 12.5822L10.4723 15.0888C10.4723 15.0888 12.8331 17.4648 19.5506 19.2445C26.2681 21.0242 27.6964 19.9465 27.6964 19.9465L27.5124 20.5521H27.5155Z" fill="#FF006B"/>
<g style="mix-blend-mode:multiply" opacity="0.2">
<path d="M9.7332 15.4118C10.3164 15.8311 7.37865 18.4215 6.72062 18.4494C6.06571 18.4774 1.26928 17.0859 0.89505 16.6946C0.520816 16.3032 2.8629 14.2812 3.8515 14.3775C4.8401 14.4738 9.26541 15.0763 9.7332 15.4118Z" fill="#A85592"/>
</g>
<g style="mix-blend-mode:soft-light" opacity="0.5">
<path d="M12.2281 21.0056C10.2291 18.8656 19.9342 21.9281 24.9926 22.4841C30.051 23.04 26.7702 25.3509 24.8959 25.5807C23.0216 25.8105 16.3852 25.4627 12.2281 21.0056Z" fill="#FFD8FF"/>
</g>
<g style="mix-blend-mode:soft-light" opacity="0.5">
<path d="M1.27551 17.3903C0.960532 17.1604 5.83493 18.3749 7.34746 19.3719C8.85998 20.3689 11.5669 22.9562 13.6315 23.9128C13.6315 23.9128 7.67179 21.8629 1.27551 17.3903Z" fill="#9AD8FF"/>
</g>
<path d="M10.1355 15.5298C10.1355 15.5298 14.6481 10.5479 15.9361 8.57867C17.2272 6.6095 19.7627 1.86359 19.7627 1.86359L10.1355 15.5298Z" fill="#FF5C75"/>
<path d="M20.2741 1.14299C19.8812 1.08398 19.5038 2.34811 19.4227 2.49719C19.3417 2.64628 19.9124 2.05304 20.14 1.82941C20.3677 1.60578 20.2772 1.14299 20.2772 1.14299H20.2741Z" fill="white"/>
<path d="M21.2783 4.14646C21.0631 4.13404 21.1629 5.32362 21.4623 5.50376C21.7586 5.68702 22.1889 4.19926 21.2783 4.14646Z" fill="white"/>
<g style="mix-blend-mode:soft-light">
<g style="mix-blend-mode:soft-light">
<path d="M23.2399 11.6349C23.4364 11.051 23.7171 10.9392 23.9416 11.343C24.1661 11.7436 23.7514 12.399 23.4894 12.2561C23.2274 12.1132 23.1744 11.8275 23.2399 11.6349Z" fill="#FFE0FF"/>
</g>
<g style="mix-blend-mode:soft-light">
<path d="M18.0162 6.55667C17.8634 6.05661 18.6212 6.15911 18.7148 6.45107C18.8052 6.74303 18.2564 7.33938 18.0162 6.55667Z" fill="#FFE0FF"/>
</g>
<g style="mix-blend-mode:soft-light">
<path d="M9.77685 11.4952C9.40574 12.2903 11.068 12.4953 11.4048 11.2343C11.7416 9.97324 10.0981 10.8056 9.77685 11.4952Z" fill="#FFE0FF"/>
</g>
<g style="mix-blend-mode:soft-light">
<path d="M12.8612 15.3093C12.5462 14.8993 13.8404 14.8185 13.7687 15.2161C13.697 15.6137 13.0452 15.5484 12.8612 15.3093Z" fill="#FFE0FF"/>
</g>
<g style="mix-blend-mode:soft-light">
<path d="M11.6699 9.76204C11.3206 9.70924 11.2863 10.3832 11.5888 10.4391C11.8882 10.495 12.6304 9.91113 11.6699 9.76204Z" fill="#FFE0FF"/>
</g>
<g style="mix-blend-mode:soft-light">
<path d="M15.119 5.43853C14.6575 5.40437 14.5234 6.29578 14.9101 6.3579C15.2968 6.42002 15.7396 5.48512 15.119 5.43853Z" fill="#FFE0FF"/>
</g>
</g>
<defs>
<linearGradient id="paint0_linear_11_6018" x1="18.3741" y1="19.8465" x2="23.958" y2="1.29969" gradientUnits="userSpaceOnUse">
<stop stop-color="#E0001D"/>
<stop offset="1" stop-color="#FF5757"/>
</linearGradient>
<linearGradient id="paint1_linear_11_6018" x1="5.92935" y1="13.8757" x2="9.94421" y2="-2.40148" gradientUnits="userSpaceOnUse">
<stop stop-color="#A9001D"/>
<stop offset="1" stop-color="#E5003E"/>
</linearGradient>
<linearGradient id="paint2_linear_11_6018" x1="2.3043" y1="16.7499" x2="22.4369" y2="21.7562" gradientUnits="userSpaceOnUse">
<stop stop-color="#CFD984"/>
<stop offset="1" stop-color="#EFF472"/>
</linearGradient>
<linearGradient id="paint3_linear_11_6018" x1="18.21" y1="10.9843" x2="19.318" y2="7.30406" gradientUnits="userSpaceOnUse">
<stop stop-color="#E5003E"/>
<stop offset="1" stop-color="#A9001D"/>
</linearGradient>
<linearGradient id="paint4_linear_11_6018" x1="21.134" y1="17.1277" x2="23.262" y2="12.4412" gradientUnits="userSpaceOnUse">
<stop stop-color="#E5003E"/>
<stop offset="1" stop-color="#A9001D"/>
</linearGradient>
<linearGradient id="paint5_linear_11_6018" x1="23.5884" y1="10.7605" x2="24.5952" y2="7.41652" gradientUnits="userSpaceOnUse">
<stop stop-color="#E5003E"/>
<stop offset="1" stop-color="#A9001D"/>
</linearGradient>
<linearGradient id="paint6_linear_11_6018" x1="23.6567" y1="7.17613" x2="23.6665" y2="7.1434" gradientUnits="userSpaceOnUse">
<stop stop-color="#A9001D"/>
<stop offset="1" stop-color="#E5003E"/>
</linearGradient>
</defs>
</svg>
