<svg width="28" height="27" viewBox="0 0 28 27" fill="none" xmlns="http://www.w3.org/2000/svg">
<path d="M1.79662 4.54608C0.143442 -1.07009 24.4641 7.43676 25.375 13.4874C26.1819 18.8486 6.18955 19.4771 1.79662 4.54608Z" fill="#A40027"/>
<path d="M7.60605 12.7585C7.21517 11.5627 9.1875 5.2499 10.5215 4.67895C11.8878 4.09363 13.2505 7.73121 12.7556 11.3257C12.3002 14.6257 7.76742 13.2504 7.60963 12.7621L7.60605 12.7585Z" fill="url(#paint0_linear_11_4591)"/>
<path d="M11.1096 14.7119C10.0589 13.1894 13.0605 6.72576 15.7428 6.57135C18.5005 6.41335 16.8007 14.6832 14.1614 15.563C11.644 16.4032 11.1096 14.7119 11.1096 14.7119Z" fill="url(#paint1_linear_11_4591)"/>
<path d="M14.7603 16.6797C14.4088 15.9113 16.5927 10.9379 18.6942 9.91808C20.8853 8.85517 21.5953 12.4963 19.2213 15.7748C17.0661 18.7481 14.7638 16.6797 14.7638 16.6797H14.7603Z" fill="url(#paint2_linear_11_4591)"/>
<path d="M6.3043 11.7315C7.95031 12.306 8.3376 9.33994 7.31199 6.01835C6.21465 2.46336 4.30686 2.87272 3.41752 3.66272C2.54969 4.43476 3.18801 10.6398 6.3043 11.7279V11.7315Z" fill="url(#paint3_linear_11_4591)"/>
<path d="M6.5123 7.03817C7.96466 12.1588 10.8299 4.40244 10.2024 1.46508C9.53536 -1.65182 3.2454 0.983903 2.40267 2.21558C1.58863 3.40417 5.13884 2.19763 6.5123 7.03817Z" fill="url(#paint4_linear_11_4591)"/>
<path d="M7.08966 8.95571C9.10861 4.56404 3.77614 1.55127 1.96517 2.81527C0.229517 4.02181 -1.10091 9.53026 1.31609 11.6633C2.64294 12.8339 6.50872 10.2125 7.08607 8.95212L7.08966 8.95571Z" fill="url(#paint5_linear_11_4591)"/>
<path d="M10.8263 8.65767C8.8002 6.64317 10.4641 3.70222 10.2059 1.4615C9.9334 -0.883362 15.7572 -0.337545 16.5999 3.53345C17.3817 7.13872 11.1957 9.02394 10.8263 8.65408V8.65767Z" fill="url(#paint6_linear_11_4591)"/>
<path d="M18.332 3.62681C15.9939 3.94281 14.9001 7.33621 15.0758 9.39739C15.2444 11.3688 20.4191 12.1408 22.4201 8.64689C24.6255 4.79385 19.2966 3.49394 18.332 3.62322V3.62681Z" fill="url(#paint7_linear_11_4591)"/>
<path d="M3.38883 17.6708C2.01895 17.5487 1.39498 20.2311 3.396 22.8417C5.30379 25.323 6.83504 23.3121 7.18647 21.628C7.55584 19.8541 4.29252 17.7534 3.38883 17.6744V17.6708Z" fill="url(#paint8_linear_11_4591)"/>
<path d="M2.02255 11.5663C0.84632 10.1407 -1.28739 15.071 2.02614 18.5183C3.89806 20.4646 3.65062 15.6456 3.53587 15.089C3.41753 14.5216 2.27357 11.8679 2.02255 11.5663Z" fill="url(#paint9_linear_11_4591)"/>
<path d="M18.1096 13.0924C17.769 11.0384 21.4016 7.23926 23.7182 7.30389C27.8422 7.41521 26.6516 12.2845 25.3463 14.4857C24.2167 16.3853 18.1096 13.096 18.1096 13.096V13.0924Z" fill="url(#paint10_linear_11_4591)"/>
<path d="M19.458 13.096C18.7336 11.9613 23.876 9.70621 27.0246 10.7512C28.7889 11.3365 28.2869 15.7892 24.4534 18.7696C21.2295 21.2761 20.9498 19.4052 21.373 18.2095C21.8105 16.9706 21.1399 15.7353 19.458 13.096Z" fill="url(#paint11_linear_11_4591)"/>
<g style="mix-blend-mode:multiply">
<path d="M7.49847 6.96994C8.30175 8.24471 9.77203 5.61617 9.77203 5.61617C9.77203 5.61617 9.66804 7.23926 11.5902 8.00053C13.5087 8.75821 15.8719 5.95372 15.8719 5.95372C15.8719 5.95372 14.7208 9.58053 16.4672 10.3238C18.21 11.0672 20.6988 8.67203 20.6988 8.67203C20.6988 8.67203 18.5364 10.9558 18.644 11.692C18.7515 12.4281 22.6568 10.8266 22.6568 10.8266L20.9104 12.4784L16.1947 15.7641L8.81814 14.2379L6.91394 9.15321L7.49847 6.96635V6.96994Z" fill="#CA0092"/>
</g>
<path d="M18.5973 21.2869C17.8012 21.2115 14.3622 23.2726 14.0681 23.7071C13.7812 24.1345 12.856 25.0465 13.7346 25.6857C14.5881 26.307 16.2592 25.6785 17.145 24.8993C19.2859 23.0285 18.8842 21.312 18.5973 21.2833V21.2869Z" fill="url(#paint12_linear_11_4591)"/>
<path d="M21.9001 17.7283C21.1901 17.2291 18.9524 19.2867 17.7295 20.8919C16.5712 22.4144 15.6747 24.0303 15.8612 24.4074C16.0441 24.7808 19.5297 24.454 21.3694 22.1164C23.3668 19.5776 22.3017 18.012 21.9001 17.7283Z" fill="url(#paint13_linear_11_4591)"/>
<path d="M7.46618 19.89C6.3545 19.3693 4.50409 21.9368 5.33248 24.1883C6.11782 26.3213 8.28381 26.6337 9.05123 24.8167C9.86885 22.8848 8.0794 20.1809 7.46618 19.8936V19.89Z" fill="url(#paint14_linear_11_4591)"/>
<path d="M6.00308 13.5628C5.96005 13.5485 3.67572 14.3995 3.53228 15.089C3.39601 15.7641 2.25205 18.7373 4.08812 21.4736C4.95953 22.7699 6.74181 21.9332 7.65984 19.434C8.04355 18.3926 6.31865 13.667 5.99949 13.5664L6.00308 13.5628Z" fill="url(#paint15_linear_11_4591)"/>
<path d="M12.6122 21.4987C12.2357 21.3551 8.20134 24.5654 8.35912 25.6785C8.69621 28.0306 12.8991 26.824 13.8315 25.2943C15.7321 22.1666 13.3258 21.7752 12.6122 21.5023V21.4987Z" fill="url(#paint16_linear_11_4591)"/>
<path d="M11.8412 16.4248C11.1563 15.9795 7.98258 18.3423 7.56301 19.1108C7.1542 19.8613 6.81711 22.874 8.15113 24.6049C9.44211 26.2782 11.895 24.6515 13.1895 21.0606C13.6055 19.9008 12.9995 17.1681 11.8448 16.4212L11.8412 16.4248Z" fill="url(#paint17_linear_11_4591)"/>
<path d="M17.5681 17.6241C17.0625 17.3871 14.0574 19.7859 13.1896 21.0642C12.3576 22.2887 12.4078 23.9082 12.9493 24.5187C13.9211 25.6175 17.7726 24.5869 18.3571 20.3532C18.4503 19.6889 18.0236 17.8396 17.5681 17.6277V17.6241Z" fill="url(#paint18_linear_11_4591)"/>
<path d="M9.35246 12.2845C10.3494 11.8967 8.37705 5.79212 3.91957 7.72044C1.47387 8.77975 1.77869 13.0422 2.76127 14.7873C3.71158 16.4751 7.45543 13.0206 9.35246 12.2845Z" fill="url(#paint19_linear_11_4591)"/>
<path d="M10.0015 11.7028C7.49129 11.7028 5.42213 13.1427 5.2249 15.8718C5.04201 18.4177 6.5625 20.4681 8.95082 19.6494C9.68955 19.3981 11.5651 17.7391 11.8017 17.1645C12.2894 15.9652 12.7772 11.7028 10.0015 11.7028Z" fill="url(#paint20_linear_11_4591)"/>
<path d="M17.439 13.175C16.3094 13.8322 17.6972 16.098 17.5645 18.1197C17.4354 20.0408 19.2894 21.6819 21.9431 18.1161C24.9339 14.0979 21.4698 10.8338 17.439 13.1786V13.175Z" fill="url(#paint21_linear_11_4591)"/>
<path d="M13.2577 13.3438C12.354 13.904 12.0492 14.5934 11.3248 16.888C10.6434 19.0426 11.9846 20.5974 12.9493 20.996C13.9175 21.3946 15.8468 20.601 17.561 18.1197C18.4288 16.8629 17.5108 10.7117 13.2541 13.3474L13.2577 13.3438Z" fill="url(#paint22_linear_11_4591)"/>
<g style="mix-blend-mode:multiply" opacity="0.6">
<path d="M23.8653 18.3603C23.2807 17.9509 22.8576 16.4427 22.8576 16.4427C22.8576 16.4427 22.75 16.6438 22.5599 16.9562C21.9109 18.0263 20.3258 20.3604 19.0599 20.0516C17.4283 19.653 17.6184 18.0299 17.6184 18.0299C17.6184 18.0299 15.5815 21.2402 13.4442 20.8991C11.3069 20.5543 11.3212 17.5128 11.3212 17.5128C11.3212 17.5128 9.57839 20.5005 7.16856 19.4986C4.75872 18.4931 5.86681 13.7783 5.86681 13.7783C5.86681 13.7783 4.44315 15.5055 2.96569 14.3744C2.32737 13.886 2.2162 12.7441 2.27716 11.6417C2.35247 10.1802 2.71825 8.79053 2.5497 9.07062C2.24489 9.56616 0.803289 11.674 0.0681458 9.0383C0.415994 11.1426 1.32327 11.6668 1.32327 11.6668C1.32327 11.6668 1.32327 11.674 1.32327 11.692C1.3412 11.8823 1.45954 13.0314 2.10862 14.2379C2.81507 15.5594 3.08044 18.8415 3.08044 18.8415C3.08044 18.8415 2.99079 20.382 3.65421 21.7537C4.25667 23.0033 5.15319 23.8292 5.31815 23.9693L5.34325 23.9908C5.34325 23.9908 5.15677 23.4235 5.31815 22.8633C5.47952 22.3031 6.83864 21.4916 6.83864 21.4916C6.58044 23.5599 7.35862 24.7377 7.89653 25.2871C8.15831 25.5565 8.3663 25.675 8.3663 25.675C8.3663 25.675 8.65677 26.034 10.1235 26.2387C11.3678 26.4147 12.4974 25.9981 13.2147 25.6283C13.6988 25.3769 13.9928 25.1471 13.9928 25.1471C14.0395 25.262 14.165 25.3518 14.3371 25.4092C14.9396 25.6319 16.1301 25.5457 16.5676 25.3195C17.0912 25.0465 17.6363 24.4361 17.7008 24.3607C17.665 24.3858 17.5 24.5043 17.0446 24.4935C17.0302 24.4935 17.0159 24.49 17.0015 24.4935C16.4421 24.472 16.5318 23.919 16.5318 23.919C16.5318 23.919 15.3555 25.104 13.9426 24.7988C12.5261 24.49 12.5082 22.6047 12.5082 22.6047C12.5082 22.6047 10.4247 25.9084 8.7536 25.1255C7.08249 24.3427 7.23669 21.9656 7.23669 21.9656C7.23669 21.9656 7.28331 20.1306 8.958 19.9654C10.6291 19.8038 12.042 20.5076 12.7054 21.2976C12.8991 21.5239 12.5082 22.6083 12.5082 22.6083C12.5082 22.6083 13.1967 21.6388 13.9139 21.391C14.6347 21.1396 18.2925 19.8792 18.2818 20.7375C18.2674 21.5562 17.0912 23.3193 16.98 23.4881C17.0733 23.4055 17.6793 22.8346 18.4969 21.8614C19.3146 20.8883 21.4447 19.1503 21.9934 18.8451C22.0364 18.8163 22.0722 18.8056 22.0938 18.7984C22.3806 18.7337 22.5277 19.9259 22.5277 19.9259C23.5318 19.574 25.0164 18.2956 25.3069 18.0335C25.1061 18.1879 24.3745 18.7122 23.8724 18.3639L23.8653 18.3603ZM4.47183 21.7932C3.10913 20.8991 2.91907 17.5775 3.2705 16.1375C3.40319 15.5845 4.70134 15.1321 4.98106 15.4122C5.26077 15.6922 5.37194 18.6942 6.02101 19.75C6.67009 20.8021 5.83095 22.6909 4.47183 21.7932Z" fill="#CA0092"/>
</g>
<g style="mix-blend-mode:multiply" opacity="0.8">
<path d="M21.9862 18.8379C21.3371 20.3999 20.1788 22.576 18.5077 23.6892C18.0917 23.9693 17.5968 24.2458 17.0374 24.4971C16.2413 24.8598 15.3197 25.1794 14.3335 25.4128C13.9677 25.499 13.5912 25.5744 13.2075 25.6319C11.4933 25.8904 9.63934 25.8509 7.88934 25.2871C7 24.9999 6.13934 24.5797 5.33606 23.9908L5.31096 23.9693C1.12244 20.8667 1.30174 12.227 1.31967 11.692C1.31967 11.674 1.31967 11.6668 1.31967 11.6668L2.27356 11.6417C2.2126 12.7405 2.32018 13.8824 2.96209 14.3744C4.43955 15.5055 5.86321 13.7783 5.86321 13.7783C5.86321 13.7783 4.75512 18.4932 7.16496 19.4986C9.57838 20.5005 11.3176 17.5128 11.3176 17.5128C11.3176 17.5128 11.3033 20.5543 13.4406 20.8991C15.5779 21.2438 17.6148 18.0299 17.6148 18.0299C17.6148 18.0299 17.4247 19.653 19.0563 20.0516C20.3222 20.364 21.9073 18.0263 22.5564 16.9562C22.5958 16.9922 22.6137 17.0173 22.6137 17.0317C22.6066 17.1142 22.395 17.8576 21.9862 18.8379Z" fill="#E64592"/>
</g>
<g style="mix-blend-mode:soft-light" opacity="0.3">
<path d="M13.2577 13.3438C11.9559 13.825 11.7551 17.2543 13.7562 19.0821C15.7608 20.9098 17.1844 18.1089 17.6793 16.5469C18.1706 14.9812 16.6322 12.1013 13.2577 13.3474V13.3438Z" fill="#FFD8FF"/>
</g>
<g style="mix-blend-mode:soft-light" opacity="0.3">
<path d="M18.8806 13.1176C18.0523 13.7567 18.6906 17.2471 19.9278 17.9114C21.165 18.5757 22.8719 17.4841 22.9795 14.9633C23.0835 12.4461 19.9098 12.3204 18.8806 13.114V13.1176Z" fill="#FFD8FF"/>
</g>
<g style="mix-blend-mode:soft-light" opacity="0.3">
<path d="M23.5856 11.2108C22.3125 12.1839 23.3704 14.1912 24.6865 15.3403C26.0061 16.4858 28.2116 13.3653 27.498 11.7566C26.7879 10.1479 24.9375 10.1766 23.582 11.2144L23.5856 11.2108Z" fill="#FFD8FF"/>
</g>
<g style="mix-blend-mode:soft-light" opacity="0.3">
<path d="M7.29047 6.73294C7.35144 7.4583 3.34222 7.17103 2.05482 6.25535C0.767422 5.33967 1.1332 3.32158 1.96517 2.81167C2.79713 2.30176 7.04662 3.79558 7.28689 6.73294H7.29047Z" fill="#FFD8FF"/>
</g>
<g style="mix-blend-mode:soft-light" opacity="0.3">
<path d="M11.8412 0.664315C10.7582 0.854633 10.0768 4.86567 11.7982 5.82444C13.5195 6.78321 16.1445 5.3684 16.4134 4.21931C16.6824 3.07022 13.645 0.341134 11.8376 0.660724L11.8412 0.664315Z" fill="#FFD8FF"/>
</g>
<g style="mix-blend-mode:soft-light" opacity="0.3">
<path d="M17.8837 4.10799C17.4498 4.24085 15.9329 5.3684 16.8043 6.76167C17.6757 8.15494 21.8822 8.03285 22.2695 6.60726C22.6568 5.18167 19.519 3.60885 17.8837 4.10799Z" fill="#FFD8FF"/>
</g>
<g style="mix-blend-mode:soft-light">
<path d="M14.1399 20.8883C13.4262 20.461 16.0548 19.0031 16.4134 18.9492C16.772 18.8953 15.5456 20.6154 14.1399 20.8883Z" fill="#FFD8FF"/>
</g>
<g style="mix-blend-mode:soft-light">
<path d="M14 24.5833C13.1788 24.0088 15.9974 22.6083 16.7362 22.5401C17.4713 22.4719 16.1086 25.2979 14 24.5833Z" fill="#FFD8FF"/>
</g>
<g style="mix-blend-mode:soft-light">
<path d="M7.42675 19.5309C6.60554 18.9564 9.42419 17.5559 10.1629 17.4877C10.8981 17.4195 9.53536 20.2455 7.42675 19.5309Z" fill="#FFD8FF"/>
</g>
<g style="mix-blend-mode:soft-light">
<path d="M18.7479 19.8002C18.2136 19.4268 20.0497 18.5147 20.5302 18.468C21.0108 18.4249 20.1214 20.2635 18.7479 19.8002Z" fill="#FFD8FF"/>
</g>
<g style="mix-blend-mode:soft-light">
<path d="M10.0123 26.684C9.60348 26.1741 11.6224 25.8186 12.0958 25.9119C12.5692 26.0053 11.1957 27.5207 10.0123 26.684Z" fill="#FFD8FF"/>
</g>
<g style="mix-blend-mode:soft-light">
<path d="M18.3571 24.0591C18.0594 23.5025 20.6773 21.8327 21.1434 21.567C21.6096 21.3012 20.4011 23.7933 18.3571 24.0591Z" fill="#FFD8FF"/>
</g>
<g style="mix-blend-mode:soft-light">
<path d="M24.708 18.3998C24.2741 17.9401 26.3648 15.642 26.7485 15.2649C27.1286 14.8879 26.6158 17.6062 24.708 18.3998Z" fill="#FFD8FF"/>
</g>
<g style="mix-blend-mode:soft-light">
<path d="M9.09785 25.0322C8.61014 24.8706 10.3745 23.7754 10.8945 23.7969C11.4144 23.8185 10.3637 25.4523 9.09785 25.0322Z" fill="#FFD8FF"/>
</g>
<path d="M16.2879 14.5001C15.3412 14.6114 15.6424 16.1734 16.5138 16.3099C17.3852 16.4463 17.3673 14.3744 16.2879 14.5001Z" fill="#FFD8FF"/>
<g style="mix-blend-mode:soft-light">
<path d="M9.56763 12.7944C8.94724 12.069 7.81763 13.1894 8.19417 13.9902C8.56712 14.7909 10.2741 13.6203 9.56763 12.7944Z" fill="#FFD8FF"/>
</g>
<g style="mix-blend-mode:soft-light">
<path d="M10.3637 20.7734C9.58556 19.9834 8.37347 21.3695 8.86835 22.2672C9.36323 23.1649 11.2495 21.6747 10.3637 20.7734Z" fill="#FFD8FF"/>
</g>
<g style="mix-blend-mode:soft-light">
<path d="M3.72234 16.7444C3.06968 17.1071 3.13782 18.7409 3.71517 18.6691C4.29253 18.5973 4.46466 16.3314 3.72234 16.7444Z" fill="#FFD8FF"/>
</g>
<path d="M21.3227 14.1158C20.9785 14.0009 21.0968 15.1249 21.5236 15.0495C21.9503 14.9741 21.667 14.2272 21.3227 14.1158Z" fill="#FFD8FF"/>
<path d="M24.8765 11.5304C24.5681 11.7207 25.5041 12.3527 25.7193 11.9792C25.938 11.6058 25.1849 11.3401 24.8765 11.5304Z" fill="#FFD8FF"/>
<g style="mix-blend-mode:soft-light" opacity="0.3">
<path d="M4.67623 9.34712C3.5789 8.86235 5.51896 7.91794 6.57326 8.54276C7.62757 9.16758 6.19673 10.0186 4.67623 9.34712Z" fill="#FFD8FF"/>
</g>
<path d="M7.78536 1.09522C6.85298 0.779223 7.73515 2.19045 8.27306 2.19404C8.81097 2.19763 8.32327 1.27836 7.78536 1.09522Z" fill="#FFD8FF"/>
<g style="mix-blend-mode:soft-light" opacity="0.3">
<path d="M10.7654 8.79771C9.19467 7.90717 9.52818 10.507 10.8299 11.0636C12.1317 11.6202 12.3719 9.7098 10.7654 8.79771Z" fill="#FFD8FF"/>
</g>
<g style="mix-blend-mode:soft-light" opacity="0.3">
<path d="M14.3443 9.3148C13.0891 8.83721 12.4401 11.1282 12.8058 11.9074C13.1716 12.6867 14.8499 12.0978 15.2838 11.5627C15.7177 11.0277 14.7746 9.47998 14.3479 9.3148H14.3443Z" fill="#FFD8FF"/>
</g>
<g style="mix-blend-mode:multiply" opacity="0.71">
<path d="M9.62859 19.2544C10.2777 18.7445 10.9303 18.9959 11.4037 19.5561C11.877 20.1162 11.1993 17.9689 11.1957 17.7031C11.1921 17.4374 10.3673 18.7445 9.62859 19.2544Z" fill="#CA0092"/>
</g>
<g style="mix-blend-mode:multiply" opacity="0.71">
<path d="M16.1122 19.9331C16.8402 19.0497 17.7223 19.6566 17.7223 19.6566L17.6183 18.0299L16.1122 19.9331Z" fill="#CA0092"/>
</g>
<g style="mix-blend-mode:multiply" opacity="0.71">
<path d="M4.61526 14.7802C4.9667 14.4965 5.56916 15.3798 5.56916 15.3798L5.75922 13.8896L4.61885 14.7766L4.61526 14.7802Z" fill="#CA0092"/>
</g>
<g style="mix-blend-mode:multiply" opacity="0.71">
<path d="M20.9104 12.482C20.9104 12.482 22.1009 12.5035 22.9759 13.1248C23.8509 13.746 23.0333 15.6635 23.0333 15.6635C23.0333 15.6635 23.5282 12.9344 20.9104 12.482Z" fill="#CA0092"/>
</g>
<g style="mix-blend-mode:multiply" opacity="0.71">
<path d="M17.0374 13.6921C17.0374 13.6921 18.4898 16.0944 17.6148 18.0299C17.6148 18.0299 19.2787 15.2434 17.0374 13.6921Z" fill="#CA0092"/>
</g>
<g style="mix-blend-mode:multiply" opacity="0.71">
<path d="M9.60349 11.7135C9.60349 11.7135 7.49129 11.6058 5.86322 13.7747C5.86322 13.7747 6.68802 11.2826 9.60349 11.7135Z" fill="#CA0092"/>
</g>
<g style="mix-blend-mode:multiply" opacity="0.71">
<path d="M2.54611 9.06703C2.54611 9.06703 4.12039 6.58212 7.19365 7.72762C7.19365 7.72762 4.13115 5.92139 2.54611 9.06703Z" fill="#CA0092"/>
</g>
<g style="mix-blend-mode:multiply" opacity="0.71">
<path d="M4.35349 21.7788C4.6583 22.3318 4.83402 23.1972 5.01332 23.1972C5.19262 23.1972 5.35041 22.4 5.62295 22.1738C5.89549 21.9476 4.92008 22.0841 4.35349 21.7788Z" fill="#CA0092"/>
</g>
<g style="mix-blend-mode:multiply" opacity="0.71">
<path d="M12.7843 24.5654C12.5082 24.77 11.2889 24.806 11.1993 24.5366C11.1096 24.2673 12.0886 23.2511 12.3181 22.9961C12.5441 22.7412 12.8919 24.4864 12.7843 24.5654Z" fill="#CA0092"/>
</g>
<g style="mix-blend-mode:multiply" opacity="0.71">
<path d="M15.499 24.6013C15.499 24.6013 16.4708 24.6013 16.6286 24.5223C16.7864 24.4433 16.5246 23.9226 16.5246 23.9226C16.5246 23.9226 16.0799 24.3679 15.499 24.6013Z" fill="#CA0092"/>
</g>
<g style="mix-blend-mode:multiply" opacity="0.71">
<path d="M26.562 10.6219C26.562 10.6219 26.5763 10.0078 26.146 9.64157C25.7157 9.2753 23.4636 10.6003 23.4636 10.6003C23.4636 10.6003 25.1491 10.331 26.562 10.6219Z" fill="#CA0092"/>
</g>
<g style="mix-blend-mode:multiply" opacity="0.71">
<path d="M10.206 1.46509C10.206 1.46509 10.4893 3.13486 9.91907 5.09908C9.91907 5.09908 10.8443 3.12049 10.206 1.46509Z" fill="#CA0092"/>
</g>
<g style="mix-blend-mode:multiply" opacity="0.71">
<path d="M3.46414 2.55672C3.46414 2.55672 5.3289 2.64291 6.89601 4.16904C8.46312 5.69517 7.32633 7.39367 7.32633 7.39367C7.32633 7.39367 8.23361 4.3019 3.46414 2.55672Z" fill="#CA0092"/>
</g>
<g style="mix-blend-mode:soft-light">
<path d="M16.6788 9.88576C16.1839 9.14244 19.5333 8.77258 19.7915 9.08858C20.0497 9.40458 17.4821 11.0923 16.6788 9.88576Z" fill="#FFD8FF"/>
</g>
<g style="mix-blend-mode:soft-light">
<path d="M11.9667 8.00053C11.3678 7.77071 14.1685 6.5139 14.5487 6.67908C14.9252 6.84426 13.1609 8.45658 11.9667 8.00053Z" fill="#FFD8FF"/>
</g>
<defs>
<linearGradient id="paint0_linear_11_4591" x1="9.14356" y1="13.5156" x2="12.5154" y2="5.24786" gradientUnits="userSpaceOnUse">
<stop stop-color="#C0001D"/>
<stop offset="1" stop-color="#F01936"/>
</linearGradient>
<linearGradient id="paint1_linear_11_4591" x1="12.4004" y1="15.7899" x2="16.1437" y2="6.61126" gradientUnits="userSpaceOnUse">
<stop stop-color="#C0001D"/>
<stop offset="1" stop-color="#F01936"/>
</linearGradient>
<linearGradient id="paint2_linear_11_4591" x1="16.4158" y1="17.5128" x2="19.5951" y2="9.71711" gradientUnits="userSpaceOnUse">
<stop stop-color="#C0001D"/>
<stop offset="1" stop-color="#F01936"/>
</linearGradient>
<linearGradient id="paint3_linear_11_4591" x1="4.07266" y1="10.8272" x2="6.90895" y2="3.87256" gradientUnits="userSpaceOnUse">
<stop stop-color="#C0001D"/>
<stop offset="1" stop-color="#F01936"/>
</linearGradient>
<linearGradient id="paint4_linear_11_4591" x1="4.63467" y1="7.5319" x2="7.84243" y2="-0.333588" gradientUnits="userSpaceOnUse">
<stop stop-color="#EB001D"/>
<stop offset="1" stop-color="#FF5757"/>
</linearGradient>
<linearGradient id="paint5_linear_11_4591" x1="1.80232" y1="11.9252" x2="5.36123" y2="3.19871" gradientUnits="userSpaceOnUse">
<stop stop-color="#EB001D"/>
<stop offset="1" stop-color="#FF5757"/>
</linearGradient>
<linearGradient id="paint6_linear_11_4591" x1="11.0452" y1="8.75436" x2="14.3533" y2="0.642873" gradientUnits="userSpaceOnUse">
<stop stop-color="#EB001D"/>
<stop offset="1" stop-color="#FF5757"/>
</linearGradient>
<linearGradient id="paint7_linear_11_4591" x1="17.494" y1="11.2254" x2="20.4197" y2="4.05134" gradientUnits="userSpaceOnUse">
<stop stop-color="#EB001D"/>
<stop offset="1" stop-color="#FF5757"/>
</linearGradient>
<linearGradient id="paint8_linear_11_4591" x1="3.41674" y1="23.3974" x2="5.43684" y2="18.4441" gradientUnits="userSpaceOnUse">
<stop stop-color="#EB001D"/>
<stop offset="1" stop-color="#FF5757"/>
</linearGradient>
<linearGradient id="paint9_linear_11_4591" x1="0.819376" y1="18.2166" x2="3.35196" y2="12.0066" gradientUnits="userSpaceOnUse">
<stop stop-color="#EB001D"/>
<stop offset="1" stop-color="#FF5757"/>
</linearGradient>
<linearGradient id="paint10_linear_11_4591" x1="21.3058" y1="14.5247" x2="24.2749" y2="7.24431" gradientUnits="userSpaceOnUse">
<stop stop-color="#EB001D"/>
<stop offset="1" stop-color="#FF5757"/>
</linearGradient>
<linearGradient id="paint11_linear_11_4591" x1="21.0524" y1="19.6984" x2="25.0343" y2="9.93465" gradientUnits="userSpaceOnUse">
<stop stop-color="#EB001D"/>
<stop offset="1" stop-color="#FF5757"/>
</linearGradient>
<linearGradient id="paint12_linear_11_4591" x1="15.0327" y1="26.2542" x2="17.2792" y2="20.7457" gradientUnits="userSpaceOnUse">
<stop stop-color="#EB001D"/>
<stop offset="1" stop-color="#FF5757"/>
</linearGradient>
<linearGradient id="paint13_linear_11_4591" x1="17.8691" y1="25.2591" x2="21.0809" y2="17.3836" gradientUnits="userSpaceOnUse">
<stop stop-color="#EB001D"/>
<stop offset="1" stop-color="#FF5757"/>
</linearGradient>
<linearGradient id="paint14_linear_11_4591" x1="6.22694" y1="25.6369" x2="8.41381" y2="20.2747" gradientUnits="userSpaceOnUse">
<stop stop-color="#EB001D"/>
<stop offset="1" stop-color="#FF5757"/>
</linearGradient>
<linearGradient id="paint15_linear_11_4591" x1="3.81532" y1="21.6368" x2="6.94987" y2="13.9509" gradientUnits="userSpaceOnUse">
<stop stop-color="#EB001D"/>
<stop offset="1" stop-color="#FF5757"/>
</linearGradient>
<linearGradient id="paint16_linear_11_4591" x1="10.364" y1="27.2892" x2="12.7244" y2="21.5015" gradientUnits="userSpaceOnUse">
<stop stop-color="#EB001D"/>
<stop offset="1" stop-color="#FF5757"/>
</linearGradient>
<linearGradient id="paint17_linear_11_4591" x1="8.38936" y1="24.9756" x2="11.8737" y2="16.432" gradientUnits="userSpaceOnUse">
<stop stop-color="#EB001D"/>
<stop offset="1" stop-color="#FF5757"/>
</linearGradient>
<linearGradient id="paint18_linear_11_4591" x1="14.0597" y1="25.0858" x2="17.1685" y2="17.463" gradientUnits="userSpaceOnUse">
<stop stop-color="#EB001D"/>
<stop offset="1" stop-color="#FF5757"/>
</linearGradient>
<linearGradient id="paint19_linear_11_4591" x1="4.0214" y1="15.5133" x2="7.19527" y2="7.73093" gradientUnits="userSpaceOnUse">
<stop stop-color="#EB001D"/>
<stop offset="1" stop-color="#FF5757"/>
</linearGradient>
<linearGradient id="paint20_linear_11_4591" x1="7.08656" y1="19.6869" x2="10.358" y2="11.6651" gradientUnits="userSpaceOnUse">
<stop stop-color="#EB001D"/>
<stop offset="1" stop-color="#FF5757"/>
</linearGradient>
<linearGradient id="paint21_linear_11_4591" x1="17.9852" y1="19.8899" x2="21.0072" y2="12.4798" gradientUnits="userSpaceOnUse">
<stop stop-color="#EB001D"/>
<stop offset="1" stop-color="#FF5757"/>
</linearGradient>
<linearGradient id="paint22_linear_11_4591" x1="12.9738" y1="21.0061" x2="16.2534" y2="12.9644" gradientUnits="userSpaceOnUse">
<stop stop-color="#EB001D"/>
<stop offset="1" stop-color="#FF5757"/>
</linearGradient>
</defs>
</svg>
