<svg width="20" height="27" viewBox="0 0 20 27" fill="none" xmlns="http://www.w3.org/2000/svg">
<g clip-path="url(#clip0_11_4102)">
<path d="M19.3374 21.2357C19.2237 21.524 19.0934 21.8152 18.9465 22.1091C18.5556 22.8965 18.0787 23.5675 17.5409 24.1331L17.5353 24.1386C17.3829 24.2967 17.2276 24.4464 17.0668 24.5906C16.8506 24.7819 16.6315 24.9593 16.4014 25.1229C13.5292 27.1913 9.68395 27.1275 7.54089 26.537C5.21209 25.8937 1.48045 23.6867 0.341001 19.902V19.8965C0.152479 19.2616 0.0360387 18.585 0.0083148 17.8641C-0.00277475 17.5453 0.00277003 17.2181 0.0277215 16.8826C0.462986 11.2431 4.44413 9.18854 7.73496 10.2089C9.79484 10.8494 10.4852 11.8392 11.522 12.1248C12.5589 12.4104 13.6595 11.914 15.7582 12.4214C18.9104 13.1867 21.1894 16.6054 19.3402 21.2329L19.3374 21.2357Z" fill="url(#paint0_linear_11_4102)"/>
<g style="mix-blend-mode:multiply" opacity="0.3">
<path d="M13.9645 13.3558C15.7167 13.8078 13.9756 15.5102 9.82534 14.0823C6.82839 13.0508 8.74966 11.6229 9.87524 11.7532C11.0008 11.8835 11.0674 12.6072 13.9673 13.3558H13.9645Z" fill="#912774"/>
</g>
<g style="mix-blend-mode:multiply" opacity="0.3">
<path d="M8.91045 13.6747C8.15914 13.3614 11.1783 13.0536 12.7752 13.8549C14.3721 14.6562 12.6005 15.2163 8.91045 13.6747Z" fill="#912774"/>
</g>
<g style="mix-blend-mode:multiply" opacity="0.3">
<path d="M4.7685 13.9492C1.69115 11.1211 -0.698643 15.8235 1.10895 19.988C3.28528 25.0037 11.1034 27.6017 14.6992 25.2006C17.1361 23.573 18.5306 18.8179 17.3246 17.7948C16.5789 17.1627 14.3166 19.536 9.75326 17.964C5.18991 16.3919 5.67508 14.781 4.7685 13.9492Z" fill="#912774"/>
</g>
<g style="mix-blend-mode:soft-light" opacity="0.5">
<path d="M8.25063 11.2736C8.07319 9.73752 4.39701 10.2782 3.66787 11.8198C2.93873 13.3614 6.8672 17.11 10.4103 18.1442C13.9507 19.1756 17.5076 16.5804 18.4059 15.1137C19.3041 13.6442 15.9468 12.086 14.5883 12.4824C13.2298 12.8762 15.079 12.4131 14.361 14.293C13.6429 16.1728 9.31245 14.7089 7.77377 13.0037C6.2351 11.2985 8.33934 12.0471 8.25063 11.2736Z" fill="#FFD8FF"/>
</g>
<g style="mix-blend-mode:soft-light">
<path d="M8.36706 12.183C7.62961 13.2033 10.0471 12.5906 12.1736 13.3946C14.3 14.1987 14.4497 13.9908 14.4608 13.5804C14.4719 13.1701 13.4488 13.5887 11.8464 12.524C10.244 11.4593 8.96313 11.3651 8.36706 12.1858V12.183Z" fill="white"/>
</g>
<g style="mix-blend-mode:soft-light" opacity="0.5">
<path d="M17.5409 24.1331L17.5353 24.1386C17.405 24.244 17.2498 24.3993 17.0668 24.5906C14.1503 27.1996 9.85584 27.1747 7.54089 26.537C4.82396 25.7884 0.185752 22.8993 0.00554657 17.8669C0.864986 13.5028 6.46798 21.3438 8.99362 24.2634C11.522 27.183 16.9476 23.9945 18.5861 21.7153C19.2404 20.8031 19.4317 20.817 19.3346 21.2357C19.1877 21.8678 18.3892 23.4205 17.5381 24.1331H17.5409Z" fill="#FFEFFF"/>
</g>
<g style="mix-blend-mode:multiply" opacity="0.2">
<path d="M16.931 17.6867C15.5836 17.3124 13.1328 19.5194 10.2301 20.4233C7.32742 21.3272 8.07042 24.4603 11.0701 25.3863C14.0699 26.3124 16.5428 23.0961 17.4965 20.8669C18.4502 18.6377 17.4549 17.8309 16.9282 17.6839L16.931 17.6867Z" fill="#A85592"/>
</g>
<g style="mix-blend-mode:multiply" opacity="0.2">
<path d="M6.0244 15.6959C3.68173 13.3503 3.7954 12.4464 2.63654 12.9344C1.47768 13.4224 0.291102 14.6978 2.51178 16.9575C4.73247 19.2172 7.79318 18.8235 8.4142 18.3604C9.03521 17.8946 6.93929 16.6137 6.0244 15.6959Z" fill="#A85592"/>
</g>
<g style="mix-blend-mode:soft-light">
<path d="M2.19019 23.1516C2.22068 22.683 7.369 26.6922 11.7965 26.4233C16.224 26.1571 18.3088 22.2338 19.1156 21.0749C19.9224 19.9159 17.5298 24.5961 15.9357 25.439C13.6013 26.6701 8.51955 29.1266 2.19296 23.1516H2.19019Z" fill="#FF77FF"/>
</g>
<path d="M6.06321 12.0832C4.39146 11.9612 5.74716 14.0213 7.43277 15.3438C9.12116 16.6664 10.8622 16.1895 12.2124 16.6636C13.5625 17.1377 13.654 16.1673 13.5958 15.8262C13.5376 15.488 13.1966 16.2726 10.7375 15.6599C8.27835 15.0471 7.44109 12.183 6.06044 12.0832H6.06321Z" fill="white"/>
<path d="M15.5392 14.4677C14.9626 14.5065 14.8628 14.9945 14.58 15.3826C14.2972 15.7708 16.005 15.8041 16.3904 15.0444C16.7757 14.2847 15.9495 14.4372 15.5392 14.4677Z" fill="white"/>
<g style="mix-blend-mode:soft-light">
<path d="M8.8051 12.6904C7.54366 12.4797 9.01303 11.7033 10.3355 11.9473C11.2282 12.1109 12.1126 12.7874 12.3094 13.0287C12.509 13.2699 10.2717 12.9372 8.80233 12.6904H8.8051Z" fill="white"/>
</g>
<g style="mix-blend-mode:soft-light">
<path d="M12.8057 13.1479C12.3648 13.1201 12.789 13.6248 13.1467 13.6386C13.5043 13.6553 13.6623 13.5499 13.6512 13.403C13.6401 13.2532 13.0635 13.1645 12.8057 13.1479Z" fill="white"/>
</g>
<g style="mix-blend-mode:soft-light">
<path d="M18.8827 17.3706C17.9678 17.2985 18.2645 20.1682 17.9013 20.9307C17.5353 21.6932 19.0241 20.39 19.2736 19.1423C19.5231 17.8946 19.1156 17.3872 18.8827 17.3706Z" fill="white"/>
</g>
<g style="mix-blend-mode:soft-light" opacity="0.5">
<path d="M1.47768 17.3734C0.623789 17.1516 0.529528 19.0702 1.96008 20.9307C3.39063 22.7911 5.58359 22.6275 6.07985 22.2893C6.5761 21.951 4.02274 18.0333 1.47768 17.3706V17.3734Z" fill="white"/>
</g>
<path d="M5.55587 10.6137C5.30358 10.8022 6.76463 11.1349 7.50485 11.2098C8.24508 11.2847 8.58886 11.1405 8.68312 11.0351C8.77738 10.9298 6.96147 9.56007 5.55587 10.6137Z" fill="white"/>
<g style="mix-blend-mode:multiply" opacity="0.2">
<path d="M19.3374 21.2359C19.2237 21.5242 19.0934 21.8154 18.9465 22.1093C18.5556 22.8967 18.0787 23.5677 17.5409 24.1333L17.5353 24.1388C17.3829 24.2969 17.2276 24.4466 17.0668 24.5908C16.8506 24.7821 16.6315 24.9595 16.4014 25.1231H16.3848C16.3848 25.1231 19.4927 22.0094 19.44 17.8117C19.3845 13.6139 17.2609 13.2091 14.2501 12.8431C11.2393 12.4771 10.9121 11.7645 7.67674 10.3865C4.44414 9.01129 -1.04519 14.49 0.338232 19.8995C0.149709 19.2645 0.0332692 18.588 0.00554533 17.8671C-0.00554422 17.5483 5.56436e-07 17.2211 0.024952 16.8856C0.460217 11.246 4.44136 9.19151 7.73219 10.2118C9.79207 10.8523 10.4824 11.8422 11.5193 12.1277C12.5561 12.4133 13.6568 11.917 15.7555 12.4244C18.9077 13.1897 21.1866 16.6083 19.3374 21.2359Z" fill="#A85592"/>
</g>
<g style="mix-blend-mode:soft-light">
<path d="M6.83393 11.8669C4.69642 11.7033 4.07818 11.4898 4.799 13.3946C5.51982 15.2994 6.97532 17.9196 11.3723 18.1719C15.7693 18.4242 17.2137 15.6238 17.405 14.6534C17.5963 13.683 15.1178 14.7671 13.7954 15.0222C12.473 15.2773 10.5018 15.4298 8.76906 14.1183C7.03632 12.8068 7.2082 11.8974 6.83393 11.8697V11.8669Z" fill="#FFD8FF"/>
</g>
<g style="mix-blend-mode:soft-light">
<g style="mix-blend-mode:soft-light">
<path d="M1.48878 15.2773C1.50541 14.7283 1.71611 14.5619 2.00998 14.8475C2.30386 15.1331 2.12088 15.7985 1.86028 15.7458C1.59967 15.6932 1.48323 15.4603 1.48878 15.28V15.2773Z" fill="#FFD8FF"/>
</g>
<g style="mix-blend-mode:soft-light">
<path d="M4.33047 20.7144C4.06987 20.3263 4.74356 20.2209 4.89604 20.4455C5.04852 20.6701 4.73524 21.3216 4.33047 20.7144Z" fill="#FFD8FF"/>
</g>
<g style="mix-blend-mode:soft-light">
<path d="M14.8628 23.171C14.7546 23.9446 16.2212 23.695 16.1797 22.5305C16.1381 21.366 14.957 22.5 14.8628 23.171Z" fill="#FFD8FF"/>
</g>
<g style="mix-blend-mode:soft-light">
<path d="M10.219 24.2967C9.84475 24.0277 10.926 23.6229 10.9676 23.9834C11.0092 24.341 10.438 24.4547 10.219 24.2967Z" fill="#FFD8FF"/>
</g>
<g style="mix-blend-mode:soft-light">
<path d="M16.0272 21.2024C15.7167 21.2468 15.8636 21.8318 16.1325 21.8013C16.4014 21.7708 16.8811 21.0832 16.0272 21.2024Z" fill="#FFD8FF"/>
</g>
<g style="mix-blend-mode:soft-light">
<path d="M17.8431 16.622C17.4411 16.7107 17.5548 17.5065 17.9041 17.4621C18.2506 17.415 18.3837 16.5028 17.8431 16.622Z" fill="#FFD8FF"/>
</g>
</g>
<path d="M18.3088 1.378C18.3088 1.378 13.8148 6.64048 12.1652 12.1553C12.1292 12.2717 12.0959 12.3882 12.0627 12.5046C11.9074 13.073 12.0349 13.7468 11.9407 14.3096C11.9407 14.3096 11.1949 14.6146 10.1414 13.8105C10.1414 13.8105 10.6487 13.3919 10.962 12.6738C11.0175 12.5518 11.0674 12.4187 11.1034 12.2745C11.8686 9.50462 13.191 3.64325 16.2684 0.15804C16.2684 0.15804 17.8625 -0.379853 18.3088 1.37523V1.378Z" fill="url(#paint1_linear_11_4102)"/>
<path d="M16.2684 0.163582C16.2684 0.163582 15.1816 0.734746 14.2223 2.14879C13.2631 3.56284 15.1982 5.72273 15.3368 5.50369C15.4755 5.28465 17.4965 3.98706 18.3088 1.38077L16.2684 0.163582Z" fill="#865E00"/>
<path d="M16.2684 0.163585C15.6917 0.460257 14.5412 1.35859 15.1317 1.57486C15.8165 1.82717 18.3088 1.38078 18.3088 1.38078C18.3088 1.38078 17.6795 -0.565621 16.2656 0.163585H16.2684Z" fill="#B59F00"/>
<g style="mix-blend-mode:multiply" opacity="0.3">
<path d="M13.8564 3.96765C13.8564 3.96765 13.0884 5.47319 13.6984 6.93715C14.0865 7.87153 15.1954 5.48983 15.1954 5.48983C15.1954 5.48983 14.2722 4.66081 14.031 3.60998L13.8564 3.96765Z" fill="#912774"/>
</g>
<g style="mix-blend-mode:multiply" opacity="0.2">
<path d="M14.0006 2.87245C13.8037 1.78835 16.2933 1.56931 17.2276 1.4085C18.1591 1.24491 17.9789 1.98798 17.9789 1.98798C17.9789 1.98798 16.7175 4.10074 16.0992 4.71072C14.6188 6.16636 14.0948 3.39371 14.0006 2.87245Z" fill="#912774"/>
</g>
<g style="mix-blend-mode:soft-light">
<path d="M12.9027 6.2634C13.532 4.50554 13.8342 4.77172 13.1771 6.95102C12.5173 9.13309 11.3474 11.3789 11.3474 11.3789C11.3474 11.3789 12.4341 7.45841 12.9027 6.2634Z" fill="white"/>
</g>
<g style="mix-blend-mode:multiply" opacity="0.2">
<path d="M15.7361 1.74399C15.3119 2.27634 16.1464 2.78651 16.5511 2.75878C16.9559 2.73105 17.8708 1.51386 17.8708 1.51386L15.7361 1.74122V1.74399Z" fill="#912774"/>
</g>
<g style="mix-blend-mode:soft-light">
<path d="M3.15221 22.8216C4.94871 22.8216 0.934296 19.4307 1.26144 15.5601C1.59135 11.6922 4.64375 10.9298 4.93208 10.6802C5.22318 10.4307 1.08123 11.1738 0.424177 16.0037C-0.28001 21.1858 3.14943 22.8189 3.14943 22.8189L3.15221 22.8216Z" fill="#FFD8FF"/>
</g>
<g style="mix-blend-mode:multiply" opacity="0.3">
<path d="M12.0627 12.5074C11.9074 13.0758 12.0349 13.7495 11.9407 14.3124C11.9407 14.3124 11.1949 14.6174 10.1414 13.8133C10.1414 13.8133 10.6487 13.3946 10.962 12.6765H10.9703C10.7929 13.6081 11.5331 12.6599 12.1625 12.158C12.1264 12.2745 12.0931 12.3909 12.0599 12.5074H12.0627Z" fill="#912774"/>
</g>
</g>
<defs>
<linearGradient id="paint0_linear_11_4102" x1="7.54348" y1="26.5376" x2="11.7457" y2="11.3141" gradientUnits="userSpaceOnUse">
<stop stop-color="#BF001D"/>
<stop offset="1" stop-color="#D60000"/>
</linearGradient>
<linearGradient id="paint1_linear_11_4102" x1="10.1414" y1="7.22551" x2="18.3088" y2="7.22551" gradientUnits="userSpaceOnUse">
<stop stop-color="#84A600"/>
<stop offset="1" stop-color="#B5CE00"/>
</linearGradient>
<clipPath id="clip0_11_4102">
<rect width="20" height="27" fill="white"/>
</clipPath>
</defs>
</svg>
