<svg width="24" height="25" viewBox="0 0 24 25" fill="none" xmlns="http://www.w3.org/2000/svg">
<path d="M13.8724 5.52941C10.4653 4.66412 6.65729 2.14964 3.07538 4.04605C-0.50653 5.94246 -2.801 19.1299 7.00402 23.8784C16.8121 28.627 24.404 17.0827 23.9819 11.5623C23.7015 7.89916 17.6261 6.48515 13.8694 5.52941H13.8724Z" fill="url(#paint0_radial_12_7293)"/>
<g style="mix-blend-mode:multiply" opacity="0.4">
<path d="M8.54172 4.02194C10.194 4.95959 10.2995 6.4128 13.1488 8.16449C15.998 9.91618 18.7055 8.63482 19.39 8.56548C20.0744 8.49613 18.9106 7.35045 14.9548 6.4128C10.999 5.47515 8.54172 4.02194 8.54172 4.02194Z" fill="#9D8CA2"/>
</g>
<g style="mix-blend-mode:multiply" opacity="0.5">
<path d="M11.6201 6.97962C11.2734 5.61987 16.2754 8.12229 16.5799 8.37554C16.8844 8.6288 14.3065 9.62072 11.6201 6.97962Z" fill="#9D8CA2"/>
</g>
<g style="mix-blend-mode:multiply" opacity="0.4">
<path d="M0.340706 13.4618C1.82412 11.2367 7.30553 20.4896 11.7377 22.0333C16.1699 23.5769 18.3829 20.8062 19.197 20.8394C20.0111 20.8725 14.7317 27.0019 7.66734 23.8513C0.600002 20.6977 0.205027 13.6638 0.340706 13.4618Z" fill="#9D8CA2"/>
</g>
<g style="mix-blend-mode:soft-light" opacity="0.8">
<path d="M9.21105 5.93343C3.6814 4.79679 2.94572 19.0364 12.0784 21.2373C21.2111 23.4383 24 12.1744 22.7156 10.3564C21.4312 8.53835 18.3588 10.4559 14.6623 9.41872C10.9688 8.38157 10.3899 6.17463 9.21105 5.93042V5.93343Z" fill="#FFD8FF"/>
</g>
<g style="mix-blend-mode:soft-light">
<path d="M1.62813 8.53834C1.5015 10.5162 5.24622 7.46803 6.70854 6.03593C8.17386 4.60383 4.65527 3.82597 3.26532 4.51036C1.87537 5.19476 1.67638 7.82078 1.62813 8.53834Z" fill="#FFD8FF"/>
</g>
<g style="mix-blend-mode:soft-light" opacity="0.5">
<path d="M0.952759 17.3691C1.50452 16.2837 8.77085 24.3156 9.0211 24.5116C9.27135 24.7075 3.53668 23.5498 0.952759 17.3691Z" fill="#FFD8FF"/>
</g>
<g style="mix-blend-mode:multiply" opacity="0.4">
<path d="M13.3025 5.96961C12.8352 6.0691 10.6643 4.07923 7.83618 3.64508C5.00804 3.21394 2.12261 6.33141 2.00804 6.90123C1.89346 7.47106 3.23819 4.23903 7.20603 4.23903C9.91055 4.23903 5.97889 5.09226 3.43417 8.83683C0.889443 12.5814 3.73869 21.8554 4.28743 22.0453C4.83316 22.2353 0.765825 13.504 3.48241 9.08406C6.19899 4.66414 9.97688 5.83092 10.3176 6.16558C10.6613 6.49723 5.73467 8.69513 4.60703 13.5914C3.47939 18.4907 4.7216 22.4916 4.80603 22.6061C4.89045 22.7207 3.42211 15.9371 5.42713 12.105C7.43216 8.27304 10.6915 7.66703 14.2884 9.26797C17.8884 10.8689 17.2492 8.47805 19.9719 9.08406C25.1126 10.2297 22.3236 16.323 21.7417 17.8847C21.1598 19.4465 24.208 14.4959 23.008 11.095C21.808 7.69718 17.7256 6.76254 15.9497 6.5515C14.1739 6.34045 13.2995 5.9666 13.2995 5.9666L13.3025 5.96961Z" fill="#9D8CA2"/>
</g>
<g style="mix-blend-mode:soft-light" opacity="0.8">
<path d="M16.8 6.46404C16.399 6.44897 19.1216 7.60068 19.7126 8.34236C20.3035 9.08404 21.6422 9.06293 22.1729 9.08404C22.7065 9.10514 20.3246 7.14844 16.797 6.46404H16.8Z" fill="#FFD8FF"/>
</g>
<g style="mix-blend-mode:soft-light" opacity="0.8">
<path d="M13.2995 8.93027C10.4955 8.3303 13.1126 16.0667 16.5739 16.4677C20.0352 16.8686 23.1618 10.495 21.2774 9.32523C19.393 8.15543 16.1065 9.53025 13.2995 8.92726V8.93027Z" fill="#FFD8FF"/>
</g>
<path d="M16.3327 12.4186C15.1417 12.1714 16.0432 14.4627 16.6673 14.2758C17.2945 14.0889 18.5698 12.8829 16.3327 12.4186Z" fill="white"/>
<g style="mix-blend-mode:multiply" opacity="0.2">
<path d="M23.9849 12.4789C23.391 11.8427 22.2754 16.7872 20.8915 18.8917L19.5075 20.9961C19.5075 20.9961 23.4784 17.5953 23.9849 12.4789Z" fill="#9D8CA2"/>
</g>
<path d="M16.7487 6.81077C16.5045 6.80474 16.9116 7.43487 17.2734 7.57054C17.6352 7.70621 18.1719 7.60069 18.3377 7.48612C18.5035 7.37155 17.5176 6.83188 16.7518 6.81077H16.7487Z" fill="white"/>
<path d="M18.4914 2.2974C18.2442 3.26821 17.1708 4.1124 15.9769 5.45405C15.8894 5.55053 15.802 5.65304 15.7115 5.75555C14.4121 7.27509 14.4512 8.29113 14.4512 8.29113C14.4512 8.29113 13.592 8.93029 13.3538 7.56452C13.6221 7.77858 14.9819 4.85709 15.6995 3.024C15.8533 2.63809 15.9769 2.2974 16.0523 2.04716C16.5015 0.609022 17.2945 0.00603155 17.6894 0.039196C18.0814 0.0723605 18.7568 1.25422 18.4914 2.2974Z" fill="url(#paint1_linear_12_7293)"/>
<path d="M18.4915 2.2974C18.2442 3.26821 17.1709 4.1124 15.9769 5.45405C15.609 5.27014 15.5487 4.11843 15.7025 3.024C15.8563 2.63809 15.9799 2.2974 16.0553 2.04716C16.5015 0.609022 17.2945 0.00603155 17.6895 0.039196C18.0814 0.0723605 18.7568 1.25422 18.4915 2.2974Z" fill="#865E00"/>
<path d="M17.6895 0.0391873C16.7276 -0.388936 16.9658 2.74059 17.3668 3.13555C17.7678 3.5305 18.5367 2.39688 18.5397 1.99891C18.5397 1.59792 18.3528 0.337668 17.6895 0.0391873Z" fill="#B59F00"/>
<g style="mix-blend-mode:multiply" opacity="0.3">
<path d="M13.3025 7.70319C13.3538 7.56752 13.8633 7.04593 14.1558 6.46103C14.4513 5.87613 14.5477 7.92932 14.3578 8.27001C14.1678 8.6107 13.4744 8.67099 13.3025 7.70621V7.70319Z" fill="#912774"/>
</g>
<g style="mix-blend-mode:multiply" opacity="0.2">
<path d="M1.68844 12.7442C0.482407 11.1734 7.02512 6.31932 7.89648 6.84995C12.5337 9.66592 12.799 17.2214 11.5568 19.1449C10.3146 21.0685 3.62713 15.2677 1.68844 12.7442Z" fill="#9D8CA2"/>
</g>
<g style="mix-blend-mode:multiply" opacity="0.4">
<g style="mix-blend-mode:multiply" opacity="0.4">
<path d="M18.8683 18.5419C19.3508 18.2254 19.3839 17.945 18.9678 17.8395C18.5518 17.7339 18.0573 18.2616 18.2472 18.4666C18.4372 18.6686 18.7116 18.6475 18.8683 18.545V18.5419Z" fill="#904F56"/>
</g>
<g style="mix-blend-mode:multiply" opacity="0.4">
<path d="M12.4583 22.793C12.9498 22.8111 12.6724 22.1508 12.389 22.1388C12.1055 22.1267 11.6925 22.7659 12.4583 22.793Z" fill="#904F56"/>
</g>
<g style="mix-blend-mode:multiply" opacity="0.4">
<path d="M3.08744 15.4938C2.71056 15.9913 2.02915 15.0205 2.70754 14.3903C3.38594 13.7602 3.41307 15.0657 3.08744 15.4938Z" fill="#904F56"/>
</g>
<g style="mix-blend-mode:multiply" opacity="0.4">
<path d="M3.1176 17.5772C3.34071 17.6706 3.22313 17.0767 3.05127 17.1551C2.87941 17.2335 2.98493 17.5229 3.1176 17.5772Z" fill="#904F56"/>
</g>
<g style="mix-blend-mode:multiply" opacity="0.4">
<path d="M3.92865 10.2056C3.96182 10.4468 4.41408 10.0428 4.2573 9.93728C4.10051 9.82874 3.90755 10.0669 3.92865 10.2056Z" fill="#904F56"/>
</g>
<g style="mix-blend-mode:multiply" opacity="0.4">
<path d="M9.74473 13.4316C9.87739 13.7331 9.27136 13.923 9.15076 13.6668C9.03015 13.4105 9.38292 12.6025 9.74473 13.4316Z" fill="#904F56"/>
</g>
<g style="mix-blend-mode:multiply" opacity="0.4">
<path d="M8.4392 11.698C8.83116 11.8819 8.53267 12.6688 8.18594 12.5452C7.84222 12.4186 7.91458 11.4538 8.4392 11.698Z" fill="#904F56"/>
</g>
<g style="mix-blend-mode:multiply" opacity="0.4">
<path d="M5.41206 7.69716C5.55377 8.10417 4.7789 8.43883 4.62814 8.10417C4.47739 7.76951 5.22211 7.14843 5.41206 7.69716Z" fill="#904F56"/>
</g>
</g>
<path d="M3.18693 6.83189C2.81307 7.44694 3.6 7.48915 3.91055 6.79571C4.22111 6.09926 3.52764 6.27111 3.18693 6.83189Z" fill="white"/>
<g style="mix-blend-mode:multiply" opacity="0.2">
<path d="M23.5357 13.3261C23.5085 12.099 20.8975 14.9933 17.1708 16.9923C13.4442 18.9912 12.6211 21.4303 15 22.0604C17.3819 22.6905 23.6502 18.4455 23.5357 13.3261Z" fill="#9D8CA2"/>
</g>
<defs>
<radialGradient id="paint0_radial_12_7293" cx="0" cy="0" r="1" gradientUnits="userSpaceOnUse" gradientTransform="translate(15.8224 7.60519) rotate(19.7693) scale(14.807 14.8065)">
<stop stop-color="#FFE100"/>
<stop offset="0.85" stop-color="#D8BD00"/>
<stop offset="1" stop-color="#8EA700"/>
</radialGradient>
<linearGradient id="paint1_linear_12_7293" x1="15.1877" y1="8.68222" x2="16.9104" y2="-0.113729" gradientUnits="userSpaceOnUse">
<stop stop-color="#988600"/>
<stop offset="1" stop-color="#5E6000"/>
</linearGradient>
</defs>
</svg>
