<svg width="21" height="20" viewBox="0 0 21 20" fill="none" xmlns="http://www.w3.org/2000/svg">
<path d="M20.9934 10.2171C20.9934 11.4042 20.7754 12.5398 20.379 13.5918C18.9684 17.3331 15.2751 20 10.9476 20C5.39783 20 0 15.9048 0 10.5002C0 9.86006 0.0561586 9.22953 0.165172 8.60544C0.98773 3.96654 4.75035 0 9.64276 0C15.5691 0 20.9934 4.81583 20.9934 10.2171Z" fill="url(#paint0_radial_11_5365)"/>
<g style="mix-blend-mode:soft-light" opacity="0.5">
<path d="M8.22228 3.31992C8.89948 0.727032 4.13591 4.08878 3.92449 7.81727C3.71307 11.5458 5.83058 12.7393 8.02077 13.8459C10.211 14.9525 10.5941 9.91796 12.0444 10.0016C13.4946 10.0852 10.8023 15.6474 13.8613 16.5514C16.9202 17.4554 20.0883 13.6143 20.5012 11.3013C20.9141 8.98504 17.9674 9.0912 17.6767 8.16149C17.386 7.23178 18.9783 8.55074 19.89 8.45102C20.8018 8.34807 19.1963 5.33697 18.4696 4.94772C17.7428 4.55846 19.2888 5.74553 18.3903 6.38571C17.4917 7.02589 14.0628 9.59948 11.3143 8.38346C8.56583 7.16744 8.01416 4.10487 8.21897 3.32314L8.22228 3.31992Z" fill="#96C9FF"/>
</g>
<path d="M18.6281 6.28277C16.2463 6.88435 14.991 9.11693 13.673 8.97539C12.3549 8.83062 10.1383 5.9289 8.8169 5.45922C7.49552 4.98954 8.51298 3.69631 8.61539 2.83416C8.7211 1.97201 8.42379 1.9141 8.40397 1.79186C8.38745 1.66961 8.61539 1.56667 8.61539 1.56667C8.61539 1.56667 11.2317 1.2128 11.5654 1.11629C11.899 1.01978 15.8499 1.9334 16.1175 2.52533C16.3851 3.11726 18.6248 6.28599 18.6248 6.28599L18.6281 6.28277Z" fill="#41139E"/>
<path d="M13.8844 8.97218C12.3648 8.78237 13.488 6.61734 10.7725 5.74876C8.0604 4.88017 9.38839 4.76758 9.42473 3.34245C9.46106 1.91733 8.21897 1.63745 8.75082 1.46373C9.28268 1.29001 9.87069 1.52485 10.2638 1.10986C10.6569 0.691654 12.5663 1.3254 14.5649 1.42834C16.5635 1.53129 16.362 3.57086 18.2416 5.39167C19.9033 7.00016 16.8575 6.10584 15.5361 6.86827C14.2147 7.63391 14.6111 9.06225 13.8811 8.97218H13.8844Z" fill="url(#paint1_radial_11_5365)"/>
<path d="M16.6394 6.13801C16.101 6.12193 15.6715 6.22487 15.3181 6.3825C13.7952 7.07416 13.7225 8.85958 12.7612 6.9873C11.5819 4.68072 9.25295 5.50748 9.90372 3.68989C10.1713 2.94676 9.47428 2.04279 9.70882 1.94628C11.0831 1.38009 9.46437 0.865374 11.3506 1.38331C13.5772 1.99454 13.4913 1.33827 14.6838 1.75648C15.4172 2.01384 15.328 2.15217 16.3355 3.74136C17.3431 5.33055 19.4969 6.22166 16.6394 6.1348V6.13801Z" fill="url(#paint2_radial_11_5365)"/>
<g style="mix-blend-mode:multiply" opacity="0.5">
<path d="M16.6395 6.13801C16.101 6.12193 15.6715 6.22487 15.3181 6.3825C15.9358 4.2979 11.8065 1.52485 10.3299 3.48722C11.2978 1.9881 9.46437 0.865372 11.3506 1.38331C13.5772 1.99453 13.4913 1.33827 14.6838 1.75648C15.4172 2.01384 15.328 2.15217 16.3355 3.74136C17.3431 5.33055 19.4969 6.22165 16.6395 6.13479V6.13801Z" fill="#912774"/>
</g>
<g style="mix-blend-mode:multiply" opacity="0.5">
<path d="M13.9802 6.02863C12.6588 6.30529 12.193 6.02541 11.6413 4.44266C11.0864 2.86312 14.1421 4.70967 14.5319 5.28229C14.925 5.85491 13.9802 6.02863 13.9802 6.02863Z" fill="#912774"/>
</g>
<g style="mix-blend-mode:multiply" opacity="0.5">
<path d="M12.0477 4.62924C12.0774 3.84751 13.5276 4.45552 13.9339 5.56216C14.3403 6.6688 12.0047 5.74553 12.0477 4.62924Z" fill="#912774"/>
</g>
<path d="M12.7876 4.71932C12.2591 4.74505 12.454 5.72302 13.2633 5.87743C14.0727 6.03185 13.739 4.67106 12.7876 4.71932Z" fill="#594AFF"/>
<g style="mix-blend-mode:multiply" opacity="0.5">
<path d="M9.66588 2.05566C9.82444 1.56024 10.4158 2.26476 10.429 2.87599C10.4422 3.48721 10.2143 3.77996 10.0491 3.77674C9.88391 3.77674 10.0028 3.21699 9.8806 2.73444C9.76168 2.25189 9.66588 2.05566 9.66588 2.05566Z" fill="#912774"/>
</g>
<g style="mix-blend-mode:multiply" opacity="0.3">
<path d="M15.4799 7.98134C14.2478 8.73734 15.2784 6.90044 16.1109 6.64951C16.9434 6.39859 17.799 6.41467 18.0665 6.52083C18.3341 6.62378 17.2109 6.91974 15.4799 7.98134Z" fill="#912774"/>
</g>
<g style="mix-blend-mode:multiply" opacity="0.5">
<path d="M9.48419 5.82917C9.3025 5.40775 11.4795 5.67154 12.1666 6.56586C12.8537 7.46019 12.6192 8.30625 12.7546 8.5797C12.89 8.85314 9.48089 5.82917 9.48089 5.82917H9.48419Z" fill="#912774"/>
</g>
<g style="mix-blend-mode:multiply" opacity="0.5">
<path d="M8.2487 4.97025C8.09014 4.29468 9.35536 4.16922 9.42803 3.19769C9.50071 2.22616 8.85323 1.95271 8.50637 1.88838C8.15951 1.82404 8.93252 2.12 8.51628 3.14622C8.10335 4.17244 8.2487 4.97025 8.2487 4.97025Z" fill="#912774"/>
</g>
<g style="mix-blend-mode:soft-light" opacity="0.8">
<path d="M14.1982 8.73412C13.7357 9.24241 13.1774 8.48641 13.2039 8.16472C13.2303 7.84302 13.6664 7.95883 14.0264 7.61461C14.3865 7.27039 14.3733 6.62378 15.5328 6.35677C16.6923 6.08976 15.5295 6.61735 14.9084 7.3862C14.2874 8.15506 14.3303 8.59257 14.1982 8.73412Z" fill="#B3ACFF"/>
</g>
<g style="mix-blend-mode:soft-light" opacity="0.8">
<path d="M9.85418 3.67702C9.92025 3.2202 9.16706 4.1467 9.15715 4.75471C9.14724 5.36272 10.0755 5.44958 10.8353 5.74554C11.5951 6.0415 10.908 5.54608 10.2473 4.91877C9.5866 4.29146 9.7749 4.21425 9.85418 3.67702Z" fill="#B3ACFF"/>
</g>
<g style="mix-blend-mode:soft-light" opacity="0.8">
<path d="M9.66588 2.23902C9.62624 2.59611 8.88296 1.69857 8.72109 1.61815C8.55922 1.54094 9.02831 1.47982 9.62624 1.40261C10.2242 1.3254 10.0788 1.14847 10.3662 1.03587C10.6569 0.92006 11.126 0.990834 12.0477 1.14847C12.9726 1.3061 12.5465 1.61171 12.0047 1.54094C11.4596 1.47016 10.4818 1.14525 10.3761 1.17098C10.2704 1.19672 10.4587 1.52164 10.1317 1.71787C9.80462 1.91411 9.65266 1.80473 9.5899 1.92054C9.52713 2.03635 9.67909 2.11034 9.66588 2.23902Z" fill="#B3ACFF"/>
</g>
<g style="mix-blend-mode:soft-light" opacity="0.8">
<path d="M15.8797 1.97523C14.7433 1.44121 16.1043 3.53225 16.5701 4.0727C17.0359 4.61316 17.5809 5.00241 17.6734 4.93807C17.7659 4.87373 16.8178 3.3328 16.4644 2.78913C16.1109 2.24546 15.8764 1.97523 15.8764 1.97523H15.8797Z" fill="#B3ACFF"/>
</g>
<g style="mix-blend-mode:multiply" opacity="0.3">
<path d="M1.00094 13.0063C0.429444 10.8509 0.839072 5.68442 2.60641 4.94773C4.37376 4.21104 1.76734 13.1285 12.4903 16.6769C17.9674 18.488 19.9792 11.6133 20.4417 11.5651C20.9042 11.5168 18.9684 18.8162 10.6008 18.5009C2.23313 18.1856 1.00094 13.0063 1.00094 13.0063Z" fill="#912774"/>
</g>
<g style="mix-blend-mode:soft-light" opacity="0.3">
<path d="M7.05286 3.55476C4.64134 2.01704 2.84757 8.39633 6.26333 12.7972C9.6791 17.198 14.294 15.6828 16.0283 13.9617C17.7659 12.2406 14.7829 10.3941 12.3549 8.30625C9.92355 6.21843 8.8202 5.87421 8.2487 4.97024C7.67721 4.06948 7.05286 3.55476 7.05286 3.55476Z" fill="#B3ACFF"/>
</g>
<g style="mix-blend-mode:soft-light" opacity="0.6">
<path d="M20.379 13.5918C18.9684 17.3331 15.2751 20 10.9476 20C5.39783 20 0 15.9048 0 10.5002C0 9.86006 0.0561586 9.22953 0.165172 8.60544L0.171779 8.59257C0.829165 6.33103 -0.578103 11.9254 3.21095 16.1267C7 20.3249 15.1364 19.3823 19.2095 14.6373C19.6687 14.1033 20.0552 13.7687 20.379 13.5918Z" fill="#FF77FF"/>
</g>
<g style="mix-blend-mode:soft-light" opacity="0.6">
<path d="M10.7857 19.7812C9.76828 19.4177 12.7909 18.369 14.7565 18.3272C16.722 18.2853 14.2973 19.8971 10.7857 19.7812Z" fill="#FF77FF"/>
</g>
<g style="mix-blend-mode:multiply" opacity="0.3">
<path d="M3.66352 7.30577C1.51298 5.49461 1.32138 12.2278 3.17792 15.6764C5.03445 19.125 10.026 18.5813 12.0477 18.3272C14.0661 18.0762 8.95234 15.4737 6.26333 12.7972C3.57433 10.1206 4.32751 7.86552 3.66352 7.30577Z" fill="#912774"/>
</g>
<g style="mix-blend-mode:multiply" opacity="0.3">
<path d="M18.6281 4.19816C17.7461 3.79282 20.9372 10.0981 20.7093 11.7066C20.4814 13.3151 22.404 8.22261 18.6281 4.19816Z" fill="#912774"/>
</g>
<g style="mix-blend-mode:soft-light" opacity="0.3">
<path d="M16.5602 8.76307C16.4115 9.53515 17.5446 11.9286 17.6833 13.3537C17.8221 14.7788 21.0462 12.9001 20.3823 10.4327C19.7183 7.96526 19.4969 7.36368 18.0698 7.59209C16.6428 7.82371 16.7055 8.01995 16.5635 8.76307H16.5602Z" fill="#B3ACFF"/>
</g>
<g style="mix-blend-mode:soft-light">
<path d="M19.3053 10.6643C18.9188 11.7323 17.7791 10.4584 18.202 9.33569C18.6248 8.21296 19.639 9.73781 19.3053 10.6643Z" fill="#B3ACFF"/>
</g>
<g style="mix-blend-mode:soft-light">
<path d="M9.09769 7.71112C7.29731 7.20283 6.16423 9.11694 7.30722 11.0632C8.58896 13.2475 10.2737 10.6386 10.2737 9.82146C10.2737 8.61187 9.71874 7.88483 9.09769 7.71112Z" fill="#B3ACFF"/>
</g>
<g style="mix-blend-mode:soft-light" opacity="0.6">
<path d="M0.640869 6.8168C0.640869 6.8168 2.03492 4.20782 3.71307 3.31994C5.39122 2.43205 5.98254 3.34567 8.56253 1.25463C11.1425 -0.836409 6.19726 0.698093 6.19726 0.698093C6.19726 0.698093 2.63945 1.73718 0.644173 6.81358L0.640869 6.8168Z" fill="#FFCEFF"/>
</g>
<g style="mix-blend-mode:soft-light" opacity="0.8">
<path d="M2.21331 13.8459C0.548375 9.14911 2.50732 9.65096 3.60736 10.3265C4.97499 11.1694 5.21284 14.2899 6.64323 16.1686C8.07032 18.0473 3.36952 17.1015 2.21661 13.8459H2.21331Z" fill="#96C9FF"/>
</g>
<defs>
<radialGradient id="paint0_radial_11_5365" cx="0" cy="0" r="1" gradientUnits="userSpaceOnUse" gradientTransform="translate(11.9882 5.73589) scale(12.6159 12.2857)">
<stop stop-color="#6445EC"/>
<stop offset="0.14" stop-color="#6243E5"/>
<stop offset="0.32" stop-color="#5C3DD4"/>
<stop offset="0.54" stop-color="#5434B7"/>
<stop offset="0.77" stop-color="#48288F"/>
<stop offset="1" stop-color="#3B1A61"/>
</radialGradient>
<radialGradient id="paint1_radial_11_5365" cx="0" cy="0" r="1" gradientUnits="userSpaceOnUse" gradientTransform="translate(14.3931 3.26203) scale(5.35158 5.21152)">
<stop stop-color="#541BEA"/>
<stop offset="1" stop-color="#5238C2"/>
</radialGradient>
<radialGradient id="paint2_radial_11_5365" cx="0" cy="0" r="1" gradientUnits="userSpaceOnUse" gradientTransform="translate(12.596 6.36964) scale(4.42331 4.30754)">
<stop stop-color="#3316A6"/>
<stop offset="1" stop-color="#3B1A61"/>
</radialGradient>
</defs>
</svg>
