<svg width="42" height="44" viewBox="0 0 42 44" fill="none" xmlns="http://www.w3.org/2000/svg">
<path d="M27.4647 34.5944C25.9019 35.666 24.2285 36.4364 22.5119 36.9184C22.5079 36.9161 22.5017 36.9177 22.4891 36.9208C22.0172 37.0529 21.5462 37.1649 21.0742 37.2504C20.3149 37.3984 19.5479 37.4851 18.7813 37.5152C18.7545 37.5153 18.7335 37.5239 18.7129 37.5224C15.8715 37.6426 13.0889 36.9801 10.7586 35.5952C10.7426 35.586 10.7345 35.5813 10.7224 35.5744C9.80569 35.0272 8.95549 34.3735 8.20352 33.5954C7.77678 33.1642 7.37415 32.7004 7.00635 32.1946C3.73152 27.683 4.02575 21.6911 7.23886 16.9724C7.24377 16.9546 7.25046 16.9429 7.25046 16.9429C8.35828 15.3309 9.79384 13.8657 11.5523 12.6583C16.0026 9.60634 21.3893 8.96835 25.8366 10.525C25.8366 10.525 25.8366 10.525 25.8407 10.5273C28.2908 11.3866 30.446 12.9087 32.0067 15.0558C32.7324 16.0566 33.2799 17.1256 33.6642 18.2457C33.9316 19.0195 34.1155 19.8177 34.2224 20.6285C34.2224 20.6285 34.2202 20.6324 34.2216 20.6487C34.4247 22.1867 34.3289 23.7701 33.9746 25.3188C33.963 25.3483 33.9595 25.3825 33.9537 25.4205C33.8913 25.6689 33.8227 25.9189 33.7437 26.1682C32.7842 29.3953 30.6412 32.4183 27.4687 34.5967L27.4647 34.5944Z" fill="url(#paint0_radial_13_10621)"/>
<g style="mix-blend-mode:multiply" opacity="0.3">
<path d="M9.629 15.2337C12.6336 14.4474 11.9827 22.4208 15.6543 27.9096C19.3281 33.3946 24.7046 34.0325 25.8013 34.3316C26.8979 34.6307 12.435 40.6721 7.29527 29.9675C2.15957 19.2652 9.629 15.2337 9.629 15.2337Z" fill="#67AE65"/>
</g>
<g style="mix-blend-mode:multiply" opacity="0.3">
<path d="M10.7091 16.009C14.0171 17.0147 12.4351 26.1435 12.5083 30.1911C12.5836 34.2348 7.17335 30.7296 6.0337 26.6845C4.89405 22.6394 6.87569 14.8463 10.7068 16.0129L10.7091 16.009Z" fill="#67C765"/>
</g>
<g style="mix-blend-mode:soft-light" opacity="0.8">
<path d="M22.4891 36.9208C16.6455 38.5782 10.4038 36.8748 7.00635 32.1946C3.73555 27.6853 4.02575 21.6911 7.23886 16.9725C7.03141 17.52 3.58031 26.8933 9.17335 32.7827C13.6798 37.5262 19.9558 37.2594 22.4891 36.9208Z" fill="#FF77FF"/>
</g>
<g style="mix-blend-mode:soft-light" opacity="0.8">
<path d="M9.23095 34.5369C7.19203 32.4304 13.7373 35.4504 14.686 36.2588C15.6346 37.0672 11.2936 36.6674 9.23095 34.5369Z" fill="#FF77FF"/>
</g>
<g style="mix-blend-mode:soft-light">
<path d="M10.7546 35.5929C10.6482 35.5731 10.591 35.5609 10.591 35.5609C10.591 35.5609 10.6362 35.5662 10.7162 35.576C11.9585 35.7054 22.2681 36.5974 27.3237 30.5904C32.7142 24.1866 32.0349 17.6252 31.1919 17.6114C30.3448 17.5952 29.089 22.885 20.9926 28.2878C12.8984 33.6868 8.20129 33.5993 8.20129 33.5993C8.20129 33.5993 15.2079 32.3307 21.3769 26.9942C27.5438 21.6616 30.6364 17.2459 29.5344 15.6981C28.4301 14.1542 21.8552 14.1305 14.8406 17.1931C7.82995 20.258 5.87452 30.2886 5.84296 29.9242C5.80515 29.5613 7.28747 20.4943 15.411 16.6007C23.5425 12.7117 29.2247 14.5692 29.0664 13.9408C28.9019 13.314 29.0669 12.1787 25.8425 10.5335C28.2886 11.3905 30.4478 12.9148 32.0085 15.062C32.7342 16.0628 33.2817 17.1318 33.662 18.2496C33.5832 18.685 33.4654 19.0205 33.313 19.1087C32.7881 19.4171 34.4594 25.0338 27.5219 31.4847C21.0945 37.4481 12.069 35.8671 10.7564 35.5991L10.7546 35.5929Z" fill="white"/>
</g>
<path d="M33.5851 10.2666C34.1137 10.0637 35.0394 11.2103 35.2546 11.5717C35.4699 11.9331 36.3934 11.9466 36.8795 12.815C37.3655 13.6834 37.0761 14.5508 37.0761 14.5508C37.0761 14.5508 35.038 14.7913 34.0479 13.5611C33.0578 12.3309 33.5833 10.2604 33.5833 10.2604L33.5851 10.2666Z" fill="#874700"/>
<path d="M36.7589 14.777C36.669 14.8029 36.5645 14.8359 36.4452 14.8759C35.0799 15.3426 31.9864 16.7032 31.9864 16.7032C30.4344 15.4915 30.4573 13.7835 30.4573 13.7835C31.8252 12.5947 32.6049 11.6005 33.0447 10.9744C33.2358 10.7069 33.36 10.5094 33.4475 10.3943C33.5113 10.3017 33.5565 10.2605 33.5846 10.2766C33.734 10.3521 33.4918 11.0813 33.8002 11.1034C34.1087 11.1255 34.7957 9.89197 35.698 10.865C36.5981 11.8419 35.2978 13.7052 35.6905 14.1117C36.081 14.5221 37.8681 14.4578 36.7566 14.7809L36.7589 14.777Z" fill="#B47A00"/>
<g style="mix-blend-mode:multiply" opacity="0.3">
<path d="M22.5428 20.3607C21.8111 18.0281 14.5158 20.4798 15.3432 23.6427C16.1769 26.804 22.9317 21.6126 22.5428 20.3607Z" fill="#776A00"/>
</g>
<g style="mix-blend-mode:multiply" opacity="0.3">
<path d="M24.1141 23.0669C23.9278 21.2388 18.2555 24.359 18.1117 25.8115C17.9679 27.264 24.2474 24.4098 24.1141 23.0669Z" fill="#776A00"/>
</g>
<g style="mix-blend-mode:soft-light">
<path d="M23.1025 10.6914C20.6345 9.90971 13.0321 10.4639 12.1415 18.7802C11.2153 27.3914 24.9557 32.1042 29.7794 27.4887C34.6009 22.8771 29.0314 12.5666 23.1065 10.6937L23.1025 10.6914Z" fill="#B3ACFF"/>
</g>
<path d="M21.8966 15.0277C22.1705 13.7586 20.8845 12.4566 19.6083 14.3338C18.3322 16.211 21.4279 17.2136 21.8966 15.0277Z" fill="white"/>
<g style="mix-blend-mode:soft-light" opacity="0.5">
<path d="M19.7514 33.3844C20.0254 32.1152 14.4279 31.7225 13.1477 33.5974C11.8716 35.4746 19.2828 35.5703 19.7514 33.3844Z" fill="white"/>
</g>
<g style="mix-blend-mode:multiply" opacity="0.5">
<path d="M27.4647 34.5943C25.9019 35.666 24.2285 36.4364 22.5119 36.9184C22.5079 36.9161 22.5017 36.9176 22.4891 36.9208C22.0172 37.0529 21.5462 37.1648 21.0742 37.2504C20.3149 37.3984 19.5479 37.485 18.7813 37.5151C19.6909 37.4225 25.1156 36.1964 29.8553 31.7085C34.9717 26.8631 34.2294 21.0357 34.2238 20.6448C34.4269 22.1828 34.3311 23.7662 33.9769 25.3149C33.9653 25.3444 33.9617 25.3785 33.9559 25.4166C33.8935 25.665 33.8249 25.915 33.746 26.1643C32.7864 29.3914 30.6435 32.4143 27.471 34.5928L27.4647 34.5943Z" fill="#912774"/>
</g>
<g style="mix-blend-mode:multiply" opacity="0.3">
<path d="M19.4127 27.4322C17.6969 26.9998 14.5066 24.475 14.5548 22.4714C14.6029 20.4679 19.8409 17.5168 24.5707 19.029C29.2983 20.545 21.1654 26.8779 20.2972 27.2993C19.4331 27.723 19.4127 27.4322 19.4127 27.4322Z" fill="#3E8474"/>
</g>
<g style="mix-blend-mode:multiply" opacity="0.3">
<path d="M30.6721 14.0153C30.7191 13.5514 33.1522 11.2532 33.3559 11.1221C33.5597 10.9911 33.6178 11.5516 34.6464 11.0932C35.675 10.6347 36.558 12.098 33.9317 14.2852C31.3055 16.4724 30.6721 14.0153 30.6721 14.0153Z" fill="#912774"/>
</g>
<defs>
<radialGradient id="paint0_radial_13_10621" cx="0" cy="0" r="1" gradientUnits="userSpaceOnUse" gradientTransform="translate(23.0262 20.7715) rotate(54.0438) scale(19.4772 19.0371)">
<stop stop-color="#9FBA00"/>
<stop offset="0.35" stop-color="#9DB800"/>
<stop offset="0.47" stop-color="#96B200"/>
<stop offset="0.56" stop-color="#8AA800"/>
<stop offset="0.63" stop-color="#799A00"/>
<stop offset="0.65" stop-color="#739500"/>
<stop offset="1" stop-color="#639200"/>
</radialGradient>
</defs>
</svg>
