<svg width="36" height="41" viewBox="0 0 36 41" fill="none" xmlns="http://www.w3.org/2000/svg">
<g clip-path="url(#clip0_13_12553)">
<path d="M31.2072 23.0031C31.1847 23.1124 31.1559 23.22 31.1247 23.3236C31.0194 23.6787 30.8811 24.0555 30.7053 24.4459C30.7053 24.4459 30.7047 24.4481 30.7036 24.4523C27.046 32.1019 14.7045 37.8522 7.17423 34.749C5.75657 34.1656 4.4963 33.1087 3.5697 32.2499C3.03757 31.7545 2.59089 31.282 2.23994 30.8827C2.01694 30.6262 1.82768 30.3957 1.68143 30.2073C1.45888 29.9237 1.32783 29.7292 1.29139 29.6753C1.28443 29.6633 1.28212 29.6593 1.28212 29.6593C1.28212 29.6593 1.27709 29.6274 1.27483 29.5725C1.13512 27.6253 2.20396 26.738 2.20396 26.738C2.22696 26.7407 2.25714 26.742 2.29049 26.7442C4.16055 26.8925 5.98028 26.7729 7.68208 26.4351C7.68926 26.4336 7.69242 26.4345 7.69728 26.429L7.70678 26.4316L7.7148 26.4269C14.1806 24.2991 20.3824 20.3332 21.6738 13.2097C22.343 9.5219 21.9678 5.2761 21.9678 5.2761C21.9678 5.2761 22.4319 4.05037 22.9218 3.89329C23.4108 3.73938 26.0559 5.29957 25.8585 5.83353C25.6612 6.3675 23.791 10.144 24.9665 11.8972C25.1169 12.1207 25.3475 12.3996 25.6333 12.7C28.3003 15.5076 31.6974 18.7178 31.2136 23.0048L31.2072 23.0031Z" fill="url(#paint0_linear_13_12553)"/>
<g style="mix-blend-mode:multiply" opacity="0.3">
<path d="M3.57055 32.2467C2.17042 30.9522 1.39548 29.8185 1.29223 29.6721C1.28528 29.6601 1.28296 29.6561 1.28296 29.6561C1.28296 29.6561 1.27794 29.6242 1.27568 29.5693C1.23943 29.1729 1.1323 27.5091 2.2048 26.7348C2.22781 26.7375 2.25799 26.7388 2.29133 26.741C3.26491 26.7915 7.43362 26.4635 7.69496 26.4249L7.70446 26.4275C7.70446 26.4275 7.69095 26.4273 7.68293 26.4319C7.36687 26.51 4.6137 27.0749 4.26725 27.6843C3.89711 28.3314 1.92835 28.9945 2.4755 30.3453C3.02265 31.6962 3.57371 32.2475 3.57371 32.2475L3.57055 32.2467Z" fill="#EC8292"/>
</g>
<path d="M2.57794 26.7602C2.57794 26.7602 3.38293 27.4779 3.65256 28.2693C3.9222 29.0607 1.46997 29.8317 1.46997 29.8317C1.39407 29.7605 1.3557 29.7265 1.2798 29.6553C1.69718 28.5154 1.88193 27.9272 2.19933 26.73C2.34853 26.7428 2.42557 26.7465 2.57562 26.7562L2.57794 26.7602Z" fill="#5E294A"/>
<path d="M2.20164 26.734C2.20164 26.734 4.45204 27.9442 1.28211 29.6593C1.28211 29.6593 0.73177 27.9785 2.20164 26.734Z" fill="#7A2E4A"/>
<g style="mix-blend-mode:soft-light" opacity="0.5">
<path d="M3.36834 28.2033C7.50225 30.3218 16.4789 29.1789 21.1188 24.9404C24.2806 22.0528 26.6122 15.0349 23.6051 11.8886C22.6624 10.8999 21.5925 13.6017 21.5925 13.6017C21.5925 13.6017 21.0648 17.4699 17.1851 21.315C13.5631 24.907 8.12828 26.6055 3.0501 26.7577C3.0501 26.7577 2.91209 27.9691 3.37151 28.2041L3.36834 28.2033Z" fill="#FFD8FF"/>
</g>
<g style="mix-blend-mode:multiply" opacity="0.2">
<path d="M25.17 12.1756C23.9759 11.3909 25.9101 17.3638 24.9072 20.5246C23.4006 25.2737 16.8252 29.1021 13.032 29.0287C12.4885 29.0188 12.1156 29.0308 12.2381 29.447C17.6085 31.1539 26.8963 29.6093 29.5413 24.6124C31.71 20.519 28.0897 14.0909 25.17 12.1756Z" fill="#E79092"/>
</g>
<g style="mix-blend-mode:multiply" opacity="0.2">
<path d="M1.28296 29.6561C1.94217 29.2594 2.45495 28.118 4.85931 28.5383C7.26283 28.9619 11.7337 29.3796 13.8163 28.8996C15.8988 28.4196 15.8727 32.948 13.6719 34.743C11.471 36.538 6.48732 34.4767 5.56997 33.8238C4.65262 33.171 1.28381 29.6529 1.28381 29.6529L1.28296 29.6561Z" fill="#E79092"/>
</g>
<g style="mix-blend-mode:multiply" opacity="0.4">
<path d="M31.2072 23.003C31.1993 22.9059 31.5054 19.8773 28.9254 16.8081C27.1122 14.6499 24.9085 16.0506 24.4982 13.4169C24.0879 10.7832 24.2292 9.42006 24.4649 8.26202C24.7912 6.6771 25.6771 5.4219 25.8513 5.83495C25.654 6.36892 23.756 10.338 24.9593 11.8986C27.1902 14.7895 32.1638 18.534 31.2064 23.0062L31.2072 23.003Z" fill="#9D36A2"/>
</g>
<g style="mix-blend-mode:multiply" opacity="0.4">
<path d="M24.499 13.4138C25.104 15.2957 24.6948 12.2654 24.6339 10.9227C24.5722 9.58324 25.2159 6.99108 25.3134 6.67797C25.414 6.36572 23.5732 8.07061 24.4999 13.4106L24.499 13.4138Z" fill="#9D36A2"/>
</g>
<g style="mix-blend-mode:soft-light" opacity="0.5">
<path d="M21.9591 5.27034C22.0919 7.01558 24.5458 6.42817 25.3772 5.85718C26.2087 5.28619 23.3027 3.54755 22.9123 3.8907C22.5218 4.23384 21.9551 5.27266 21.9551 5.27266L21.9591 5.27034Z" fill="#FFD8FF"/>
</g>
<g style="mix-blend-mode:multiply" opacity="0.3">
<path d="M22.0385 6.50603C22.2133 6.27132 24.0674 6.70707 24.9383 6.34339C25.8091 5.97971 24.5724 8.01268 24.5974 10.0716C24.6192 12.1298 26.025 12.7066 25.9683 13.0577C25.9106 13.4121 24.9528 13.4166 24.7738 14.3252C24.5948 15.2339 21.7184 13.8661 21.8781 12.1178C22.0339 10.3719 22.0385 6.50603 22.0385 6.50603Z" fill="#DE77A2"/>
</g>
<path d="M6.99423 28.7237C6.99423 28.7237 17.658 28.2601 21.5674 24.4941C24.2157 21.9404 25.6511 17.4573 24.6873 13.99C24.6873 13.99 26.3188 19.624 23.5732 23.4271C17.8514 31.3615 6.99508 28.7205 6.99508 28.7205L6.99423 28.7237Z" fill="#FFE28B"/>
<path d="M8.99919 29.0268C8.99919 29.0268 10.9267 28.4544 11.7958 28.6669C12.6649 28.8795 12.6066 29.0843 12.5406 29.0904C12.4777 29.0973 9.50738 29.2444 8.99602 29.026L8.99919 29.0268Z" fill="white"/>
<g style="mix-blend-mode:multiply" opacity="0.6">
<path d="M31.2072 23.0031C31.1847 23.1124 31.1559 23.22 31.1247 23.3236C30.5148 25.3719 28.627 28.075 25.8392 30.2758L25.836 30.275C21.1808 33.9124 12.7546 37.1533 7.17107 34.7481C5.73889 34.1303 4.49399 33.1047 3.56654 32.249C2.6916 31.4379 2.05572 30.6841 1.67827 30.2064C1.73292 30.2176 1.76226 30.2221 1.81691 30.2334C1.67973 29.6946 4.11123 28.7857 5.06112 28.874C10.4 29.3819 16.8734 29.4033 21.4733 25.8834C25.6731 22.6668 25.0323 17.2473 24.7855 12.8765C24.7706 12.6283 25.1037 12.5751 25.6207 12.6966C26.3654 13.5 27.4878 14.5776 28.5545 15.8505C30.2218 17.8441 31.7767 20.3842 31.2009 23.0014L31.2072 23.0031Z" fill="#E79092"/>
</g>
<g style="mix-blend-mode:multiply" opacity="0.6">
<path d="M21.9942 5.73431C22.0305 6.32069 22.0438 6.6126 22.0634 7.19791C22.0634 7.19791 22.1477 6.63025 22.3527 6.53594C22.5555 6.43761 23.6265 9.90985 24.3429 10.1731C24.6479 8.769 25.2439 7.5447 25.2439 7.5447C25.5056 6.87193 25.6282 6.52825 25.849 5.83094C25.849 5.83094 25.3138 5.80286 24.7688 6.16567C24.2247 6.5253 22.5292 6.53572 21.9664 5.3571C21.9766 5.50908 21.9832 5.58549 21.9902 5.73662L21.9942 5.73431Z" fill="#9D36A2"/>
</g>
<g style="mix-blend-mode:soft-light" opacity="0.5">
<path d="M12.965 24.506C18.0063 21.3011 17.1804 26.1307 17.2512 26.879C17.3162 27.5986 24.4186 21.2214 24.6778 18.8993C24.9901 16.1132 22.9865 13.7921 22.3355 13.8415C21.6846 13.891 20.6461 17.412 18.3126 20.0568C15.9791 22.7016 12.9642 24.5091 12.9642 24.5091L12.965 24.506Z" fill="#FFD8FF"/>
</g>
<g style="mix-blend-mode:soft-light">
<path d="M30.7036 24.4522C27.046 32.1019 14.7045 37.8522 7.17422 34.7489C5.75656 34.1655 4.4963 33.1087 3.56969 32.2498C3.03756 31.7545 2.59003 31.2852 2.23994 30.8827C5.58501 33.0714 9.68226 34.9596 13.667 34.7485C20.3016 34.3959 27.2506 30.3759 30.7027 24.4554L30.7036 24.4522Z" fill="#FFB8FF"/>
</g>
<g style="mix-blend-mode:soft-light">
<path d="M4.53911 32.9743C3.72749 31.8003 8.88984 34.1571 9.73584 34.4686C10.581 34.7832 8.97085 35.2473 7.46468 34.7284C5.96168 34.2103 4.53594 32.9735 4.53594 32.9735L4.53911 32.9743Z" fill="#FFB8FF"/>
</g>
<g style="mix-blend-mode:multiply" opacity="0.6">
<path d="M31.2072 23.0031C31.1847 23.1124 31.1559 23.22 31.1247 23.3236C30.5148 25.3718 28.627 28.075 25.8392 30.2758C25.9622 30.146 29.8737 26.9165 30.4693 23.0224C30.9075 20.1717 28.5559 15.8577 28.5559 15.8577C30.2233 17.8513 31.779 20.3882 31.2032 23.0054L31.2072 23.0031Z" fill="#9D36A2"/>
</g>
<path d="M19.1503 23.9821C18.285 23.5399 19.981 22.6036 20.4118 22.8818C20.8427 23.1601 19.7445 24.2838 19.1503 23.9821Z" fill="white"/>
<g style="mix-blend-mode:multiply" opacity="0.4">
<g style="mix-blend-mode:multiply" opacity="0.4">
<path d="M29.085 16.9594C28.8294 16.4703 28.5673 16.4102 28.4265 16.7965C28.2857 17.1828 28.7395 17.7047 28.952 17.5445C29.1645 17.3844 29.1705 17.1214 29.085 16.9594Z" fill="#C62792"/>
</g>
<g style="mix-blend-mode:multiply" opacity="0.4">
<path d="M22.1699 15.6119C21.771 15.366 21.6881 16.0426 21.9201 16.1895C22.1521 16.3365 22.796 15.9968 22.1699 15.6119Z" fill="#C62792"/>
</g>
<g style="mix-blend-mode:multiply" opacity="0.4">
<path d="M26.1407 26.9984C26.6891 26.762 26.8005 27.8909 25.9347 28.0965C25.0688 28.3021 25.6651 27.2034 26.1407 26.9984Z" fill="#C62792"/>
</g>
<g style="mix-blend-mode:multiply" opacity="0.4">
<path d="M27.0985 25.2468C26.9577 25.0632 26.7728 25.6141 26.9554 25.6291C27.1379 25.6441 27.1817 25.3539 27.0985 25.2468Z" fill="#C62792"/>
</g>
<g style="mix-blend-mode:multiply" opacity="0.4">
<path d="M22.9433 31.0061C23.0312 30.7921 22.4633 30.9113 22.5416 31.0748C22.6199 31.2383 22.8928 31.1316 22.9433 31.0061Z" fill="#C62792"/>
</g>
<g style="mix-blend-mode:multiply" opacity="0.4">
<path d="M11.7932 30.8033C11.8263 30.49 12.4203 30.6152 12.3983 30.8874C12.3762 31.1597 11.7017 31.6642 11.7932 30.8033Z" fill="#C62792"/>
</g>
<g style="mix-blend-mode:multiply" opacity="0.4">
<path d="M19.7352 28.4707C19.8104 28.0634 20.6141 28.1533 20.5788 28.5C20.5459 28.8507 19.6331 29.0166 19.7352 28.4707Z" fill="#C62792"/>
</g>
<g style="mix-blend-mode:multiply" opacity="0.4">
<path d="M20.5229 32.3928C20.5981 31.9855 21.4017 32.0753 21.3665 32.422C21.3335 32.7728 20.4207 32.9387 20.5229 32.3928Z" fill="#C62792"/>
</g>
<g style="mix-blend-mode:multiply" opacity="0.4">
<path d="M6.89715 27.8327C6.97235 27.4254 7.77598 27.5153 7.74074 27.862C7.70781 28.2127 6.79497 28.3786 6.89715 27.8327Z" fill="#C62792"/>
</g>
</g>
</g>
<defs>
<linearGradient id="paint0_linear_13_12553" x1="1.21166" y1="29.5236" x2="30.3373" y2="14.2184" gradientUnits="userSpaceOnUse">
<stop stop-color="#FFB800"/>
<stop offset="0.44" stop-color="#FFB500"/>
<stop offset="0.73" stop-color="#FFAC00"/>
<stop offset="0.75" stop-color="#FFAC00"/>
<stop offset="0.79" stop-color="#F4AA00"/>
<stop offset="0.88" stop-color="#D9A700"/>
<stop offset="0.99" stop-color="#ACA200"/>
<stop offset="1" stop-color="#A7A200"/>
</linearGradient>
<clipPath id="clip0_13_12553">
<rect width="27.5824" height="34.0865" fill="white" transform="translate(8.82224) rotate(15)"/>
</clipPath>
</defs>
</svg>
