<svg width="24" height="27" viewBox="0 0 24 27" fill="none" xmlns="http://www.w3.org/2000/svg">
<g clip-path="url(#clip0_13_11766)">
<path d="M6.92146 26.8923C5.55142 26.3129 2.69474 21.586 1.11417 16.8307V16.8243C-0.343316 12.4457 -0.715786 8.05122 2.15061 6.84812C4.71579 5.77483 10.2154 6.3004 15.051 7.6428C19.9676 9.01053 24.2105 11.2236 23.9903 13.462C23.3231 20.3735 9.55142 28.0004 6.91822 26.8892L6.92146 26.8923Z" fill="url(#paint0_linear_13_11766)"/>
<g style="mix-blend-mode:multiply" opacity="0.82">
<path d="M13.804 8.42486C11.9061 7.48771 16.7806 10.3277 12.5441 16.9542C9.9336 21.032 0.0647712 17.2423 8.03562 26.4523C8.85505 27.3989 19.0024 23.3021 21.83 15.8461C24.6575 8.39003 13.8073 8.42486 13.8073 8.42486H13.804Z" fill="#CE1374"/>
</g>
<g style="mix-blend-mode:multiply">
<path d="M2.97653 7.45603C1.76195 7.12993 -0.239666 10.7994 0.968431 11.1761C2.17653 11.5529 4.44374 7.84862 2.97653 7.45603Z" fill="#DD8192"/>
</g>
<g style="mix-blend-mode:multiply">
<path d="M0.86153 9.05489C0.683393 9.42215 2.07611 8.14307 2.66882 8.13674C3.26153 8.13041 2.67206 9.24485 2.84696 9.30501C3.02185 9.36516 3.93198 7.70299 3.09959 7.37372C2.26396 7.04445 0.86153 9.05489 0.86153 9.05489Z" fill="#DD8192"/>
</g>
<path d="M0.514976 10.1028C0.521454 10.0427 0.514976 10.9893 1.11741 11.0812C1.71983 11.173 2.40647 10.2485 2.40647 10.2485C2.40647 10.2485 1.72631 11.4737 1.01376 11.4199C0.301211 11.3661 0.518215 10.106 0.518215 10.106L0.514976 10.1028Z" fill="#FF6B7C"/>
<path d="M2.78865 7.75682C2.03076 7.56686 0.349788 10.5018 1.17894 10.7076C2.00809 10.9134 3.7344 7.99427 2.78865 7.75682Z" fill="#FFAC2C"/>
<g style="mix-blend-mode:multiply">
<path d="M1.38298 8.88711C1.38298 8.88711 0.47934 10.2517 1.32792 10.5113C2.17974 10.7709 3.24533 7.99112 2.78865 7.75683C2.78865 7.75683 3.23238 7.741 3.12873 8.25073C3.02509 8.76363 2.26395 10.9292 1.34412 10.9229C0.424279 10.9165 0.644522 9.83059 1.37974 8.88394L1.38298 8.88711Z" fill="#E08192"/>
</g>
<g style="mix-blend-mode:multiply">
<path d="M7.73118 8.64652C6.51337 8.32042 4.99434 12.1102 6.20567 12.4869C7.41701 12.8637 9.20486 9.03911 7.73118 8.64652Z" fill="#DD8192"/>
</g>
<g style="mix-blend-mode:multiply">
<path d="M5.94008 10.3277C5.81052 10.7076 6.99271 9.37469 7.55951 9.36202C8.12631 9.34936 7.72146 10.5113 7.89635 10.5714C8.07125 10.6316 8.68664 8.89661 7.82834 8.56101C6.97004 8.22541 5.93684 10.3277 5.93684 10.3277H5.94008Z" fill="#DD8192"/>
</g>
<path d="M5.69718 11.401C5.69718 11.3408 5.749 12.3001 6.34819 12.3919C6.94738 12.4838 7.56276 11.5403 7.56276 11.5403C7.56276 11.5403 6.96681 12.7877 6.2575 12.7339C5.54495 12.68 5.70041 11.4041 5.70041 11.4041L5.69718 11.401Z" fill="#FF6B7C"/>
<path d="M7.60811 8.96626C6.85022 8.7763 5.56115 11.8094 6.3903 12.0152C7.21945 12.2241 8.55386 9.20371 7.60811 8.96626Z" fill="#FFAC2C"/>
<g style="mix-blend-mode:multiply">
<path d="M6.42593 10.1503C6.42593 10.1503 5.67127 11.5529 6.52309 11.8125C7.37491 12.0721 8.08746 9.2037 7.60811 8.96308C7.60811 8.96308 8.03564 8.94092 8.01945 9.47598C8.00325 10.011 7.47532 12.2336 6.5652 12.2304C5.65508 12.2273 5.82674 11.1287 6.42593 10.1472V10.1503Z" fill="#E08192"/>
</g>
<g style="mix-blend-mode:multiply">
<path d="M12.4858 9.83691C11.2615 9.50764 10.2283 13.4209 11.4429 13.7976C12.6575 14.1776 13.966 10.2327 12.4858 9.83691Z" fill="#DD8192"/>
</g>
<g style="mix-blend-mode:multiply">
<path d="M11.0186 11.6004C10.9344 11.9898 11.9093 10.6062 12.4502 10.5872C12.9911 10.5682 12.7708 11.7745 12.949 11.8378C13.1271 11.898 13.4478 10.087 12.5635 9.74824C11.6826 9.40947 11.0186 11.6004 11.0186 11.6004Z" fill="#DD8192"/>
</g>
<path d="M10.8793 12.699C10.8793 12.6357 10.983 13.6108 11.5757 13.7026C12.1684 13.7944 12.7158 12.832 12.7158 12.832C12.7158 12.832 12.204 14.1016 11.498 14.0477C10.7919 13.9939 10.8761 12.7022 10.8761 12.7022L10.8793 12.699Z" fill="#FF6B7C"/>
<path d="M12.4275 10.1725C11.6696 9.98253 10.7692 13.1106 11.6016 13.3195C12.434 13.5285 13.3733 10.4099 12.4275 10.1725Z" fill="#F05B2C"/>
<g style="mix-blend-mode:multiply">
<path d="M11.4688 11.4136C11.4688 11.4136 10.8631 12.8541 11.7214 13.1169C12.5765 13.3765 12.9295 10.4194 12.4275 10.1757C12.4275 10.1757 12.8356 10.1503 12.9101 10.7044C12.9846 11.2616 12.6834 13.5412 11.7862 13.5412C10.8891 13.5412 11.0089 12.4267 11.4688 11.4136Z" fill="#E08192"/>
</g>
<g style="mix-blend-mode:multiply">
<path d="M17.2405 11.0305C16.013 10.7012 15.4624 14.7348 16.6769 15.1147C17.8915 15.4946 18.7239 11.4294 17.2405 11.0305Z" fill="#DD8192"/>
</g>
<g style="mix-blend-mode:multiply">
<path d="M16.0972 12.8731C16.0583 13.2752 16.8227 11.8378 17.3409 11.8125C17.8591 11.7872 17.817 13.0409 17.9984 13.1011C18.1797 13.1612 18.2024 11.2774 17.2955 10.9323C16.3887 10.5872 16.0972 12.8731 16.0972 12.8731Z" fill="#DD8192"/>
</g>
<path d="M16.0615 14.0002C16.0551 13.9369 16.2138 14.9247 16.8065 15.0165C17.3992 15.1083 17.8753 14.1269 17.8753 14.1269C17.8753 14.1269 17.4478 15.4155 16.7449 15.3616C16.0421 15.3078 16.0615 14.0002 16.0615 14.0002Z" fill="#FF6B7C"/>
<path d="M17.247 11.3819C16.4891 11.1919 15.9806 14.4181 16.8097 14.6271C17.6389 14.8361 18.1927 11.6194 17.247 11.3819Z" fill="#F05B2C"/>
<g style="mix-blend-mode:multiply">
<path d="M16.5117 12.6768C16.5117 12.6768 16.0583 14.1553 16.9166 14.4181C17.7749 14.6809 17.7717 11.632 17.247 11.3819C17.247 11.3819 17.6389 11.3534 17.8008 11.9296C17.9628 12.5058 17.8915 14.8455 17.0073 14.8487C16.1231 14.8487 16.1911 13.7248 16.5117 12.6768Z" fill="#E08192"/>
</g>
<g style="mix-blend-mode:multiply">
<path d="M21.9951 12.2209C20.7644 11.8916 20.6931 16.0455 21.9142 16.4254C23.1352 16.8053 23.4818 12.6198 21.9951 12.2209Z" fill="#DD8192"/>
</g>
<g style="mix-blend-mode:multiply">
<path d="M21.1757 14.1459C21.1822 14.5606 21.7393 13.0694 22.2316 13.0378C22.7239 13.0061 22.8664 14.3042 23.0478 14.3675C23.2291 14.4308 22.9571 12.471 22.0275 12.1196C21.098 11.7682 21.1757 14.1459 21.1757 14.1459Z" fill="#DD8192"/>
</g>
<path d="M21.2437 15.2983C21.234 15.235 21.4478 16.2355 22.0372 16.3241C22.6267 16.4128 23.0316 15.4155 23.0316 15.4155C23.0316 15.4155 22.6883 16.7262 21.9887 16.6724C21.2891 16.6217 21.2437 15.2952 21.2437 15.2952V15.2983Z" fill="#FF6B7C"/>
<path d="M22.0664 12.5882C21.3085 12.3982 21.1919 15.7225 22.021 15.9315C22.8502 16.1405 23.0121 12.8256 22.0664 12.5882Z" fill="#FF882C"/>
<g style="mix-blend-mode:multiply">
<path d="M21.5546 13.9401C21.5546 13.9401 21.2502 15.4566 22.1117 15.7194C22.9733 15.9822 22.6105 12.8447 22.0664 12.5882C22.0664 12.5882 22.4388 12.5534 22.6882 13.1549C22.9376 13.7533 23.0996 16.1532 22.2251 16.1563C21.3506 16.1627 21.37 15.0229 21.5546 13.9401Z" fill="#E08192"/>
</g>
<g style="mix-blend-mode:multiply">
<path d="M3.04779 13.4778C1.69394 13.1201 1.37653 16.6376 2.549 16.9921C3.72147 17.3467 4.68341 13.9148 3.04779 13.4778Z" fill="#DD8192"/>
</g>
<g style="mix-blend-mode:multiply">
<path d="M1.75224 15.0451C1.73604 15.3933 2.50041 14.1681 3.07046 14.1712C3.63726 14.1744 3.51094 15.2572 3.69556 15.3173C3.88017 15.3775 4.11661 13.7501 3.12875 13.3924C2.1409 13.0346 1.75224 15.0451 1.75224 15.0451Z" fill="#DD8192"/>
</g>
<path d="M1.82024 16.0202C1.80729 15.9664 2.09555 16.8149 2.65587 16.9099C3.21619 17.0017 3.58219 16.188 3.58219 16.188C3.58219 16.188 3.3004 17.2645 2.65263 17.2011C2.00486 17.1378 1.82024 16.0202 1.82024 16.0202Z" fill="#FF6B7C"/>
<path d="M3.00893 13.7882C2.18302 13.5824 1.80083 16.378 2.60407 16.5806C3.40731 16.7832 4.03889 14.0478 3.00893 13.7882Z" fill="#FF882C"/>
<g style="mix-blend-mode:multiply">
<path d="M2.16357 14.8899C2.16357 14.8899 1.8332 16.1532 2.67855 16.4033C3.52389 16.6534 3.56599 14.0351 3.00891 13.785C3.00891 13.785 3.44616 13.785 3.55952 14.2947C3.67612 14.8076 3.63725 16.7959 2.81458 16.7737C1.98867 16.7516 1.85911 15.7922 2.16357 14.8899Z" fill="#E08192"/>
</g>
<g style="mix-blend-mode:multiply">
<path d="M8.30769 14.7949C6.95385 14.4372 6.3838 17.8913 7.5498 18.2427C8.71579 18.5942 9.94332 15.2287 8.30769 14.7949Z" fill="#DD8192"/>
</g>
<g style="mix-blend-mode:multiply">
<path d="M6.92793 16.3431C6.88582 16.6851 7.73764 15.482 8.31092 15.4851C8.8842 15.4883 8.69959 16.5584 8.8842 16.6186C9.06882 16.6787 9.37327 15.0672 8.38865 14.7095C7.4008 14.3517 6.92793 16.34 6.92793 16.34V16.3431Z" fill="#DD8192"/>
</g>
<path d="M6.90851 17.2961C6.89879 17.2423 7.0996 18.0718 7.6664 18.1667C8.2332 18.2617 8.6996 17.4702 8.6996 17.4702C8.6996 17.4702 8.28503 18.515 7.62754 18.4485C6.97005 18.382 6.91175 17.2961 6.91175 17.2961H6.90851Z" fill="#FF6B7C"/>
<path d="M8.26234 15.1021C7.43643 14.8963 6.8502 17.6412 7.65343 17.8439C8.45667 18.0465 9.2923 15.3617 8.26234 15.1021Z" fill="#FF882C"/>
<g style="mix-blend-mode:multiply">
<path d="M7.35871 16.1912C7.35871 16.1912 6.91175 17.4259 7.75386 17.676C8.59272 17.9262 8.81944 15.3522 8.2656 15.1021C8.2656 15.1021 8.70608 15.1021 8.80649 15.6086C8.90365 16.1152 8.6996 18.0623 7.85426 18.0338C7.00892 18.0053 6.99272 17.0777 7.36195 16.1912H7.35871Z" fill="#E08192"/>
</g>
<g style="mix-blend-mode:multiply">
<path d="M13.5644 16.112C12.2105 15.7542 11.3878 19.145 12.5441 19.4933C13.7004 19.8447 15.2 16.5457 13.5644 16.112Z" fill="#DD8192"/>
</g>
<g style="mix-blend-mode:multiply">
<path d="M12.1004 17.638C12.0324 17.9736 12.9716 16.7895 13.5482 16.799C14.1247 16.8053 13.8882 17.8596 14.0696 17.9198C14.251 17.9799 14.6299 16.3874 13.6453 16.0297C12.6607 15.6719 12.1004 17.638 12.1004 17.638Z" fill="#DD8192"/>
</g>
<path d="M12 18.572C12 18.5213 12.1069 19.3255 12.6801 19.4205C13.2502 19.5155 13.817 18.7525 13.817 18.7525C13.817 18.7525 13.2728 19.7624 12.5992 19.6928C11.9255 19.6231 12 18.572 12 18.572Z" fill="#FF6B7C"/>
<path d="M13.5125 16.4191C12.6866 16.2133 11.8996 18.9076 12.7028 19.1102C13.5061 19.3129 14.5425 16.6787 13.5125 16.4191Z" fill="#F05B2C"/>
<g style="mix-blend-mode:multiply">
<path d="M12.5506 17.4924C12.5506 17.4924 11.987 18.6986 12.8227 18.9456C13.6583 19.1925 14.0631 16.666 13.5125 16.4191C13.5125 16.4191 13.9595 16.4191 14.0405 16.9225C14.1214 17.4259 13.749 19.3318 12.881 19.297C12.0129 19.2622 12.1166 18.363 12.5506 17.4955V17.4924Z" fill="#E08192"/>
</g>
<g style="mix-blend-mode:multiply">
<path d="M18.8243 17.4291C17.4704 17.0713 16.3951 20.3988 17.5449 20.7471C18.6947 21.0954 20.4599 17.8628 18.8243 17.4291Z" fill="#DD8192"/>
</g>
<g style="mix-blend-mode:multiply">
<path d="M17.2761 18.9361C17.1822 19.2654 18.2089 18.1034 18.7887 18.1129C19.3717 18.1224 19.0802 19.1609 19.2615 19.221C19.4429 19.2812 19.8899 17.7045 18.9053 17.3467C17.9206 16.989 17.2761 18.9361 17.2761 18.9361Z" fill="#DD8192"/>
</g>
<path d="M17.0882 19.8448C17.0882 19.7941 17.1109 20.5761 17.6874 20.6743C18.264 20.7724 18.9312 20.0316 18.9312 20.0316C18.9312 20.0316 18.2542 21.0099 17.5676 20.937C16.881 20.8642 17.0882 19.8448 17.0882 19.8448Z" fill="#FF6B7C"/>
<path d="M18.766 17.7361C17.9401 17.5303 16.9522 20.174 17.7555 20.3766C18.5587 20.5792 19.7959 17.9958 18.766 17.7361Z" fill="#FF882C"/>
<g style="mix-blend-mode:multiply">
<path d="M17.7425 18.7936C17.7425 18.7936 17.0623 19.9714 17.8947 20.2151C18.7271 20.4621 19.3134 17.9799 18.766 17.733C18.766 17.733 19.2194 17.733 19.2842 18.2332C19.349 18.7334 18.8081 20.5951 17.9174 20.5539C17.0267 20.5128 17.2502 19.6453 17.7457 18.7904L17.7425 18.7936Z" fill="#E08192"/>
</g>
<g style="mix-blend-mode:multiply">
<path d="M4.40809 18.7303C3.16761 18.4042 3.50769 21.222 4.48583 21.5133C5.46397 21.8045 5.90445 19.1261 4.40809 18.7303Z" fill="#DD8192"/>
</g>
<g style="mix-blend-mode:multiply">
<path d="M3.566 19.9841C3.6081 20.2627 4.05183 19.2875 4.53766 19.3034C5.02349 19.3192 5.06235 20.1867 5.22429 20.2373C5.38624 20.288 5.383 18.9836 4.45992 18.6638C3.53685 18.3472 3.56276 19.9841 3.56276 19.9841H3.566Z" fill="#DD8192"/>
</g>
<path d="M3.77006 20.7534C3.75063 20.7091 4.10042 21.3739 4.56034 21.4531C5.01702 21.5322 5.23079 20.9149 5.23079 20.9149C5.23079 20.9149 5.11095 21.7349 4.59273 21.6747C4.07451 21.6177 3.77006 20.7534 3.77006 20.7534Z" fill="#FF6B7C"/>
<path d="M4.42755 18.9867C3.67937 18.7999 3.80892 21.032 4.47937 21.1998C5.15305 21.3676 5.3571 19.221 4.42755 18.9867Z" fill="#FF882C"/>
<g style="mix-blend-mode:multiply">
<path d="M3.88339 19.8669C3.88339 19.8669 3.80242 20.8611 4.51821 21.0668C5.234 21.2758 4.94898 19.202 4.42752 18.9868C4.42752 18.9868 4.80971 18.9963 4.98137 19.4142C5.15303 19.8321 5.34088 21.3866 4.67368 21.355C4.00647 21.3233 3.77327 20.5856 3.88663 19.8669H3.88339Z" fill="#E08192"/>
</g>
<g style="mix-blend-mode:multiply">
<path d="M9.2081 19.9334C7.97085 19.6073 7.65344 22.2636 8.61862 22.5485C9.58057 22.8335 10.7045 20.326 9.2081 19.9334Z" fill="#DD8192"/>
</g>
<g style="mix-blend-mode:multiply">
<path d="M8.05828 21.108C8.03561 21.3708 8.72549 20.4589 9.23399 20.4779C9.74249 20.4969 9.59675 21.3201 9.75545 21.3708C9.91415 21.4214 10.183 20.1835 9.2761 19.8701C8.36922 19.5566 8.05828 21.108 8.05828 21.108Z" fill="#DD8192"/>
</g>
<path d="M8.0745 21.833C8.06478 21.7919 8.24616 22.4124 8.71579 22.4947C9.18543 22.577 9.59029 22.0071 9.59029 22.0071C9.59029 22.0071 9.22105 22.7638 8.68016 22.7005C8.13603 22.6372 8.0745 21.833 8.0745 21.833Z" fill="#FF6B7C"/>
<path d="M9.17896 20.1772C8.43078 19.9904 8.0324 22.0894 8.70608 22.2604C9.37976 22.4282 10.1117 20.4114 9.17896 20.1772Z" fill="#F05B2C"/>
<g style="mix-blend-mode:multiply">
<path d="M8.42106 21.0035C8.42106 21.0035 8.07774 21.9312 8.78381 22.137C9.48988 22.3428 9.68098 20.3893 9.17571 20.1772C9.17571 20.1772 9.57733 20.1898 9.67126 20.5888C9.76843 20.9877 9.57086 22.4441 8.86154 22.4029C8.15223 22.3618 8.12956 21.6747 8.41782 21.0004L8.42106 21.0035Z" fill="#E08192"/>
</g>
<g style="mix-blend-mode:multiply">
<path d="M14.0049 21.1365C12.7708 20.8104 11.796 23.3021 12.7449 23.5839C13.6939 23.8657 15.4947 21.5291 14.0049 21.1365Z" fill="#DD8192"/>
</g>
<g style="mix-blend-mode:multiply">
<path d="M12.5474 22.2351C12.4599 22.4821 13.3992 21.6304 13.9304 21.6589C14.4616 21.6874 14.128 22.4599 14.2834 22.5106C14.4421 22.5612 14.9798 21.3898 14.0859 21.0795C13.1919 20.7693 12.5441 22.2383 12.5441 22.2383L12.5474 22.2351Z" fill="#DD8192"/>
</g>
<path d="M12.379 22.9095C12.379 22.8715 12.3919 23.4509 12.8713 23.5364C13.3506 23.6219 13.9498 23.0995 13.9498 23.0995C13.9498 23.0995 13.3312 23.7928 12.7676 23.7232C12.2008 23.6535 12.379 22.9095 12.379 22.9095Z" fill="#FF6B7C"/>
<path d="M13.9336 21.3676C13.1854 21.1808 12.2591 23.1501 12.9328 23.3179C13.6065 23.4857 14.8664 21.6019 13.9336 21.3676Z" fill="#F05B2C"/>
<g style="mix-blend-mode:multiply">
<path d="M12.9619 22.1402C12.9619 22.1402 12.3563 23.0014 13.0559 23.204C13.7555 23.4066 14.4227 21.5735 13.9336 21.3677C13.9336 21.3677 14.3514 21.3867 14.3741 21.7666C14.3935 22.1465 13.8105 23.5079 13.0623 23.4541C12.3142 23.4003 12.4988 22.7702 12.9619 22.1402Z" fill="#E08192"/>
</g>
<g style="mix-blend-mode:multiply">
<path d="M6.56518 22.7892C5.56437 22.5264 5.9498 24.5464 6.65263 24.7522C7.35546 24.958 7.77328 23.1058 6.56518 22.7892Z" fill="#DD8192"/>
</g>
<g style="mix-blend-mode:multiply">
<path d="M5.94007 23.6789C5.98217 23.8783 6.29311 23.1881 6.67529 23.2071C7.06072 23.2261 7.08663 23.8435 7.21294 23.8847C7.33926 23.9226 7.35221 22.9918 6.60404 22.7417C5.85586 22.4916 5.94007 23.6789 5.94007 23.6789Z" fill="#DD8192"/>
</g>
<path d="M6.11821 24.2234C6.10202 24.1918 6.37408 24.654 6.70445 24.7142C7.03481 24.7743 7.20647 24.3564 7.20647 24.3564C7.20647 24.3564 7.09959 24.9104 6.72712 24.8661C6.35789 24.8218 6.11821 24.2266 6.11821 24.2266V24.2234Z" fill="#FF6B7C"/>
<path d="M6.58459 22.976C5.9854 22.8272 6.15382 24.4166 6.64613 24.54C7.13844 24.6635 7.32953 23.1628 6.58459 22.976Z" fill="#F05B2C"/>
<g style="mix-blend-mode:multiply">
<path d="M6.17975 23.5997C6.17975 23.5997 6.14736 24.2963 6.67529 24.4482C7.20323 24.6002 7.00566 23.1406 6.5846 22.976C6.5846 22.976 6.8923 22.9918 7.02833 23.2958C7.16436 23.5997 7.27124 24.6762 6.78865 24.6477C6.30606 24.6192 6.11173 24.1095 6.18298 23.6029L6.17975 23.5997Z" fill="#E08192"/>
</g>
<g style="mix-blend-mode:multiply">
<path d="M10.4389 23.7611C9.44129 23.5015 8.93602 25.2967 9.62266 25.4961C10.3061 25.6988 11.6437 24.0746 10.4389 23.7611Z" fill="#DD8192"/>
</g>
<g style="mix-blend-mode:multiply">
<path d="M9.383 24.54C9.33766 24.7173 9.98867 24.1126 10.4032 24.1411C10.8178 24.1696 10.5879 24.7204 10.7077 24.7584C10.8308 24.7964 11.2292 23.9606 10.5004 23.7168C9.7749 23.473 9.37976 24.54 9.37976 24.54H9.383Z" fill="#DD8192"/>
</g>
<path d="M9.31175 25.0244C9.31175 24.9991 9.36357 25.4043 9.70689 25.4645C10.0502 25.5278 10.4745 25.1732 10.4745 25.1732C10.4745 25.1732 10.0437 25.6449 9.64535 25.5943C9.24697 25.5436 9.31498 25.0244 9.31498 25.0244H9.31175Z" fill="#FF6B7C"/>
<path d="M10.3903 23.929C9.79107 23.7802 9.2437 25.189 9.73601 25.3125C10.2283 25.436 11.1352 24.1158 10.3903 23.929Z" fill="#F05B2C"/>
<g style="mix-blend-mode:multiply">
<path d="M9.6842 24.4799C9.6842 24.4799 9.30201 25.0909 9.82023 25.2397C10.3352 25.3885 10.7887 24.0936 10.3903 23.9321C10.3903 23.9321 10.7239 23.9543 10.753 24.2297C10.7822 24.5052 10.3741 25.455 9.83643 25.4107C9.29877 25.3663 9.37651 24.9294 9.6842 24.4799Z" fill="#E08192"/>
</g>
<g style="mix-blend-mode:soft-light">
<path d="M10.8016 11.4325C11.3101 9.69123 12.3174 9.83686 11.8024 9.17516C11.2875 8.51662 9.94009 8.57994 7.12875 8.35832C4.31094 8.13986 3.08017 6.90827 3.00568 6.9716C2.92794 7.03492 4.08746 7.58897 3.783 8.88388C3.47855 10.1788 1.30203 11.9676 1.30203 11.9676C1.30203 12.7876 3.45912 13.2214 3.8575 13.519C4.25912 13.8166 4.62835 16.0898 4.19434 16.9795C3.76357 17.8659 2.36438 16.7008 2.33199 17.5082C2.2996 18.3155 2.46802 19.5376 2.59434 19.7814C2.72066 20.0252 3.7992 18.4295 4.37896 18.4295C4.95871 18.4295 5.50608 19.487 5.49313 20.5223C5.48017 21.5639 6.91499 19.5978 7.09313 18.9329C7.26802 18.268 6.15062 17.0333 7.06074 15.1305C7.96762 13.2277 9.03321 14.2567 9.20163 15.5547C9.37653 16.8528 10.1312 15.7605 10.5458 14.9279C10.9603 14.0984 10.2931 13.177 10.8016 11.4357V11.4325ZM6.80811 13.0852C5.02997 13.5538 5.19839 9.31763 6.44859 8.67493C7.69879 8.03222 8.95224 8.64327 9.08503 9.69123C9.21782 10.7392 7.54657 12.8889 6.80811 13.0821V13.0852Z" fill="#FFD8FF"/>
</g>
<g style="mix-blend-mode:soft-light">
<path d="M9.55466 26.3889C12.0745 26.0217 10.8794 23.8878 11.2 23.3369C11.5206 22.786 12.7482 24.2075 13.7263 23.9701C14.7045 23.7326 15.4559 21.586 14.6073 20.994C13.7587 20.4019 13.4024 20.1962 14.6785 18.5593C15.9547 16.9225 14.2219 15.2603 14.5555 14.8202C14.8891 14.3801 15.8931 15.4471 16.9652 15.5706C18.0372 15.694 18.4648 13.6108 18.7271 13.1232C18.9895 12.6357 21.0073 14.7157 21.017 16.0012C21.0267 17.2866 19.5822 16.2956 18.2607 17.1251C16.9393 17.9546 16.4955 20.6172 16.7223 21.2568C16.949 21.8963 18.9862 20.0727 19.4267 20.0379C19.8672 20.003 14.2607 25.6164 9.5579 26.3858L9.55466 26.3889Z" fill="#FFF9FF"/>
</g>
<g style="mix-blend-mode:soft-light">
<path d="M9.55466 26.3889C12.0745 26.0217 10.8794 23.8878 11.2 23.3369C11.5206 22.786 12.7482 24.2075 13.7263 23.9701C14.7045 23.7326 15.4559 21.586 14.6073 20.994C13.7587 20.4019 13.4024 20.1962 14.6785 18.5593C15.9547 16.9225 14.2219 15.2603 14.5555 14.8202C14.8891 14.3801 15.8931 15.4471 16.9652 15.5706C18.0372 15.694 18.4648 13.6108 18.7271 13.1232C18.9895 12.6357 21.0073 14.7157 21.017 16.0012C21.0267 17.2866 19.5822 16.2956 18.2607 17.1251C16.9393 17.9546 16.4955 20.6172 16.7223 21.2568C16.949 21.8963 18.9862 20.0727 19.4267 20.0379C19.8672 20.003 14.2607 25.6164 9.5579 26.3858L9.55466 26.3889Z" fill="#FFF9FF"/>
</g>
<path d="M5.88502 8.51983C6.38705 7.55419 4.4081 7.55102 4.20729 8.3172C4.00648 9.08339 3.39109 11.135 2.65263 11.6004C1.91417 12.0626 4.82267 13.2784 5.16275 14.301C5.50607 15.3268 7.36194 13.7121 8.26235 13.576C9.16275 13.4399 8.56356 15.045 9.46073 14.9754C10.3611 14.9057 10.8081 10.3023 11.2745 9.61528C11.7441 8.93142 9.16276 8.25705 9.07854 8.49134C8.99433 8.72562 9.31174 9.46648 8.72875 10.8279C8.14575 12.1893 7.44292 13.8958 5.9498 12.8415C4.45668 11.7904 5.46073 9.33034 5.88178 8.51666L5.88502 8.51983Z" fill="white"/>
<path d="M4.96194 17.1599C4.19433 16.9795 4.34656 17.619 5.12389 18.5403C5.90121 19.4617 6.56518 18.8126 6.49717 17.9768C6.42915 17.1409 5.73279 17.3372 4.96194 17.1568V17.1599Z" fill="white"/>
<path d="M22.7952 16.3273C22.3935 16.8433 21.5741 16.5521 21.1369 16.9668C20.6996 17.3816 19.8413 19.449 19.8737 19.6421C19.9061 19.8384 21.6972 18.5277 22.7952 16.3273Z" fill="#FFD8FF"/>
<g style="mix-blend-mode:soft-light">
<path d="M2.61702 20.2595C2.59111 19.7814 4.73848 22.3364 5.17249 22.6214C5.60326 22.9095 5.49638 21.5797 6.05346 21.5829C6.61055 21.5829 5.32796 23.6852 6.24779 24.9389C7.16439 26.1895 7.05103 24.1189 7.92876 23.9606C8.8065 23.8023 8.56682 25.971 9.63565 26.085C10.7045 26.199 13.0527 25.1162 13.0527 25.1162C13.0527 25.1162 8.66723 27.5382 6.92472 26.8924C5.18221 26.2465 2.62026 20.2595 2.62026 20.2595H2.61702Z" fill="#FFF9FF"/>
</g>
<path d="M13.4121 6.26243C11.0316 5.96166 10.2575 0.715528 9.53198 0.44958C8.80648 0.183633 5.67126 4.66358 8.39514 6.39224C11.119 8.1209 13.4121 6.26243 13.4121 6.26243Z" fill="#7C8B00"/>
<path d="M23.2745 4.81555C23.2486 5.96799 22.3223 9.86539 20.1231 9.51079C20.0259 9.49496 19.9028 9.45697 19.7571 9.40314L19.7409 9.39365C18.7304 9.00422 16.7903 7.84229 16.7158 8.14939C16.6251 8.50399 21.1822 9.16886 19.6567 13.1644C19.5045 13.5665 16.4243 11.3756 14.6688 10.011C13.4316 9.04855 11.9806 7.36738 10.6267 7.06661C9.27287 6.76583 5.69716 8.10823 4.16518 6.37641C2.6332 4.64142 4.16194 1.88696 4.34008 2.34604C5.55142 5.48358 10.6235 6.32259 10.6235 6.32259C11.1417 6.45873 11.5919 6.50305 11.9838 6.45239C12.9652 6.33208 13.5676 5.65455 13.9271 4.5496C14.1344 3.91323 14.0016 3.00457 13.8591 2.16557C13.6518 0.959312 13.4283 -0.101312 14.1474 0.00949955C15.3717 0.199462 16.149 3.15971 16.149 3.15971H16.1457C16.0972 3.21987 15.3231 4.16018 14.847 5.24297C14.5652 5.87934 14.5522 6.34158 15.4397 6.71834C18.9312 8.19055 22.9992 4.214 23.2389 4.51478C23.268 4.5496 23.281 4.65725 23.2745 4.81555Z" fill="url(#paint1_linear_13_11766)"/>
<path d="M14.1474 0.00952148C12.8259 0.497092 14.8275 3.41302 15.3522 3.46051C15.8769 3.508 16.0907 2.95077 16.0907 2.95077C16.0907 2.95077 15.7247 0.519254 14.1474 0.00952148Z" fill="#B5CF00"/>
<g style="mix-blend-mode:multiply">
<path d="M15.4397 6.71518C14.4292 7.26924 12.8195 7.65233 11.9838 6.44923C12.9684 6.32893 13.5709 5.65139 13.9304 4.54644C14.1344 3.91007 14.0049 3.00142 13.8624 2.16241C14.196 2.53917 14.5911 2.93809 14.8988 3.12489C15.5271 3.51431 16.0907 3.19138 16.149 3.15655C16.1004 3.21671 15.3263 4.15385 14.8502 5.23981C14.5717 5.87618 14.5458 6.36059 15.4429 6.71202L15.4397 6.71518Z" fill="#CA9892"/>
</g>
<g style="mix-blend-mode:multiply" opacity="0.5">
<path d="M22.5587 4.84087C23.2356 4.51477 22.6656 7.13941 21.6453 8.32668C20.6251 9.51395 18.1571 7.84861 16.4923 7.43069C15.3296 7.13941 18.2769 7.18057 19.8057 6.41439C21.7846 5.42659 22.5587 4.84087 22.5587 4.84087Z" fill="#CAAB92"/>
</g>
<g style="mix-blend-mode:multiply" opacity="0.5">
<path d="M9.71014 0.611071C8.82269 0.0475159 7.95791 3.62514 8.08747 4.70793C8.21702 5.79071 10.1863 5.77172 11.2195 5.71473C12.2526 5.65774 10.9085 3.527 10.562 2.61201C10.2154 1.69702 9.71014 0.611071 9.71014 0.611071Z" fill="#CAAB92"/>
</g>
<g style="mix-blend-mode:multiply">
<path d="M11.6956 7.54468C11.6956 7.54468 14.5587 9.52979 16.9814 11.0716C19.4041 12.6135 19.8543 12.5344 19.8543 12.5344C19.8543 12.5344 19.8348 13.1866 19.5854 13.5538C19.3393 13.9211 16.2494 11.8917 11.6956 7.54468Z" fill="#D45F75"/>
</g>
<g style="mix-blend-mode:multiply">
<path d="M3.49473 4.32166C3.36841 5.71155 5.46396 7.17109 8.22023 7.01596C10.9765 6.86082 10.8923 6.85449 11.9514 7.86762C11.9514 7.86762 10.7822 7.16159 9.36355 7.4497C7.94493 7.73781 7.83481 8.49766 5.43805 7.95627C3.04129 7.41488 3.26801 6.51889 3.26801 6.51889L4.16517 6.37642C4.16517 6.37642 3.26153 5.49309 3.49473 4.32482V4.32166Z" fill="#D45F75"/>
</g>
<g style="mix-blend-mode:soft-light" opacity="0.5">
<path d="M12.6996 7.74732C12.5377 8.12091 15.4786 9.97938 16.3854 10.0997C17.2923 10.22 18.6397 9.94772 18.8664 9.77359C19.0931 9.60262 16.1231 7.81697 15.2875 7.61118C14.8405 7.50037 12.7028 7.74732 12.7028 7.74732H12.6996Z" fill="#FFF9BF"/>
</g>
<g style="mix-blend-mode:soft-light" opacity="0.5">
<path d="M7.67611 5.39809C5.75222 5.11315 6.71417 6.42706 7.71498 6.78165C8.71579 7.13625 11.1028 6.73416 11.3296 6.69617C11.5595 6.65501 7.67287 5.40126 7.67287 5.40126L7.67611 5.39809Z" fill="#FFF9BF"/>
</g>
<g style="mix-blend-mode:multiply">
<path d="M23.2745 4.81557C23.2486 5.96801 22.3223 9.86541 20.1231 9.51081C20.0259 9.49498 19.9028 9.45699 19.7571 9.40316L19.7409 9.39366C19.7409 9.39366 20.9943 9.27969 21.8948 8.14624C22.7952 7.01597 23.0802 4.75541 23.2745 4.81557Z" fill="#D48675"/>
</g>
<path d="M7.10284 9.32086C6.97328 9.29236 6.3417 10.5335 6.56843 10.7614C6.79515 10.9894 7.79272 9.46649 7.10284 9.32086Z" fill="white"/>
<path d="M2.40647 8.19687C2.16356 7.99741 1.49311 9.07703 1.75222 9.32081C2.01133 9.5646 2.62024 8.37416 2.40647 8.19687Z" fill="white"/>
<path d="M2.80487 13.997C2.42268 14.016 2.36114 14.9057 2.62349 14.9785C2.88584 15.0513 3.18705 13.9749 2.80487 13.997Z" fill="white"/>
<path d="M18.3968 19.6611C18.034 19.7371 18.3255 18.7588 18.6429 18.705C18.9571 18.648 18.6235 19.6137 18.3968 19.6611Z" fill="white"/>
</g>
<defs>
<linearGradient id="paint0_linear_13_11766" x1="7.99412" y1="27.1746" x2="13.02" y2="7.12065" gradientUnits="userSpaceOnUse">
<stop stop-color="#CF0034"/>
<stop offset="0.22" stop-color="#DA002C"/>
<stop offset="0.69" stop-color="#EE0021"/>
<stop offset="1" stop-color="#F6001D"/>
</linearGradient>
<linearGradient id="paint1_linear_13_11766" x1="3.48826" y1="6.60436" x2="23.2745" y2="6.60436" gradientUnits="userSpaceOnUse">
<stop stop-color="#84A600"/>
<stop offset="1" stop-color="#B5CE00"/>
</linearGradient>
<clipPath id="clip0_13_11766">
<rect width="24" height="27" fill="white"/>
</clipPath>
</defs>
</svg>
