<svg width="29" height="29" viewBox="0 0 29 29" fill="none" xmlns="http://www.w3.org/2000/svg">
<path d="M0.804797 19.1215C4.24765 26.3228 15.2247 31.5739 22.2826 27.6773C22.2866 27.6733 22.2986 27.6694 22.3026 27.6694C22.3426 27.6495 22.3827 27.6257 22.4187 27.6058C22.4947 27.5581 22.5708 27.5145 22.6469 27.4708C22.6629 27.4588 22.6829 27.4509 22.6989 27.439C22.7149 27.4271 22.7269 27.4191 22.7269 27.4191C23.5556 26.9067 24.3243 26.2593 25.0088 25.4649C26.0257 24.2931 26.8664 22.9386 27.5149 21.4849L27.5309 21.4451C27.607 21.2704 27.683 21.0956 27.7551 20.9169C30.3853 14.359 29.0762 5.93426 21.6821 1.77154C16.758 -1.00096 11.8459 -0.258184 7.94671 2.19258H7.9387C6.64163 3.01479 5.45665 4.01972 4.42379 5.14779C4.42379 5.14779 4.42379 5.15573 4.41578 5.1597C0.632654 9.27078 -1.16083 15.0064 0.804797 19.1215Z" fill="url(#paint0_radial_13_12203)"/>
<g style="mix-blend-mode:multiply" opacity="0.4">
<path d="M21.3337 4.49635C20.0126 4.84986 17.8147 3.69002 16.7218 3.14982C15.6329 2.61359 13.347 2.25611 13.0948 2.12106C12.8426 1.98601 16.3415 2.49443 17.0461 1.63647C17.7507 0.778501 16.2575 0.377323 16.6258 0.170776C16.9941 -0.0357706 17.6826 0.373351 18.9677 1.04463C20.2488 1.71988 22.2944 2.27994 22.3825 2.39513C22.4666 2.51032 22.1223 2.30377 22.0142 2.64537C21.9061 2.98697 24.3241 4.20639 25.5531 5.81507C26.7822 7.42376 23.7276 3.8489 21.3337 4.49238V4.49635Z" fill="#C62792"/>
</g>
<g style="mix-blend-mode:multiply" opacity="0.2">
<path d="M21.8781 3.42393C22.915 4.69101 19.312 4.32558 17.5545 3.12205C15.7971 1.91852 19.388 0.381329 21.8781 3.42393Z" fill="#A80092"/>
</g>
<path d="M21.3056 3.88067C22.2864 3.72973 19.8724 1.93834 18.2671 2.28391C16.6618 2.62947 19.4881 4.16269 21.3056 3.88067Z" fill="#686336"/>
<path d="M20.6491 3.3405C20.7892 3.53911 19.9685 3.7814 19.2239 3.38817C18.4793 2.99891 18.4072 2.75264 18.6074 2.56198C18.8076 2.37132 20.3809 2.96316 20.6491 3.3405Z" fill="#61881D"/>
<g style="mix-blend-mode:multiply" opacity="0.2">
<path d="M27.751 20.9089L27.5308 21.4452C27.6068 21.2704 27.6829 21.0956 27.755 20.9169V20.9089H27.751Z" fill="#A85592"/>
</g>
<g style="mix-blend-mode:multiply" opacity="0.2">
<path d="M0.80466 19.1215C4.73191 27.3397 18.4713 33.0157 25.0047 25.4649C26.0215 24.2931 26.8622 22.9386 27.5108 21.4849C27.5108 21.4849 21.4898 28.142 10.6448 20.1661C3.48688 14.9032 8.38693 7.01464 9.32371 2.91945C9.68801 1.32268 7.94257 2.19256 7.94257 2.19256H7.93456C1.90957 5.99382 -1.70141 13.8704 0.80466 19.1215Z" fill="#A85592"/>
</g>
<g style="mix-blend-mode:soft-light" opacity="0.5">
<path d="M24.0119 22.7678C27.1224 22.0965 27.2586 10.3035 25.5411 7.35225C23.8237 4.40101 18.3872 6.97491 14.2318 5.49333C10.0763 4.01175 4.37962 14.4543 9.70403 18.7322C15.0284 23.0061 19.7924 23.6774 24.0119 22.7678Z" fill="#FFD8FF"/>
</g>
<g style="mix-blend-mode:multiply" opacity="0.3">
<path d="M17.1102 2.58583C17.1182 2.11316 15.3367 2.15288 14.6761 2.25218C14.0156 2.35148 15.3007 2.47462 16.4776 2.88374C17.6546 3.29286 17.1102 2.58583 17.1102 2.58583Z" fill="#C62792"/>
</g>
<g style="mix-blend-mode:multiply" opacity="0.3">
<path d="M22.1143 2.43487C21.9822 2.2323 20.1847 1.62457 19.9445 1.6921C19.7043 1.75962 21.2336 2.58184 21.4898 2.62156C21.746 2.66128 21.706 2.5024 22.1143 2.43487Z" fill="#C62792"/>
</g>
<g style="mix-blend-mode:multiply" opacity="0.3">
<path d="M22.0222 3.96409C22.7228 4.33349 23.9478 4.89752 24.4362 5.00477C24.9246 5.11201 23.2873 3.76946 22.6507 3.41595C22.0142 3.0664 22.0222 3.96409 22.0222 3.96409Z" fill="#C62792"/>
</g>
<g style="mix-blend-mode:soft-light" opacity="0.5">
<path d="M19.7724 5.1001C20.1247 4.84986 17.1582 3.17763 15.4248 2.81617C13.6913 2.45471 11.9499 2.9115 11.6256 3.44375C11.3013 3.97601 14.8483 4.88958 16.2775 5.04052C17.7066 5.19146 19.5201 5.28282 19.7724 5.10408V5.1001Z" fill="#FFD8FF"/>
</g>
<g style="mix-blend-mode:soft-light" opacity="0.5">
<path d="M16.8019 0.941375C17.4264 1.39022 15.6089 2.28393 13.243 1.75962C10.877 1.23531 14.7322 -0.552119 16.8019 0.941375Z" fill="#FFD8FF"/>
</g>
<g style="mix-blend-mode:soft-light" opacity="0.5">
<path d="M26.2097 6.55786C26.9223 7.01465 25.2649 4.3494 24.0719 3.43185C22.8789 2.51431 22.4386 2.53814 22.2584 2.67319C22.0783 2.80824 23.4834 3.74962 24.5443 4.7188C25.6012 5.68401 26.2097 6.55786 26.2097 6.55786Z" fill="#FFD8FF"/>
</g>
<g style="mix-blend-mode:soft-light" opacity="0.5">
<path d="M11.1052 27.4151C13.9996 27.7409 5.47653 18.903 3.05853 14.1167C0.640524 9.33037 -0.892745 15.4473 1.30908 20.0708C3.5109 24.6943 11.1052 27.4151 11.1052 27.4151Z" fill="#FF7DFF"/>
</g>
<g style="mix-blend-mode:multiply" opacity="0.2">
<path d="M24.9887 24.6704C25.8694 23.308 18.179 24.4996 12.2702 21.4848C6.36127 18.474 10.0803 25.727 13.2269 27.6137C16.3736 29.5044 22.4186 28.6306 24.9887 24.6665V24.6704Z" fill="#A85592"/>
</g>
<g style="mix-blend-mode:soft-light">
<path d="M0.804663 19.1215C4.24751 26.3229 15.2246 31.5739 22.2824 27.6773C20.7932 28.44 15.5168 30.2552 6.66151 23.9595C-3.71508 16.5754 4.09539 5.59268 4.41165 5.15973C0.632521 9.27081 -1.16096 15.0065 0.804663 19.1215Z" fill="#FFBFFF"/>
</g>
<g style="mix-blend-mode:soft-light">
<path d="M2.39398 21.747C3.50289 23.0578 1.6934 17.485 0.900739 15.6539C0.108084 13.8188 -0.752629 18.0212 2.39398 21.747Z" fill="#FFBFFF"/>
</g>
<path d="M19.6723 11.3839C20.6731 11.7017 20.3368 12.8655 19.2679 12.9688C18.1991 13.0721 18.6715 11.0702 19.6723 11.3839Z" fill="white"/>
<g style="mix-blend-mode:soft-light" opacity="0.5">
<path d="M24.8926 8.32543C26.7101 10.0573 26.9943 20.2257 23.1512 22.4262C19.308 24.6268 7.39011 15.5466 9.59193 9.85865C11.7938 4.17066 22.8869 6.41487 24.8926 8.32543Z" fill="#FFD8FF"/>
</g>
<g style="mix-blend-mode:multiply" opacity="0.4">
<path d="M7.93856 2.19259C11.4615 0.428991 5.19229 9.60842 6.19712 15.2011C7.20195 20.7937 2.99848 13.3422 1.79348 12.091C0.584478 10.8437 5.30038 3.51528 7.93856 2.19259Z" fill="#C62792"/>
</g>
<path d="M27.9391 14.4305C28.7118 16.206 28.7478 12.79 27.9992 11.5468C27.2546 10.3035 27.9391 14.4305 27.9391 14.4305Z" fill="white"/>
<g style="mix-blend-mode:soft-light">
<path d="M3.43084 6.66906C3.80315 6.47045 2.75828 7.956 1.94561 9.96586C1.13294 11.9757 1.68139 7.59852 3.43084 6.66906Z" fill="#FFBFFF"/>
</g>
<g style="mix-blend-mode:soft-light">
<path d="M28.1633 15.4235C28.3635 15.5268 28.0312 17.8544 26.2057 21.9893C24.3802 26.1282 21.2416 27.7488 20.3488 27.7012C19.4561 27.6535 19.4041 27.2761 19.7483 26.8233C20.0886 26.3705 23.6476 26.5294 25.5531 23.0181C27.4587 19.5068 26.7782 18.8077 27.1144 17.6836C27.4507 16.5595 28.1633 15.4235 28.1633 15.4235Z" fill="#FFD8FF"/>
</g>
<g style="mix-blend-mode:soft-light">
<path d="M6.7736 21.1989C7.32606 21.3697 6.50138 20.4045 5.66469 19.1572C4.82799 17.91 4.21949 20.4084 6.7736 21.1989Z" fill="#FFBFFF"/>
</g>
<g style="mix-blend-mode:multiply" opacity="0.4">
<g style="mix-blend-mode:multiply" opacity="0.4">
<path d="M23.0751 22.1362C23.3713 21.5365 23.2392 21.2346 22.7588 21.3736C22.2744 21.5126 22.0903 22.3348 22.4025 22.4262C22.7148 22.5176 22.975 22.3348 23.0751 22.1362Z" fill="#C62792"/>
</g>
<g style="mix-blend-mode:multiply" opacity="0.4">
<path d="M17.2863 23.0777C17.7907 22.8076 17.1222 22.3111 16.8259 22.466C16.5297 22.6209 16.4977 23.5027 17.2863 23.0777Z" fill="#C62792"/>
</g>
<g style="mix-blend-mode:multiply" opacity="0.4">
<path d="M9.11955 20.6825C9.03548 21.4014 7.77043 20.8374 8.07869 19.8046C8.38694 18.7719 9.19161 20.0628 9.11955 20.6825Z" fill="#C62792"/>
</g>
<g style="mix-blend-mode:multiply" opacity="0.4">
<path d="M10.3926 22.748C10.6728 22.7083 10.2044 22.1839 10.0763 22.3667C9.94823 22.5494 10.2285 22.7718 10.3926 22.748Z" fill="#C62792"/>
</g>
<g style="mix-blend-mode:multiply" opacity="0.4">
<path d="M6.82165 14.9031C6.99779 15.1256 7.21397 14.4543 6.99379 14.4384C6.77361 14.4225 6.71756 14.772 6.82165 14.9031Z" fill="#C62792"/>
</g>
<g style="mix-blend-mode:multiply" opacity="0.4">
<path d="M14.7842 9.58058C15.0965 9.80698 14.6001 10.3512 14.3279 10.1645C14.0556 9.97778 13.9275 8.96491 14.7842 9.58058Z" fill="#C62792"/>
</g>
<g style="mix-blend-mode:multiply" opacity="0.4">
<path d="M11.4615 13.0601C11.8458 13.3858 11.2653 14.1763 10.913 13.93C10.5647 13.6837 10.9451 12.6232 11.4615 13.0601Z" fill="#C62792"/>
</g>
<g style="mix-blend-mode:multiply" opacity="0.4">
<path d="M6.82565 11.5189C7.20997 11.8446 6.62949 12.6351 6.2772 12.3888C5.92891 12.1425 6.30922 11.082 6.82565 11.5189Z" fill="#C62792"/>
</g>
<g style="mix-blend-mode:multiply" opacity="0.4">
<path d="M27.3266 9.75135C27.7109 10.0771 27.1304 10.8675 26.7782 10.6212C26.4299 10.375 26.8102 9.31443 27.3266 9.75135Z" fill="#C62792"/>
</g>
</g>
<defs>
<radialGradient id="paint0_radial_13_12203" cx="0" cy="0" r="1" gradientUnits="userSpaceOnUse" gradientTransform="translate(24.3733 8.00912) rotate(-152.275) scale(19.6747 19.392)">
<stop stop-color="#FA9300"/>
<stop offset="0.85" stop-color="#F66A00"/>
<stop offset="1" stop-color="#F63F00"/>
</radialGradient>
</defs>
</svg>
