<svg width="24" height="29" viewBox="0 0 24 29" fill="none" xmlns="http://www.w3.org/2000/svg">
<path d="M0.633904 20.1985L19.0108 0.66272C19.0108 0.66272 28.0967 11.1096 19.8686 18.6739C12.6276 25.3272 4.80946 23.2313 0.633904 20.1985Z" fill="#FFD8E6"/>
<path d="M0 20.995C0 20.995 11.6089 29.2253 20.2975 20.2899C28.9861 11.3578 19.6573 0 19.6573 0L19.0108 0.662727C19.0108 0.662727 27.0812 10.4404 19.0265 18.7228C10.9719 27.0053 0.633903 20.1985 0.633903 20.1985L0 20.995H0Z" fill="url(#paint0_linear_13_10701)"/>
<path d="M10.3411 28.5005C7.48068 29.7378 3.77819 29.173 0 20.995C0 20.995 12.7916 29.4277 21.2026 19.2713C21.2026 19.2713 15.9012 26.0944 10.3411 28.5005Z" fill="url(#paint1_linear_13_10701)"/>
<g style="mix-blend-mode:multiply" opacity="0.5">
<path d="M7.56583 28.8825C5.61366 27.9847 8.74849 25.4546 11.6089 24.7233C14.4694 23.992 18.3737 22.265 18.3737 22.265C18.3737 22.265 12.2176 29.4407 7.56583 28.8792V28.8825Z" fill="#A85592"/>
</g>
<g style="mix-blend-mode:multiply" opacity="0.2">
<path d="M3.61103 26.7311C4.72431 27.9684 6.63548 25.8757 7.12115 24.9224C7.60683 23.9692 1.51379 22.7417 0.132454 21.2758C0.132454 21.2758 1.83232 25.2554 3.61103 26.7278V26.7311Z" fill="#C62792"/>
</g>
<path d="M19.2883 3.69886H19.2915V3.70865L19.2946 3.71518C20.6854 5.77192 22.338 10.2902 19.0959 16.0034C15.3808 22.5458 4.923 21.5109 3.22944 20.0646C3.0276 19.8916 2.94876 19.7088 3.0276 19.5357C4.40894 16.4637 17.2447 1.87065 18.3043 2.59214C18.5377 2.74884 18.9036 3.12754 19.2915 3.69886H19.2883Z" fill="url(#paint2_linear_13_10701)"/>
<g style="mix-blend-mode:multiply" opacity="0.5">
<path d="M7.65729 13.1207C6.93509 14.1425 4.39001 17.3549 4.5887 18.1091C4.78739 18.8632 9.90591 18.5824 12.1577 17.1786C14.4095 15.7716 12.4289 13.532 12.8326 11.4622C13.2363 9.39241 16.4342 12.5689 18.7175 10.1694C21.0008 7.76987 18.8783 4.22445 17.9858 3.46378C17.0933 2.70312 13.8008 6.07551 13.5296 6.54889C13.2583 7.02227 14.6271 8.14205 12.4005 11.4165C10.1771 14.691 7.65729 13.1239 7.65729 13.1239V13.1207Z" fill="#CE1374"/>
</g>
<g style="mix-blend-mode:multiply" opacity="0.5">
<path d="M19.2978 3.71191L19.3009 3.71518C20.6917 5.77191 22.3443 10.2902 19.1022 16.0034C15.3871 22.5458 4.9293 21.5109 3.23574 20.0646C3.12536 19.9112 3.05913 19.7512 3.04021 19.5782C3.36504 20.6294 12.0599 21.5435 15.6173 19.033C19.2252 16.4898 17.7966 15.4582 18.0079 15.0664C18.2192 14.6747 18.9035 15.1317 19.4271 14.1262C19.9474 13.1305 13.4003 9.55239 13.2457 9.38916C13.293 9.33366 19.5974 12.8497 19.9727 12.6375C20.3511 12.422 20.6255 10.0127 20.5656 9.5426C20.5025 9.07902 13.7346 8.37712 13.5264 8.351C13.7282 8.34773 20.5624 8.30529 20.6255 7.61645C20.6886 6.94393 19.3892 3.91759 19.3009 3.70538L19.2978 3.71191Z" fill="#CE1374"/>
</g>
<g style="mix-blend-mode:soft-light" opacity="0.3">
<path d="M11.4544 11.3969C12.0599 11.4394 11.467 19.1831 10.8804 19.9862C10.2938 20.7861 3.6678 21.2203 3.6268 19.4443C3.58896 17.7369 10.8173 11.3512 11.4544 11.3969Z" fill="#FFD8FF"/>
</g>
<path d="M6.82155 18.3572C6.13088 18.5922 6.35165 17.3419 6.6954 17.0481C7.03916 16.7542 8.10828 17.9197 6.82155 18.3572Z" fill="#FFD8E6"/>
<g style="mix-blend-mode:multiply" opacity="0.2">
<path d="M23.2589 15.7063C22.3001 15.8826 21.0733 7.92986 21.0607 6.65338C21.0481 5.37689 21.9501 4.13306 21.9501 4.13306C21.9501 4.13306 25.2489 8.42282 23.2589 15.7096V15.7063Z" fill="#C62792"/>
</g>
<path d="M5.70828 22.3237C5.70828 22.3237 8.95033 23.437 9.56531 23.326C10.1803 23.215 10.7196 22.5262 11.1958 22.7351C11.672 22.944 13.4665 22.8428 14.1603 22.4347C14.8541 22.0267 16.5477 21.2007 16.923 21.2072C17.2951 21.2138 17.4118 21.0766 17.825 20.2801C18.2381 19.4802 18.4683 19.5749 18.7459 19.3333C19.0234 19.0917 18.8216 18.9416 19.0265 18.7228C19.2315 18.5074 20.7548 16.5714 20.7548 16.5714C20.7548 16.5714 18.1214 19.1897 14.2234 21.0179C10.3285 22.8428 5.70512 22.327 5.70512 22.327L5.70828 22.3237Z" fill="#FFD8E6"/>
<g style="mix-blend-mode:multiply" opacity="0.5">
<path d="M17.9953 15.0305C17.5537 15.0795 15.1853 13.2219 14.6208 12.6342C14.0562 12.0466 15.2578 12.7909 16.5761 13.5549C17.8944 14.3188 17.9921 15.0305 17.9921 15.0305H17.9953Z" fill="#CE1374"/>
</g>
<g style="mix-blend-mode:multiply" opacity="0.5">
<path d="M17.5127 16.3299C17.5979 15.8173 14.3558 13.8226 13.7692 13.3786C13.1827 12.9346 14.7658 14.3319 14.9298 16.0785C15.0938 17.8283 17.2668 17.8022 17.5127 16.3299Z" fill="#CE1374"/>
</g>
<g style="mix-blend-mode:multiply" opacity="0.5">
<path d="M9.2594 13.4929C8.61919 13.7867 9.84915 19.9177 10.1109 20.6098C10.3727 21.3019 10.6534 15.5202 10.3664 14.6453C10.0794 13.7703 9.66623 13.3068 9.2594 13.4929Z" fill="#CE1374"/>
</g>
<g style="mix-blend-mode:multiply" opacity="0.5">
<path d="M13.6809 7.71442C13.6967 7.95601 16.7464 7.79277 17.4591 7.62301C18.175 7.45325 14.8983 6.85908 14.2896 6.72196C13.6809 6.58485 13.6809 7.71768 13.6809 7.71768V7.71442Z" fill="#CE1374"/>
</g>
<g style="mix-blend-mode:soft-light" opacity="0.5">
<path d="M19.3261 14.0021C19.2221 14.3123 19.0959 14.4722 18.6197 14.6126C18.1435 14.753 14.8321 12.3959 14.0026 11.632C13.17 10.868 15.0623 10.6885 16.6297 11.4753C18.1971 12.2621 19.4239 13.7214 19.3293 14.0021H19.3261Z" fill="#FFD8FF"/>
</g>
<g style="mix-blend-mode:soft-light" opacity="0.5">
<path d="M17.0302 11.0705C16.8536 11.2663 19.3924 12.2947 19.7551 12.3665C20.1177 12.4384 20.6507 9.81683 20.4615 9.59157C20.2723 9.36958 19.6573 9.11493 19.3671 9.42507C19.077 9.73522 17.0334 11.0705 17.0334 11.0705H17.0302Z" fill="#FFD8FF"/>
</g>
<g style="mix-blend-mode:soft-light" opacity="0.5">
<path d="M13.394 12.1935C12.9493 12.7975 17.4055 15.8663 17.6894 15.8303C17.8218 15.814 18.2318 15.6475 17.6074 15.0501C16.8883 14.3645 15.0844 13.2186 14.6176 12.9085C13.7409 12.3274 13.394 12.1902 13.394 12.1902V12.1935Z" fill="#FFD8FF"/>
</g>
<g style="mix-blend-mode:soft-light" opacity="0.5">
<path d="M11.8234 19.9993C11.2841 19.9536 13.2079 16.973 13.5106 16.1536C13.8134 15.3341 13.2079 13.6724 13.2678 13.3166C13.3277 12.9607 14.7785 15.1938 14.9898 16.4049C15.2011 17.6161 16.0116 17.7565 15.4817 18.207C14.9519 18.6576 13.1133 20.1103 11.8234 19.9993Z" fill="#FFD8FF"/>
</g>
<path d="M5.92589 23.5807C5.92589 23.5807 9.93745 25.373 12.8231 24.6286C17.5191 23.4174 19.2473 21.2497 19.2473 21.2497C19.2473 21.2497 16.6928 23.3228 13.4917 23.8777C10.2907 24.4295 5.92589 23.5807 5.92589 23.5807Z" fill="#FFC74C"/>
<g style="mix-blend-mode:multiply" opacity="0.5">
<path d="M7.56583 28.8825C7.56583 28.8825 11.7855 27.8313 15.671 24.9714C15.671 24.9714 10.6849 29.6856 7.56583 28.8825Z" fill="#A85592"/>
</g>
<path d="M7.02339 13.5124C7.43968 13.1435 11.0255 11.521 12.8231 9.55241C14.6239 7.58382 13.5264 6.54565 13.5264 6.54565L7.02023 13.5124H7.02339Z" fill="#FFD8E6"/>
<path d="M12.8137 10.1204C12.6623 10.1302 13.5958 11.299 15.0907 11.6711C16.1125 11.9258 14.4946 9.99637 12.8137 10.1204Z" fill="#FFA781"/>
<path d="M13.7409 6.64686C13.1827 6.62075 15.2421 4.59339 15.4849 4.67501C15.7277 4.75662 15.3682 6.71869 13.7409 6.64686Z" fill="#FFA781"/>
<defs>
<linearGradient id="paint0_linear_13_10701" x1="19.8125" y1="20.786" x2="9.34311" y2="10.6051" gradientUnits="userSpaceOnUse">
<stop stop-color="#FFAC00"/>
<stop offset="1" stop-color="#FFA000"/>
</linearGradient>
<linearGradient id="paint1_linear_13_10701" x1="15.1697" y1="25.7536" x2="4.99469" y2="15.8589" gradientUnits="userSpaceOnUse">
<stop stop-color="#FF5700"/>
<stop offset="1" stop-color="#FF9200"/>
</linearGradient>
<linearGradient id="paint2_linear_13_10701" x1="17.4269" y1="18.1267" x2="9.68758" y2="10.6006" gradientUnits="userSpaceOnUse">
<stop stop-color="#FF4229"/>
<stop offset="0.99" stop-color="#FF151D"/>
</linearGradient>
</defs>
</svg>
