<svg width="32" height="31" viewBox="0 0 32 31" fill="none" xmlns="http://www.w3.org/2000/svg">
<g clip-path="url(#clip0_6_397)">
<path d="M26.7967 13.1114L26.7943 13.12L31.37 18.9293C31.9192 19.627 32.122 20.5155 31.9281 21.3662C31.7318 22.2279 31.1624 22.9555 30.3644 23.362C29.9306 23.5834 29.4396 23.6995 28.942 23.6995L21.4303 23.6932H21.4117L17.1381 29.7176C16.8562 30.1155 16.4774 30.442 16.0444 30.6633C15.2456 31.0706 14.3046 31.1122 13.463 30.7787C12.6326 30.449 11.997 29.7819 11.7199 28.9477L9.4131 22.0302L9.39937 21.9886L9.33879 21.9713L2.18245 19.8994C1.10981 19.5894 0.313399 18.7543 0.0735085 17.7003C0.0630082 17.6524 0.0525079 17.6037 0.0444308 17.5551C-0.152651 16.4336 0.314207 15.323 1.26246 14.6559L3.28175 13.2314L7.33889 10.3731L7.35747 10.3598L7.1717 3.04514C7.14181 1.9087 7.76698 0.874297 8.80489 0.345322C9.84281 -0.183654 11.0746 -0.0957528 12.0212 0.574492L18.0976 4.87222L18.1081 4.88007L25.1861 2.45651C25.2451 2.43454 25.2936 2.42041 25.3194 2.41256L25.3348 2.40786C26.3824 2.09549 27.5091 2.35213 28.3063 3.07653C28.3395 3.10557 28.3718 3.13618 28.4033 3.16757C29.2037 3.96025 29.4816 5.10846 29.1262 6.16484L26.7975 13.1145L26.7967 13.1114Z" fill="url(#paint0_linear_6_397)"/>
<path d="M14.2965 16.2617L18.0023 17.3416L21.4311 23.6917H21.4125L17.1389 29.716C16.857 30.1139 16.4782 30.4404 16.0452 30.6617C15.2464 31.0691 14.3054 31.1107 13.4638 30.7771C12.6335 30.4475 11.9978 29.7804 11.7207 28.9461L9.39937 21.987L9.33879 21.9698L14.2973 16.2633L14.2965 16.2617Z" fill="url(#paint1_linear_6_397)"/>
<path d="M18.0968 4.86988L17.021 9.12837L11.812 11.7842L7.33808 10.3715L7.35666 10.3582L7.17089 3.04358C7.141 1.90715 7.76617 0.872741 8.80408 0.343765C9.842 -0.18521 11.0738 -0.0973092 12.0204 0.572936L18.0968 4.87066V4.86988Z" fill="url(#paint2_linear_6_397)"/>
<path d="M29.1262 6.1617L26.7975 13.1114L23.9503 13.4708L25.607 5.59034L28.3063 3.07339C28.3395 3.10243 28.3718 3.13304 28.4033 3.16444C29.2037 3.95711 29.4816 5.10532 29.1262 6.1617Z" fill="url(#paint3_linear_6_397)"/>
<path d="M9.4131 22.0278L9.39936 21.9862L9.33879 21.969L2.18244 19.897C1.1098 19.587 0.313393 18.7519 0.0735016 17.6979L3.23812 17.1878L12.7829 18.0048L9.4131 22.0286V22.0278Z" fill="url(#paint4_linear_6_397)"/>
<path d="M25.1894 12.7402C25.0448 13.1679 25.128 13.6356 25.4074 13.9927L26.9962 16.0098L30.0623 19.9025C30.7691 20.8019 30.1092 22.0993 28.9444 22.0985L21.2881 22.0922C20.8237 22.0922 20.3907 22.3127 20.1282 22.6832L15.7827 28.808C15.1212 29.7404 13.6455 29.5308 13.2877 28.454L10.926 21.3749C10.7854 20.9479 10.4341 20.6159 9.99142 20.488L2.65254 18.3635C1.53547 18.0401 1.28508 16.6133 2.22768 15.9501L4.24858 14.5249L8.42608 11.581C8.44223 11.5692 8.45838 11.5582 8.47373 11.5456C8.77662 11.3141 8.96644 10.9704 9.00117 10.6015C9.00601 10.5489 9.00844 10.4955 9.00682 10.4422L8.81701 3.00277C8.80247 2.43691 9.12636 1.98563 9.56899 1.7596C10.0124 1.53357 10.5786 1.53121 11.0495 1.86476L17.2415 6.24412C17.6146 6.50782 18.0993 6.57767 18.5354 6.42698L25.7564 3.95477C25.7766 3.94692 25.796 3.94143 25.817 3.93515C26.8936 3.61415 27.9154 4.60853 27.56 5.66491L25.531 11.7183L25.1894 12.7394V12.7402Z" fill="url(#paint5_linear_6_397)"/>
<g style="mix-blend-mode:screen" opacity="0.4">
<g style="mix-blend-mode:screen" opacity="0.4">
<path style="mix-blend-mode:screen" opacity="0.4" d="M27.56 5.66491L25.531 11.7183L25.1894 12.7394C25.0448 13.1671 25.128 13.6349 25.4074 13.992L26.9962 16.009C22.4237 17.249 14.5211 18.0425 8.47453 11.5456C8.77743 11.3141 8.96724 10.9704 9.00197 10.6015C9.00682 10.5489 9.00924 10.4955 9.00762 10.4422L8.81781 3.00277C8.80327 2.43691 9.12717 1.98563 9.56979 1.7596C10.0132 1.53357 10.5794 1.53121 11.0503 1.86476L17.2423 6.24412C17.6154 6.50782 18.1001 6.57767 18.5362 6.42698L25.7572 3.95477C25.7774 3.94692 25.7968 3.94143 25.8178 3.93515C26.8944 3.61415 27.9162 4.60853 27.5608 5.66491H27.56Z" fill="url(#paint6_linear_6_397)"/>
</g>
</g>
<g opacity="0.5">
<path opacity="0.5" d="M11.9525 4.29067C10.237 5.35019 14.1657 8.92509 15.4088 7.78552C16.6518 6.64594 12.8596 3.7303 11.9525 4.29067Z" fill="#9EECF0"/>
</g>
</g>
<defs>
<linearGradient id="paint0_linear_6_397" x1="1.70943" y1="20.963" x2="29.9308" y2="5.72737" gradientUnits="userSpaceOnUse">
<stop stop-color="#6AEBF1"/>
<stop offset="1" stop-color="#1F9FCE"/>
</linearGradient>
<linearGradient id="paint1_linear_6_397" x1="10.0978" y1="26.0463" x2="19.8533" y2="20.7797" gradientUnits="userSpaceOnUse">
<stop stop-color="#6AEBF1"/>
<stop offset="1" stop-color="#1F9FCE"/>
</linearGradient>
<linearGradient id="paint2_linear_6_397" x1="6.15161" y1="8.18073" x2="16.7822" y2="2.44168" gradientUnits="userSpaceOnUse">
<stop stop-color="#6AEBF1"/>
<stop offset="1" stop-color="#1F9FCE"/>
</linearGradient>
<linearGradient id="paint3_linear_6_397" x1="22.4462" y1="10.6947" x2="31.3733" y2="5.87529" gradientUnits="userSpaceOnUse">
<stop stop-color="#6AEBF1"/>
<stop offset="1" stop-color="#1F9FCE"/>
</linearGradient>
<linearGradient id="paint4_linear_6_397" x1="31.4762" y1="6.23477" x2="12.0774" y2="16.7074" gradientUnits="userSpaceOnUse">
<stop stop-color="#6AEBF1"/>
<stop offset="1" stop-color="#1F9FCE"/>
</linearGradient>
<linearGradient id="paint5_linear_6_397" x1="3.16859" y1="20.2193" x2="28.5092" y2="6.53889" gradientUnits="userSpaceOnUse">
<stop stop-color="#1F9FCE"/>
<stop offset="1" stop-color="#6AEBF1"/>
</linearGradient>
<linearGradient id="paint6_linear_6_397" x1="27.2954" y1="4.29072" x2="9.68559" y2="13.7976" gradientUnits="userSpaceOnUse">
<stop offset="0.2" stop-color="#822E43"/>
<stop offset="1" stop-color="#9FFFFF"/>
</linearGradient>
<clipPath id="clip0_6_397">
<rect width="32" height="31" fill="white"/>
</clipPath>
</defs>
</svg>
