<svg width="28" height="28" viewBox="0 0 28 28" fill="none" xmlns="http://www.w3.org/2000/svg">
<path d="M28 14.0004C28 14.1334 27.9984 14.2671 27.9945 14.3993C27.7833 21.9471 21.599 28 14.0004 28C6.40179 28 0 21.7328 0 14.0004C0 8.57561 3.08512 3.87127 7.59626 1.54726C9.51507 0.558514 11.692 0 14.0004 0C21.7328 0 28.0008 6.26803 28.0008 14.0004H28Z" fill="url(#paint0_linear_6_372)"/>
<path d="M14.0004 26.6749C21.0004 26.6749 26.6749 21.0003 26.6749 14.0004C26.6749 7.00047 21.0004 1.3259 14.0004 1.3259C7.00048 1.3259 1.32591 7.00047 1.32591 14.0004C1.32591 21.0003 7.00048 26.6749 14.0004 26.6749Z" fill="url(#paint1_linear_6_372)"/>
<path d="M14.0004 24.1897C19.6278 24.1897 24.1898 19.6278 24.1898 14.0004C24.1898 8.37296 19.6278 3.81104 14.0004 3.81104C8.37299 3.81104 3.81107 8.37296 3.81107 14.0004C3.81107 19.6278 8.37299 24.1897 14.0004 24.1897Z" fill="url(#paint2_linear_6_372)"/>
<g opacity="0.35">
<path opacity="0.35" d="M17.0284 13.0961C16.3956 12.8716 15.6189 12.6737 14.6989 12.5008C13.9856 12.3632 13.474 12.2333 13.1634 12.1129C12.8529 11.9924 12.6972 11.8109 12.6972 11.5692C12.6972 11.0631 13.2205 10.8097 14.2672 10.8097C14.925 10.8097 15.6079 10.9254 16.315 11.157L17.4063 8.14302C16.7844 7.95372 16.1007 7.82387 15.3545 7.75582V6.66617H12.9217V7.79024C11.5528 7.98579 10.5031 8.44575 9.77245 9.17088C9.04185 9.89522 8.67654 10.7643 8.67654 11.7765C8.67654 12.651 8.90652 13.3441 9.36647 13.8557C9.82643 14.368 10.3669 14.7357 10.9888 14.9602C11.6099 15.1847 12.3867 15.3943 13.3183 15.5899C14.0434 15.7393 14.5636 15.8777 14.8796 16.0037C15.1957 16.1304 15.3545 16.3205 15.3545 16.5731C15.3545 16.7922 15.234 16.9557 14.9923 17.0652C14.7506 17.1747 14.3477 17.2294 13.7845 17.2294C13.129 17.2294 12.4446 17.1285 11.7312 16.9275C11.4777 16.8563 11.2337 16.7757 10.9982 16.6881L9.75759 19.6872C9.97505 19.7646 10.2027 19.8374 10.446 19.9047C11.2337 20.1229 12.0597 20.2551 12.9225 20.3013V21.3729H15.3552V20.2144C16.6436 19.9845 17.6354 19.5096 18.3316 18.7908C19.0278 18.0719 19.3759 17.2294 19.3759 16.2626C19.3759 15.3881 19.1428 14.6981 18.6774 14.192C18.2112 13.6859 17.662 13.3206 17.0292 13.0961H17.0284Z" fill="#C74B00"/>
</g>
<g opacity="0.35">
<path opacity="0.35" d="M13.7845 17.2294C13.129 17.2294 12.4445 17.1285 11.7312 16.9275C11.4777 16.8563 11.2337 16.7758 10.9982 16.6881L10.7964 17.1763C10.9661 17.2349 11.1382 17.2912 11.3174 17.3413C12.0307 17.5423 12.7152 17.6432 13.3707 17.6432C13.9339 17.6432 14.3368 17.5885 14.5785 17.479C14.7803 17.3875 14.8968 17.2576 14.9297 17.0894C14.6841 17.1817 14.3031 17.2287 13.7845 17.2287V17.2294Z" fill="#C74B00"/>
</g>
<g opacity="0.35">
<path opacity="0.35" d="M14.9407 7.08076V8.17041C15.6869 8.23925 16.3706 8.36832 16.9925 8.55762L16.078 11.0842C16.157 11.1077 16.236 11.1312 16.3158 11.1578L17.407 8.14382C16.7852 7.95452 16.1015 7.82467 15.3552 7.75661V6.66696H12.9225V7.08154H14.9414L14.9407 7.08076Z" fill="#C74B00"/>
</g>
<g opacity="0.35">
<path opacity="0.35" d="M12.5071 8.20404V7.85986C11.3393 8.08436 10.4272 8.52085 9.77245 9.1701C9.69579 9.24598 9.62461 9.3242 9.55577 9.40321C10.2731 8.7829 11.2563 8.38318 12.5071 8.20404Z" fill="#C74B00"/>
</g>
<g opacity="0.35">
<path opacity="0.35" d="M14.9407 20.6291V21.373H15.3552V20.5438C15.2207 20.5751 15.083 20.604 14.9407 20.6291Z" fill="#C74B00"/>
</g>
<g opacity="0.35">
<path opacity="0.35" d="M18.6766 14.1921C18.2104 13.686 17.6613 13.3207 17.0284 13.0962C16.3956 12.8717 15.6188 12.6738 14.6989 12.5009C13.9855 12.3632 13.474 12.2334 13.1634 12.1129C12.8529 11.9924 12.6972 11.811 12.6972 11.5692C12.6972 11.5074 12.705 11.4488 12.7207 11.3948C12.4297 11.5207 12.2826 11.7171 12.2826 11.9838C12.2826 12.2255 12.4383 12.4062 12.7488 12.5275C13.0594 12.6479 13.571 12.7778 14.2844 12.9155C15.2043 13.0883 15.981 13.2862 16.6138 13.5107C17.2467 13.7352 17.7958 14.1005 18.262 14.6067C18.7282 15.1128 18.9605 15.8035 18.9605 16.6772C18.9605 17.551 18.6641 18.3535 18.0727 19.0341C18.1627 18.9559 18.2495 18.8753 18.3308 18.7908C19.027 18.0719 19.3751 17.2295 19.3751 16.2626C19.3751 15.3881 19.142 14.6982 18.6766 14.1921Z" fill="#C74B00"/>
</g>
<g style="mix-blend-mode:screen" opacity="0.4">
<g style="mix-blend-mode:screen" opacity="0.4">
<path style="mix-blend-mode:screen" opacity="0.4" d="M28 14.0004C28 14.1334 27.9985 14.2671 27.9946 14.3993C27.5542 14.6974 27.0942 14.9696 26.617 15.2129C25.7746 15.6446 24.8797 15.9873 23.9449 16.229C22.8858 16.5043 21.7735 16.6506 20.6283 16.6506C20.202 16.6506 19.7788 16.6303 19.3626 16.5904C19.2281 16.5778 19.0943 16.563 18.9606 16.5458C14.7498 16.0146 11.1586 13.4943 9.15684 9.95547C8.46926 8.74223 7.96941 7.4093 7.69641 5.99503C7.53918 5.18072 7.45627 4.33904 7.45627 3.47937C7.45627 3.36595 7.45783 3.2533 7.46018 3.14144C7.47426 2.6017 7.51963 2.06979 7.59707 1.54726C9.5151 0.558514 11.6921 0 14.0004 0C21.7328 0 28.0008 6.26803 28.0008 14.0004H28Z" fill="url(#paint3_linear_6_372)"/>
</g>
</g>
<g opacity="0.49">
<path opacity="0.49" d="M16.9189 3.45433C14.8124 5.15803 20.5712 9.43684 22.0402 7.69481C23.5092 5.95278 18.0328 2.5532 16.9189 3.45433Z" fill="#FFEC70"/>
</g>
<defs>
<linearGradient id="paint0_linear_6_372" x1="28" y1="14.0004" x2="0" y2="14.0004" gradientUnits="userSpaceOnUse">
<stop stop-color="#EA8934"/>
<stop offset="1" stop-color="#F4C411"/>
</linearGradient>
<linearGradient id="paint1_linear_6_372" x1="26.6749" y1="14.0004" x2="1.32513" y2="14.0004" gradientUnits="userSpaceOnUse">
<stop stop-color="#E67042"/>
<stop offset="1" stop-color="#F7D706"/>
</linearGradient>
<linearGradient id="paint2_linear_6_372" x1="24.1898" y1="14.0004" x2="3.81107" y2="14.0004" gradientUnits="userSpaceOnUse">
<stop stop-color="#F7D706"/>
<stop offset="1" stop-color="#E67042"/>
</linearGradient>
<linearGradient id="paint3_linear_6_372" x1="7.45549" y1="8.3253" x2="28" y2="8.3253" gradientUnits="userSpaceOnUse">
<stop offset="0.2" stop-color="#822E43"/>
<stop offset="1" stop-color="#9FFFFF"/>
</linearGradient>
</defs>
</svg>
