<svg width="26" height="25" viewBox="0 0 26 25" fill="none" xmlns="http://www.w3.org/2000/svg">
<path d="M25.9847 4.37396L24.3068 9.62032L19.387 25L0.0248413 16.0448L0.0255718 16.0366L0.658168 9.06108L3.31712 5.90104L3.42961 5.76682L16.2569 0L16.4307 0.00521952L20.509 0.136453L25.9781 4.36874L25.9847 4.37396Z" fill="url(#paint0_linear_6_353)"/>
<path d="M26 4.35458L24.3155 9.61586L19.387 25L19.433 10.9573L19.4403 8.52274L22.764 6.41107L25.9781 4.36875L26 4.35458Z" fill="url(#paint1_linear_6_353)"/>
<g style="mix-blend-mode:screen" opacity="0.46">
<g style="mix-blend-mode:screen" opacity="0.46">
<path d="M19.4403 8.52274L19.433 10.9573L19.387 25L9.84396 2.88342L12.0938 1.87158L13.3123 2.61424L15.7382 4.09286L19.1298 8.15066L19.132 8.1529L19.4403 8.52274Z" fill="#3A8D45"/>
</g>
</g>
<path d="M25.9847 4.37395L24.3067 9.62032L19.387 25L22.0174 10.5233L22.764 6.41106L18.891 1.25343L16.4307 0.00521851L20.509 0.136452L25.9781 4.36874L25.9847 4.37395Z" fill="url(#paint2_linear_6_353)"/>
<path d="M19.387 25L7.44068 13.9175L0 16.0433L19.387 25Z" fill="url(#paint3_linear_6_353)"/>
<g style="mix-blend-mode:screen" opacity="0.21">
<g style="mix-blend-mode:screen" opacity="0.21">
<path d="M9.84396 2.88342L19.387 25L7.44068 13.9175L6.73796 8.13873L7.59335 3.89526L9.84396 2.88342Z" fill="#3A8D45"/>
</g>
</g>
<g style="mix-blend-mode:screen" opacity="0.46">
<g style="mix-blend-mode:screen" opacity="0.46">
<path d="M19.387 25L0.0241089 16.0448L0.658166 9.06033L3.31712 5.90103L2.55742 8.59654L3.67067 14.9949L19.387 25Z" fill="#3A8D45"/>
</g>
</g>
<g style="mix-blend-mode:screen" opacity="0.35">
<g style="mix-blend-mode:screen" opacity="0.35">
<path d="M20.509 0.136453L18.891 1.25343L18.5907 1.5241V1.52484L15.7382 4.09285L6.73795 8.13872L2.55814 8.59655L0.658157 9.06108L3.31711 5.90104L3.4296 5.76682L16.2568 0L16.4307 0.00521952L20.509 0.136453Z" fill="#3A8D45"/>
</g>
</g>
<g style="mix-blend-mode:screen">
<g style="mix-blend-mode:screen">
<path d="M12.443 5.57444L15.0479 4.0056L13.3086 2.61199L15.8573 3.38895L18.5907 1.52335L16.4921 4.28522L19.132 8.15288L15.3532 4.71322L12.443 5.57444Z" fill="#3A8D45"/>
</g>
</g>
<g style="mix-blend-mode:screen" opacity="0.5">
<g style="mix-blend-mode:screen" opacity="0.5">
<path style="mix-blend-mode:screen" opacity="0.5" d="M26 4.35457L24.3148 9.61584C24.3148 9.61584 24.3082 9.61883 24.306 9.62032C24.1124 9.71949 23.9152 9.81493 23.7151 9.90441C23.1562 10.1557 22.5887 10.3607 22.0167 10.5225C21.1606 10.7649 20.2949 10.9073 19.4322 10.9565C17.0363 11.0937 14.6681 10.5076 12.6183 9.3146C11.5036 8.66664 10.4839 7.83822 9.60363 6.8495C8.82859 5.97858 8.16166 4.98315 7.63644 3.87437L16.2568 0L16.4307 0.00521952L20.5082 0.136453L25.9781 4.36874L26 4.35457Z" fill="url(#paint4_linear_6_353)"/>
</g>
</g>
<defs>
<linearGradient id="paint0_linear_6_353" x1="1.63405" y1="19.7748" x2="27.7641" y2="8.50049" gradientUnits="userSpaceOnUse">
<stop stop-color="#F2FB7C"/>
<stop offset="1" stop-color="#3A8D45"/>
</linearGradient>
<linearGradient id="paint1_linear_6_353" x1="20.7175" y1="25.1458" x2="23.0711" y2="4.02704" gradientUnits="userSpaceOnUse">
<stop stop-color="#F2FB7C"/>
<stop offset="1" stop-color="#3A8D45"/>
</linearGradient>
<linearGradient id="paint2_linear_6_353" x1="18.7739" y1="24.9294" x2="21.5241" y2="0.247725" gradientUnits="userSpaceOnUse">
<stop stop-color="#F2FB7C"/>
<stop offset="1" stop-color="#3A8D45"/>
</linearGradient>
<linearGradient id="paint3_linear_6_353" x1="18.5939" y1="26.0978" x2="1.55731" y2="13.869" gradientUnits="userSpaceOnUse">
<stop stop-color="#F2FB7C"/>
<stop offset="1" stop-color="#6DAC54"/>
</linearGradient>
<linearGradient id="paint4_linear_6_353" x1="10.032" y1="9.425" x2="25.3375" y2="2.82115" gradientUnits="userSpaceOnUse">
<stop offset="0.2" stop-color="#822E43"/>
<stop offset="1" stop-color="#9FFFFF"/>
</linearGradient>
</defs>
</svg>
