<svg width="133" height="235" viewBox="0 0 133 235" fill="none" xmlns="http://www.w3.org/2000/svg">
<g clip-path="url(#clip0_1_3)">
<path style="mix-blend-mode:screen" d="M104.423 94.5131C99.9098 87.0833 94.486 80.2603 88.7093 73.7716C88.4307 74.2793 88.3564 74.7684 88.0716 75.2761C93.3158 81.8824 98.8572 89.4422 103.278 96.6244C103.668 96.1353 104.033 95.0022 104.423 94.5131Z" fill="url(#paint0_linear_1_3)"/>
<path d="M124.007 66.1065C124.391 64.7815 124.694 63.4008 124.905 62.0016C125.078 62.0387 125.252 62.0944 125.412 62.1502C125.208 63.7228 124.769 65.2707 123.995 66.6452C124.001 66.4533 123.951 66.2923 124.001 66.1065H124.007Z" fill="#622066"/>
<path d="M125.679 54.8442C125.809 56.7698 125.666 59.0544 125.543 60.949C125.518 61.3453 125.474 61.7477 125.419 62.144C125.252 62.0883 125.084 62.0387 124.911 61.9954C125.258 59.6921 125.357 57.3332 125.177 55.0795C125.183 55.1104 125.19 55.1476 125.19 55.1785C125.233 54.9618 125.437 54.8504 125.685 54.8442H125.679Z" fill="#D97973"/>
<path d="M131.146 59.1349C131.548 58.6458 131.982 58.7015 132.44 59.5312C132.167 61.5929 131.734 63.5866 131.14 65.5307C130.669 64.9487 129.988 64.5339 129.257 64.3667C130.038 62.6888 130.669 60.9366 131.152 59.1349H131.146Z" fill="url(#paint1_linear_1_3)"/>
<path d="M125.543 60.949C125.666 59.0544 125.815 56.7698 125.679 54.8442C126.143 54.8256 126.799 55.1414 127.035 55.7358C127.394 58.1505 127.505 60.6023 127.264 63.0232C126.688 62.6517 126.069 62.3607 125.412 62.144C125.474 61.7477 125.512 61.3453 125.536 60.949H125.543Z" fill="url(#paint2_linear_1_3)"/>
<path d="M125.171 55.0795C125.351 57.3332 125.252 59.6983 124.905 61.9954C123.988 61.7477 123.029 61.6672 122.088 61.7477C122.366 59.1968 122.502 56.6336 122.54 54.0517C123.115 53.1416 123.964 53.2716 124.731 53.8845C124.936 54.2313 125.121 54.6647 125.177 55.0733L125.171 55.0795Z" fill="url(#paint3_linear_1_3)"/>
<path d="M116.416 54.2065C117.803 56.6274 118.85 59.2464 119.438 61.9706C118.528 61.8344 117.586 61.9459 116.732 62.2802C116.175 59.6674 115.5 57.0793 114.707 54.5532C115.029 53.7359 115.735 53.6245 116.416 54.2003V54.2065Z" fill="url(#paint4_linear_1_3)"/>
<path d="M115.76 69.8338C114.98 70.874 113.94 71.716 112.769 72.298C112.584 71.8956 112.392 71.4931 112.2 71.1093C110.491 70.2796 108.702 69.3756 107.711 67.7597C107.457 67.351 107.265 66.8681 107.358 66.3913C107.451 65.9208 107.915 65.6174 108.398 65.6298C110.658 65.7103 112.287 66.5028 113.921 67.7844C114.608 68.3231 115.215 69.0413 115.76 69.8276V69.8338Z" fill="url(#paint5_linear_1_3)"/>
<path d="M131.14 65.5307C130.669 64.9487 129.988 64.5339 129.257 64.3667C128.663 65.6669 127.976 66.9424 127.189 68.1497C126.923 67.9578 126.638 67.7968 126.378 67.6049C126.837 66.1127 127.128 64.571 127.276 63.0232C126.7 62.6517 126.081 62.3607 125.425 62.144C125.221 63.7166 124.781 65.2645 124.007 66.639C124.013 66.4471 123.964 66.2861 124.013 66.1003C124.397 64.7754 124.7 63.3947 124.911 61.9954C123.995 61.7477 123.035 61.6672 122.094 61.7477C121.951 63.1037 121.772 64.4596 121.543 65.8155C121.047 65.5679 120.379 65.1221 119.883 64.8682C119.797 63.89 119.648 62.9241 119.438 61.9644C118.528 61.8282 117.586 61.9397 116.732 62.274C117.382 65.3078 117.877 68.3788 118.243 71.4436C118.007 71.8275 117.605 72.1804 117.264 72.4776C116.874 71.6479 116.367 70.7006 115.766 69.8276C114.986 70.8678 113.946 71.7098 112.776 72.2918C113.333 73.5239 113.872 74.8056 114.454 75.9696C114.893 76.8611 115.333 77.7527 115.871 78.5886C116.156 79.0344 116.466 79.4554 116.813 79.8516C119.06 82.4335 122.651 82.6254 125.846 82.2106C126.88 82.0806 127.549 81.8267 127.901 80.8423C127.976 80.6503 128.038 80.4584 128.1 80.2603C128.409 79.3501 128.657 78.4028 128.849 77.4555C129.319 75.1523 129.456 72.781 129.245 70.4468C130 68.8246 130.626 67.19 131.146 65.5245L131.14 65.5307Z" fill="url(#paint6_radial_1_3)"/>
<path d="M131.065 83.9566C131.053 84.0247 131.041 84.0804 131.022 84.1485C130.254 86.0865 128.774 87.7582 126.898 88.6993C123.957 90.179 120.224 89.8509 117.481 88.0244C114.936 86.3403 113.277 83.4551 112.887 80.4336C113.779 79.6845 114.794 79.0653 115.871 78.5948C116.156 79.0405 116.466 79.4616 116.813 79.8578C119.06 82.4397 122.651 82.6316 125.846 82.2168C126.88 82.0868 127.549 81.8329 127.901 80.8485C127.976 80.6565 128.038 80.4646 128.1 80.2665C129.326 81.2757 130.341 82.5387 131.072 83.9566H131.065Z" fill="#94122E"/>
<path d="M125.933 97.2126C124.787 99.0762 123.456 100.816 121.914 102.37C117.134 107.181 110.962 110.06 104.374 111.657C102.789 108.32 102.207 104.5 102.659 100.828C110.497 102.803 119.097 101.497 125.933 97.2126Z" fill="#94122E"/>
<path d="M131.016 84.1485C129.957 88.6993 128.366 93.2438 125.933 97.2126C119.091 101.497 110.497 102.81 102.659 100.828C102.931 98.5995 103.575 96.4263 104.615 94.4326C104.683 94.544 104.745 94.6617 104.807 94.7793C108.268 90.4391 111.073 85.6902 112.869 80.4398C112.869 80.4398 112.873 80.4378 112.881 80.4336C113.271 83.4551 114.93 86.3403 117.475 88.0244C120.218 89.8509 123.951 90.179 126.892 88.6993C128.762 87.7582 130.248 86.0865 131.016 84.1485Z" fill="url(#paint7_linear_1_3)"/>
<path style="mix-blend-mode:screen" d="M117.555 89.0336C115.283 87.6281 113.519 85.1515 112.875 82.5573C110.856 87.1947 108.175 91.5412 104.943 95.4232C104.547 95.9 104.293 96.612 104.132 97.2126C109.469 96.9092 114.763 93.5905 117.555 89.0336Z" fill="url(#paint8_linear_1_3)"/>
<path d="M84.7282 75.53C87.8302 80.6565 98.9625 96.1662 102.634 100.822C102.64 100.822 102.653 100.828 102.659 100.828C102.201 104.5 102.783 108.314 104.374 111.657C104.231 111.694 104.089 111.732 103.947 111.763C98.3681 100.575 90.6101 90.3338 85.7312 78.8238C85.3536 77.9446 84.9759 77.0469 84.8025 76.1058C84.7654 75.92 84.7344 75.7219 84.7282 75.53Z" fill="#D97973"/>
<path d="M104.615 94.4326C103.575 96.4263 102.931 98.5995 102.659 100.828C102.653 100.828 102.64 100.822 102.634 100.822C98.9625 96.1662 87.8302 80.6565 84.7282 75.53C84.6539 74.756 84.7468 73.9697 85.0935 73.2887C85.5269 72.428 86.4742 71.2702 87.4401 71.2517C94.2012 78.1366 100.003 85.9626 104.615 94.4326Z" fill="url(#paint9_linear_1_3)"/>
<path d="M85.465 153.468C84.8211 155.592 84.2701 157.728 83.7871 159.889C81.1372 161.858 77.8866 163.003 74.5804 163.127C71.7632 170.668 69.6519 178.501 68.2774 186.469C66.0856 188.005 64.1106 189.831 62.4389 191.899C62.4698 191.726 62.507 191.546 62.5441 191.379C65.2931 178.395 69.782 165.864 74.3699 153.4C78.06 153.803 81.7935 153.846 85.465 153.468Z" fill="#622066"/>
<path d="M56.7365 155.939C56.8418 155.827 56.947 155.716 57.0585 155.605C56.3093 153.84 55.3186 152.131 53.8575 150.899C52.613 149.846 50.9908 149.178 49.3872 149.258C49.7896 147.797 50.1983 146.336 50.6131 144.875C54.1361 147.357 58.0677 149.271 62.1788 150.688C60.8229 163.554 58.9159 176.365 56.526 189.082C55.944 186.141 54.9967 183.262 53.7212 180.538C53.7274 180.531 53.7212 180.531 53.7212 180.531C54.8667 172.359 55.8573 164.161 56.7365 155.939Z" fill="#622066"/>
<path d="M57.0646 155.598C56.9532 155.71 56.8479 155.821 56.7427 155.933C55.8635 164.155 54.8729 172.346 53.7274 180.525C52.8916 178.748 51.9257 177.033 50.8298 175.411C50.7927 173.071 50.4398 170.736 49.9692 168.452C49.511 166.266 48.0932 163.313 45.3565 164.087L45.2389 164.124C46.6196 159.165 48.0127 154.205 49.3934 149.252C51.0032 149.172 52.6192 149.84 53.8636 150.893C55.3248 152.125 56.3155 153.828 57.0646 155.598Z" fill="url(#paint10_linear_1_3)"/>
<path d="M83.7809 159.895C82.8646 164 82.2207 168.161 81.7749 172.365C79.6574 173.956 77.9114 176.043 76.7226 178.408C76.1468 179.553 75.54 181.219 75.4843 182.785C72.921 183.664 70.4816 184.915 68.2712 186.475C69.6458 178.507 71.757 170.675 74.5742 163.133C77.8804 163.01 81.131 161.864 83.7809 159.895Z" fill="url(#paint11_linear_1_3)"/>
<path d="M62.4327 191.905C64.1044 189.837 66.0856 188.011 68.2712 186.475C66.519 196.635 65.9742 207.006 66.7234 217.266C64.0177 220.566 61.9497 224.411 60.8538 228.515C58.9592 216.417 59.9251 203.929 62.4265 191.905H62.4327Z" fill="#D97973"/>
<path d="M56.526 189.082C54.1299 201.843 51.2385 214.504 47.9384 227.054C47.5483 225.407 47.0406 223.785 46.4277 222.206C49.4058 208.399 51.7771 194.506 53.715 180.538C54.9905 183.262 55.9378 186.141 56.5198 189.082H56.526Z" fill="#D97973"/>
<path d="M53.7212 180.531C53.7212 180.531 53.7274 180.531 53.7212 180.538C51.7833 194.506 49.412 208.393 46.4339 222.206C44.1182 216.213 40.3291 210.789 35.444 206.622C34.1128 207.588 32.9055 208.715 31.8467 209.972C34.41 202.883 36.4779 195.552 38.5026 188.296C39.0226 186.42 39.5489 184.544 40.069 182.674C40.5767 184.748 41.2454 187.07 43.7591 187.317C44.6693 187.404 45.598 187.144 46.4091 186.717C50.1116 184.76 50.8112 180.005 50.8422 176.185C50.8422 175.925 50.8422 175.671 50.8298 175.417C51.9257 177.039 52.8916 178.748 53.7274 180.531H53.7212Z" fill="url(#paint12_linear_1_3)"/>
<path d="M80.9081 200.406C80.9328 202.437 80.9824 204.48 81.0691 206.523C76.0292 208.839 71.3546 212.034 67.6583 216.163C67.3425 216.523 67.0329 216.882 66.7296 217.259C65.9804 207 66.5252 196.629 68.2774 186.469C70.494 184.909 72.9272 183.658 75.4905 182.779C75.4472 184.061 75.7691 185.268 76.7722 186.06C78.0476 187.057 79.6079 186.655 80.9328 185.825C80.8028 190.685 80.8276 195.558 80.9081 200.4V200.406Z" fill="url(#paint13_linear_1_3)"/>
<path d="M66.7234 217.259C67.1382 223.086 67.9802 228.868 69.2495 234.552C66.7605 234.404 64.2901 234.144 61.8692 233.766C61.4668 232.026 61.1325 230.274 60.86 228.509C61.9497 224.404 64.0239 220.559 66.7296 217.259H66.7234Z" fill="#94122E"/>
<path d="M47.9384 227.048C47.3935 229.097 46.8487 231.147 46.2853 233.19C45.2513 233.413 44.2235 233.611 43.1895 233.778C44.1864 231.234 45.0098 228.621 45.6042 225.965C45.8828 224.708 46.1614 223.451 46.4339 222.194C47.0406 223.773 47.5545 225.395 47.9446 227.042L47.9384 227.048Z" fill="#94122E"/>
<path d="M46.4339 222.2C46.1614 223.457 45.8828 224.714 45.6042 225.971C45.0098 228.621 44.1864 231.234 43.1895 233.784C35.5059 235.023 27.6675 234.676 19.9653 233.339C25.1228 226.206 28.8253 218.25 31.8343 209.966C32.8931 208.709 34.1004 207.582 35.4316 206.616C40.3167 210.783 44.1121 216.207 46.4215 222.2H46.4339Z" fill="url(#paint14_linear_1_3)"/>
<path d="M81.0629 206.523C81.4591 215.91 82.6912 225.333 86.8767 233.667C81.1433 234.583 75.1438 234.899 69.2495 234.558C67.9802 228.868 67.1382 223.092 66.7234 217.266C67.0206 216.888 67.3301 216.523 67.6521 216.17C71.3484 212.034 76.023 208.839 81.0629 206.53V206.523Z" fill="url(#paint15_linear_1_3)"/>
<path d="M55.4549 85.294C51.6099 82.8979 48.5699 79.2201 46.9849 74.9789C46.3596 73.2949 45.9447 71.4993 46.0562 69.7038C46.1429 68.1931 46.6258 66.6885 47.536 65.4936C48.7123 65.5679 49.8206 66.3294 50.7184 67.1529C53.2012 69.4252 55.0029 72.3661 56.3341 75.4619C57.2318 77.5422 57.9376 79.7278 58.1791 81.9815C58.3215 83.3436 58.3091 84.7243 58.0615 86.0741C57.7086 86.1298 57.3495 86.1484 56.9965 86.1731C56.4703 85.9069 55.9564 85.6159 55.4549 85.3002V85.294Z" fill="#94122E"/>
<path d="M86.1089 65.0478C87.7435 68.2797 88.3564 71.9761 87.8364 75.5609C85.7374 72.8738 83.3599 70.4158 80.7781 68.2116C80.6976 68.2055 80.6171 68.1931 80.5428 68.1869C82.0287 66.6266 83.9976 65.5122 86.1089 65.0478Z" fill="url(#paint16_linear_1_3)"/>
<path d="M60.891 71.9761C61.5782 73.7716 61.8073 75.7033 61.9126 77.6227C61.9869 79.0777 61.9869 80.5575 61.634 81.9691C61.2749 83.387 60.5381 84.7429 59.3617 85.5973C58.9964 85.8698 58.5444 85.9936 58.0677 86.0679C58.3215 84.7181 58.3339 83.3374 58.1853 81.9753C57.9377 79.7216 57.238 77.536 56.3402 75.4557C55.0091 72.3599 53.2074 69.4252 50.7246 67.1467C49.8268 66.317 48.7185 65.5617 47.5421 65.4874C47.7093 65.2583 47.8951 65.0416 48.0994 64.8373C50.9784 64.6144 53.9008 65.3945 56.3464 66.93C56.526 67.0352 56.7055 67.1529 56.8851 67.2767C58.5382 68.416 60.0489 69.8895 60.8043 71.7408C60.8353 71.8213 60.8724 71.9018 60.8972 71.9761H60.891Z" fill="url(#paint17_linear_1_3)"/>
<path d="M87.8364 75.5671C90.2325 78.6257 92.2509 81.9691 93.7616 85.5292C93.7492 85.6221 93.7368 85.7088 93.7183 85.8017C86.1275 85.4859 78.5243 85.8388 71.0017 86.9037C68.4013 84.5943 66.0423 82.1734 63.8134 79.5049C63.4481 76.8116 62.4389 74.2112 60.8972 71.9761C60.8724 71.8956 60.8353 71.8151 60.8043 71.7408C60.0428 69.8895 58.5382 68.416 56.8851 67.2767C56.7055 67.1591 56.526 67.0414 56.3464 66.93C58.8664 66.9052 61.3863 66.9238 63.9 66.9919C63.931 67.0848 63.9682 67.1715 63.9991 67.2643C65.256 70.9297 70.3949 71.8894 74.2398 71.3755C73.9117 70.0567 73.5278 68.7565 73.1068 67.4625C75.5958 67.6482 78.0724 67.8897 80.549 68.1993C80.6295 68.2054 80.7099 68.2178 80.7842 68.224C83.3661 70.4282 85.7436 72.8862 87.8425 75.5733L87.8364 75.5671Z" fill="url(#paint18_linear_1_3)"/>
<path d="M85.2793 94.2097C84.883 94.154 84.4806 94.1354 84.0843 94.1354C83.9048 94.1354 83.7252 94.1416 83.5456 94.154C81.422 94.284 79.3974 95.0641 77.4656 95.9619C76.5183 96.3891 75.5896 96.8535 74.6732 97.355C72.4815 98.5314 70.4073 99.9059 68.5375 101.534C68.5561 101.423 68.5684 101.305 68.5746 101.188C61.9807 98.4199 56.9222 92.278 55.4549 85.2878C55.9564 85.6035 56.4641 85.8945 56.9965 86.1608L56.7365 86.1793C56.8356 86.1793 56.9408 86.1793 57.0399 86.1855C57.0275 86.1793 57.0089 86.1732 56.9965 86.1608C57.3495 86.136 57.7086 86.1174 58.0615 86.0617C58.5382 85.9874 58.9964 85.8636 59.3555 85.5912C60.5319 84.7305 61.2749 83.3746 61.6278 81.9629C61.9807 80.5513 61.9807 79.0715 61.9064 77.6165C61.8073 75.6972 61.5782 73.7592 60.8848 71.9699C62.4265 74.205 63.4357 76.8054 63.801 79.4987C66.0299 82.1735 68.3889 84.5943 70.9893 86.8976C78.5182 85.8326 86.1151 85.4735 93.7059 85.7955C93.1053 89.467 91.4708 93.0024 88.9261 95.7142C87.9045 94.866 86.6104 94.3769 85.2669 94.2035L85.2793 94.2097Z" fill="#D97973"/>
<path d="M88.1707 148.478C88.2388 138.751 86.3814 129 82.9513 119.892C82.9575 119.88 82.9575 119.867 82.9637 119.855C83.4094 119.756 83.8305 119.607 84.2453 119.434C87.7744 128.653 89.3842 138.696 88.9137 148.59C88.8394 150.082 88.7217 151.574 88.5546 153.06C88.3626 153.097 88.1769 153.128 87.9849 153.153C88.0964 151.599 88.1583 150.045 88.1645 148.484L88.1707 148.478Z" fill="#94122E"/>
<path d="M88.8208 113.899C88.2388 115.515 87.4649 117.044 86.2142 118.183C85.626 118.709 84.9635 119.124 84.2515 119.428C87.7806 128.647 89.3904 138.689 88.9199 148.583C93.1239 142.64 95.9101 135.693 96.9874 128.492C95.0309 123.223 92.2942 118.251 88.8208 113.899ZM82.9513 119.892C86.3752 129 88.2388 138.751 88.1707 148.478C75.3172 141.253 64.4759 129.947 57.5414 116.802C61.0644 115.131 64.6988 113.688 68.4013 112.543C69.7139 114.747 71.7137 116.641 73.986 117.83C73.9674 117.719 73.9488 117.614 73.9303 117.502C75.0324 118.375 76.2521 119.081 77.5832 119.551C79.2983 120.152 81.2115 120.282 82.9698 119.855C82.9636 119.867 82.9636 119.88 82.9575 119.892H82.9513Z" fill="url(#paint19_linear_1_3)"/>
<path d="M88.9199 148.583C88.8456 150.076 88.7279 151.568 88.5608 153.054C92.7276 152.36 96.7831 151.091 100.566 149.19C100.665 142.2 99.4392 135.104 96.9874 128.486C95.9101 135.686 93.1239 142.633 88.9199 148.577V148.583ZM50.6131 144.875C48.5514 143.432 46.632 141.804 44.8922 139.971C43.9325 138.962 43.0285 137.878 42.1927 136.758C41.3754 133.544 40.9854 130.219 41.0411 126.895C46.1491 123.019 51.7028 119.582 57.5414 116.802C64.4697 129.947 75.3172 141.253 88.1707 148.478C88.1645 150.038 88.1026 151.592 87.9911 153.146C87.1491 153.277 86.3071 153.394 85.4588 153.468C81.7811 153.846 78.0538 153.803 74.3637 153.4C72.531 153.202 70.7107 152.911 68.9214 152.534C66.6491 152.057 64.3892 151.444 62.1788 150.682C58.0677 149.264 54.1361 147.351 50.6131 144.868V144.875Z" fill="url(#paint20_linear_1_3)"/>
<path d="M85.2793 94.2097C86.369 98.1413 86.5609 102.283 86.2761 106.351C85.9665 110.747 85.1059 115.087 84.2453 119.421H84.2515C83.8367 119.607 83.4094 119.75 82.9698 119.849C85.496 111.552 85.8798 102.618 84.0781 94.1354C84.4744 94.1354 84.8768 94.154 85.2731 94.2097H85.2793Z" fill="#622066"/>
<path d="M88.9322 95.7204C87.9106 94.8722 86.6166 94.3831 85.2731 94.2097C86.3628 98.1413 86.5547 102.283 86.2699 106.351C85.9603 110.747 85.0997 115.087 84.2391 119.421H84.2453C84.9573 119.124 85.6198 118.716 86.208 118.183C87.4587 117.044 88.2326 115.508 88.8146 113.899C88.7527 113.818 88.6908 113.744 88.6289 113.67C90.1953 107.843 90.251 101.621 88.9075 95.739L88.926 95.7204H88.9322ZM84.0781 94.1416C85.8798 102.63 85.496 111.564 82.9698 119.855C81.2176 120.276 79.2983 120.152 77.5832 119.551C76.2521 119.081 75.0385 118.375 73.9303 117.502C72.7725 110.76 73.2059 104.048 74.6732 97.3612C75.5834 96.8597 76.5183 96.3953 77.4656 95.9681C79.3974 95.0765 81.422 94.2964 83.5456 94.1602C83.7252 94.1478 83.9048 94.1416 84.0843 94.1416H84.0781Z" fill="url(#paint21_radial_1_3)"/>
<path d="M73.9365 117.496C73.9488 117.607 73.9674 117.713 73.9922 117.824C71.7261 116.641 69.72 114.741 68.4075 112.537C64.7049 113.682 61.0705 115.125 57.5476 116.796C56.0245 113.917 54.6995 110.951 53.5788 107.918C58.0615 106.865 62.6679 106.326 67.2558 106.339C67.3301 109.113 68.7542 111.744 70.4692 113.954C71.4784 115.255 72.63 116.487 73.9365 117.496Z" fill="#94122E"/>
<path d="M73.9365 117.496C72.6362 116.493 71.4846 115.261 70.4692 113.954C68.7542 111.744 67.3301 109.113 67.2558 106.339C67.9183 104.797 68.3765 103.194 68.5375 101.528C70.4073 99.8997 72.4876 98.5252 74.6732 97.3488C73.2059 104.036 72.7725 110.747 73.9303 117.49L73.9365 117.496Z" fill="#622066"/>
<path d="M57.5476 116.802C51.709 119.582 46.1491 123.019 41.0473 126.895C40.9853 130.213 41.3754 133.544 42.1989 136.758C37.5491 130.467 35.0291 122.561 36.2922 114.871C41.6293 111.694 47.4988 109.342 53.5788 107.924C54.6995 110.951 56.0245 113.923 57.5476 116.802Z" fill="#D97973"/>
<path style="mix-blend-mode:screen" d="M52.0248 39.5017C51.9319 37.8424 51.6162 36.2017 51.2323 34.5857C50.1426 29.9482 48.6071 25.4161 46.6506 21.082L46.5763 21.1563C45.6104 19.9676 44.595 18.8098 43.5858 17.652C41.3259 15.0391 39.0412 12.4511 36.8123 9.81972C35.4749 8.25327 34.0571 6.76112 32.5525 5.36804C31.7415 4.60648 29.1534 1.51693 28.59 3.91923C28.59 3.92542 28.59 3.9378 28.59 3.944C34.3047 9.12008 38.8803 15.4849 42.6261 22.2337C46.1057 28.5056 48.9228 35.1181 51.6347 41.7678C52.0124 41.2353 52.0743 40.48 52.0434 39.7989C52.0372 39.6998 52.0372 39.6008 52.0248 39.5017Z" fill="url(#paint22_linear_1_3)"/>
<path d="M78.8463 22.4503C77.4842 21.0139 75.9301 19.7632 74.2089 18.754C72.7229 17.881 71.1255 17.1938 69.4786 16.6861C67.6707 12.0672 66.29 7.26881 65.7885 2.34038C65.6832 1.35594 65.9432 -0.148594 67.3363 0.439598C68.7604 1.04017 69.6024 2.60043 70.4321 3.81396C74.729 10.1293 78.3262 16.9709 80.4313 24.3264C79.9422 23.6701 79.4035 23.0509 78.8463 22.4565V22.4503Z" fill="url(#paint23_linear_1_3)"/>
<path d="M78.9392 49.8415C78.6791 50.0891 78.3015 50.2873 77.9671 50.3863C77.3665 50.8693 76.7474 51.3398 76.0478 51.6618C75.3543 51.9776 74.5618 52.1447 73.8064 51.9899C73.0511 51.8351 72.3267 51.2036 72.0604 50.4792C71.497 50.343 71.1936 50.2254 70.9088 50.0025C73.5588 50.473 76.3078 50.4111 78.9392 49.8353V49.8415Z" fill="#94122E"/>
<path d="M52.0248 39.5017C52.0372 39.6008 52.0372 39.6998 52.0434 39.7989C52.0743 40.6348 51.9876 41.5882 51.3313 42.096C50.9227 42.4117 50.3717 42.4736 49.8578 42.4798C47.3131 42.517 44.8365 41.4335 42.8118 39.8794C41.5674 38.9321 40.4777 37.8238 39.4561 36.6289C39.1403 36.0407 38.8183 35.4463 38.5088 34.8457C34.4162 27.0073 31.3019 18.7664 29.0729 10.2531C28.5343 8.19755 28.1009 6.02434 28.59 3.91923C29.1534 1.51693 31.7353 4.60649 32.5525 5.36804C34.0509 6.76112 35.4749 8.25327 36.8123 9.81972C39.0412 12.4511 41.3259 15.0391 43.5858 17.652C44.5888 18.8098 45.6104 19.9676 46.5763 21.1563L46.6506 21.082C48.6071 25.4223 50.1426 29.9544 51.2323 34.5857C51.6162 36.2017 51.9319 37.8424 52.0248 39.5017Z" fill="url(#paint24_linear_1_3)"/>
<path d="M85.5145 38.0467C85.6074 39.6008 85.5579 41.161 85.3845 42.7027C84.6044 43.4395 83.75 44.0277 82.8708 44.4611C81.6077 45.0679 80.1589 45.3712 79.0011 44.4487C78.7968 44.2877 78.5986 44.0772 78.512 43.7738C77.9238 41.7245 79.0816 39.5141 80.2889 38.1334C81.4901 36.7527 83.0318 36.0654 84.5734 35.8611C84.8087 35.8302 85.044 35.8054 85.2731 35.8054C85.3845 36.5546 85.465 37.2975 85.5084 38.0467H85.5145Z" fill="url(#paint25_radial_1_3)"/>
<path d="M68.4384 38.1334C70.1658 39.5141 71.8314 41.7245 70.9893 43.7738C70.8655 44.0772 70.5807 44.2877 70.2897 44.4487C68.6242 45.3774 66.5438 45.0679 64.7483 44.4611C60.8291 43.1175 57.2999 40.2323 55.8573 36.3503C58.0553 36.0345 60.0985 35.6506 62.2965 35.8549C64.5006 36.0593 66.711 36.7465 68.4322 38.1272L68.4384 38.1334Z" fill="url(#paint26_radial_1_3)"/>
<path d="M59.6403 57.6242C57.5166 57.0422 55.4734 56.2435 53.6098 55.0795C49.6658 52.6277 46.8301 48.7642 44.3164 44.8635C42.7871 42.4798 41.3321 40.0527 39.9699 37.5761C39.7966 37.2666 39.6232 36.957 39.4561 36.635C40.4715 37.8238 41.5674 38.9383 42.8118 39.8856C44.8365 41.4396 47.3069 42.5231 49.8578 42.486C50.3717 42.4798 50.9227 42.4179 51.3313 42.1021C51.9938 41.6006 52.0805 40.6409 52.0434 39.8051C52.0372 39.706 52.0372 39.607 52.0248 39.5079C58.9716 44.9316 64.8969 51.668 69.3857 59.2526C68.1784 59.1287 66.971 58.9863 65.7699 58.8253C63.7143 58.5405 61.6402 58.1814 59.6465 57.6366L59.6403 57.6242Z" fill="url(#paint27_linear_1_3)"/>
<path d="M69.4848 16.6799C71.1317 17.1876 72.7229 17.8748 74.2151 18.7478C75.9363 19.7571 77.4904 21.0077 78.8525 22.4442C79.2859 24.7041 78.3758 27.1311 76.7226 28.7533C76.1963 29.2734 75.5958 29.713 74.9581 30.0845C74.7352 29.4715 74.4194 28.8957 73.986 28.3942C73.695 28.0598 73.2306 27.7317 72.8282 27.9298C72.5062 28.0908 72.3762 28.4933 72.3452 28.9143C72.2771 29.6139 72.3576 30.3569 72.531 31.0689C71.7323 31.2918 70.8964 31.428 70.073 31.4714C67.6335 31.6076 65.1941 31.0875 62.8661 30.3259C56.978 28.3942 51.5976 24.9208 47.4307 20.3514C51.5728 16.6985 57.5104 15.2063 63.1013 15.5283C65.2622 15.6521 67.4292 16.0298 69.4972 16.6737L69.4848 16.6799Z" fill="url(#paint28_linear_1_3)"/>
<path d="M78.8463 22.4503C79.2797 24.7102 78.3696 27.1373 76.7164 28.7595C76.1902 29.2795 75.5896 29.7191 74.9519 30.0906C75.1066 30.4931 75.2119 30.9203 75.2862 31.3475C75.3915 31.9357 75.9487 35.1305 74.7785 35.0067C74.3265 34.9633 74.0541 34.468 73.825 34.1337C73.5154 33.6631 73.2492 33.1616 73.0325 32.6477C72.8282 32.1524 72.6486 31.6199 72.5248 31.0813C71.7261 31.3042 70.8902 31.4404 70.0668 31.4837C67.6273 31.6199 65.1879 31.0998 62.8599 30.3383C56.9718 28.4065 51.5914 24.9331 47.4245 20.3638C47.1583 20.5867 46.9044 20.8344 46.6506 21.082C48.6071 25.4222 50.1426 29.9544 51.2323 34.5856C51.6161 36.2016 51.9319 37.8424 52.0248 39.5017C58.9716 44.9254 64.8969 51.6618 69.3857 59.2463C69.6024 59.2649 69.8315 59.2835 70.0482 59.3083C71.9738 59.4878 73.8993 59.6055 75.8311 59.6736C76.8526 59.7045 77.9114 59.6798 77.9114 59.6798C77.9114 59.6798 78.512 58.9677 78.9392 58.4167C79.8369 57.2217 80.6666 55.9711 81.4034 54.6646C83.5023 50.9931 84.914 46.9067 85.3845 42.7089C84.6044 43.4457 83.75 44.0339 82.8708 44.4673C81.6077 45.074 80.1589 45.3774 79.0011 44.4549C78.7968 44.2939 78.5986 44.0834 78.512 43.78C77.9238 41.7306 79.0816 39.5203 80.2889 38.1396C81.4901 36.7589 83.0318 36.0716 84.5734 35.8673C84.8087 35.8363 85.044 35.8116 85.2731 35.8116C84.6539 31.6571 82.976 27.645 80.4313 24.3325C79.9422 23.6762 79.4035 23.0571 78.8463 22.4627V22.4503ZM76.0478 51.6618C75.3543 51.9775 74.5618 52.1447 73.8064 51.9899C73.0511 51.8351 72.3267 51.2036 72.0604 50.4792C71.497 50.343 71.1936 50.2254 70.9088 50.0025C73.5588 50.473 76.3078 50.4111 78.9392 49.8353C78.6791 50.0829 78.3015 50.2811 77.9671 50.3801C77.3665 50.8631 76.7474 51.3336 76.0478 51.6556V51.6618ZM70.2897 44.4487C68.6242 45.3774 66.5438 45.0678 64.7483 44.4611C60.8291 43.1175 57.2999 40.2323 55.8573 36.3502C58.0553 36.0345 60.0985 35.6506 62.2965 35.8549C64.5006 36.0592 66.711 36.7465 68.4322 38.1272C70.1535 39.5079 71.8252 41.7182 70.9831 43.7676C70.8593 44.071 70.5745 44.2815 70.2835 44.4425L70.2897 44.4487Z" fill="url(#paint29_radial_1_3)"/>
<path d="M63.8939 66.9857C62.7608 63.7476 61.343 60.6023 59.6403 57.618C61.6402 58.169 63.7081 58.522 65.7637 58.8068C66.9648 58.9739 68.1722 59.1101 69.3795 59.234C69.5962 59.2525 69.8253 59.2711 70.042 59.2959C71.1689 61.9768 72.2152 64.6887 73.1006 67.4501C73.5154 68.7441 73.8993 70.0505 74.2337 71.3631C70.3887 71.8708 65.2498 70.9111 63.9929 67.252C63.962 67.1591 63.9248 67.0724 63.8939 66.9795V66.9857Z" fill="url(#paint30_linear_1_3)"/>
<path d="M63.9929 67.2581C64.544 68.8617 65.838 69.9514 67.4478 70.6201L65.7451 62.3607L70.8159 61.1719C70.5621 60.5466 70.3082 59.9274 70.0482 59.3083C69.8315 59.2897 69.6024 59.2711 69.3857 59.2464C68.1784 59.1225 66.971 58.9801 65.7699 58.8192C63.7143 58.5343 61.6402 58.1752 59.6465 57.6304C61.3492 60.6147 62.767 63.7538 63.9001 66.9981C63.931 67.091 63.9682 67.1777 63.9991 67.2705L63.9929 67.2581Z" fill="#622066"/>
<path d="M66.1909 38.0591C66.4881 39.285 65.9742 40.6657 64.9464 41.3901C64.4263 41.7554 63.7762 41.9659 63.1509 41.8545C62.1664 41.6811 61.4544 40.7524 61.2191 39.7803C60.9839 38.8083 61.1386 37.7867 61.2872 36.796C62.9032 36.8827 64.7483 37.3223 66.1971 38.0529L66.1909 38.0591Z" fill="#00EBAA"/>
<path d="M83.0875 37.1118C83.6942 38.5544 83.4713 40.2013 83.0813 41.7121C82.9822 42.1021 82.8274 42.5355 82.4621 42.6903C82.0102 42.8822 81.5086 42.5355 81.1867 42.1578C80.5552 41.4025 80.2084 40.4242 80.2146 39.4398C81.0567 38.4801 81.9482 37.6876 83.0875 37.1056V37.1118Z" fill="#00EBAA"/>
<path style="mix-blend-mode:screen" d="M54.9781 17.7696C61.3368 14.9029 69.1938 15.9988 74.8714 20.0295C80.549 24.0601 84.0224 30.7469 84.6539 37.6071C85.2855 44.4735 83.2113 51.4451 79.4531 57.2527C79.7007 52.1695 79.4778 47.0491 78.3324 42.0898C77.187 37.1304 75.0076 32.3382 71.5589 28.5985C69.6643 26.5429 67.3797 24.8279 64.8474 23.6391C63.6276 23.0633 62.3088 22.5432 60.9839 22.2646C59.4855 21.9488 57.9377 21.955 56.4331 21.6826C55.9564 21.5959 55.4796 21.4845 55.0648 21.2368C53.9999 20.6115 53.6346 18.3702 54.9781 17.7634V17.7696Z" fill="url(#paint31_linear_1_3)"/>
<path d="M74.7475 35.3286C74.1841 35.2729 73.856 34.7714 73.6207 34.4061L73.5588 34.3132C73.2492 33.8427 72.9706 33.3226 72.7353 32.7715C72.5062 32.2205 72.3267 31.6757 72.209 31.1494C72.0171 30.3445 71.949 29.5829 72.0171 28.8895C72.0666 28.2518 72.2895 27.8307 72.6858 27.6388C72.8158 27.5769 72.952 27.5459 73.0944 27.5459C73.6331 27.5459 74.0727 27.9917 74.2398 28.1837C74.6794 28.6852 75.0138 29.2734 75.2738 29.9792C75.4162 30.3631 75.5339 30.7903 75.6267 31.2918C75.8682 32.6415 76.0416 34.3875 75.4905 35.0438C75.3295 35.2419 75.1067 35.341 74.859 35.341H74.7599L74.7475 35.3286Z" fill="#94122E"/>
<path style="mix-blend-mode:screen" d="M70.0792 5.90669C72.8158 10.4574 75.0014 15.3363 76.605 20.401C77.3975 21.0325 78.1467 21.7136 78.8463 22.4503C79.4097 23.0447 79.9422 23.6701 80.4313 24.3202C78.3262 16.9647 74.729 10.1293 70.4321 3.80777C69.6024 2.60043 68.7604 1.03398 67.3363 0.433409C66.711 0.167175 66.3147 0.328154 66.0795 0.668685C67.6831 2.16083 68.9399 4.01828 70.073 5.90049L70.0792 5.90669Z" fill="url(#paint32_linear_1_3)"/>
<path d="M74.7723 30.1402C74.9209 30.5302 75.02 30.9327 75.0943 31.3475C75.1933 31.9109 75.732 34.9881 74.6051 34.8643C74.1717 34.8209 73.9055 34.3504 73.6888 34.0222C73.3916 33.5703 73.1378 33.0873 72.9272 32.592C72.7291 32.1153 72.5558 31.6076 72.4381 31.0875C72.2709 30.4002 72.1967 29.6882 72.2586 29.0133C72.2895 28.6047 72.4134 28.2208 72.7229 28.066C73.113 27.8741 73.5588 28.1899 73.8374 28.5118C74.2584 28.9947 74.5556 29.5458 74.7723 30.1402Z" fill="#00EBAA"/>
<path style="mix-blend-mode:screen" d="M87.824 70.5335C87.5515 68.6327 86.9757 66.7752 86.1089 65.054C83.9914 65.5245 82.0287 66.6328 80.5428 68.1931C80.6233 68.1993 80.7038 68.2116 80.7781 68.2178C82.004 69.2642 83.1803 70.3725 84.3072 71.5303C85.4774 71.0969 86.6166 70.7811 87.8302 70.5335H87.824Z" fill="url(#paint33_linear_1_3)"/>
<path style="mix-blend-mode:screen" d="M60.891 71.9761C60.8662 71.8956 60.8291 71.8151 60.7981 71.7408C60.0366 69.8895 58.532 68.416 56.8789 67.2767C56.6994 67.1591 56.5198 67.0414 56.3402 66.93C53.8946 65.3945 50.9722 64.6144 48.0932 64.8373C47.8889 65.0416 47.7031 65.2521 47.536 65.4874C48.7123 65.5617 49.8206 66.3232 50.7184 67.1467C53.2012 69.419 55.0029 72.3599 56.3341 75.4557C58.1605 75.2947 59.9065 75.2885 61.733 75.5733C61.5844 74.3412 61.3306 73.1277 60.8848 71.9761H60.891Z" fill="url(#paint34_linear_1_3)"/>
<path style="mix-blend-mode:screen" d="M89.4585 108.537C88.988 109.156 88.3007 109.589 87.5639 109.849C86.8271 110.109 86.047 110.209 85.2731 110.258C81.4591 110.5 77.5585 109.472 74.2708 107.534C74.0912 104.358 74.4194 101.15 75.2429 98.0732C77.3418 96.4696 79.8679 95.3489 82.4436 94.7979C83.5085 94.5688 84.6044 94.4388 85.6817 94.6121C86.7528 94.7855 87.8054 95.2808 88.4803 96.1291C89.4833 98.7852 89.7371 104.376 89.4585 108.543V108.537Z" fill="url(#paint35_linear_1_3)"/>
<path style="mix-blend-mode:screen" d="M99.9407 148.899C89.7619 153.332 77.8433 153.722 67.2373 150.428C71.1565 140.745 73.986 130.622 75.6391 120.307C78.1838 120.926 80.9762 121.458 83.5704 121.087C86.1646 120.715 88.7651 119.124 89.5204 116.617C96.3373 125.873 100.287 137.414 99.9345 148.905L99.9407 148.899Z" fill="url(#paint36_linear_1_3)"/>
<path style="mix-blend-mode:screen" d="M85.0192 232.763C82.9017 233.159 80.7781 233.196 78.6296 233.233C72.2152 210.956 71.949 186.946 77.8804 164.533C79.3912 164.638 80.5614 163.944 81.682 162.923C79.3602 180.884 79.1806 199.31 81.0567 217.321C81.6139 222.646 83.3351 227.451 85.7003 232.484C85.4836 232.453 85.2359 232.72 85.0254 232.763H85.0192Z" fill="url(#paint37_linear_1_3)"/>
<path d="M81.7811 172.359C82.1402 172.08 82.5179 171.814 82.9017 171.572C83.6819 171.077 84.6849 170.637 85.496 171.096C86.2328 171.51 86.4309 172.464 86.4804 173.306C86.7157 177.12 85.4588 181.008 83.0441 183.962C82.524 184.587 81.7811 185.299 80.939 185.825C79.6141 186.661 78.0538 187.063 76.7783 186.06C75.7753 185.268 75.4472 184.061 75.4967 182.779C75.5524 181.213 76.1592 179.547 76.735 178.402C77.9238 176.036 79.6698 173.95 81.7873 172.359H81.7811Z" fill="url(#paint38_linear_1_3)"/>
<path style="mix-blend-mode:screen" d="M80.8462 173.659C79.9855 174.594 79.3788 175.801 79.3107 177.07C79.2426 178.34 79.7688 179.665 80.7966 180.42C81.8244 181.175 83.3413 181.25 84.3567 180.476C85.174 179.85 85.5579 178.804 85.7808 177.795C86.0284 176.649 86.1213 175.473 86.0532 174.309C86.016 173.665 85.9232 173.003 85.6012 172.439C84.4001 170.346 81.9235 172.489 80.8462 173.659Z" fill="url(#paint39_linear_1_3)"/>
<path style="mix-blend-mode:screen" d="M49.672 152.837C47.1211 162.465 44.564 172.099 42.0131 181.726C39.8585 189.85 37.71 197.973 35.1468 205.972C32.1315 215.39 28.429 224.844 21.9279 232.298C25.5252 233.147 29.3701 233.19 33.0355 232.732C42.3784 215.154 45.728 194.784 49.1767 175.176L51.8019 160.236C52.2724 157.555 51.7462 154.601 49.672 152.837Z" fill="url(#paint40_linear_1_3)"/>
<path style="mix-blend-mode:screen" d="M40.2424 176.08C40.2424 176.08 40.2548 176.135 40.2671 176.16C40.5086 176.971 41.1463 177.442 41.9822 177.312C43.2205 177.126 44.3535 176.457 45.2451 175.578C47.1087 173.739 48.6257 170.73 48.2913 168.062C48.1303 166.762 47.3131 165.449 46.05 165.121C44.2235 164.65 43.1214 166.508 42.3784 167.876C41.2887 169.888 40.5581 172.099 40.2362 174.365C40.1557 174.928 40.1 175.516 40.2424 176.067V176.08Z" fill="url(#paint41_linear_1_3)"/>
<path d="M45.2389 164.13L45.3565 164.093C48.087 163.319 49.511 166.279 49.9692 168.458C50.4398 170.743 50.7865 173.077 50.8298 175.417C50.8422 175.671 50.8422 175.925 50.8422 176.185C50.8174 179.999 50.1116 184.754 46.4091 186.717C45.598 187.144 44.6693 187.404 43.7591 187.317C41.2454 187.07 40.5767 184.754 40.069 182.674C40.0319 182.519 39.9947 182.37 39.9576 182.216C39.1031 178.662 39.2455 174.872 40.3291 171.387C40.9358 169.449 41.7469 167.405 43.0223 165.796C43.0533 165.759 43.0843 165.715 43.1152 165.678C43.6787 164.991 44.403 164.396 45.2451 164.13H45.2389Z" fill="url(#paint42_linear_1_3)"/>
<path d="M42.5704 114.382C38.9174 125.167 34.5152 135.699 29.3887 145.865C28.9181 145.797 28.4476 145.704 27.9956 145.587C26.4168 145.197 24.8999 144.528 23.5439 143.624C21.3831 142.175 19.7362 140.163 18.696 137.835C18.2874 136.931 17.9654 135.977 17.7487 134.987C17.6187 134.405 20.9311 131.167 21.4017 130.566C22.64 129 23.8349 127.408 24.9989 125.792C27.3269 122.567 29.5125 119.223 31.5371 115.799C33.1283 113.106 34.6391 110.363 36.0569 107.571C36.3046 109.818 37.7967 111.812 39.6789 113.075C40.4653 113.595 41.5054 114.109 42.5704 114.388V114.382Z" fill="url(#paint43_linear_1_3)"/>
<path d="M4.2141 146.255C5.30381 146.262 6.40589 146.162 7.48321 145.958C7.11791 146.602 6.99408 147.376 7.13649 148.088C6.08393 148.169 5.06234 148.088 3.99121 147.89C3.9293 147.339 4.00979 146.769 4.2141 146.255Z" fill="url(#paint44_linear_1_3)"/>
<path d="M6.51734 154.032C4.78373 154.515 2.97581 154.75 1.1679 154.818C0.746872 154.013 0.957382 152.769 1.58273 152.106C1.21743 151.487 1.32887 150.527 1.73751 149.939C3.22966 149.71 4.66609 149.302 6.07156 148.781C5.70007 149.593 5.85485 150.62 6.45542 151.283C5.96011 152.088 6.02821 153.208 6.52353 154.032H6.51734Z" fill="url(#paint45_linear_1_3)"/>
<path d="M7.70611 155.493C7.90424 156.515 8.49862 157.456 9.34685 158.069C7.87328 159.202 6.15823 160.062 4.31935 160.304C3.74974 160.378 3.13679 160.384 2.63528 160.093C2.13996 159.802 1.93563 159.059 2.22663 158.558C4.13362 157.753 5.99725 156.719 7.7123 155.493H7.70611Z" fill="url(#paint46_linear_1_3)"/>
<path d="M21.5998 156.533C20.5473 158.05 19.699 159.709 19.2842 161.406C19.1418 162.007 19.0118 162.657 18.566 163.078C18.0459 163.579 17.1729 163.598 16.5414 163.239C15.916 162.873 15.5136 162.192 15.365 161.48C15.204 160.774 15.2659 160.031 15.3774 159.319C15.5941 157.92 16.5042 156.762 17.1915 155.505C17.9902 155.338 18.8136 155.239 19.6123 155.388C20.3863 155.518 21.1478 155.926 21.606 156.539L21.5998 156.533Z" fill="url(#paint47_linear_1_3)"/>
<path d="M6.06535 148.781C6.44922 148.651 6.82691 148.497 7.20459 148.342C7.48321 148.224 7.76182 148.107 8.04044 147.977C7.73705 148.02 7.43986 148.063 7.14267 148.082C7.00027 147.37 7.1241 146.596 7.48939 145.952C9.37161 145.599 11.2043 144.93 12.8327 143.946C15.2721 142.466 17.3153 140.336 18.7022 137.829C19.7424 140.157 21.3893 142.169 23.5501 143.618C24.9061 144.522 26.423 145.19 28.0018 145.58C27.7541 148.391 26.5406 151.029 24.5284 153.047C23.5068 154.069 22.4852 155.252 21.606 156.527C21.1478 155.914 20.3863 155.505 19.6123 155.375C18.8136 155.227 17.9902 155.332 17.1915 155.493C17.371 155.177 17.5258 154.849 17.662 154.515C18.0521 153.524 18.5041 152.273 19.0861 151.382C18.2316 151.079 17.2781 151.196 16.4423 151.518C15.5941 151.84 14.8015 152.082 14.2381 152.794C12.9255 154.465 11.6005 156.149 9.99076 157.536C9.78644 157.716 9.57592 157.889 9.35303 158.056C8.5048 157.45 7.91042 156.502 7.71229 155.481C8.96916 154.589 10.1393 153.586 11.1919 152.496C11.0619 152.366 11.161 152.218 11.0247 152.088C9.61308 152.961 8.10235 153.586 6.52352 154.019C6.0282 153.19 5.9601 152.075 6.45542 151.27C5.85484 150.608 5.70006 149.586 6.07155 148.769L6.06535 148.781Z" fill="url(#paint48_radial_1_3)"/>
<path d="M42.5704 114.382C43.691 114.66 44.8303 114.679 45.7528 114.159C44.7188 118.004 43.592 121.818 42.3041 125.588C39.9699 132.386 37.1528 139.036 33.7104 145.358C33.7661 145.519 33.8156 145.667 33.8775 145.828C32.3978 146.088 30.8746 146.094 29.3887 145.865C34.5152 135.699 38.9174 125.173 42.5704 114.382Z" fill="#94122E"/>
<path d="M52.3344 74.9975C50.1859 88.3711 46.9106 101.559 42.5704 114.382C41.5054 114.103 40.4653 113.595 39.679 113.069C37.7967 111.806 36.2984 109.812 36.0569 107.565C38.3106 103.113 40.3229 98.5376 42.0627 93.863C43.4743 90.0552 44.7064 86.1855 45.7404 82.2539C46.2543 80.2974 46.7496 78.3223 47.1335 76.3349C47.344 75.2452 47.3812 72.7314 48.8671 72.5581C49.5791 72.4776 50.2602 72.8615 50.8174 73.3134C51.4861 73.8397 51.9753 74.4031 52.3344 74.9913V74.9975Z" fill="url(#paint49_linear_1_3)"/>
<path style="mix-blend-mode:screen" d="M49.3686 76.3101C48.8795 76.2049 48.5514 76.1677 48.0622 76.0625C43.8892 97.7946 33.3451 118.307 18.5474 134.764C19.0922 137.024 20.312 139.11 22.0146 140.689C22.0827 140.553 22.1508 140.423 22.2251 140.287C32.9612 119.607 45.2451 99.2434 49.3624 76.3039L49.3686 76.3101Z" fill="url(#paint50_linear_1_3)"/>
<path d="M53.1083 79.0282C52.6254 85.3002 50.9598 91.6712 49.6411 97.8193C48.4647 103.293 47.214 108.754 45.7528 114.159C44.8365 114.679 43.691 114.66 42.5704 114.382C46.9106 101.559 50.1859 88.3711 52.3344 74.9975C53.0773 76.2358 53.2197 77.5979 53.1083 79.0344V79.0282Z" fill="#D97973"/>
<g style="mix-blend-mode:screen">
<path d="M33.7165 145.358C36.2489 140.547 38.5397 135.6 40.6015 130.56C41.6478 128.046 42.5518 125.471 43.4124 122.889C44.273 120.307 45.0779 117.7 45.8085 115.081C47.2697 109.831 48.5018 104.531 49.6596 99.2124C50.7741 93.8939 52.13 88.6188 52.9349 83.2136L52.421 83.3994C53.3126 84.1981 54.2723 84.9225 55.2939 85.5602L55.1577 85.3621C56.656 92.4637 61.7702 98.6738 68.4632 101.485L68.7047 100.915C62.2036 98.1908 57.2132 92.1294 55.7644 85.2382L55.7397 85.1082L55.6282 85.0401C54.6438 84.4271 53.7089 83.7213 52.8421 82.9474L52.4148 82.5635L52.3282 83.1331C51.5295 88.4888 50.1797 93.7639 49.0591 99.0886C47.9012 104.395 46.6753 109.695 45.2203 114.92C44.4897 117.533 43.6848 120.127 42.8304 122.703C41.9698 125.279 41.0349 127.823 40.1062 130.374C38.2116 135.464 36.0569 140.454 33.7227 145.364L33.7165 145.358Z" fill="#FFEFBC"/>
</g>
<g style="mix-blend-mode:screen">
<g style="mix-blend-mode:screen">
<g style="mix-blend-mode:screen">
<path d="M86.8766 233.667C85.081 230.026 83.8118 226.144 82.945 222.188C82.0967 218.225 81.62 214.188 81.3537 210.145C81.2175 208.121 81.1432 206.096 81.1123 204.071C81.0627 202.047 81.0132 200.022 81.0442 197.991L81.1123 185.831L81.0256 185.986C81.781 185.509 82.4558 184.915 83.044 184.246C83.6198 183.565 84.1275 182.847 84.5795 182.079C85.4773 180.556 86.1088 178.878 86.4432 177.138C86.6103 176.272 86.7094 175.386 86.728 174.501C86.728 173.622 86.7713 172.718 86.406 171.82C86.2264 171.38 85.8673 170.953 85.3844 170.774C84.9015 170.582 84.3752 170.644 83.9294 170.78C83.0193 171.065 82.3382 171.653 81.6076 172.148L82.041 172.39C82.3877 169.201 82.8521 166.031 83.4712 162.886C83.7746 161.313 84.109 159.747 84.5424 158.205L85.7559 153.561L85.4897 153.778C86.7961 153.605 88.1334 153.468 89.4213 153.215C90.7215 152.973 92.0155 152.676 93.2909 152.317C95.8418 151.605 98.3308 150.651 100.702 149.462L100.869 149.376V149.19C100.95 142.788 99.9592 136.374 97.9407 130.294C96.9377 127.254 95.6747 124.3 94.1639 121.477C92.6532 118.66 90.8825 115.954 88.8764 113.478L88.9259 113.744C90.5048 107.856 90.5605 101.596 89.2046 95.6646L89.1241 95.9495C89.7866 95.2498 90.3686 94.513 90.901 93.7267C91.4335 92.9404 91.904 92.1169 92.3127 91.2687L91.7678 91.2935C95.7552 98.166 100.126 104.809 103.655 111.899L103.767 112.122L104.002 112.066C107.377 111.267 110.689 110.153 113.791 108.574C116.893 107.007 119.778 104.97 122.224 102.488C124.682 99.9987 126.589 97.0268 128.056 93.8815C129.53 90.73 130.57 87.4114 131.356 84.0185L131.381 83.9194L131.331 83.8203C130.582 82.3715 129.542 81.0713 128.285 80.0311L128.378 80.3717C128.917 78.7743 129.27 77.1273 129.468 75.4618C129.66 73.7963 129.691 72.106 129.536 70.4343L129.511 70.5953C130.26 68.9855 130.898 67.3324 131.424 65.6359L131.35 65.3264L131.424 65.6359C132.031 63.6608 132.471 61.6362 132.737 59.5868L132.749 59.4816L132.7 59.4011C132.539 59.1349 132.384 58.8501 132.019 58.6334C131.839 58.5219 131.542 58.5033 131.338 58.6024C131.127 58.6953 131.003 58.8315 130.892 58.9615L130.849 59.011L130.83 59.0791C130.409 60.658 129.87 62.1997 129.214 63.698C128.558 65.1963 127.796 66.6451 126.911 68.0073L127.35 67.9268L126.539 67.3819L126.651 67.7225C127.115 66.2117 127.406 64.6515 127.561 63.0788L127.579 62.8931L127.418 62.7878L127.313 62.7197L127.257 62.6826L127.233 62.664H127.22V62.6516H127.208C127.208 62.6516 127.233 62.664 127.264 62.7012C127.282 62.7259 127.381 62.8126 127.332 63.0046C127.257 63.1841 127.14 63.1965 127.109 63.2089C127.066 63.2151 127.047 63.2151 127.035 63.2151C126.979 63.2151 126.917 63.1965 126.874 63.1655H126.886L126.898 63.1779L126.923 63.1965L126.979 63.2336L127.084 63.3017L127.511 63.5742L127.561 63.0727C127.802 60.6146 127.685 58.138 127.326 55.711V55.6738L127.307 55.6429C127.121 55.1785 126.731 54.8442 126.298 54.677C126.081 54.5903 125.833 54.5408 125.573 54.5655C125.437 54.5779 125.289 54.6151 125.146 54.7141C125.004 54.807 124.892 54.9804 124.861 55.1475L125.474 55.2095C125.468 55.1228 125.456 55.0361 125.443 54.9866C125.431 54.9247 125.419 54.8565 125.406 54.7946C125.375 54.6708 125.338 54.547 125.295 54.4293C125.208 54.1941 125.097 53.9712 124.973 53.7545L124.942 53.7049L124.898 53.674C124.539 53.3892 124.1 53.1291 123.549 53.1167C123.276 53.1167 122.998 53.2096 122.775 53.3582C122.552 53.513 122.385 53.7111 122.255 53.9154L122.205 53.9897V54.0764C122.174 56.6397 122.032 59.203 121.753 61.7477L122.063 61.4691L121.753 61.7477L121.208 65.7969L121.648 65.5678C121.109 65.2954 120.583 64.9301 119.989 64.6267L120.156 64.8744C120.069 63.8837 119.914 62.8993 119.71 61.9334L119.407 61.6858L119.71 61.9272C119.116 59.1658 118.057 56.5159 116.651 54.0764L116.62 54.0269L116.577 53.9959C116.274 53.7483 115.859 53.5006 115.357 53.5749C115.11 53.6121 114.887 53.7483 114.726 53.9154C114.565 54.0826 114.46 54.2746 114.385 54.4665L114.342 54.5655L114.373 54.6708C116.094 60.1441 117.215 65.8031 117.89 71.5055L117.933 71.3073C117.716 71.6541 117.37 71.9636 117.017 72.267L117.5 72.3661C116.757 70.8182 115.89 69.3013 114.633 68.0506C113.339 66.8742 111.81 65.9269 110.07 65.5493C109.643 65.4564 109.203 65.3945 108.77 65.3573C108.553 65.3573 108.342 65.3078 108.051 65.3573C107.785 65.4068 107.531 65.5369 107.333 65.735C107.135 65.9269 107.005 66.2303 106.993 66.4904C106.968 66.7504 107.011 67.0104 107.079 67.2395C107.228 67.7101 107.488 68.0816 107.76 68.4345C108.887 69.8647 110.509 70.651 112.026 71.3878L111.884 71.2454C112.485 72.4775 113.054 73.7592 113.636 75.0284C114.206 76.2977 114.806 77.5546 115.568 78.7619L115.704 78.3099C114.602 78.7867 113.568 79.4244 112.646 80.1921L112.844 80.1178C112.769 80.1178 112.664 80.1612 112.615 80.2169L112.565 80.2726L112.54 80.3345C110.77 85.5168 107.946 90.3028 104.528 94.5811L105.042 94.6307C103.891 92.5318 102.696 90.47 101.414 88.4516C100.139 86.4331 98.789 84.4581 97.3773 82.5325C94.554 78.6814 91.4644 75.0222 88.1458 71.586L88.2325 71.7779C88.1458 70.5829 87.9477 69.4004 87.6257 68.2487C87.4771 67.6729 87.2604 67.1095 87.0623 66.5461C86.8642 65.9827 86.5856 65.4502 86.3441 64.8991L86.2512 64.6824L86.0036 64.7382C84.9139 64.9796 83.8799 65.4007 82.9078 65.9393C81.9419 66.4842 81.0442 67.1652 80.2826 67.9701L80.5427 67.8773L73.0881 67.1405L73.3605 67.3572C72.4751 64.5772 71.4102 61.8591 70.2957 59.1782L69.98 59.6054L73.924 59.8531C74.5803 59.8902 75.2366 59.9398 75.8929 59.9707H78.0165L78.1094 59.8655C80.2021 57.4074 81.8924 54.6337 83.205 51.6865C84.5052 48.7394 85.3658 45.5879 85.694 42.3745C85.8488 40.7709 85.8983 39.1425 85.7373 37.539C85.6383 36.7402 85.6011 35.9292 85.4463 35.1305C85.3039 34.338 85.1306 33.5454 84.9139 32.7653C84.0594 29.651 82.6168 26.6915 80.6417 24.122L80.6913 24.2273C79.3539 19.5589 77.416 15.0824 75.0818 10.8351C73.9116 8.71138 72.6547 6.64342 71.3173 4.625L70.3081 3.12047C69.9676 2.61276 69.6394 2.10506 69.2308 1.62832C68.8655 1.12681 68.3888 0.681018 67.8192 0.346678C67.5343 0.191891 67.2372 0.0371035 66.8471 -4.54565e-05C66.6551 -0.0124285 66.4446 -4.5456e-05 66.2465 0.0928269C66.0484 0.179508 65.8936 0.328103 65.7821 0.489082L65.8193 0.445742V0.885337L65.7821 0.489082C65.324 1.23206 65.3983 2.03076 65.4788 2.71183C65.5531 3.40527 65.6459 4.09253 65.7574 4.77978C65.9741 6.15429 66.2527 7.51642 66.5932 8.86617C67.2619 11.5657 68.1411 14.2032 69.1503 16.7851L69.528 16.3764C67.5529 15.7635 65.5097 15.392 63.4541 15.2434C61.3986 15.101 59.3182 15.1815 57.2812 15.5344C55.2442 15.8749 53.2444 16.4817 51.3746 17.3671C49.4985 18.2525 47.7773 19.4536 46.3037 20.921L46.7619 20.9458C45.3255 19.2679 43.9014 17.5714 42.4464 15.9183L38.1124 10.9217C36.6822 9.25623 35.2148 7.57215 33.6174 6.03666C33.2211 5.64659 32.8063 5.28129 32.4162 4.89123C32.0138 4.50736 31.6547 4.10491 31.2151 3.74581C30.7941 3.37432 30.3483 3.00283 29.7353 2.81089C29.4443 2.71183 28.9923 2.74278 28.7199 3.01521C28.4599 3.27525 28.367 3.59102 28.2989 3.87583L28.367 4.10491L28.2989 3.87583C27.9955 5.24415 28.0636 6.64961 28.2989 7.99936C28.528 9.3491 28.918 10.6555 29.2709 11.9557C30.0077 14.5623 30.825 17.1442 31.7228 19.6951C33.5307 24.7969 35.6915 29.7748 38.1991 34.5732C39.4498 36.9693 40.7747 39.3345 42.1802 41.6439C43.5919 43.9533 45.0345 46.238 46.6504 48.4112C48.2726 50.572 50.0991 52.6152 52.2847 54.2188C54.4579 55.841 56.9964 56.9121 59.603 57.6118C57.0026 56.8936 54.4765 55.81 52.3219 54.1693C50.1548 52.5533 48.3531 50.5039 46.7495 48.3369C45.1521 46.1575 43.7281 43.8605 42.3412 41.5448C40.9543 39.223 39.6541 36.8579 38.422 34.4556C35.9516 29.651 33.8403 24.6668 32.0757 19.5713C31.1965 17.0204 30.404 14.4385 29.692 11.8381C29.3514 10.5317 28.9737 9.23146 28.7632 7.91887C28.5465 6.60627 28.497 5.26272 28.7942 3.98108L28.7261 3.752L28.7942 3.98108C28.8499 3.73342 28.9428 3.49815 29.079 3.37432C29.209 3.25668 29.3886 3.23191 29.6115 3.29383C30.0573 3.43623 30.4969 3.77676 30.8869 4.13587C31.2956 4.4764 31.6732 4.90361 32.0695 5.28129C32.4596 5.67755 32.8682 6.03666 33.2521 6.42672C34.8309 7.96221 36.2487 9.61534 37.679 11.3056C39.1092 12.9897 40.5456 14.6614 42.0006 16.3207C43.4556 17.98 44.8673 19.6641 46.3037 21.3358L46.5266 21.5959L46.7619 21.3606C48.1798 19.9489 49.8453 18.7849 51.6594 17.9243C53.4735 17.0637 55.4176 16.4755 57.4051 16.1412C59.3925 15.8006 61.4172 15.7201 63.4294 15.8564C65.4416 16.005 67.4353 16.3641 69.3608 16.9646L69.9738 17.1566L69.7385 16.556C68.7355 13.9927 67.8687 11.3799 67.2062 8.71138C66.8719 7.38021 66.5994 6.03047 66.3827 4.67453C66.2713 3.99966 66.1784 3.31859 66.1103 2.63753C66.067 2.28461 66.0298 1.98123 66.0608 1.66547C66.0855 1.35589 66.1598 1.04632 66.3022 0.835806L66.2651 0.43955V0.879146L66.296 0.841997C66.4261 0.662444 66.5747 0.588146 66.7976 0.60672C67.0143 0.625295 67.2743 0.742933 67.5158 0.872954C67.9925 1.15157 68.4135 1.54164 68.7603 2.01838C69.1379 2.45178 69.4661 2.95949 69.8004 3.45481L70.8096 4.95934C72.1408 6.96538 73.3915 9.02095 74.5493 11.1261C76.8587 15.3363 78.7781 19.7756 80.1031 24.3882L80.1216 24.444L80.1588 24.4935C82.0781 26.9948 83.4836 29.8801 84.3195 32.9201C84.53 33.6817 84.6971 34.4494 84.8396 35.2295C84.9943 36.0035 85.0253 36.796 85.1244 37.5761C85.2792 39.1425 85.2358 40.7338 85.081 42.3002C84.7591 45.4455 83.917 48.5288 82.6416 51.4265C81.3599 54.3117 79.6882 57.0483 77.6389 59.4568L77.8679 59.3454H75.9176C75.2675 59.3144 74.6112 59.2587 73.9611 59.2215L70.0419 58.9739L69.5342 58.9429L69.7261 59.4011C70.8406 62.0758 71.8993 64.7753 72.7723 67.5305L72.8343 67.7225L73.0448 67.741L80.4684 68.4716L80.7284 68.3788C81.459 67.6172 82.2949 66.9733 83.2174 66.4594C84.1337 65.9517 85.1244 65.5493 86.146 65.3264L85.8054 65.1654C86.0283 65.6917 86.3069 66.2056 86.4927 66.7504C86.6846 67.2952 86.8951 67.8339 87.0375 68.3911C87.3471 69.5056 87.539 70.651 87.6195 71.8027V71.9141L87.7062 71.9946C91.0063 75.4061 94.0773 79.0467 96.882 82.873C98.2875 84.7862 99.6248 86.7489 100.894 88.755C102.163 90.7548 103.358 92.8166 104.498 94.8969L104.72 95.3055L105.011 94.9402C108.466 90.6186 111.327 85.7707 113.122 80.5079L113.048 80.6255C113.005 80.6751 112.912 80.7122 112.844 80.7122L113.042 80.6379C113.915 79.9073 114.899 79.3005 115.952 78.8486L116.28 78.7062L116.088 78.3966C115.364 77.2512 114.763 75.9881 114.193 74.725C113.611 73.462 113.054 72.2051 112.435 70.9358L112.392 70.843L112.293 70.7934C110.782 70.0567 109.246 69.2889 108.25 68.0135C108.008 67.6977 107.779 67.3572 107.674 67.0104C107.562 66.6637 107.575 66.3108 107.779 66.1251C107.878 66.0198 108.02 65.9517 108.175 65.9207C108.305 65.8898 108.522 65.9207 108.726 65.9207C109.135 65.9517 109.544 66.0074 109.94 66.0941C111.537 66.4346 112.998 67.3448 114.206 68.4345C115.37 69.5861 116.224 71.0659 116.942 72.5704L117.122 72.9419L117.425 72.6757C117.784 72.3599 118.168 72.0379 118.466 71.5736L118.521 71.4807L118.509 71.3692C117.822 65.6359 116.701 59.9398 114.967 54.4231V54.6275C115.073 54.3489 115.252 54.1445 115.456 54.1198C115.667 54.0826 115.946 54.2064 116.175 54.3984L116.107 54.3179C117.481 56.7078 118.515 59.302 119.097 61.9953L119.4 62.2368L119.097 61.9891C119.301 62.9364 119.45 63.8899 119.537 64.8558L119.549 65.023L119.704 65.1035C120.242 65.3821 120.769 65.7474 121.369 66.0508L121.753 66.2489L121.809 65.8279L122.36 61.7415L122.05 62.0201L122.36 61.7415C122.639 59.172 122.781 56.5902 122.812 54.0145L122.762 54.1755C122.961 53.8659 123.227 53.6616 123.536 53.6678C123.852 53.6678 124.199 53.8473 124.496 54.0888L124.422 54.0083C124.527 54.1879 124.62 54.3798 124.694 54.5779C124.731 54.677 124.762 54.7761 124.787 54.8751L124.818 55.0237C124.83 55.0918 124.83 55.1166 124.837 55.1414L125.202 56.3611L125.45 55.2095C125.456 55.1723 125.48 55.1414 125.617 55.1228C125.753 55.1104 125.908 55.1414 126.056 55.1971C126.353 55.3147 126.607 55.5438 126.719 55.8162L126.7 55.7481C127.053 58.138 127.165 60.5651 126.929 62.9612L127.406 62.7321L127.301 62.664L127.245 62.6269L127.22 62.6083H127.208V62.5959H127.196C127.146 62.565 127.084 62.5402 127.028 62.5402C127.016 62.5402 126.997 62.5402 126.954 62.5464C126.923 62.5588 126.805 62.5711 126.731 62.7507C126.682 62.9426 126.781 63.0293 126.799 63.0541C126.83 63.085 126.849 63.0974 126.861 63.1036H126.874L126.886 63.1222L126.911 63.1408L126.966 63.1779L127.072 63.246L126.929 62.955C126.781 64.4905 126.49 66.0074 126.044 67.481L125.976 67.7039L126.155 67.8277L126.966 68.3726L127.239 68.5521L127.412 68.2921C128.322 66.8928 129.096 65.413 129.765 63.8961C130.434 62.373 130.985 60.7942 131.412 59.1906L131.35 59.3082C131.424 59.2215 131.505 59.1473 131.567 59.1225C131.622 59.1039 131.641 59.0977 131.709 59.1349C131.845 59.2092 132.013 59.4321 132.136 59.655L132.099 59.463C131.833 61.4753 131.4 63.4689 130.805 65.413L130.879 65.7226L130.805 65.413C130.291 67.0786 129.66 68.7131 128.923 70.2919L128.886 70.3662V70.4467C129.041 72.0751 129.016 73.722 128.824 75.3504C128.632 76.9725 128.285 78.5885 127.765 80.1364L127.697 80.3407L127.858 80.4769C129.053 81.4614 130.044 82.6935 130.749 84.068L130.718 83.8637C129.951 87.1885 128.911 90.4886 127.462 93.5843C126.013 96.6801 124.143 99.5901 121.747 102.017C119.351 104.45 116.528 106.444 113.475 107.986C110.423 109.534 107.154 110.636 103.829 111.428L104.176 111.589C100.622 104.457 96.2443 97.8007 92.2693 90.9467L91.9783 90.439L91.7245 90.9653C91.3282 91.7888 90.8763 92.5875 90.3624 93.3428C89.8547 94.0982 89.2727 94.8226 88.6597 95.4727L88.5421 95.5965L88.5792 95.7575C89.9104 101.59 89.8608 107.757 88.3068 113.539L88.2634 113.694L88.3563 113.806C90.3562 116.282 92.0898 118.932 93.5943 121.725C95.0927 124.517 96.3372 127.439 97.334 130.448C99.3276 136.46 100.312 142.807 100.232 149.141L100.405 148.868C98.0708 150.038 95.6189 150.973 93.1052 151.679C91.8483 152.032 90.5729 152.323 89.2912 152.564C87.9972 152.818 86.7156 152.942 85.4154 153.122L85.1987 153.153L85.1491 153.345L83.9232 158.019C83.496 159.573 83.1431 161.146 82.8521 162.731C82.2577 165.895 81.8181 169.09 81.49 172.291L81.428 172.873L81.9172 172.532C82.6168 172.049 83.2917 171.473 84.0656 171.232C84.4433 171.108 84.8396 171.071 85.1801 171.207C85.5206 171.331 85.7807 171.622 85.9293 171.981C86.2388 172.712 86.2264 173.603 86.2264 174.458C86.2141 175.318 86.1274 176.173 85.9664 177.021C85.6506 178.711 85.0501 180.352 84.1895 181.838C83.7622 182.581 83.2669 183.293 82.7159 183.949C82.1586 184.593 81.5085 185.169 80.7965 185.627L80.7098 185.683V185.782L80.7346 197.954C80.716 199.985 80.7841 202.01 80.846 204.04C80.8956 206.071 80.9823 208.096 81.1309 210.121C81.428 214.17 81.9357 218.207 82.8149 222.169C83.7127 226.126 85.0067 230.001 86.8332 233.623L86.8766 233.667Z" fill="#FFEFBC"/>
</g>
</g>
</g>
</g>
<defs>
<linearGradient id="paint0_linear_1_3" x1="107.036" y1="81.6534" x2="82.0473" y2="89.6775" gradientUnits="userSpaceOnUse">
<stop stop-color="#C4BFAA"/>
<stop offset="0.5" stop-color="#636156"/>
<stop offset="1"/>
</linearGradient>
<linearGradient id="paint1_linear_1_3" x1="135.306" y1="62.2368" x2="127.71" y2="62.1254" gradientUnits="userSpaceOnUse">
<stop offset="0.04" stop-color="#FFEFBC"/>
<stop offset="0.18" stop-color="#FDEABA"/>
<stop offset="0.32" stop-color="#F9DEB4"/>
<stop offset="0.47" stop-color="#F3CAAA"/>
<stop offset="0.61" stop-color="#EAAE9D"/>
<stop offset="0.64" stop-color="#E8A699"/>
<stop offset="0.72" stop-color="#E49A91"/>
<stop offset="0.89" stop-color="#DC8482"/>
<stop offset="1" stop-color="#DA7D7D"/>
</linearGradient>
<linearGradient id="paint2_linear_1_3" x1="129.041" y1="58.9801" x2="123.184" y2="58.8687" gradientUnits="userSpaceOnUse">
<stop offset="0.04" stop-color="#FFEFBC"/>
<stop offset="0.18" stop-color="#FDEABA"/>
<stop offset="0.32" stop-color="#F9DEB4"/>
<stop offset="0.47" stop-color="#F3CAAA"/>
<stop offset="0.61" stop-color="#EAAE9D"/>
<stop offset="0.64" stop-color="#E8A699"/>
<stop offset="0.72" stop-color="#E49A91"/>
<stop offset="0.89" stop-color="#DC8482"/>
<stop offset="1" stop-color="#DA7D7D"/>
</linearGradient>
<linearGradient id="paint3_linear_1_3" x1="126.917" y1="57.488" x2="120.441" y2="57.9957" gradientUnits="userSpaceOnUse">
<stop offset="0.04" stop-color="#FFEFBC"/>
<stop offset="0.18" stop-color="#FDEABA"/>
<stop offset="0.32" stop-color="#F9DEB4"/>
<stop offset="0.47" stop-color="#F3CAAA"/>
<stop offset="0.61" stop-color="#EAAE9D"/>
<stop offset="0.64" stop-color="#E8A699"/>
<stop offset="0.72" stop-color="#E49A91"/>
<stop offset="0.89" stop-color="#DC8482"/>
<stop offset="1" stop-color="#DA7D7D"/>
</linearGradient>
<linearGradient id="paint4_linear_1_3" x1="121.493" y1="55.8163" x2="112.937" y2="60.206" gradientUnits="userSpaceOnUse">
<stop offset="0.04" stop-color="#FFEFBC"/>
<stop offset="0.18" stop-color="#FDEABA"/>
<stop offset="0.32" stop-color="#F9DEB4"/>
<stop offset="0.47" stop-color="#F3CAAA"/>
<stop offset="0.61" stop-color="#EAAE9D"/>
<stop offset="0.64" stop-color="#E8A699"/>
<stop offset="0.72" stop-color="#E49A91"/>
<stop offset="0.89" stop-color="#DC8482"/>
<stop offset="1" stop-color="#DA7D7D"/>
</linearGradient>
<linearGradient id="paint5_linear_1_3" x1="114.138" y1="64.4782" x2="108.565" y2="72.1928" gradientUnits="userSpaceOnUse">
<stop offset="0.04" stop-color="#FFEFBC"/>
<stop offset="0.18" stop-color="#FDEABA"/>
<stop offset="0.32" stop-color="#F9DEB4"/>
<stop offset="0.47" stop-color="#F3CAAA"/>
<stop offset="0.61" stop-color="#EAAE9D"/>
<stop offset="0.64" stop-color="#E8A699"/>
<stop offset="0.72" stop-color="#E49A91"/>
<stop offset="0.89" stop-color="#DC8482"/>
<stop offset="1" stop-color="#DA7D7D"/>
</linearGradient>
<radialGradient id="paint6_radial_1_3" cx="0" cy="0" r="1" gradientUnits="userSpaceOnUse" gradientTransform="translate(138.978 64.9735) scale(28.0784 28.0784)">
<stop stop-color="#CC7877"/>
<stop offset="0.19" stop-color="#BF6B79"/>
<stop offset="0.53" stop-color="#9D4A7E"/>
<stop offset="1" stop-color="#671487"/>
</radialGradient>
<linearGradient id="paint7_linear_1_3" x1="115.723" y1="71.7346" x2="117.636" y2="107.311" gradientUnits="userSpaceOnUse">
<stop stop-color="#FF8759"/>
<stop offset="1" stop-color="#AB1535"/>
</linearGradient>
<linearGradient id="paint8_linear_1_3" x1="116.354" y1="82.5573" x2="106.646" y2="100.835" gradientUnits="userSpaceOnUse">
<stop stop-color="#C4BFAA"/>
<stop offset="0.5" stop-color="#636156"/>
<stop offset="1"/>
</linearGradient>
<linearGradient id="paint9_linear_1_3" x1="100.597" y1="80.5141" x2="90.8083" y2="89.7456" gradientUnits="userSpaceOnUse">
<stop offset="0.04" stop-color="#FFEFBC"/>
<stop offset="0.18" stop-color="#FDEABA"/>
<stop offset="0.32" stop-color="#F9DEB4"/>
<stop offset="0.47" stop-color="#F3CAAA"/>
<stop offset="0.61" stop-color="#EAAE9D"/>
<stop offset="0.64" stop-color="#E8A699"/>
<stop offset="0.72" stop-color="#E49A91"/>
<stop offset="0.89" stop-color="#DC8482"/>
<stop offset="1" stop-color="#DA7D7D"/>
</linearGradient>
<linearGradient id="paint10_linear_1_3" x1="40.3724" y1="161.14" x2="55.913" y2="166.099" gradientUnits="userSpaceOnUse">
<stop stop-color="#CC7877"/>
<stop offset="0.19" stop-color="#BF6B79"/>
<stop offset="0.53" stop-color="#9D4A7E"/>
<stop offset="1" stop-color="#671487"/>
</linearGradient>
<linearGradient id="paint11_linear_1_3" x1="87.5082" y1="172.712" x2="65.6646" y2="173.609" gradientUnits="userSpaceOnUse">
<stop stop-color="#CC7877"/>
<stop offset="0.19" stop-color="#BF6B79"/>
<stop offset="0.53" stop-color="#9D4A7E"/>
<stop offset="1" stop-color="#671487"/>
</linearGradient>
<linearGradient id="paint12_linear_1_3" x1="35.704" y1="195.911" x2="54.2785" y2="200.078" gradientUnits="userSpaceOnUse">
<stop offset="0.04" stop-color="#FFEFBC"/>
<stop offset="0.18" stop-color="#FDEABA"/>
<stop offset="0.32" stop-color="#F9DEB4"/>
<stop offset="0.47" stop-color="#F3CAAA"/>
<stop offset="0.61" stop-color="#EAAE9D"/>
<stop offset="0.64" stop-color="#E8A699"/>
<stop offset="0.72" stop-color="#E49A91"/>
<stop offset="0.89" stop-color="#DC8482"/>
<stop offset="1" stop-color="#DA7D7D"/>
</linearGradient>
<linearGradient id="paint13_linear_1_3" x1="82.6665" y1="198.821" x2="61.052" y2="201.069" gradientUnits="userSpaceOnUse">
<stop offset="0.04" stop-color="#FFEFBC"/>
<stop offset="0.18" stop-color="#FDEABA"/>
<stop offset="0.32" stop-color="#F9DEB4"/>
<stop offset="0.47" stop-color="#F3CAAA"/>
<stop offset="0.61" stop-color="#EAAE9D"/>
<stop offset="0.64" stop-color="#E8A699"/>
<stop offset="0.72" stop-color="#E49A91"/>
<stop offset="0.89" stop-color="#DC8482"/>
<stop offset="1" stop-color="#DA7D7D"/>
</linearGradient>
<linearGradient id="paint14_linear_1_3" x1="24.0083" y1="218.12" x2="43.7096" y2="228.026" gradientUnits="userSpaceOnUse">
<stop stop-color="#FF8759"/>
<stop offset="1" stop-color="#AB1535"/>
</linearGradient>
<linearGradient id="paint15_linear_1_3" x1="86.5671" y1="219.117" x2="64.7297" y2="227.333" gradientUnits="userSpaceOnUse">
<stop stop-color="#FF8759"/>
<stop offset="1" stop-color="#AB1535"/>
</linearGradient>
<linearGradient id="paint16_linear_1_3" x1="84.3877" y1="64.3234" x2="84.2143" y2="74.7065" gradientUnits="userSpaceOnUse">
<stop stop-color="#FF8759"/>
<stop offset="1" stop-color="#AB1535"/>
</linearGradient>
<linearGradient id="paint17_linear_1_3" x1="54.5076" y1="64.4534" x2="55.1824" y2="86.1484" gradientUnits="userSpaceOnUse">
<stop stop-color="#FF8759"/>
<stop offset="1" stop-color="#AB1535"/>
</linearGradient>
<linearGradient id="paint18_linear_1_3" x1="93.8235" y1="79.3873" x2="51.0961" y2="74.9975" gradientUnits="userSpaceOnUse">
<stop offset="0.04" stop-color="#FFEFBC"/>
<stop offset="0.18" stop-color="#FDEABA"/>
<stop offset="0.32" stop-color="#F9DEB4"/>
<stop offset="0.47" stop-color="#F3CAAA"/>
<stop offset="0.61" stop-color="#EAAE9D"/>
<stop offset="0.64" stop-color="#E8A699"/>
<stop offset="0.72" stop-color="#E49A91"/>
<stop offset="0.89" stop-color="#DC8482"/>
<stop offset="1" stop-color="#DA7D7D"/>
</linearGradient>
<linearGradient id="paint19_linear_1_3" x1="91.0869" y1="109.119" x2="64.4883" y2="144.243" gradientUnits="userSpaceOnUse">
<stop stop-color="#FF8759"/>
<stop offset="1" stop-color="#AB1535"/>
</linearGradient>
<linearGradient id="paint20_linear_1_3" x1="91.6441" y1="115.056" x2="52.4644" y2="158.285" gradientUnits="userSpaceOnUse">
<stop offset="0.04" stop-color="#FFEFBC"/>
<stop offset="0.18" stop-color="#FDEABA"/>
<stop offset="0.32" stop-color="#F9DEB4"/>
<stop offset="0.47" stop-color="#F3CAAA"/>
<stop offset="0.61" stop-color="#EAAE9D"/>
<stop offset="0.64" stop-color="#E8A699"/>
<stop offset="0.72" stop-color="#E49A91"/>
<stop offset="0.89" stop-color="#DC8482"/>
<stop offset="1" stop-color="#DA7D7D"/>
</linearGradient>
<radialGradient id="paint21_radial_1_3" cx="0" cy="0" r="1" gradientUnits="userSpaceOnUse" gradientTransform="translate(93.0434 94.5812) scale(26.0104)">
<stop stop-color="#CC7877"/>
<stop offset="0.19" stop-color="#BF6B79"/>
<stop offset="0.53" stop-color="#9D4A7E"/>
<stop offset="1" stop-color="#671487"/>
</radialGradient>
<linearGradient id="paint22_linear_1_3" x1="29.2339" y1="-4.10494" x2="48.9352" y2="34.9572" gradientUnits="userSpaceOnUse">
<stop stop-color="#C4BFAA"/>
<stop offset="0.5" stop-color="#636156"/>
<stop offset="1"/>
</linearGradient>
<linearGradient id="paint23_linear_1_3" x1="71.2927" y1="-0.606764" x2="74.6671" y2="25.286" gradientUnits="userSpaceOnUse">
<stop stop-color="#FF8759"/>
<stop offset="1" stop-color="#AB1535"/>
</linearGradient>
<linearGradient id="paint24_linear_1_3" x1="37.6358" y1="3.84493" x2="43.1524" y2="44.7088" gradientUnits="userSpaceOnUse">
<stop stop-color="#FF8759"/>
<stop offset="1" stop-color="#AB1535"/>
</linearGradient>
<radialGradient id="paint25_radial_1_3" cx="0" cy="0" r="1" gradientUnits="userSpaceOnUse" gradientTransform="translate(87.4711 30.7222) scale(20.2276 20.2276)">
<stop stop-color="#22567D"/>
<stop offset="0.25" stop-color="#1F4E75"/>
<stop offset="0.63" stop-color="#1A3962"/>
<stop offset="1" stop-color="#131F49"/>
</radialGradient>
<radialGradient id="paint26_radial_1_3" cx="0" cy="0" r="1" gradientUnits="userSpaceOnUse" gradientTransform="translate(71.1751 34.1832) scale(16.9275 16.9275)">
<stop stop-color="#22567D"/>
<stop offset="0.25" stop-color="#1F4E75"/>
<stop offset="0.63" stop-color="#1A3962"/>
<stop offset="1" stop-color="#131F49"/>
</radialGradient>
<linearGradient id="paint27_linear_1_3" x1="49.4491" y1="58.4848" x2="54.941" y2="46.8324" gradientUnits="userSpaceOnUse">
<stop stop-color="#CC7877"/>
<stop offset="0.19" stop-color="#BF6B79"/>
<stop offset="0.53" stop-color="#9D4A7E"/>
<stop offset="1" stop-color="#671487"/>
</linearGradient>
<linearGradient id="paint28_linear_1_3" x1="69.039" y1="11.5595" x2="53.6717" y2="41.1115" gradientUnits="userSpaceOnUse">
<stop stop-color="#FF8759"/>
<stop offset="1" stop-color="#AB1535"/>
</linearGradient>
<radialGradient id="paint29_radial_1_3" cx="0" cy="0" r="1" gradientUnits="userSpaceOnUse" gradientTransform="translate(87.6382 21.1811) scale(56.4664 56.4664)">
<stop offset="0.04" stop-color="#FFEFBC"/>
<stop offset="0.18" stop-color="#FDEABA"/>
<stop offset="0.32" stop-color="#F9DEB4"/>
<stop offset="0.47" stop-color="#F3CAAA"/>
<stop offset="0.61" stop-color="#EAAE9D"/>
<stop offset="0.64" stop-color="#E8A699"/>
<stop offset="0.72" stop-color="#E49A91"/>
<stop offset="0.89" stop-color="#DC8482"/>
<stop offset="1" stop-color="#DA7D7D"/>
</radialGradient>
<linearGradient id="paint30_linear_1_3" x1="79.9484" y1="62.9179" x2="64.1911" y2="64.8311" gradientUnits="userSpaceOnUse">
<stop stop-color="#CC7877"/>
<stop offset="0.19" stop-color="#BF6B79"/>
<stop offset="0.53" stop-color="#9D4A7E"/>
<stop offset="1" stop-color="#671487"/>
</linearGradient>
<linearGradient id="paint31_linear_1_3" x1="71.7694" y1="10.9837" x2="67.2063" y2="49.1419" gradientUnits="userSpaceOnUse">
<stop stop-color="#C4BFAA"/>
<stop offset="0.5" stop-color="#636156"/>
<stop offset="1"/>
</linearGradient>
<linearGradient id="paint32_linear_1_3" x1="71.3794" y1="-4.38357" x2="74.7599" y2="25.93" gradientUnits="userSpaceOnUse">
<stop stop-color="#C4BFAA"/>
<stop offset="0.5" stop-color="#636156"/>
<stop offset="1"/>
</linearGradient>
<linearGradient id="paint33_linear_1_3" x1="87.7373" y1="76.7992" x2="82.1649" y2="63.8838" gradientUnits="userSpaceOnUse">
<stop stop-color="#C4BFAA"/>
<stop offset="0.5" stop-color="#636156"/>
<stop offset="1"/>
</linearGradient>
<linearGradient id="paint34_linear_1_3" x1="58.2348" y1="81.9258" x2="52.8297" y2="64.1129" gradientUnits="userSpaceOnUse">
<stop stop-color="#C4BFAA"/>
<stop offset="0.5" stop-color="#636156"/>
<stop offset="1"/>
</linearGradient>
<linearGradient id="paint35_linear_1_3" x1="87.3101" y1="92.9776" x2="76.3883" y2="115.719" gradientUnits="userSpaceOnUse">
<stop stop-color="#C4BFAA"/>
<stop offset="0.08" stop-color="#A9A492"/>
<stop offset="0.25" stop-color="#767366"/>
<stop offset="0.42" stop-color="#4B4941"/>
<stop offset="0.58" stop-color="#2A2925"/>
<stop offset="0.73" stop-color="#131210"/>
<stop offset="0.88" stop-color="#040404"/>
<stop offset="1"/>
</linearGradient>
<linearGradient id="paint36_linear_1_3" x1="88.2636" y1="107.93" x2="83.1989" y2="153.19" gradientUnits="userSpaceOnUse">
<stop stop-color="#C4BFAA"/>
<stop offset="0.5" stop-color="#636156"/>
<stop offset="1"/>
</linearGradient>
<linearGradient id="paint37_linear_1_3" x1="80.4128" y1="235.623" x2="77.6018" y2="163.684" gradientUnits="userSpaceOnUse">
<stop stop-color="#C4BFAA"/>
<stop offset="0.5" stop-color="#636156"/>
<stop offset="1"/>
</linearGradient>
<linearGradient id="paint38_linear_1_3" x1="88.9199" y1="167.796" x2="76.5369" y2="186.036" gradientUnits="userSpaceOnUse">
<stop stop-color="#FF8759"/>
<stop offset="1" stop-color="#AB1535"/>
</linearGradient>
<linearGradient id="paint39_linear_1_3" x1="88.0159" y1="165.889" x2="79.2364" y2="184.123" gradientUnits="userSpaceOnUse">
<stop stop-color="#C4BFAA"/>
<stop offset="0.5" stop-color="#636156"/>
<stop offset="1"/>
</linearGradient>
<linearGradient id="paint40_linear_1_3" x1="4.9385" y1="260.036" x2="59.2007" y2="159.839" gradientUnits="userSpaceOnUse">
<stop stop-color="#C4BFAA"/>
<stop offset="0.5" stop-color="#636156"/>
<stop offset="1"/>
</linearGradient>
<linearGradient id="paint41_linear_1_3" x1="43.7096" y1="160.391" x2="44.725" y2="182.259" gradientUnits="userSpaceOnUse">
<stop stop-color="#C4BFAA"/>
<stop offset="0.5" stop-color="#636156"/>
<stop offset="1"/>
</linearGradient>
<linearGradient id="paint42_linear_1_3" x1="43.8396" y1="162.706" x2="46.0871" y2="187.026" gradientUnits="userSpaceOnUse">
<stop stop-color="#FF8759"/>
<stop offset="1" stop-color="#AB1535"/>
</linearGradient>
<linearGradient id="paint43_linear_1_3" x1="23.4325" y1="123.025" x2="41.3321" y2="130.628" gradientUnits="userSpaceOnUse">
<stop stop-color="#FF8759"/>
<stop offset="1" stop-color="#AB1535"/>
</linearGradient>
<linearGradient id="paint44_linear_1_3" x1="5.73102" y1="145.413" x2="5.73102" y2="149.184" gradientUnits="userSpaceOnUse">
<stop offset="0.04" stop-color="#FFEFBC"/>
<stop offset="0.18" stop-color="#FDEABA"/>
<stop offset="0.32" stop-color="#F9DEB4"/>
<stop offset="0.47" stop-color="#F3CAAA"/>
<stop offset="0.61" stop-color="#EAAE9D"/>
<stop offset="0.64" stop-color="#E8A699"/>
<stop offset="0.72" stop-color="#E49A91"/>
<stop offset="0.89" stop-color="#DC8482"/>
<stop offset="1" stop-color="#DA7D7D"/>
</linearGradient>
<linearGradient id="paint45_linear_1_3" x1="3.04392" y1="148.98" x2="4.28221" y2="155.512" gradientUnits="userSpaceOnUse">
<stop offset="0.04" stop-color="#FFEFBC"/>
<stop offset="0.18" stop-color="#FDEABA"/>
<stop offset="0.32" stop-color="#F9DEB4"/>
<stop offset="0.47" stop-color="#F3CAAA"/>
<stop offset="0.61" stop-color="#EAAE9D"/>
<stop offset="0.64" stop-color="#E8A699"/>
<stop offset="0.72" stop-color="#E49A91"/>
<stop offset="0.89" stop-color="#DC8482"/>
<stop offset="1" stop-color="#DA7D7D"/>
</linearGradient>
<linearGradient id="paint46_linear_1_3" x1="4.22649" y1="156.515" x2="7.09315" y2="160.626" gradientUnits="userSpaceOnUse">
<stop offset="0.04" stop-color="#FFEFBC"/>
<stop offset="0.18" stop-color="#FDEABA"/>
<stop offset="0.32" stop-color="#F9DEB4"/>
<stop offset="0.47" stop-color="#F3CAAA"/>
<stop offset="0.61" stop-color="#EAAE9D"/>
<stop offset="0.64" stop-color="#E8A699"/>
<stop offset="0.72" stop-color="#E49A91"/>
<stop offset="0.89" stop-color="#DC8482"/>
<stop offset="1" stop-color="#DA7D7D"/>
</linearGradient>
<linearGradient id="paint47_linear_1_3" x1="15.2659" y1="159.4" x2="21.5998" y2="159.4" gradientUnits="userSpaceOnUse">
<stop offset="0.04" stop-color="#FFEFBC"/>
<stop offset="0.18" stop-color="#FDEABA"/>
<stop offset="0.32" stop-color="#F9DEB4"/>
<stop offset="0.47" stop-color="#F3CAAA"/>
<stop offset="0.61" stop-color="#EAAE9D"/>
<stop offset="0.64" stop-color="#E8A699"/>
<stop offset="0.72" stop-color="#E49A91"/>
<stop offset="0.89" stop-color="#DC8482"/>
<stop offset="1" stop-color="#DA7D7D"/>
</linearGradient>
<radialGradient id="paint48_radial_1_3" cx="0" cy="0" r="1" gradientUnits="userSpaceOnUse" gradientTransform="translate(-0.84435 142.937) scale(32.4806 32.4805)">
<stop stop-color="#CC7877"/>
<stop offset="0.19" stop-color="#BF6B79"/>
<stop offset="0.53" stop-color="#9D4A7E"/>
<stop offset="1" stop-color="#671487"/>
</radialGradient>
<linearGradient id="paint49_linear_1_3" x1="39.0041" y1="91.8508" x2="52.0062" y2="94.8908" gradientUnits="userSpaceOnUse">
<stop offset="0.04" stop-color="#FFEFBC"/>
<stop offset="0.18" stop-color="#FDEABA"/>
<stop offset="0.32" stop-color="#F9DEB4"/>
<stop offset="0.47" stop-color="#F3CAAA"/>
<stop offset="0.61" stop-color="#EAAE9D"/>
<stop offset="0.64" stop-color="#E8A699"/>
<stop offset="0.72" stop-color="#E49A91"/>
<stop offset="0.89" stop-color="#DC8482"/>
<stop offset="1" stop-color="#DA7D7D"/>
</linearGradient>
<linearGradient id="paint50_linear_1_3" x1="18.7208" y1="135.173" x2="53.2878" y2="78.4338" gradientUnits="userSpaceOnUse">
<stop stop-color="#C4BFAA"/>
<stop offset="0.5" stop-color="#636156"/>
<stop offset="1"/>
</linearGradient>
<clipPath id="clip0_1_3">
<rect width="133" height="235" fill="white"/>
</clipPath>
</defs>
</svg>
