<svg width="197" height="165" viewBox="0 0 197 165" fill="none" xmlns="http://www.w3.org/2000/svg">
<path d="M182.563 94.258C182.224 107.23 142.149 131.851 93.4501 130.584C44.7381 129.322 5.85905 102.646 6.19421 89.6827C6.53304 76.7103 46.2883 67.2201 94.9873 68.4873C143.69 69.7451 182.902 81.2856 182.563 94.258Z" fill="#9BAAAC"/>
<path d="M34.1084 114.803C28.1025 110.872 22.7305 105.826 19.0267 99.632C15.5286 93.7886 14.2613 87.2241 16.1078 80.5885C16.2504 80.0643 16.4245 79.5417 16.6023 79.0098C10.0589 82.1024 6.30139 85.7362 6.20719 89.6771C5.9992 97.7447 20.9821 111.124 44.0714 120.393C40.6583 118.69 37.3078 116.883 34.1121 114.793L34.1084 114.803Z" fill="#C2D3D5"/>
<g style="mix-blend-mode:multiply">
<g style="mix-blend-mode:multiply">
<path d="M146.15 74.1892C146.462 77.237 146.765 80.2811 146.325 83.3545C145.707 87.7229 144.47 92.1906 142.673 96.2225C139.762 102.749 134.703 108.019 128.999 112.197C123.009 116.583 116.368 120.196 109.493 122.985C102.401 125.861 94.9503 127.983 87.3408 128.902C84.5419 129.237 81.7277 129.448 78.9088 129.453C83.6319 130.071 88.4878 130.462 93.4464 130.593C142.145 131.86 182.225 107.23 182.56 94.2673C182.767 86.3929 168.38 79.0446 146.155 74.2022L146.15 74.1892Z" fill="#9BAAAC"/>
</g>
</g>
<path d="M182.585 92.7612C182.268 104.915 142.534 113.725 93.8314 112.467C45.1287 111.209 5.90841 100.343 6.22482 88.1896C6.53756 76.0455 46.279 67.2164 94.978 68.4836C143.677 69.7507 182.897 80.6171 182.585 92.7612Z" fill="#C2D3D5"/>
<path d="M182.585 92.7612C182.268 104.915 142.534 113.725 93.8314 112.467C45.1287 111.209 5.90841 100.343 6.22482 88.1896C6.53756 76.0455 46.279 67.2164 94.978 68.4836C143.677 69.7507 182.897 80.6171 182.585 92.7612Z" fill="#C2D3D5"/>
<g style="mix-blend-mode:multiply">
<g style="mix-blend-mode:multiply">
<path d="M165.303 87.9789C165.054 97.7291 133.155 104.806 94.0628 103.796C54.971 102.786 23.4851 94.0602 23.734 84.31C23.9829 74.5598 55.8826 67.4827 94.9744 68.4929C134.066 69.503 165.548 78.238 165.3 87.9882L165.303 87.9789Z" fill="#C2D3D5"/>
</g>
</g>
<g opacity="0.5">
<g style="mix-blend-mode:screen" opacity="0.5">
<g style="mix-blend-mode:screen">
<path d="M12.4222 90.4651C12.7108 79.1716 53.0812 71.0641 102.59 72.3499C130.082 73.058 154.611 76.531 170.934 81.3973C155.826 74.4626 127.514 69.3237 94.9817 68.4743C46.279 67.2164 6.54125 76.0362 6.22484 88.1896C5.97521 97.7782 30.3697 106.574 64.6107 110.474C33.6319 106.454 12.2115 98.7574 12.4185 90.4744L12.4222 90.4651Z" fill="#C2D3D5"/>
</g>
</g>
</g>
<path opacity="0.8" d="M96.9312 25.9151C66.1973 25.2491 40.7476 49.9151 40.0793 80.9814C40.0502 82.3891 40.0693 83.7836 40.1366 85.1649L40.1552 85.1723C40.1446 85.7164 40.3257 85.9385 40.2997 85.9497C42.3343 91.742 66.3601 96.4892 95.7143 96.7286C125.198 96.9656 149.324 92.5594 151.178 86.7761C151.207 86.4008 151.234 86.0349 151.254 85.656C151.305 84.9018 151.337 84.1403 151.356 83.3845C152.018 52.3052 127.656 26.5775 96.9312 25.9151Z" fill="#88C8E3"/>
<g style="mix-blend-mode:multiply" opacity="0.4">
<g style="mix-blend-mode:multiply">
<path d="M128.018 36.3324C129.827 40.3263 130.913 44.5183 131.155 48.8068C131.548 55.8969 131.061 66.4132 122.503 70.4412C118.606 72.2781 114.042 72.7548 109.588 72.8987C102.228 73.1315 94.7856 72.891 87.4289 72.5982C81.532 72.3658 75.5496 72.132 69.6829 71.5783C65.111 71.1489 60.0124 70.447 56.2991 68.0343C48.4198 62.9119 49.4813 53.8267 52.902 47.0709C53.285 46.319 53.6995 45.5689 54.1234 44.8224C45.6494 54.4637 40.3862 67.0825 40.0886 80.9851C40.0595 82.3928 40.0786 83.7873 40.1459 85.1686L40.1645 85.1759C40.1539 85.7201 40.335 85.9421 40.309 85.9534C42.3436 91.7457 66.3694 96.4929 95.7236 96.7323C125.208 96.9692 149.333 92.563 151.187 86.7797C151.217 86.4045 151.243 86.0386 151.264 85.6596C151.314 84.9055 151.346 84.144 151.365 83.3881C151.769 64.0441 142.492 46.7796 128.018 36.3324Z" fill="#88C8E3"/>
</g>
</g>
<path d="M148.212 86.3359C148.104 91.9166 123.98 95.9681 94.3269 95.3958C64.6741 94.8235 40.7216 89.8364 40.829 84.2557C40.9365 78.675 65.0649 74.6142 94.714 75.1958C124.367 75.7681 148.319 80.7553 148.212 86.3359Z" fill="#444A72"/>
<path d="M138.78 87.9222C138.694 92.5223 118.782 95.872 94.3176 95.3921C69.8536 94.9123 50.0905 90.8056 50.1799 86.1962C50.2693 81.5868 70.1782 78.2464 94.6421 78.7263C119.11 79.1968 138.869 83.3128 138.78 87.9222Z" fill="#212441"/>
<g opacity="0.6">
<path opacity="0.6" d="M58.1458 83.0955L63.259 86.7277C64.3097 86.218 65.3608 85.816 66.3826 85.4884C64.8696 84.3103 63.2783 83.0582 61.8174 81.9114C60.6155 82.2324 59.3842 82.6277 58.1458 83.0955Z" fill="#2B8CA8"/>
<path opacity="0.6" d="M72.4433 87.0757C73.8997 86.7908 74.8409 86.7216 74.8409 86.7216L72.3125 84.3576C71.5589 84.4148 70.6921 84.5133 69.7587 84.6715C70.7039 85.5178 71.6192 86.3309 72.4469 87.0664L72.4433 87.0757Z" fill="#E84B9B"/>
<path opacity="0.6" d="M65.6909 81.0329C64.4719 81.261 63.1676 81.5416 61.8174 81.9114C63.2783 83.0582 64.8733 84.301 66.3826 85.4884C67.562 85.1156 68.6973 84.8544 69.755 84.6808C68.396 83.4667 66.9829 82.199 65.6909 81.0329Z" fill="#E84B9B"/>
<path opacity="0.6" d="M66.3826 85.4884C67.4428 86.3157 68.4695 87.119 69.3937 87.828C70.5305 87.4814 71.5824 87.241 72.4433 87.0756C71.6249 86.3439 70.7002 85.5271 69.755 84.6808C68.703 84.8673 67.5583 85.1249 66.3826 85.4884Z" fill="#5AC6D0"/>
<path opacity="0.6" d="M65.6909 81.0329C66.628 80.8654 67.5094 80.7297 68.313 80.6277L66.5044 78.9458C65.6616 79.0108 64.7038 79.0948 63.6645 79.2219C64.2741 79.7745 64.9564 80.388 65.6872 81.0422L65.6909 81.0329Z" fill="#E84B9B"/>
<path opacity="0.6" d="M69.755 84.6808C70.6884 84.5226 71.5552 84.4241 72.3088 84.3669L68.313 80.6277C67.5094 80.7297 66.6279 80.8654 65.6909 81.0329C66.9829 82.199 68.396 83.4667 69.755 84.6808Z" fill="#5AC6D0"/>
<path opacity="0.6" d="M50.3408 83.0665C49.0698 83.7257 47.8494 84.5017 46.715 85.3869L50.8074 87.0031C51.8402 86.2391 52.9384 85.5546 54.0611 84.9444L50.3315 83.0628L50.3408 83.0665Z" fill="#F0BFD9"/>
<path opacity="0.6" d="M58.1458 83.0955L55.2492 81.0377C53.5858 81.5742 51.9249 82.2407 50.3408 83.0665L54.0704 84.948C55.408 84.2291 56.7813 83.6103 58.1458 83.0955Z" fill="#2B8CA8"/>
<path opacity="0.6" d="M61.8174 81.9114C60.9248 81.2041 60.0677 80.5431 59.3149 79.9447C57.9884 80.2272 56.6195 80.5897 55.2435 81.0247L58.1401 83.0825C59.3785 82.6148 60.6191 82.2231 61.8118 81.8985L61.8174 81.9114Z" fill="#E84B9B"/>
<path opacity="0.6" d="M50.8037 87.0124L58.4231 90.0431C59.1314 89.3659 59.879 88.7796 60.6362 88.2507L54.0611 84.9443C52.9384 85.5546 51.8402 86.2391 50.8037 87.0124Z" fill="#5AC6D0"/>
<path opacity="0.6" d="M54.0611 84.9444L60.6362 88.2507C61.4916 87.6639 62.3714 87.1513 63.2497 86.724L58.1364 83.0919C56.772 83.6066 55.393 84.2125 54.0611 84.9444Z" fill="#E84B9B"/>
<path opacity="0.6" d="M65.6909 81.0329C64.9694 80.3824 64.2778 79.7652 63.6681 79.2126C62.3225 79.38 60.8529 79.6167 59.3149 79.9447C60.0714 80.5338 60.9155 81.2004 61.8174 81.9114C63.1676 81.5416 64.4755 81.2517 65.6909 81.0329Z" fill="#F0BFD9"/>
<path opacity="0.6" d="M63.6681 79.2126C63.0734 78.6767 62.5514 78.2017 62.1226 77.8173C60.825 77.9177 59.1935 78.1013 57.3807 78.4174C57.8968 78.8256 58.562 79.3463 59.3149 79.9447C60.8529 79.6167 62.3226 79.38 63.6681 79.2126Z" fill="#E84B9B"/>
<path opacity="0.6" d="M58.4231 90.0431L62.1156 91.5014C62.7873 90.9711 63.4946 90.487 64.2243 90.0549L60.6362 88.2507C59.879 88.7796 59.1314 89.3659 58.4231 90.0431Z" fill="#EF905B"/>
<path opacity="0.6" d="M60.6362 88.2507L64.2243 90.0549C64.9374 89.6377 65.6545 89.265 66.381 88.9498L63.259 86.7277C62.377 87.1642 61.4916 87.6639 60.6455 88.2544L60.6362 88.2507Z" fill="#E84B9B"/>
<path opacity="0.6" d="M66.3826 85.4884C65.3608 85.816 64.3004 86.2143 63.259 86.7277L66.381 88.9498C67.4133 88.4866 68.4275 88.1238 69.3844 87.8244C68.4639 87.106 67.4428 86.3157 66.3733 85.4848L66.3826 85.4884Z" fill="#EF905B"/>
<path opacity="0.6" d="M55.2492 81.0376L52.9747 79.419C51.0811 79.9398 49.1342 80.6224 47.2551 81.5146L50.3408 83.0665C51.9286 82.2313 53.5895 81.5649 55.2492 81.0376Z" fill="#E84B9B"/>
<path opacity="0.6" d="M66.5081 78.9365L65.1638 77.6852C65.1638 77.6852 63.9957 77.6755 62.1189 77.8266C62.5477 78.211 63.0697 78.686 63.6645 79.2219C64.7038 79.0948 65.6653 79.0015 66.5044 78.9458L66.5081 78.9365Z" fill="#F0BFD9"/>
<path opacity="0.6" d="M59.3149 79.9447C58.5584 79.3556 57.8968 78.8256 57.3807 78.4174C55.9927 78.6649 54.503 78.9797 52.9691 79.4061L55.2436 81.0247C56.6232 80.5804 57.9884 80.2272 59.3149 79.9447Z" fill="#5AC6D0"/>
<path opacity="0.6" d="M50.3408 83.0665L47.2552 81.5146C45.8116 82.2024 44.4187 83.007 43.1192 83.956L46.7187 85.3775C47.8401 84.498 49.0661 83.735 50.3408 83.0665Z" fill="#2B8CA8"/>
</g>
<g opacity="0.5">
<path opacity="0.5" d="M130.242 84.1416L124.979 87.5572C123.961 87.0046 122.925 86.5523 121.909 86.1835C123.477 85.0718 125.115 83.891 126.628 82.811C127.814 83.1828 129.025 83.6288 130.238 84.1509L130.242 84.1416Z" fill="#2B8CA8"/>
<path opacity="0.5" d="M115.785 87.5064C114.35 87.1655 113.406 87.0508 113.406 87.0508L116.037 84.7997C116.795 84.8948 117.646 85.0267 118.579 85.2232C117.595 86.0278 116.644 86.8026 115.789 87.4972L115.785 87.5064Z" fill="#E84B9B"/>
<path opacity="0.5" d="M122.796 81.76C124 82.0315 125.293 82.3805 126.631 82.8017C125.119 83.8817 123.481 85.0625 121.913 86.1742C120.758 85.7503 119.622 85.4414 118.583 85.2139C119.985 84.0583 121.46 82.8559 122.8 81.7507L122.796 81.76Z" fill="#E84B9B"/>
<path opacity="0.5" d="M121.909 86.1835C120.815 86.9663 119.754 87.7193 118.803 88.3864C117.681 87.9865 116.651 87.7088 115.789 87.4971C116.644 86.8026 117.595 86.0278 118.579 85.2231C119.618 85.4507 120.754 85.7596 121.909 86.1835Z" fill="#5AC6D0"/>
<path opacity="0.5" d="M122.796 81.7601C121.87 81.545 120.989 81.3798 120.196 81.2385L122.066 79.6333C122.91 79.7299 123.859 79.8576 124.898 80.0313C124.261 80.554 123.555 81.1458 122.805 81.7637L122.796 81.7601Z" fill="#E84B9B"/>
<path opacity="0.5" d="M118.579 85.2232C117.655 85.0304 116.799 84.8855 116.037 84.7997L120.186 81.2348C120.98 81.3762 121.861 81.5413 122.787 81.7564C121.447 82.8616 119.982 84.0676 118.57 85.2195L118.579 85.2232Z" fill="#5AC6D0"/>
<path opacity="0.5" d="M138.053 84.4528C139.297 85.1697 140.487 85.9946 141.57 86.9276L137.415 88.3831C136.405 87.5649 135.34 86.8323 134.245 86.1742L138.053 84.4528Z" fill="#F0BFD9"/>
<path opacity="0.5" d="M130.242 84.1415L133.219 82.2103C134.862 82.8159 136.493 83.5571 138.044 84.4491L134.236 86.1705C132.932 85.387 131.585 84.715 130.238 84.1508L130.242 84.1415Z" fill="#2B8CA8"/>
<path opacity="0.5" d="M126.628 82.811C127.557 82.1459 128.431 81.5126 129.208 80.9595C130.523 81.3066 131.878 81.7129 133.225 82.2233L130.247 84.1545C129.034 83.6324 127.81 83.1921 126.637 82.8147L126.628 82.811Z" fill="#E84B9B"/>
<path opacity="0.5" d="M137.406 88.3794L129.661 91.0836C128.984 90.3753 128.261 89.7564 127.525 89.197L134.236 86.1705C135.33 86.8286 136.396 87.5612 137.406 88.3794Z" fill="#5AC6D0"/>
<path opacity="0.5" d="M134.239 86.1612L127.528 89.1877C126.701 88.5599 125.841 88.0159 124.979 87.5572L130.242 84.1416C131.585 84.7151 132.932 85.387 134.239 86.1612Z" fill="#E84B9B"/>
<path opacity="0.5" d="M122.796 81.76C123.545 81.1421 124.261 80.554 124.889 80.0276C126.219 80.2521 127.682 80.5502 129.203 80.9465C128.421 81.5089 127.551 82.1329 126.622 82.7981C125.287 82.3675 123.991 82.0278 122.787 81.7564L122.796 81.76Z" fill="#F0BFD9"/>
<path opacity="0.5" d="M124.889 80.0276C125.508 79.5198 126.052 79.0681 126.497 78.7059C127.786 78.8711 129.41 79.1147 131.209 79.5135C130.682 79.8965 129.993 80.3878 129.212 80.9502C127.691 80.5539 126.228 80.2557 124.898 80.0313L124.889 80.0276Z" fill="#E84B9B"/>
<path opacity="0.5" d="M129.665 91.0743L125.914 92.3776C125.267 91.8103 124.579 91.2915 123.87 90.8285L127.532 89.1784C128.268 89.7378 128.988 90.366 129.668 91.065L129.665 91.0743Z" fill="#EF905B"/>
<path opacity="0.5" d="M127.528 89.1877L123.866 90.8378C123.172 90.3915 122.468 89.9953 121.759 89.64L124.979 87.5572C125.846 88.0288 126.701 88.5599 127.528 89.1877Z" fill="#E84B9B"/>
<path opacity="0.5" d="M121.909 86.1835C122.925 86.5523 123.955 86.9916 124.979 87.5572L121.759 89.64C120.754 89.1356 119.744 88.7259 118.803 88.3864C119.754 87.7193 120.806 86.9627 121.909 86.1835Z" fill="#EF905B"/>
<path opacity="0.5" d="M133.229 82.214L135.573 80.6884C137.44 81.2968 139.361 82.0665 141.193 83.0371L138.044 84.4491C136.493 83.5571 134.862 82.8159 133.219 82.2103L133.229 82.214Z" fill="#E84B9B"/>
<path opacity="0.5" d="M122.066 79.6333L123.465 78.4331C123.465 78.4331 124.631 78.4745 126.497 78.7059C126.052 79.0681 125.508 79.5198 124.889 80.0276C123.859 79.8576 122.9 79.7262 122.057 79.6296L122.066 79.6333Z" fill="#F0BFD9"/>
<path opacity="0.5" d="M129.212 80.9502C129.993 80.3878 130.682 79.8964 131.209 79.5135C132.587 79.8101 134.067 80.2011 135.573 80.6884L133.229 82.214C131.878 81.7129 130.517 81.2936 129.212 80.9502Z" fill="#5AC6D0"/>
<path opacity="0.5" d="M138.053 84.4528L141.202 83.0408C142.606 83.7885 143.974 84.6516 145.221 85.6601L141.567 86.9369C140.474 86.0002 139.293 85.179 138.05 84.4621L138.053 84.4528Z" fill="#2B8CA8"/>
</g>
<path d="M73.6108 77.613C73.6012 77.964 73.3108 78.2364 72.9691 78.2304C72.6181 78.2208 72.342 77.9398 72.3517 77.5888C72.3613 77.2378 72.6516 76.9654 72.9933 76.9713C73.335 76.9772 73.6204 77.262 73.6108 77.613Z" fill="#EF905B"/>
<path d="M77.6169 77.3244C77.611 77.6661 77.3169 77.9478 76.9752 77.9418C76.6242 77.9322 76.3518 77.6419 76.3578 77.3002C76.3674 76.9491 76.6484 76.6731 76.9994 76.6827C77.3504 76.6923 77.6228 76.9827 77.6132 77.3337L77.6169 77.3244Z" fill="#EF905B"/>
<path d="M74.6841 79.3056C74.6745 79.6566 74.3841 79.929 74.0424 79.923C73.6914 79.9134 73.419 79.6231 73.425 79.2814C73.4346 78.9304 73.7249 78.658 74.0666 78.6639C74.4176 78.6735 74.69 78.9639 74.6841 79.3056Z" fill="#EF905B"/>
<path d="M75.7302 81.1487C75.7206 81.4997 75.4302 81.7721 75.0792 81.7625C74.7282 81.7529 74.4558 81.4625 74.4618 81.1208C74.4714 80.7698 74.7617 80.4974 75.1034 80.5034C75.4544 80.513 75.7268 80.8033 75.7209 81.145L75.7302 81.1487Z" fill="#EF905B"/>
<path d="M115.967 78.5253C115.957 78.8763 116.233 79.1574 116.584 79.167C116.935 79.1766 117.216 78.9005 117.226 78.5495C117.235 78.1985 116.959 77.9175 116.608 77.9079C116.257 77.8982 115.976 78.1743 115.967 78.5253Z" fill="#EF905B"/>
<path d="M111.98 78.0581C111.97 78.4091 112.242 78.6994 112.593 78.709C112.944 78.7187 113.225 78.4426 113.235 78.0916C113.241 77.7499 112.969 77.4595 112.618 77.4499C112.267 77.4403 111.986 77.7164 111.976 78.0674L111.98 78.0581Z" fill="#EF905B"/>
<path d="M114.832 80.1737C114.826 80.5154 115.098 80.8058 115.449 80.8154C115.8 80.825 116.081 80.5489 116.091 80.1979C116.101 79.8469 115.825 79.5658 115.474 79.5562C115.123 79.5466 114.841 79.8227 114.832 80.1737Z" fill="#EF905B"/>
<path d="M113.705 81.965C113.695 82.316 113.972 82.5971 114.323 82.6067C114.664 82.6126 114.955 82.3402 114.964 81.9892C114.974 81.6382 114.698 81.3572 114.347 81.3476C113.996 81.338 113.705 81.6103 113.696 81.9614L113.705 81.965Z" fill="#EF905B"/>
<path d="M88.2131 88.0355C87.9198 87.1993 87.65 86.2218 88.0288 85.3716C88.3065 84.7501 88.9809 84.4036 89.6022 84.2189C90.0528 84.0851 90.5431 84.096 90.9845 83.9585C91.3739 83.8435 91.7957 83.4833 91.9185 83.0909C91.7979 82.2799 91.168 81.3431 90.6732 80.7176C89.8961 80.5074 89.0699 80.5574 88.2983 80.7688C86.6884 81.1974 85.5932 82.5819 85.3498 84.6683C85.1922 85.993 85.4541 87.2899 85.8086 88.5158C86.0706 89.4042 88.3422 93.344 86.2351 93.4795C85.9808 93.4973 85.712 93.6062 85.5142 93.8076C85.4772 93.8468 85.4236 93.9009 85.3626 93.9736C85.3093 94.0815 85.2652 94.1931 85.2341 94.2991C85.1153 94.736 85.4575 94.4411 85.6076 94.3606C85.917 94.2033 86.2286 94.122 86.561 94.1243C86.8447 94.0321 87.1546 93.9824 87.5186 93.9864C88.0814 94.0044 88.7163 93.9756 89.1117 93.5189C89.3852 93.2076 89.5116 92.806 89.5339 92.3955C89.5762 91.4445 89.2493 90.5843 88.9261 89.7148C88.6841 89.1569 88.4199 88.601 88.2168 88.0262L88.2131 88.0355Z" fill="#8D5FA7"/>
<g style="mix-blend-mode:multiply">
<g style="mix-blend-mode:multiply">
<path d="M90.6732 80.7176C89.8961 80.5074 89.0699 80.5575 88.2983 80.7688C87.0389 81.0993 86.1052 82.0207 85.6376 83.3951C85.9324 82.8664 86.4882 82.1397 87.1237 82.2187C87.6866 82.2905 87.4356 83.0622 87.322 83.4044C87.1936 83.7838 87.0281 84.1485 86.9091 84.5315C86.744 85.0039 86.7185 85.5314 86.7355 86.0327C86.7923 87.5496 87.355 88.847 88.098 90.1511C88.5546 90.955 89.2023 92.1462 88.7143 93.0824C88.1269 94.2159 86.3863 93.6683 85.5873 94.3848L85.6132 94.3736C85.9226 94.2162 86.2343 94.135 86.5667 94.1373C86.8504 94.0451 87.1603 93.9954 87.5243 93.9994C88.087 94.0174 88.722 93.9886 89.1174 93.5319C89.3908 93.2206 89.5172 92.8189 89.5395 92.4084C89.5818 91.4575 89.2549 90.5973 88.9317 89.7278C88.6897 89.1699 88.4255 88.614 88.2224 88.0392C87.9291 87.203 87.6593 86.2255 88.0381 85.3752C88.3158 84.7538 88.9902 84.4073 89.6115 84.2226C90.0621 84.0888 90.5524 84.0996 90.9938 83.9622C91.3832 83.8472 91.805 83.4869 91.9278 83.0946C91.8072 82.2836 91.1773 81.3467 90.6825 80.7212L90.6732 80.7176Z" fill="#8D5FA7"/>
</g>
</g>
<g style="mix-blend-mode:screen">
<g style="mix-blend-mode:screen">
<path d="M87.0313 89.9664C86.2983 87.9566 85.3043 85.7363 86.0395 83.5753C86.0506 83.5474 86.0116 83.5643 86.0043 83.5829C85.3147 85.1383 85.5208 86.8217 86.0921 88.3697C86.3815 89.1614 86.7228 89.9306 87.0512 90.7053C87.2839 91.2596 87.8649 92.919 87.0904 93.3012C87.0385 93.3237 87.0297 93.4277 87.0982 93.3903C87.4745 93.2271 87.5362 92.9074 87.5475 92.5249C87.59 91.6277 87.3376 90.7969 87.022 89.9627L87.0313 89.9664Z" fill="#ED489A"/>
</g>
</g>
<path d="M93.2273 85.9839C93.2545 85.8334 93.291 85.6865 93.359 85.5414C93.565 85.0744 94.1176 84.4647 94.1039 83.9003C94.0881 83.2597 93.4674 83.1435 93.0777 83.2047C92.0273 83.3597 90.6809 84.5912 90.4197 86.0147C90.4199 86.0686 90.4108 86.1188 90.4148 86.1633C90.3964 87.4893 91.24 88.4568 91.9786 89.2001C92.4282 89.6679 92.8777 90.1358 93.1574 90.8161C93.302 91.185 93.4246 91.6097 93.3241 92.0001C93.2529 92.2622 93.07 92.4803 92.8944 92.6797C92.8002 92.7823 92.4969 93.0603 92.6851 93.2099C93.0801 93.5164 93.7633 93.0659 94.0327 92.6562C94.564 91.8554 94.7991 90.8516 94.685 89.8066C94.5266 88.4109 92.7605 87.5198 93.2476 85.9597L93.2273 85.9839Z" fill="#8D5FA7"/>
<g style="mix-blend-mode:multiply">
<g style="mix-blend-mode:multiply">
<path d="M94.6683 89.8215C94.51 88.4258 92.7438 87.5347 93.2309 85.9746C93.2581 85.8241 93.2946 85.6772 93.3627 85.5321C93.5686 85.0651 94.1212 84.4554 94.1076 83.891C94.0918 83.2504 93.4711 83.1342 93.0814 83.1954C92.031 83.3504 90.6845 84.5819 90.4233 86.0054C90.4236 86.0593 90.4145 86.1095 90.4184 86.154C90.4162 86.4864 90.4621 86.8056 90.5543 87.0893C90.548 86.9148 90.5733 86.742 90.6394 86.5746C90.779 86.2211 91.2084 85.8962 91.5826 86.1192C91.9847 86.3533 92.1261 86.8392 92.2616 87.2583C92.4838 87.9481 92.9037 88.4365 93.3315 89.014C94.1141 90.0542 94.5075 91.2632 93.7867 92.4623C93.5913 92.7937 93.3271 93.1087 92.9844 93.2958C93.3614 93.2942 93.8074 92.9543 94.014 92.6488C94.5454 91.848 94.7805 90.8442 94.6664 89.7992L94.6683 89.8215Z" fill="#8D5FA7"/>
</g>
</g>
<g style="mix-blend-mode:screen">
<g style="mix-blend-mode:screen">
<path d="M93.3719 90.5997C93.2275 90.2846 93.0256 89.9791 92.8127 89.7015C92.624 89.4442 92.4187 89.2018 92.2004 88.9651C91.6054 88.3753 90.9936 87.7466 90.7617 86.9454C90.7466 87.7459 91.5486 88.5464 92.0393 89.0735C92.6979 89.7744 93.448 90.5975 93.4077 91.5707C93.4936 91.2714 93.4643 90.9372 93.3682 90.609L93.3719 90.5997Z" fill="#ED489A"/>
</g>
</g>
<path d="M97.8232 83.4123C97.4009 83.6649 97.1056 84.0858 97.1582 84.6334C97.2395 85.4074 97.8156 85.936 98.1176 86.6143C98.6578 87.8598 98.1683 89.29 98.6603 90.5487C99.017 91.4422 99.6096 91.902 100.445 92.318C100.948 92.5703 101.415 92.83 101.74 93.3133C101.781 93.3725 101.828 93.4448 101.865 93.5133C101.983 93.6781 102.082 93.8355 102.126 93.9708L102.127 93.9931C102.144 94.032 102.165 94.0616 102.182 94.1006C102.36 94.4396 102.569 94.3718 102.691 94.1726C102.872 93.2229 102.472 92.5487 101.968 91.9734C101.929 91.9364 101.89 91.8995 101.856 91.8755C101.614 91.6723 101.377 91.482 101.161 91.2676C100.076 90.2046 100.206 88.5142 100.333 86.9407C100.405 86.0231 100.344 84.924 99.934 84.1385C99.4659 83.2547 98.5794 83.0766 97.8325 83.416L97.8232 83.4123Z" fill="#8D5FA7"/>
<g style="mix-blend-mode:multiply">
<g style="mix-blend-mode:multiply">
<path d="M101.981 91.9678C101.981 91.9678 101.903 91.8939 101.869 91.8699C101.627 91.6667 101.39 91.4764 101.174 91.262C100.089 90.1989 100.219 88.5085 100.345 86.9351C100.418 86.0175 100.357 84.9184 99.947 84.1328C99.4789 83.2491 98.5923 83.071 97.8454 83.4104C97.4231 83.6629 97.1279 84.0839 97.1804 84.6315C97.2349 85.2013 97.5692 85.6344 97.8572 86.1029C97.8609 86.0936 97.8646 86.0843 97.8682 86.075C98.0022 85.7086 98.2499 85.4624 98.6555 85.6333C99.7772 86.0871 99.2572 88.1933 99.3241 89.0584C99.395 89.968 99.751 90.6999 100.433 91.3135C100.911 91.7385 101.46 92.1168 101.876 92.6145C102.244 93.0715 102.613 93.6902 102.634 94.2899C102.667 94.26 102.691 94.2265 102.719 94.1836C102.9 93.2339 102.5 92.5598 101.996 91.9844L101.981 91.9678Z" fill="#8D5FA7"/>
</g>
</g>
<g style="mix-blend-mode:screen">
<g style="mix-blend-mode:screen">
<path d="M101.767 93.1089C101.446 92.6164 100.989 92.3287 100.476 92.0505C99.7217 91.6453 99.233 91.1404 98.9323 90.3228C98.4532 89.0585 99.0711 87.6575 98.2934 86.4687C98.2841 86.465 98.2451 86.4819 98.2471 86.5042C98.8507 87.807 98.2796 89.2802 98.8054 90.6168C99.3163 91.9367 100.966 92.0614 101.704 93.1593C101.725 93.1889 101.788 93.1385 101.767 93.1089Z" fill="#ED489A"/>
</g>
</g>
<path d="M107.032 93.9624C106.962 93.6767 106.89 93.3688 106.701 93.1654C106.142 92.568 105.516 92.1919 105.199 91.3892C104.767 90.3048 104.962 89.1563 105.193 88.0541C105.612 86.0691 105.725 83.415 104.102 81.9142C103.644 81.4965 103.046 81.1853 102.472 80.9798C101.986 80.8204 101.485 80.7836 101.017 80.9323C100.91 81.0405 100.809 81.1616 100.713 81.2958C100.448 81.9116 100.475 82.6858 100.994 83.1701C101.516 83.645 102.173 83.9151 102.735 84.3416C103.59 84.9804 103.821 86.0286 103.7 87.0449C103.564 88.2061 103.134 89.3482 103.162 90.5309C103.166 90.6832 103.17 90.8354 103.184 90.9914C103.447 92.0951 104.062 93.0692 105.228 93.519C105.814 93.7505 106.524 93.7511 106.896 94.4142C107.039 94.2985 107.088 94.146 107.022 93.9587L107.032 93.9624Z" fill="#8D5FA7"/>
<g style="mix-blend-mode:multiply">
<g style="mix-blend-mode:multiply">
<path d="M102.993 83.3359C103.417 83.1056 103.965 83.5155 104.191 83.8413C104.564 84.3652 104.742 85.0051 104.815 85.6362C104.935 86.6402 104.787 87.6678 104.563 88.6437C104.351 89.5601 104.057 90.6589 104.522 91.5519C105.115 92.6895 106.69 93.0317 107.025 94.2503C107.058 94.1666 107.067 94.0625 107.026 93.9494C106.956 93.6638 106.884 93.3558 106.696 93.1524C106.136 92.555 105.51 92.1789 105.193 91.3763C104.761 90.2918 104.957 89.1433 105.188 88.0412C105.606 86.0561 105.719 83.402 104.097 81.9012C103.638 81.4835 103.041 81.1723 102.466 80.9669C101.981 80.8074 101.479 80.7706 101.012 80.9194C100.905 81.0275 100.803 81.1487 100.707 81.2828C100.442 81.8986 100.47 82.6728 100.988 83.1571C101.501 83.6284 102.148 83.8948 102.696 84.3047C102.618 83.8761 102.648 83.5008 102.978 83.3193L102.993 83.3359Z" fill="#8D5FA7"/>
</g>
</g>
<g style="mix-blend-mode:screen">
<g style="mix-blend-mode:screen">
<path d="M105.261 93.3276C104.526 92.9836 104.048 92.3432 103.766 91.5868C103.398 90.6135 103.62 89.5614 103.853 88.5892C104.138 87.4329 104.42 85.6843 103.491 84.7153C103.472 84.708 103.443 84.7285 103.457 84.7452C104.504 86.3413 103.577 88.362 103.38 90.0583C103.216 91.4555 103.898 92.8322 105.196 93.4096C105.234 93.4243 105.307 93.346 105.261 93.3276Z" fill="#ED489A"/>
</g>
</g>
<path d="M111.605 70.513C111.073 66.9054 105.767 65.9388 102.887 65.6079C99.9481 65.2642 87.8893 65.77 84.8363 66.177C82.0989 66.5474 77.832 67.4964 78.0336 71.124C78.1422 73.0269 80.1353 74.8677 81.6619 75.7394C83.4863 76.7825 85.6552 77.1983 87.7228 77.3805C93.5131 77.8826 100.001 77.8969 105.613 76.2104C107.078 75.7676 108.507 75.117 109.753 74.222C111.114 73.2542 111.808 71.851 111.605 70.513Z" fill="#324CA0"/>
<g style="mix-blend-mode:multiply">
<g style="mix-blend-mode:multiply">
<path d="M111.605 70.513C111.073 66.9054 105.767 65.9388 102.887 65.6079C99.9481 65.2642 87.8893 65.77 84.8363 66.177C82.0989 66.5474 77.832 67.4964 78.0336 71.124C78.1422 73.0269 80.1353 74.8677 81.6619 75.7394C83.4863 76.7825 85.6552 77.1983 87.7228 77.3805C93.5131 77.8826 100.001 77.8969 105.613 76.2104C107.078 75.7676 108.507 75.117 109.753 74.222C111.114 73.2542 111.808 71.851 111.605 70.513ZM104.154 72.8816C101.972 74.6219 99.2181 75.4157 96.5145 75.8639C93.1521 76.4283 89.6566 76.7035 86.3085 75.8435C84.2375 75.3159 81.9394 74.6556 80.2952 73.2106C79.6241 72.623 78.9631 71.7922 78.9293 70.8434C78.8852 69.6755 79.442 68.7558 80.5188 68.2887C82.0016 67.6378 83.7163 67.3796 85.2954 67.1109C86.4495 66.9109 87.6169 66.7591 88.7772 66.6797C90.5293 66.4901 97.6448 66.3866 99.3815 66.4811C100.793 66.5548 102.178 66.9405 103.457 67.596C104.372 68.0544 105.455 68.8259 105.645 69.9225C105.857 71.1565 105.046 72.148 104.135 72.8743L104.154 72.8816Z" fill="#364DA1"/>
</g>
</g>
<g style="mix-blend-mode:screen">
<g style="mix-blend-mode:screen">
<path d="M89.2326 67.2144C88.8893 66.8315 82.8526 67.7697 81.1853 68.6701C80.7221 68.9173 80.2817 69.2702 79.9847 69.7227C79.662 70.2404 79.446 70.9507 79.8273 71.5098C79.9768 71.7301 80.2485 71.8589 80.4854 71.6945C80.7224 71.53 80.7469 71.1957 80.783 70.9411C80.8479 70.5045 81.047 70.1638 81.3856 69.8782C81.9795 69.3816 82.7567 69.1832 83.4761 68.9405C84.2827 68.6677 85.1025 68.4432 85.9318 68.2761C86.7389 68.1111 87.5577 68.0796 88.3667 67.9368C88.6673 67.8835 89.3483 67.7654 89.2776 67.3182C89.2737 67.2736 89.2568 67.2347 89.2233 67.2107L89.2326 67.2144Z" fill="#324CA0"/>
</g>
</g>
<g style="mix-blend-mode:screen">
<g style="mix-blend-mode:screen">
<path d="M90.671 67.0298C90.5275 66.9302 90.3271 66.9478 90.1919 67.0449C90.1493 67.0711 90.0994 67.1159 90.068 67.168C89.9978 67.237 89.9537 67.3487 89.9615 67.4378C89.9862 67.5658 90.1404 67.5837 90.2425 67.5702C90.3928 67.5436 90.5392 67.4724 90.6464 67.3642C90.737 67.271 90.7901 67.1092 90.6617 67.0262L90.671 67.0298Z" fill="#324CA0"/>
</g>
</g>
<path d="M108.836 81.1173C108.415 78.2631 104.222 77.4996 101.932 77.2293C99.6092 76.9571 90.0587 77.3461 87.6461 77.6835C85.4766 77.9771 82.1039 78.7309 82.2613 81.5993C82.344 83.1049 83.9213 84.5557 85.1314 85.2487C86.5779 86.078 88.2895 86.3992 89.9281 86.5517C94.511 86.9532 99.6474 86.9605 104.087 85.6282C105.246 85.2796 106.377 84.7584 107.362 84.0615C108.439 83.2935 108.987 82.1769 108.832 81.1266L108.836 81.1173Z" fill="#F0983E"/>
<g style="mix-blend-mode:multiply">
<g style="mix-blend-mode:multiply">
<path d="M108.836 81.1173C108.415 78.2631 104.222 77.4996 101.932 77.2293C99.6092 76.9571 90.0587 77.3461 87.6461 77.6835C85.4766 77.9771 82.1039 78.7309 82.2613 81.5993C82.344 83.1049 83.9213 84.5557 85.1314 85.2487C86.5779 86.078 88.2895 86.3992 89.9281 86.5517C94.511 86.9532 99.6474 86.9605 104.087 85.6282C105.246 85.2796 106.377 84.7584 107.362 84.0615C108.439 83.2935 108.987 82.1769 108.832 81.1266L108.836 81.1173ZM104.296 82.84C102.453 84.2946 100.133 84.9695 97.8446 85.3454C95.0036 85.8146 92.0484 86.0559 89.2282 85.3292C87.4789 84.8856 85.5359 84.3333 84.1453 83.1175C83.5768 82.6241 83.0259 81.9228 82.9964 81.1262C82.9643 80.1459 83.4307 79.3732 84.3389 78.9793C85.5937 78.4427 87.0375 78.2173 88.3735 77.9923C89.3514 77.8302 90.3276 77.6996 91.3133 77.6266C92.7945 77.4697 98.807 77.3822 100.269 77.4649C101.459 77.5266 102.629 77.8594 103.718 78.3969C104.488 78.7872 105.406 79.4294 105.568 80.3535C105.749 81.3926 105.058 82.2164 104.29 82.827L104.296 82.84Z" fill="#F0983E"/>
</g>
</g>
<g style="mix-blend-mode:screen">
<g style="mix-blend-mode:screen">
<path d="M91.0328 78.0104C90.764 77.7107 85.98 78.4447 84.6647 79.1617C84.296 79.3602 83.9388 79.6384 83.7138 79.9904C83.4538 80.4037 83.2872 80.9616 83.5863 81.4022C83.7003 81.5763 83.9162 81.683 84.1069 81.5541C84.2976 81.4251 84.315 81.1632 84.342 80.9588C84.3925 80.6132 84.5528 80.3432 84.8155 80.1137C85.2836 79.7179 85.9032 79.5648 86.4743 79.3711C87.1102 79.1492 87.7594 78.9755 88.4218 78.85C89.0656 78.7172 89.7099 78.6921 90.3463 78.5779C90.5894 78.5341 91.1294 78.4464 91.0665 78.0882C91.0589 78.053 91.0477 78.027 91.0271 77.9974L91.0328 78.0104Z" fill="#00BBC4"/>
</g>
</g>
<g style="mix-blend-mode:screen">
<g style="mix-blend-mode:screen">
<path d="M92.1742 77.8698C92.0643 77.7942 91.9084 77.8079 91.8028 77.8845C91.7732 77.905 91.727 77.9405 91.703 77.974C91.6457 78.0374 91.6126 78.1211 91.6185 78.188C91.6319 78.29 91.7675 78.3006 91.8473 78.2891C91.9717 78.2737 92.0828 78.2101 92.1697 78.1261C92.2437 78.0478 92.2784 77.9325 92.1778 77.8605L92.1742 77.8698Z" fill="#00BBC4"/>
</g>
</g>
<path d="M98.7699 59.9714C98.9464 59.9873 99.1243 59.9178 99.2705 59.7928C101.285 57.9326 102.317 55.2652 102.271 52.0862C102.235 49.728 101.618 47.9146 101.593 47.8405C101.473 47.4919 101.084 47.306 100.726 47.4227C100.378 47.5431 100.192 47.932 100.312 48.2806C100.342 48.3677 102.527 54.9504 98.3488 58.8052C98.0788 59.0533 98.0584 59.4861 98.3159 59.7598C98.4353 59.893 98.599 59.9684 98.7699 59.9714Z" fill="#F0983E"/>
<path d="M100.983 47.481C100.91 47.4739 100.83 47.4854 100.766 47.5135C100.465 47.6207 100.301 47.9538 100.409 48.2542C100.437 48.319 102.642 54.9852 98.4272 58.8791C98.1904 59.0974 98.1771 59.4577 98.3954 59.6945C98.6081 59.9182 98.9907 59.9296 99.2108 59.7262C101.205 57.8902 102.229 55.2414 102.173 52.0904C102.136 49.7322 101.531 47.9447 101.493 47.8762C101.42 47.6536 101.213 47.4967 100.979 47.4903L100.983 47.481Z" fill="#EA602E"/>
<path d="M98.7699 59.9714C98.9464 59.9873 99.1243 59.9178 99.2705 59.7928C101.285 57.9326 102.317 55.2652 102.271 52.0862C102.235 49.728 101.618 47.9146 101.593 47.8405C101.473 47.4919 101.084 47.306 100.726 47.4227C100.378 47.5431 100.192 47.932 100.312 48.2806C100.342 48.3677 102.527 54.9504 98.3488 58.8052C98.0788 59.0533 98.0584 59.4861 98.3159 59.7598C98.4353 59.893 98.599 59.9684 98.7699 59.9714Z" fill="#324CA0"/>
<g style="mix-blend-mode:multiply">
<g style="mix-blend-mode:multiply">
<path d="M100.771 50.3862C101.222 50.3601 101.673 50.2801 102.107 50.1613C101.911 48.8047 101.597 47.885 101.584 47.8368C101.464 47.4882 101.075 47.3023 100.717 47.419C100.368 47.5394 100.182 47.9283 100.303 48.2769C100.31 48.3121 100.594 49.1447 100.761 50.3825L100.771 50.3862Z" fill="#565759"/>
</g>
</g>
<g style="mix-blend-mode:multiply">
<g style="mix-blend-mode:multiply">
<path d="M100.514 55.2842C100.148 56.5374 99.4826 57.7585 98.3618 58.7996C98.0918 59.0477 98.0714 59.4805 98.3288 59.7542C98.4483 59.8874 98.612 59.9628 98.7829 59.9658C98.9593 59.9817 99.1373 59.9122 99.2835 59.7872C100.33 58.8244 101.098 57.6437 101.608 56.297C101.274 55.9178 100.929 55.5665 100.526 55.2786L100.514 55.2842Z" fill="#ED7E3B"/>
</g>
</g>
<path d="M97.2195 45.984C97.1159 47.7709 98.48 49.2988 100.263 49.4117C102.05 49.5153 103.578 48.1512 103.691 46.368C103.794 44.5811 102.434 43.0439 100.647 42.9403C98.8603 42.8367 97.3324 44.2008 97.2195 45.984Z" fill="#F0983E"/>
<path d="M100.262 49.4971C98.421 49.3937 97.025 47.8103 97.1247 45.9789C97.2281 44.1382 98.8152 42.7329 100.652 42.8456C102.489 42.9583 103.889 44.5324 103.789 46.3638C103.677 48.2009 102.099 49.6098 100.262 49.4971ZM100.642 43.035C98.909 42.9312 97.418 44.2562 97.3235 45.9929C97.2197 47.7259 98.5483 49.2075 100.281 49.3113C102.014 49.4152 103.505 48.0902 103.6 46.3535C103.7 44.6298 102.375 43.1389 100.642 43.035Z" fill="#EA602E"/>
<path d="M97.8715 46.048C97.7905 47.4783 98.8766 48.7028 100.307 48.7838C101.728 48.8612 102.952 47.7751 103.039 46.3578C103.12 44.9276 102.03 43.7124 100.613 43.6257C99.1828 43.5447 97.9582 44.6308 97.8808 46.0517L97.8715 46.048Z" fill="white"/>
<path d="M100.292 48.8749C98.8213 48.7885 97.6867 47.5233 97.7768 46.0429C97.8669 44.5625 99.1378 43.4409 100.613 43.518C102.093 43.6081 103.215 44.8789 103.128 46.35C103.042 47.8211 101.776 48.9557 100.292 48.8749ZM100.602 43.7074C99.2258 43.6262 98.0475 44.6768 97.97 46.0439C97.8887 47.4202 98.9393 48.5985 100.306 48.6761C101.673 48.7537 102.861 47.7068 102.942 46.3304C103.02 44.9633 101.973 43.7757 100.606 43.6981L100.602 43.7074Z" fill="#EA602E"/>
<path d="M101.93 46.307C101.885 47.1279 101.177 47.7513 100.356 47.7066C99.535 47.6619 98.9117 46.9534 98.9657 46.1361C99.0104 45.3151 99.7189 44.6918 100.536 44.7458C101.357 44.7905 101.98 45.499 101.926 46.3163L101.93 46.307Z" fill="#5D1C00"/>
<path d="M101.592 46.2379C101.558 46.8694 101.012 47.3527 100.38 47.3184C99.7488 47.284 99.2654 46.7383 99.2998 46.1068C99.3342 45.4752 99.8799 44.9919 100.511 45.0263C101.143 45.0607 101.626 45.6064 101.592 46.2379Z" fill="#833723"/>
<path d="M101.276 46.2207C101.245 46.6814 100.858 47.034 100.397 47.0026C99.9368 46.9712 99.5842 46.5846 99.6156 46.124C99.647 45.6633 100.034 45.3106 100.494 45.3421C100.955 45.3735 101.308 45.76 101.276 46.2207Z" fill="#2C0000"/>
<g style="mix-blend-mode:screen">
<g style="mix-blend-mode:screen">
<path d="M100.562 45.6055C100.547 45.8896 100.304 46.095 100.029 46.0832C99.7453 46.0677 99.54 45.8253 99.5518 45.5504C99.5672 45.2663 99.8096 45.0609 100.084 45.0727C100.359 45.0845 100.574 45.3306 100.562 45.6055Z" fill="white"/>
</g>
</g>
<g style="mix-blend-mode:multiply">
<g style="mix-blend-mode:multiply">
<path d="M97.8715 46.048C97.7905 47.4783 98.8766 48.7028 100.307 48.7838C101.728 48.8612 102.952 47.7751 103.039 46.3578C103.12 44.9276 102.03 43.7124 100.613 43.6257C99.1828 43.5447 97.9582 44.6308 97.8808 46.0517L97.8715 46.048ZM98.7177 45.049C99.0456 44.0281 100.38 43.8347 101.263 44.1298C102.054 44.3882 102.618 45.1917 102.568 46.0535C102.524 47.1437 101.091 47.5344 100.23 47.2912C99.3038 47.0223 98.3934 46.0606 98.7177 45.049Z" fill="#CBCCCE"/>
</g>
</g>
<path d="M105.589 54.0308C105.765 54.0468 105.943 53.9773 106.089 53.8522C108.103 51.992 109.135 49.3246 109.09 46.1457C109.054 43.7875 108.437 41.9741 108.412 41.8999C108.292 41.5513 107.903 41.3654 107.554 41.4858C107.206 41.6062 107.02 41.9951 107.14 42.3437C107.17 42.4308 109.359 49.0042 105.186 52.872C104.916 53.1201 104.896 53.5529 105.144 53.8229C105.263 53.9561 105.427 54.0315 105.598 54.0345L105.589 54.0308Z" fill="#F0983E"/>
<path d="M107.802 41.5404C107.729 41.5333 107.649 41.5448 107.584 41.573C107.284 41.6801 107.12 42.0132 107.227 42.3136C107.256 42.3785 109.461 49.0446 105.246 52.9386C105.009 53.1569 104.996 53.5172 105.214 53.7539C105.427 53.9777 105.81 53.989 106.03 53.7856C108.027 51.9404 109.048 49.3008 109.005 46.1442C108.965 43.7953 108.353 41.9948 108.325 41.93C108.252 41.7075 108.045 41.5505 107.811 41.5441L107.802 41.5404Z" fill="#EA602E"/>
<path d="M105.589 54.0308C105.765 54.0468 105.943 53.9773 106.089 53.8522C108.103 51.992 109.135 49.3246 109.09 46.1457C109.054 43.7875 108.437 41.9741 108.412 41.8999C108.292 41.5513 107.903 41.3654 107.554 41.4858C107.206 41.6062 107.02 41.9951 107.14 42.3437C107.17 42.4308 109.359 49.0042 105.186 52.872C104.916 53.1201 104.896 53.5529 105.144 53.8229C105.263 53.9561 105.427 54.0315 105.598 54.0345L105.589 54.0308Z" fill="#324CA0"/>
<g style="mix-blend-mode:multiply">
<g style="mix-blend-mode:multiply">
<path d="M107.589 44.4457C108.046 44.4325 108.492 44.3396 108.926 44.2207C108.73 42.8641 108.425 41.9481 108.403 41.8962C108.282 41.5476 107.894 41.3618 107.545 41.4822C107.196 41.6025 107.011 41.9914 107.131 42.34C107.142 42.366 107.423 43.2078 107.589 44.4457Z" fill="#565759"/>
</g>
</g>
<path d="M104.035 40.0528C103.931 41.8396 105.295 43.3675 107.078 43.4804C108.865 43.584 110.402 42.2236 110.506 40.4367C110.61 38.6499 109.245 37.122 107.459 37.0184C105.672 36.9148 104.148 38.2696 104.04 40.0658L104.035 40.0528Z" fill="#F0983E"/>
<path d="M107.077 43.5659C105.24 43.4532 103.84 41.879 103.944 40.0383C104.047 38.1976 105.63 36.8017 107.471 36.905C109.308 37.0177 110.708 38.5919 110.608 40.4233C110.505 42.264 108.918 43.6692 107.081 43.5566L107.077 43.5659ZM107.457 37.1038C105.724 36.9999 104.243 38.3286 104.139 40.0616C104.035 41.7946 105.36 43.2855 107.093 43.3894C108.826 43.4932 110.317 42.1683 110.421 40.4352C110.524 38.7022 109.199 37.2113 107.466 37.1075L107.457 37.1038Z" fill="#EA602E"/>
<path d="M104.69 40.1075C104.609 41.5377 105.695 42.7623 107.116 42.8396C108.547 42.9206 109.771 41.8345 109.848 40.4136C109.93 38.9834 108.84 37.7681 107.413 37.6778C105.987 37.5875 104.758 38.6829 104.681 40.1038L104.69 40.1075Z" fill="white"/>
<path d="M107.111 42.9343C105.631 42.8443 104.509 41.5734 104.586 40.0986C104.676 38.6182 105.947 37.4967 107.422 37.5738C108.893 37.6602 110.024 38.9347 109.938 40.4058C109.848 41.8862 108.577 43.0078 107.102 42.9307L107.111 42.9343ZM107.421 37.7669C106.054 37.6893 104.866 38.7363 104.789 40.1033C104.708 41.4797 105.758 42.658 107.125 42.7356C108.502 42.8169 109.68 41.7662 109.757 40.3992C109.839 39.0228 108.788 37.8445 107.421 37.7669Z" fill="#EA602E"/>
<path d="M108.736 40.3721C108.691 41.193 107.983 41.8164 107.166 41.7624C106.345 41.7177 105.721 41.0092 105.775 40.1919C105.82 39.3709 106.528 38.7476 107.346 38.8016C108.167 38.8463 108.79 39.5548 108.736 40.3721Z" fill="#5D1C00"/>
<path d="M108.407 40.3067C108.373 40.9382 107.827 41.4215 107.195 41.3871C106.564 41.3528 106.081 40.8071 106.115 40.1755C106.149 39.544 106.695 39.0607 107.327 39.0951C107.958 39.1294 108.441 39.6751 108.407 40.3067Z" fill="#833723"/>
<path d="M108.091 40.2895C108.06 40.7501 107.673 41.1028 107.213 41.0714C106.748 41.0493 106.399 40.6534 106.431 40.1927C106.462 39.7321 106.858 39.3831 107.309 39.4108C107.77 39.4422 108.123 39.8288 108.091 40.2895Z" fill="#2C0000"/>
<g style="mix-blend-mode:screen">
<g style="mix-blend-mode:screen">
<path d="M107.377 39.6742C107.366 39.9491 107.12 40.1637 106.835 40.1482C106.56 40.1364 106.346 39.8904 106.358 39.6155C106.369 39.3406 106.615 39.126 106.89 39.1378C107.165 39.1496 107.38 39.3956 107.368 39.6705L107.377 39.6742Z" fill="white"/>
</g>
</g>
<g style="mix-blend-mode:multiply">
<g style="mix-blend-mode:multiply">
<path d="M104.69 40.1075C104.609 41.5377 105.695 42.7623 107.116 42.8396C108.547 42.9206 109.771 41.8345 109.849 40.4136C109.93 38.9834 108.84 37.7681 107.413 37.6778C105.987 37.5875 104.758 38.6829 104.681 40.1038L104.69 40.1075ZM105.533 39.1177C105.861 38.0968 107.195 37.9034 108.078 38.1986C108.869 38.4569 109.433 39.2604 109.392 40.1259C109.34 41.2125 107.915 41.6068 107.054 41.3636C106.128 41.0947 105.218 40.133 105.538 39.1307L105.533 39.1177Z" fill="#CBCCCE"/>
</g>
</g>
<path d="M84.4739 55.9058C84.6465 55.8772 84.8132 55.7818 84.9202 55.6197C86.4348 53.3365 86.8142 50.4974 86.0189 47.4201C85.4277 45.1331 84.4012 43.5127 84.36 43.4535C84.1618 43.1386 83.7362 43.0458 83.4307 43.2477C83.1122 43.4552 83.023 43.8716 83.2249 44.1771C83.2809 44.253 86.9481 50.131 83.8083 54.8688C83.6016 55.1743 83.6833 55.5936 83.9981 55.8039C84.1508 55.9072 84.3236 55.9325 84.4962 55.9039L84.4739 55.9058Z" fill="#535CA9"/>
<path d="M83.6776 43.2485C83.6071 43.2636 83.533 43.2881 83.4737 43.3292C83.2015 43.5012 83.1251 43.8581 83.2971 44.1303C83.3382 44.1896 87.0485 50.1491 83.8717 54.9261C83.6927 55.1887 83.7648 55.5505 84.0275 55.7295C84.2844 55.8955 84.6555 55.827 84.8345 55.5644C86.3381 53.309 86.7065 50.4978 85.9132 47.4429C85.3276 45.1688 84.303 43.5707 84.2656 43.5022C84.1403 43.3022 83.8984 43.2066 83.6683 43.2448L83.6776 43.2485Z" fill="#535CA9"/>
<path d="M84.4739 55.9058C84.6465 55.8772 84.8132 55.7818 84.9202 55.6197C86.4348 53.3365 86.8142 50.4974 86.0189 47.4201C85.4277 45.1331 84.4012 43.5127 84.36 43.4535C84.1618 43.1386 83.7362 43.0458 83.4307 43.2477C83.1122 43.4552 83.023 43.8716 83.2249 44.1771C83.2809 44.253 86.9481 50.131 83.8083 54.8688C83.6016 55.1743 83.6833 55.5936 83.9981 55.8039C84.1508 55.9072 84.3236 55.9325 84.4962 55.9039L84.4739 55.9058Z" fill="#324CA0"/>
<g style="mix-blend-mode:multiply">
<g style="mix-blend-mode:multiply">
<path d="M84.1581 46.1154C84.5958 45.9872 85.011 45.8071 85.4093 45.5881C84.9023 44.3127 84.3862 43.4961 84.3507 43.4498C84.1525 43.135 83.7269 43.0421 83.4214 43.244C83.1029 43.4515 83.0137 43.8679 83.2156 44.1734C83.2361 44.203 83.7055 44.9475 84.1581 46.1154Z" fill="#565759"/>
</g>
</g>
<path d="M79.6678 42.6755C79.9837 44.4345 81.6713 45.6063 83.434 45.2811C85.193 44.9651 86.3648 43.2776 86.0488 41.5186C85.7329 39.7595 84.0454 38.5877 82.2827 38.913C80.5236 39.2289 79.3518 40.9165 79.6771 42.6792L79.6678 42.6755Z" fill="#F0983E"/>
<path d="M83.4474 45.3831C81.6402 45.7123 79.9005 44.5091 79.5713 42.7019C79.2422 40.8946 80.4453 39.155 82.2526 38.8258C84.0598 38.4967 85.7995 39.6998 86.1287 41.5071C86.4578 43.3143 85.2547 45.054 83.4381 45.3795L83.4474 45.3831ZM82.2961 39.015C80.5946 39.3214 79.4505 40.9662 79.7662 42.6713C80.0819 44.3765 81.7173 45.517 83.4225 45.2013C85.137 44.8892 86.2681 43.2501 85.9524 41.545C85.646 39.8435 84.0106 38.703 82.2998 39.0057L82.2961 39.015Z" fill="#EA602E"/>
<path d="M80.3155 42.5872C80.5649 43.9974 81.9171 44.9293 83.3217 44.6669C84.7226 44.4138 85.6638 43.0652 85.4014 41.6606C85.1483 40.2597 83.7997 39.3186 82.3951 39.581C80.9942 39.8341 80.0531 41.1826 80.3155 42.5872Z" fill="white"/>
<path d="M83.3388 44.7597C81.8897 45.026 80.489 44.0535 80.2264 42.595C79.9601 41.1459 80.9326 39.7452 82.3817 39.4789C83.8308 39.2126 85.2315 40.1851 85.4978 41.6342C85.7605 43.0927 84.7916 44.484 83.3332 44.7467L83.3388 44.7597ZM82.4159 39.6644C81.0725 39.908 80.1627 41.2044 80.4119 42.5608C80.6518 43.9135 81.9519 44.814 83.3046 44.5741C84.661 44.3249 85.5615 43.0248 85.3086 41.6778C85.0687 40.3251 83.7686 39.4246 82.4123 39.6737L82.4159 39.6644Z" fill="#EA602E"/>
<path d="M84.316 41.8771C84.4588 42.6861 83.9292 43.4553 83.1202 43.5982C82.3112 43.741 81.542 43.2114 81.3992 42.4024C81.2563 41.5933 81.7859 40.8241 82.595 40.6813C83.404 40.5385 84.1732 41.0681 84.316 41.8771Z" fill="#5D1C00"/>
<path d="M83.9763 41.8934C84.0848 42.5169 83.6789 43.1092 83.0517 43.2271C82.4283 43.3356 81.8267 42.926 81.7181 42.3025C81.6095 41.6791 82.0155 41.0868 82.6426 40.9689C83.2661 40.8603 83.8677 41.27 83.9763 41.8934Z" fill="#833723"/>
<path d="M83.6627 41.9524C83.7427 42.4033 83.4437 42.8335 82.9892 42.9228C82.5346 43.0121 82.108 42.7038 82.0187 42.2492C81.9388 41.7983 82.2377 41.3681 82.6886 41.2881C83.1395 41.2082 83.5791 41.5108 83.659 41.9617L83.6627 41.9524Z" fill="#2C0000"/>
<g style="mix-blend-mode:screen">
<g style="mix-blend-mode:screen">
<path d="M82.8308 41.527C82.8821 41.8054 82.7031 42.068 82.4248 42.1193C82.1465 42.1707 81.8839 41.9917 81.8325 41.7134C81.7812 41.4351 81.9695 41.1761 82.2385 41.1211C82.5168 41.0697 82.7757 41.258 82.8308 41.527Z" fill="white"/>
</g>
</g>
<g style="mix-blend-mode:multiply">
<g style="mix-blend-mode:multiply">
<path d="M80.3155 42.5872C80.5649 43.9974 81.9171 44.9293 83.3217 44.6669C84.7226 44.4138 85.6638 43.0652 85.4014 41.6606C85.1483 40.2597 83.7997 39.3186 82.3951 39.581C80.9942 39.8341 80.0531 41.1826 80.3155 42.5872ZM80.9046 41.4222C80.9817 40.3559 82.2348 39.8509 83.1617 39.9267C83.9847 39.9937 84.7284 40.6422 84.8918 41.4809C85.1026 42.5533 83.8059 43.2776 82.9088 43.2351C81.9485 43.1892 80.8349 42.4698 80.9046 41.4222Z" fill="#CBCCCE"/>
</g>
</g>
<path d="M93.2841 57.364C93.1059 57.3796 92.9255 57.3192 92.7838 57.1879C90.7461 55.351 89.6742 52.7021 89.6826 49.5229C89.6909 47.1608 90.2809 45.3403 90.3102 45.2658C90.4276 44.9144 90.8148 44.7233 91.157 44.8369C91.5085 44.9542 91.6996 45.3415 91.5823 45.693C91.5492 45.7767 89.4537 52.3892 93.6802 56.198C93.9579 56.4474 93.9821 56.8763 93.7326 57.1541C93.6144 57.2901 93.4457 57.3633 93.2805 57.3733L93.2841 57.364Z" fill="#535CA9"/>
<path d="M90.394 45.2989C90.3646 45.3733 89.7819 47.1753 89.7774 49.5281C89.767 52.685 90.8277 55.3079 92.8505 57.1282C93.0798 57.3371 93.4641 57.3168 93.6636 57.0838C93.8761 56.8452 93.8578 56.4832 93.6192 56.2707C89.35 52.4342 91.4692 45.7343 91.4949 45.6692C91.5939 45.3642 91.4309 45.0418 91.1296 44.9336C91.0645 44.9079 90.9827 44.8971 90.9029 44.9086C90.6709 44.9245 90.4691 45.0813 90.394 45.2989Z" fill="#535CA9"/>
<path d="M93.2841 57.364C93.1059 57.3796 92.9255 57.3192 92.7838 57.1879C90.7461 55.351 89.6742 52.7021 89.6826 49.5229C89.6909 47.1608 90.2809 45.3403 90.3102 45.2658C90.4276 44.9144 90.8148 44.7233 91.157 44.8369C91.5085 44.9542 91.6996 45.3415 91.5823 45.693C91.5492 45.7767 89.4537 52.3892 93.6802 56.198C93.9579 56.4474 93.9821 56.8763 93.7326 57.1541C93.6144 57.2901 93.4457 57.3633 93.2805 57.3733L93.2841 57.364Z" fill="#324CA0"/>
<g style="mix-blend-mode:multiply">
<g style="mix-blend-mode:multiply">
<path d="M91.157 47.8043C90.7019 47.7859 90.2596 47.708 89.8191 47.5985C89.9914 46.2366 90.2919 45.3124 90.3102 45.2658C90.4276 44.9144 90.8148 44.7233 91.157 44.8369C91.5085 44.9542 91.6996 45.3415 91.5823 45.693C91.5713 45.7209 91.3038 46.5614 91.144 47.81L91.157 47.8043Z" fill="#565759"/>
</g>
</g>
<g style="mix-blend-mode:multiply">
<g style="mix-blend-mode:multiply">
<path d="M91.4885 52.709C91.8709 53.946 92.5485 55.1705 93.6801 56.198C93.9579 56.4475 93.9821 56.8763 93.7326 57.1541C93.6143 57.2902 93.4457 57.3633 93.2805 57.3733C93.1023 57.389 92.9219 57.3285 92.7802 57.1973C91.7231 56.253 90.9381 55.0828 90.416 53.7369C90.7374 53.3585 91.0831 53.0005 91.4885 52.709Z" fill="#ED7E3B"/>
</g>
</g>
<path d="M94.6454 43.3547C94.7794 45.1386 93.4344 46.6932 91.6541 46.818C89.8701 46.9521 88.3192 45.5977 88.1944 43.8174C88.0603 42.0334 89.4054 40.4788 91.195 40.3577C92.979 40.2237 94.5336 41.5687 94.6547 43.3583L94.6454 43.3547Z" fill="#F0983E"/>
<path d="M88.0923 43.8308C87.9673 41.9967 89.3401 40.3993 91.1779 40.265C93.0157 40.1307 94.6094 41.5127 94.7437 43.3505C94.8781 45.1883 93.496 46.7821 91.6582 46.9164C89.8204 47.0507 88.2266 45.6686 88.0923 43.8308ZM88.2798 43.8189C88.4044 45.5453 89.9105 46.8497 91.6462 46.7289C93.3727 46.6044 94.6771 45.0982 94.5562 43.3625C94.4317 41.636 92.9256 40.3316 91.1991 40.4561C89.4727 40.5807 88.1683 42.0868 88.2928 43.8132L88.2798 43.8189Z" fill="#EA602E"/>
<path d="M93.992 43.4299C94.0948 44.8575 93.0269 46.0915 91.5994 46.1943C90.1718 46.2971 88.9378 45.2291 88.835 43.8016C88.7322 42.374 89.8001 41.14 91.2277 41.0372C92.6553 40.9344 93.8892 42.0024 93.992 43.4299Z" fill="white"/>
<path d="M88.7459 43.8094C88.6392 42.3373 89.7514 41.0456 91.2328 40.9425C92.705 40.8358 93.9967 41.9481 94.1034 43.4202C94.2101 44.8923 93.0979 46.184 91.6258 46.2907C90.1536 46.3974 88.8619 45.2852 88.7552 43.8131L88.7459 43.8094ZM88.9334 43.7974C89.0267 45.1675 90.2215 46.1984 91.5915 46.1052C92.9616 46.0119 93.9962 44.8078 93.8993 43.4471C93.806 42.077 92.6019 41.0424 91.2411 41.1393C89.8674 41.2419 88.8364 42.4367 88.9427 43.8011L88.9334 43.7974Z" fill="#EA602E"/>
<path d="M89.9434 43.7448C89.9971 44.5616 90.711 45.1768 91.5278 45.1231C92.3446 45.0694 92.9599 44.3555 92.9062 43.5387C92.8432 42.7182 92.1293 42.1029 91.3181 42.1696C90.5012 42.2233 89.886 42.9372 89.949 43.7577L89.9434 43.7448Z" fill="#5D1C00"/>
<path d="M90.2829 43.6746C90.3246 44.3039 90.8782 44.7806 91.5076 44.7388C92.1369 44.6971 92.6136 44.1435 92.5718 43.5141C92.5301 42.8848 91.9765 42.4081 91.3471 42.4499C90.7178 42.4916 90.2411 43.0452 90.2829 43.6746Z" fill="#833723"/>
<path d="M90.5947 43.6472C90.6301 44.102 91.0291 44.4531 91.4839 44.4177C91.9387 44.3823 92.2898 43.9833 92.2543 43.5285C92.2189 43.0737 91.82 42.7226 91.3652 42.7581C90.9104 42.7935 90.5593 43.1924 90.5947 43.6472Z" fill="#2C0000"/>
<g style="mix-blend-mode:screen">
<g style="mix-blend-mode:screen">
<path d="M91.3032 43.0239C91.323 43.3005 91.5616 43.513 91.8475 43.4969C92.1241 43.4771 92.3367 43.2385 92.3169 42.9619C92.2971 42.6853 92.0585 42.4728 91.7819 42.4925C91.5053 42.5123 91.2928 42.7509 91.3125 43.0276L91.3032 43.0239Z" fill="white"/>
</g>
</g>
<g style="mix-blend-mode:multiply">
<g style="mix-blend-mode:multiply">
<path d="M91.2314 41.0279C89.8038 41.1307 88.7359 42.3647 88.8387 43.7923C88.9415 45.2198 90.1848 46.2914 91.603 46.185C93.0306 46.0822 94.0985 44.8482 93.9957 43.4206C93.8929 41.9931 92.6589 40.9251 91.2314 41.0279ZM91.6429 44.6955C90.7862 44.9592 89.3528 44.5867 89.2923 43.4876C89.244 42.6299 89.7919 41.8141 90.5762 41.5433C91.457 41.2461 92.7966 41.4203 93.1372 42.4365C93.4665 43.4267 92.5702 44.4166 91.6466 44.6862L91.6429 44.6955Z" fill="#CBCCCE"/>
</g>
</g>
<path d="M114.957 57.3436C114.331 53.0753 108.049 51.9384 104.638 51.5374C101.168 51.1236 86.8994 51.7245 83.2878 52.2119C80.0494 52.6532 75.0033 53.7783 75.2449 58.0668C75.3698 60.3095 77.734 62.4904 79.5398 63.5261C81.6993 64.7553 84.2659 65.2529 86.7088 65.465C93.558 66.0627 101.237 66.0849 107.876 64.0838C109.599 63.56 111.3 62.7912 112.77 61.7374C114.371 60.5958 115.203 58.9246 114.966 57.3472L114.957 57.3436Z" fill="#F0983E"/>
<g style="mix-blend-mode:multiply">
<g style="mix-blend-mode:multiply">
<path d="M114.957 57.3436C114.331 53.0753 108.049 51.9384 104.638 51.5374C101.168 51.1236 86.8994 51.7245 83.2878 52.2119C80.0494 52.6532 75.0033 53.7783 75.2449 58.0668C75.3698 60.3095 77.734 62.4904 79.5398 63.5261C81.6993 64.7553 84.2659 65.2529 86.7088 65.465C93.558 66.0627 101.237 66.0849 107.876 64.0838C109.599 63.56 111.3 62.7912 112.77 61.7374C114.371 60.5958 115.203 58.9246 114.966 57.3472L114.957 57.3436ZM108.175 59.9228C105.422 62.1038 101.94 63.1051 98.5335 63.6733C94.286 64.3827 89.868 64.7344 85.6423 63.6461C83.0341 62.9816 80.1243 62.155 78.0533 60.3479C77.1977 59.6014 76.3705 58.5651 76.3338 57.3787C76.2809 55.9063 76.9834 54.7538 78.342 54.1722C80.2103 53.3618 82.3815 53.0367 84.3763 52.6955C85.8403 52.4459 87.301 52.2594 88.7731 52.1527C90.9837 51.9183 99.9727 51.7806 102.161 51.9029C103.942 51.9935 105.695 52.4816 107.316 53.3046C108.472 53.8901 109.845 54.8516 110.083 56.2358C110.35 57.7927 109.323 59.032 108.172 59.9321L108.175 59.9228Z" fill="#F0983E"/>
</g>
</g>
<g style="mix-blend-mode:screen">
<g style="mix-blend-mode:screen">
<path d="M88.3373 52.7116C87.9342 52.2622 80.7897 53.3649 78.8185 54.4357C78.2702 54.7352 77.7409 55.1497 77.4016 55.6823C77.0198 56.2949 76.7654 57.1298 77.2103 57.8001C77.386 58.063 77.7041 58.2102 77.9837 58.0196C78.2633 57.8289 78.2913 57.4314 78.3364 57.1267C78.4121 56.6082 78.6555 56.2098 79.0477 55.8701C79.7544 55.2784 80.669 55.0589 81.5181 54.76C82.4767 54.429 83.4505 54.1684 84.4302 53.9747C85.3875 53.783 86.3586 53.7472 87.3086 53.5741C87.6667 53.5112 88.472 53.3777 88.3899 52.8507C88.3803 52.7932 88.3542 52.7506 88.3243 52.7173L88.3373 52.7116Z" fill="#00BBC4"/>
</g>
</g>
<g style="mix-blend-mode:screen">
<g style="mix-blend-mode:screen">
<path d="M90.0373 52.4907C89.8697 52.3707 89.6339 52.3959 89.4692 52.5136C89.4229 52.5491 89.3637 52.5902 89.3194 52.6479C89.2417 52.7356 89.181 52.8621 89.2001 52.9771C89.2267 53.1274 89.4125 53.1471 89.5332 53.141C89.7151 53.116 89.8911 53.0243 90.0057 52.8975C90.1259 52.7837 90.1771 52.5996 90.0243 52.4963L90.0373 52.4907Z" fill="#00BBC4"/>
</g>
</g>
<g style="mix-blend-mode:multiply">
<g style="mix-blend-mode:multiply">
<path d="M109.562 58.589C109.161 58.0541 108.157 58.3352 107.656 58.4599C106.282 58.8095 104.989 59.4707 103.699 60.1225C99.9839 61.9883 95.8879 62.9403 91.7887 62.3212C85.666 61.4084 86.3134 59.9868 83.4904 59.8933C82.95 59.8734 82.2917 60.0972 82.2744 60.8215C82.2611 61.5904 83.0751 62.1699 83.5578 62.5541C85.0634 63.7508 86.9748 64.3014 88.789 64.7168C91.7297 65.3836 95.3967 65.2729 98.3456 64.8571C101.272 64.4432 103.778 63.734 106.472 62.3573C107.361 61.9022 108.427 61.0006 109.187 60.3009C109.677 59.8494 110.035 59.2165 109.558 58.5983L109.562 58.589Z" fill="#535CA9"/>
</g>
</g>
<path d="M109.021 59.1708C108.631 58.7157 107.664 58.9576 107.193 59.0618C105.872 59.3572 104.625 59.9291 103.398 60.4767C99.8338 62.0688 95.9006 62.8808 91.9652 62.3372C86.0769 61.5384 86.6974 60.3212 83.9821 60.2273C83.4603 60.2147 82.8297 60.3957 82.8176 61.0253C82.8037 61.6864 83.597 62.1825 84.0571 62.5147C85.4989 63.5465 87.3413 64.0268 89.0921 64.385C91.9136 64.9724 95.4469 64.8734 98.2717 64.5268C101.087 64.1766 103.495 63.5792 106.071 62.3925C106.922 62.0081 107.949 61.2311 108.678 60.6374C109.152 60.2547 109.485 59.7091 109.034 59.1651L109.021 59.1708Z" fill="#535CA9"/>
<path d="M98.186 63.192C96.6513 62.9945 95.1751 63.0028 93.6728 63.4309C92.7751 63.6892 91.4858 63.9864 90.6716 64.6325C93.1482 64.9225 95.9443 64.8118 98.2531 64.5195C99.4428 64.3657 100.562 64.1733 101.652 63.916C100.507 63.4957 99.2116 63.3176 98.1767 63.1884L98.186 63.192Z" fill="#2E3192"/>
<path d="M85.2564 62.01C85.9945 62.6455 86.6467 61.8925 87.0799 61.1497C86.1143 60.7361 85.6169 60.3891 84.5468 60.2675C84.6444 60.9189 84.7997 61.6146 85.2564 62.01Z" fill="white"/>
<path d="M105.625 61.0444C106.085 60.6135 106.303 59.9254 106.39 59.2714C105.581 59.5219 104.797 59.8466 104.028 60.1879C104.421 60.8269 104.978 61.6489 105.625 61.0444Z" fill="white"/>
<path d="M88.6396 62.4C89.0398 62.6118 89.3057 62.2653 89.54 61.917C88.9954 61.7987 88.5399 61.6725 88.1475 61.5498C88.229 61.9153 88.3716 62.2619 88.6359 62.4093L88.6396 62.4Z" fill="white"/>
<path d="M101.798 61.8875C102.027 61.634 102.159 61.2991 102.232 60.9516C101.698 61.16 101.158 61.3555 100.608 61.525C100.831 62.0217 101.323 62.4095 101.798 61.8875Z" fill="white"/>
<path d="M93.8799 59.3948C93.7264 59.1299 93.4165 59.1796 93.2038 59.3643C92.9837 59.5677 92.8145 59.9417 92.9828 60.2232C93.0296 60.2954 93.0874 60.3398 93.1525 60.3655C93.1972 60.4154 93.242 60.4654 93.3015 60.4781C93.5656 60.5716 93.832 60.3328 93.9424 60.1076C94.0565 59.8731 94.0015 59.6041 93.8742 59.3818L93.8799 59.3948Z" fill="#2E3192"/>
<path d="M96.1727 59.2789C96.0247 58.9732 95.6854 59.0972 95.4969 59.3023C95.3287 59.4832 95.2314 59.7566 95.2975 59.9977C95.3259 60.1164 95.3856 60.183 95.4563 60.2217C95.4881 60.2772 95.5366 60.3179 95.6147 60.338C95.8954 60.4166 96.1096 60.1464 96.1885 59.9195C96.262 59.7335 96.2608 59.4642 96.1727 59.2789Z" fill="#2E3192"/>
<g style="mix-blend-mode:multiply" opacity="0.4">
<g style="mix-blend-mode:multiply">
<path d="M96.9312 25.9151C66.1973 25.2491 40.7476 49.9151 40.0793 80.9814C40.0502 82.3891 40.0693 83.7836 40.1366 85.1649L40.1552 85.1723C40.1446 85.7164 40.3257 85.9385 40.2997 85.9497C42.3343 91.742 66.3601 96.4892 95.7143 96.7286C125.198 96.9656 149.324 92.5594 151.178 86.7761C151.207 86.4008 151.234 86.0349 151.254 85.656C151.305 84.9018 151.337 84.1403 151.356 83.3845C152.018 52.3052 127.656 26.5775 96.9312 25.9151ZM131.125 81.8778C124.514 89.4701 108.516 90.7211 96.4959 90.7476C82.9588 90.7771 67.7682 88.9494 56.8438 83.0437C51.9242 80.3911 47.7849 76.9608 46.6484 72.7059C45.8328 69.6529 46.2524 66.6576 47.2666 63.7359C48.1392 56.4899 52.7082 49.4673 58.123 43.8968C64.5877 37.2466 73.3548 32.6346 83.4826 30.4845C92.6048 28.5394 103.187 27.5795 111.971 31.1455C112.157 31.2189 112.34 31.3017 112.531 31.3881C112.987 31.5681 113.443 31.7481 113.875 31.9616C125.036 37.1867 130.112 46.8467 132.979 55.3224C135.801 63.6404 137.799 74.235 131.118 81.8964L131.125 81.8778Z" fill="#6EA1B7"/>
</g>
</g>
<g style="mix-blend-mode:color-dodge" opacity="0.9">
<g style="mix-blend-mode:color-dodge">
<path d="M49.9467 63.4289C49.1231 65.7593 48.4079 68.2507 47.8383 70.918C47.8383 70.918 50.1389 76.8261 55.9559 80.4459C55.9559 80.4459 56.1461 76.3709 57.4606 70.3745C54.79 68.1801 52.2748 65.8643 49.956 63.4326L49.9467 63.4289Z" fill="white"/>
</g>
</g>
<g style="mix-blend-mode:color-dodge" opacity="0.9">
<g style="mix-blend-mode:color-dodge">
<path d="M51.6677 59.0984C54.0173 60.9079 56.511 62.5702 59.0677 64.182C62.2693 53.5981 68.721 40.1477 81.6828 31.2574C81.6828 31.2574 61.6255 36.7433 51.6677 59.0984Z" fill="white"/>
</g>
</g>
<path d="M12.9672 88.1323C14.3211 88.1616 15.4632 88.5912 15.9095 89.176C16.0501 89.038 16.1311 88.8872 16.1304 88.7257C16.1403 88.02 14.732 87.4208 12.9733 87.382C11.2145 87.3433 9.77588 87.8825 9.76596 88.5882C9.76667 88.7498 9.8342 88.9055 9.96856 89.0553C10.4396 88.4887 11.6004 88.1085 12.9543 88.1379L12.9672 88.1323Z" fill="#6D6E71"/>
<path d="M12.9324 89.9356C14.2863 89.9649 15.4529 89.6516 15.9188 89.1797C15.4725 88.5949 14.3304 88.1653 12.9765 88.136C11.6227 88.1066 10.4619 88.4868 9.99083 89.0534C10.4424 89.5435 11.5915 89.9006 12.9361 89.9263L12.9324 89.9356Z" fill="#00874C"/>
<g style="mix-blend-mode:multiply">
<g style="mix-blend-mode:multiply">
<path d="M13.6372 89.7301C12.8145 89.7169 11.4701 89.7451 10.8265 89.0608C10.6642 88.9 10.6689 88.6976 10.748 88.5245C10.42 88.6745 10.1478 88.8465 9.97784 89.059C10.4294 89.5491 11.5785 89.9062 12.9231 89.9319C13.8183 89.9521 14.6236 89.8186 15.2057 89.5969C14.7044 89.614 14.1181 89.7372 13.6372 89.7301Z" fill="#00874C"/>
</g>
</g>
<path d="M11.522 88.8517C11.5205 88.9371 11.3871 89.0027 11.2385 88.9977C11.0806 88.9891 10.9577 88.9191 10.9592 88.8337C10.9607 88.7483 11.0848 88.679 11.2464 88.6783C11.4043 88.6869 11.5271 88.7569 11.5256 88.8424L11.522 88.8517Z" fill="#C2E1B7"/>
<path d="M12.1073 88.513C12.1002 88.5855 12.0057 88.6341 11.8757 88.6366C11.7494 88.6297 11.6544 88.5707 11.6579 88.5075C11.6613 88.4444 11.7595 88.3864 11.8858 88.3933C12.0028 88.3965 12.1107 88.4498 12.1073 88.513Z" fill="#C2E1B7"/>
<path d="M9.97785 89.059C9.97785 89.059 10.0542 89.1106 10.194 89.2196C10.2684 89.249 10.354 89.3043 10.462 89.3577C10.5736 89.4018 10.6945 89.4495 10.834 89.5046C10.9716 89.5374 11.1204 89.5962 11.2802 89.6271C11.4364 89.6673 11.6092 89.6925 11.7913 89.7214C11.9697 89.7596 12.1592 89.7699 12.345 89.7896C12.5308 89.8092 12.7239 89.8102 12.9133 89.8205C13.0972 89.8178 13.3089 89.8262 13.4964 89.8142C13.6839 89.8023 13.8677 89.7996 14.0496 89.7747C14.2278 89.759 14.4004 89.7304 14.5637 89.6982C14.7326 89.6788 14.8809 89.6299 15.0219 89.5996C15.1573 89.5563 15.2833 89.5093 15.3928 89.4773C15.4965 89.4322 15.591 89.3836 15.6689 89.3498C15.8133 89.2563 15.8985 89.2039 15.8985 89.2039C15.8985 89.2039 15.8282 89.273 15.7044 89.3961C15.6322 89.4428 15.5433 89.5045 15.4414 89.5718C15.334 89.6261 15.2099 89.6953 15.0708 89.7479C14.9225 89.7969 14.7798 89.8588 14.6128 89.9004C14.4422 89.9512 14.2753 89.9928 14.0841 90.0141C13.8985 90.0483 13.7074 90.0696 13.5106 90.0779C13.3101 90.0955 13.1206 90.0851 12.9145 90.0898C12.5133 90.0711 12.1158 90.0431 11.7496 89.963C11.5675 89.9341 11.3928 89.8866 11.2217 89.8298C11.0562 89.7859 10.9147 89.7085 10.7752 89.6534C10.6357 89.5983 10.5165 89.519 10.4086 89.4656C10.308 89.3936 10.226 89.329 10.1496 89.2773C10.0265 89.1535 9.96683 89.0869 9.96683 89.0869L9.97785 89.059Z" fill="white"/>
<path d="M94.1375 109.406C95.4913 109.435 96.6334 109.865 97.0797 110.449C97.2203 110.311 97.3013 110.161 97.3006 109.999C97.3198 109.297 95.9022 108.694 94.1528 108.659C92.394 108.62 90.9554 109.16 90.9455 109.865C90.9462 110.027 91.0137 110.182 91.1517 110.323C91.6228 109.756 92.7836 109.376 94.1375 109.406Z" fill="#6D6E71"/>
<path d="M94.1063 111.2C95.4602 111.229 96.6175 110.912 97.0927 110.444C96.6463 109.859 95.5043 109.429 94.1504 109.4C92.7966 109.371 91.6358 109.751 91.1647 110.317C91.6162 110.807 92.7617 111.174 94.1193 111.194L94.1063 111.2Z" fill="#00874C"/>
<g style="mix-blend-mode:multiply">
<g style="mix-blend-mode:multiply">
<path d="M94.8111 110.994C93.9884 110.981 92.644 111.009 92.0004 110.325C91.8418 110.155 91.8428 109.962 91.9256 109.779C91.5976 109.929 91.3346 110.105 91.1554 110.314C91.607 110.804 92.7525 111.17 94.11 111.19C95.0051 111.211 95.8105 111.077 96.3833 110.852C95.882 110.869 95.2957 110.992 94.8147 110.985L94.8111 110.994Z" fill="#00874C"/>
</g>
</g>
<path d="M92.6865 110.112C92.685 110.197 92.5516 110.263 92.3994 110.267C92.2415 110.259 92.1186 110.189 92.1201 110.103C92.1216 110.018 92.255 109.952 92.4036 109.957C92.5651 109.957 92.688 110.027 92.6865 110.112Z" fill="#C2E1B7"/>
<path d="M93.2775 109.786C93.274 109.849 93.1759 109.907 93.0459 109.91C92.9196 109.903 92.8209 109.853 92.8281 109.781C92.8315 109.718 92.9297 109.66 93.056 109.667C93.1823 109.673 93.2809 109.723 93.2738 109.796L93.2775 109.786Z" fill="#C2E1B7"/>
<path d="M91.1517 110.323C91.1517 110.323 91.2374 110.378 91.3679 110.484C91.4423 110.513 91.5372 110.572 91.6359 110.622C91.7475 110.666 91.8684 110.714 91.9986 110.765C92.1455 110.801 92.285 110.857 92.4448 110.887C92.6103 110.931 92.7831 110.957 92.9559 110.982C93.1343 111.02 93.3238 111.03 93.5096 111.05C93.6953 111.07 93.8885 111.071 94.0872 111.085C94.2711 111.082 94.4828 111.09 94.661 111.075C94.8485 111.063 95.0323 111.06 95.2142 111.035C95.3924 111.019 95.565 110.991 95.7246 110.968C95.8935 110.949 96.0418 110.9 96.1828 110.869C96.3275 110.83 96.4442 110.779 96.563 110.751C96.6704 110.696 96.7613 110.657 96.8391 110.623C96.9835 110.53 97.0687 110.477 97.0687 110.477C97.0687 110.477 96.9985 110.546 96.8653 110.666C96.7931 110.712 96.7042 110.774 96.6024 110.841C96.4949 110.896 96.3708 110.965 96.2317 111.018C96.0964 111.061 95.9407 111.128 95.7737 111.17C95.6031 111.221 95.4362 111.262 95.245 111.284C95.0594 111.318 94.8719 111.33 94.6715 111.348C94.471 111.365 94.2815 111.355 94.0754 111.359C93.6742 111.341 93.2804 111.303 92.9106 111.233C92.7285 111.204 92.5537 111.156 92.3826 111.099C92.2171 111.056 92.0757 110.978 91.9362 110.923C91.7966 110.868 91.6774 110.789 91.5695 110.735C91.4689 110.663 91.3869 110.599 91.3106 110.547C91.1875 110.423 91.1221 110.344 91.1221 110.344L91.1517 110.323Z" fill="white"/>
<path d="M176.153 91.651C177.507 91.6804 178.649 92.1099 179.095 92.6948C179.236 92.5567 179.317 92.406 179.316 92.2444C179.335 91.5424 177.918 90.9395 176.159 90.9008C174.4 90.862 172.961 91.4013 172.952 92.107C172.952 92.2685 173.02 92.4242 173.158 92.5647C173.629 91.9982 174.79 91.618 176.144 91.6473L176.153 91.651Z" fill="#6D6E71"/>
<path d="M176.112 93.4413C177.466 93.4707 178.624 93.1536 179.095 92.6948C178.649 92.1099 177.507 91.6804 176.153 91.651C174.799 91.6216 173.638 92.0018 173.167 92.5684C173.619 93.0585 174.768 93.4156 176.122 93.445L176.112 93.4413Z" fill="#00874C"/>
<g style="mix-blend-mode:multiply">
<g style="mix-blend-mode:multiply">
<path d="M176.813 93.2451C175.991 93.232 174.65 93.2508 173.999 92.5852C173.831 92.4114 173.842 92.2219 173.924 92.0396C173.596 92.1896 173.333 92.3653 173.154 92.574C173.606 93.0641 174.755 93.4212 176.109 93.4506C177.004 93.4708 177.809 93.3373 178.391 93.1156C177.89 93.1327 177.304 93.256 176.823 93.2488L176.813 93.2451Z" fill="#00874C"/>
</g>
</g>
<path d="M174.698 92.3667C174.697 92.4522 174.563 92.5177 174.411 92.5221C174.253 92.5135 174.13 92.4435 174.132 92.3581C174.133 92.2726 174.267 92.2071 174.428 92.2064C174.577 92.2113 174.709 92.285 174.708 92.3704L174.698 92.3667Z" fill="#C2E1B7"/>
<path d="M175.284 92.0281C175.28 92.0912 175.182 92.1492 175.056 92.1423C174.929 92.1355 174.831 92.0858 174.838 92.0133C174.832 91.9465 174.939 91.8922 175.066 91.899C175.192 91.9059 175.291 91.9556 175.284 92.0281Z" fill="#C2E1B7"/>
<path d="M173.158 92.5647C173.158 92.5647 173.243 92.6201 173.374 92.7253C173.448 92.7547 173.534 92.8101 173.642 92.8634C173.754 92.9075 173.874 92.9553 174.005 93.0067C174.152 93.0432 174.291 93.0983 174.46 93.1328C174.616 93.173 174.789 93.1982 174.971 93.2272C175.15 93.2654 175.339 93.2757 175.525 93.2953C175.711 93.3149 175.904 93.3159 176.103 93.3299C176.286 93.3273 176.498 93.3356 176.686 93.3237C176.873 93.3117 177.057 93.309 177.239 93.2841C177.417 93.2685 177.59 93.2399 177.753 93.2076C177.922 93.1883 178.07 93.1393 178.211 93.109C178.356 93.0694 178.473 93.0187 178.582 92.9867C178.689 92.9324 178.78 92.893 178.858 92.8592C179.003 92.7657 179.078 92.7097 179.078 92.7097C179.078 92.7097 179.008 92.7787 178.884 92.9018C178.812 92.9485 178.723 93.0102 178.621 93.0775C178.514 93.1318 178.39 93.2011 178.251 93.2537C178.112 93.3063 177.96 93.3645 177.793 93.4061C177.622 93.457 177.446 93.4949 177.264 93.5198C177.079 93.5541 176.887 93.5753 176.691 93.5836C176.49 93.6012 176.301 93.5909 176.094 93.5955C175.693 93.5768 175.296 93.5489 174.93 93.4687C174.748 93.4398 174.576 93.383 174.405 93.3262C174.24 93.2824 174.098 93.205 173.955 93.1592C173.816 93.1041 173.697 93.0248 173.589 92.9714C173.488 92.8994 173.406 92.8348 173.33 92.7831C173.207 92.6592 173.138 92.589 173.138 92.589L173.158 92.5647Z" fill="white"/>
</svg>
